<?xml version="1.0" encoding="UTF-8"?><svg id="Layer_1" xmlns="http://www.w3.org/2000/svg" viewBox="0 0 568.4 551.27"><defs><style>.cls-1{fill:none;stroke:#fff;stroke-miterlimit:10;}</style></defs><path class="cls-1" d="m.94,168.86l74.64-9s3.49,0,5.81-2.62c2.32-2.61,97.01-77.25,97.01-77.25,0,0,4.64-5.52,10.74-5.52s52.86,2.61,52.86,2.61c0,0,2.32,2.04,1.74,3.78s1.16,3.48-2.03,3.19-49.37-1.74-49.37-1.74c0,0-2.62-.58-7.26,2.32-4.65,2.91-94.69,76.68-94.69,76.68,0,0-5.8,4.94-19.16,6.68S2.1,177.28,2.1,177.28c0,0-2.61-3.19-1.16-8.42h0Z"/><polyline class="cls-1" points="215.52 304.5 209.55 309.04 207.05 83.17 221.1 83.45"/><line class="cls-1" x1="221.1" y1="83.45" x2="221.37" y2="107.68"/><polyline class="cls-1" points="215.52 304.5 213.94 107.68 221.37 107.68"/><polygon class="cls-1" points="215.52 304.5 213.94 107.68 223.85 108.23 223.76 307.82 215.52 304.5"/><path class="cls-1" d="m61.78,395.95l1.13-.47,10.94,5.85-20.75,6.7-12.45-6.13,3.02-1.41,3.4-22.26.66-4.36s.47-1.51,1.7-1.39c2.08.2,7.64,3.02,7.64,3.02,0,0,1.32-.28,1.04,2.55l-.28,2.83-4.24,22.35s.06,3.04-2.54,1.81-6.88-2.9-6.88-2.9c0,0-1.04-.98-.38-1.72"/><polyline class="cls-1" points="51.84 199.85 50.43 170.84 32.67 173.1 44.47 396.02"/><path class="cls-1" d="m52.34,405.34s1.08.6,3.57.44c2.5-.16,2.45-2.03,2.45-2.03,0,0,.24-1.53.61-3.85.61-3.95,1.59-10.17,2.35-15.01.57-3.66,1.02-6.52,1.1-7.02.26-1.54-1.29-1.68-1.29-1.68l-1.03-.12-2.3-.28-6-2.72"/><path class="cls-1" d="m44.47,396.02l3.05-21.06s.37-2.16,1.05-2.34c.68-.17,3.23.45,3.23.45l-9.28-174.28,9.32,1.06,8.28,176.06"/><polyline class="cls-1" points="61.31 384.72 61.32 384.89 62.36 401.15 59.05 399.91"/><path class="cls-1" d="m47.23,207.25s.02.58-.39.85c-.05.03-.17.11-.33.12h-.03c-.16,0-.74-.38-.74-.96,0-.53.33-.96.74-.96s.74.43.74.96h0Z"/><path class="cls-1" d="m46.63,207.95c0,1.71-.13,5.47-.73,8.75-.86,4.73-1.84,6.76-2.59,11.18-.27,1.61-.45,3.32-.45,8.61,0,8.57,0,12.85.64,17.48.67,4.89,1.69,12.29,5.85,20.37,2.23,4.34,5.66,9.45,8.16,13.17.85,1.26,2.96,2.4,3.15,4.56.22,2.45-1.77,4.66-3.53,6.17"/><path class="cls-1" d="m53.55,374.12c-2.32-5.26-5.45-8.47-7.45-9.13-3.51-1.15-8.41-.06-13.46,1.07-2.37.53-4,1.04-6.11.41-.36-.11-3.53-1.11-4.96-4.13-1.83-3.89,1.95-9.81,5.06-11.81,1.23-.8,3.23-.35,8.72-.53,5.14-.16,5.59.41,7.78-.46,2.46-.97,3.95-2.49,5.45-4.05,2.74-2.84,3.13-3.76,8.31-13.93,1.52-2.99,1.88-4.92,2.26-7.63.36-2.57.31-5.25-1.5-6.65"/><polyline class="cls-1" points="235.2 305.91 218.03 314.68 208.7 311.9 200.09 309.34 204.16 306.53 209.4 302.55 209.55 309.04 215.52 304.5 223.76 307.82 224.2 302.18 235.2 305.91"/><line class="cls-1" x1="556.03" y1="541.93" x2="553" y2="5.38"/><line class="cls-1" x1="539.5" y1="3.22" x2="542.34" y2="545.87"/><polyline class="cls-1" points="523.05 7.87 523.05 .59 566.74 7.58 567.9 538.52 525.82 550.61 523.05 7.87"/><polyline class="cls-1" points="525.75 537.37 512.3 530.35 497.97 532.65 494 10.5 508.91 12.96 539.5 3.22"/><line class="cls-1" x1="508.91" y1="12.96" x2="512.3" y2="530.35"/></svg>