<svg id="Layer_1" data-name="Layer 1" xmlns="http://www.w3.org/2000/svg" viewBox="0 0 209.91 621.68"><defs><style>.cls-1{fill:none;}.cls-1,.cls-2{stroke:#96889e;}.cls-2{fill:#f9f6fb;}</style></defs><polygon class="cls-1" points="0.54 11.03 23.12 0.74 94.31 617.69 70.3 621.12 0.54 11.03"/><polygon class="cls-1" points="143.77 101.94 40.56 92.22 50.57 185.71 155.2 191.14 143.77 101.94"/><polyline class="cls-1" points="23.12 0.74 30.27 2.74 38.56 83.36 142.05 93.94 134.91 18.75 112.32 25.9 121.21 90.92"/><polygon class="cls-1" points="51.76 193.14 155.27 198.49 166.67 288.98 62.69 289.91 51.76 193.14"/><polygon class="cls-1" points="63.85 298.06 74.78 393.66 178.53 388.78 167.13 298.06 63.85 298.06"/><polygon class="cls-1" points="75.48 402.97 87.81 501.83 191.09 489.97 179.93 397.62 75.48 402.97"/><polyline class="cls-1" points="42.7 100.21 123.66 109.08 143.77 101.94"/><line class="cls-2" x1="123.66" y1="109.08" x2="131.42" y2="189.67"/><polyline class="cls-1" points="53.05 202.98 134.38 207.41 155.27 198.49"/><line class="cls-1" x1="143.99" y1="288.37" x2="134.38" y2="207.41"/><polyline class="cls-1" points="155.45 389.67 145.84 303.16 167.13 298.06"/><line class="cls-1" x1="65.25" y1="304.27" x2="145.84" y2="303.16"/><line class="cls-2" x1="154.71" y1="399.28" x2="167.28" y2="492.81"/><polyline class="cls-1" points="168.39 501.68 180.96 604.08 203.07 601.43 190.4 498.57 88.51 510.2 102 615.12 94.31 617.69"/><polyline class="cls-1" points="203.07 601.43 209.37 598.86 139.02 20.2 134.91 18.75"/></svg>