<svg id="Layer_1" data-name="Layer 1" xmlns="http://www.w3.org/2000/svg" viewBox="0 0 126.32 600.05"><defs><style>.cls-1,.cls-2{fill:none;stroke:#96889e;}.cls-2{stroke-miterlimit:10;}</style></defs><path class="cls-1" d="M.56,39.08l3.3-5a.3.3,0,0,1,.19-.14L56.6,18.66a.32.32,0,0,0,.23-.29c.05-.61.31-2.27,1.67-2.66a7.8,7.8,0,0,1,3.36-.12l.84-.48s2.52-1.44,1.8-2.4c-.1-.12-.2-.27-.32-.44a2.57,2.57,0,0,1,1.15-3.86A196.33,196.33,0,0,1,85.61,1.32c10.4-2.84,22.21,2.6,22.54,2.75l0,0,9.22,5.5s11.88,7,7.44,8.64S96,29.39,91.61,28.67A25.86,25.86,0,0,1,83,25.16a.32.32,0,0,0-.3,0,3.08,3.08,0,0,1-1.89.29,4.78,4.78,0,0,1-1.9-1.4.32.32,0,0,0-.34-.09c-1.3.45-8.32,2.9-9.51,3.77s-2.38-.71-2.6-1a.24.24,0,0,0-.11-.09l-1.48-.85a.32.32,0,0,0-.27,0c-1.18.39-9.44,3.15-10.78,4.16-1.1.83-2.35-.33-2.87-.91a.32.32,0,0,0-.49,0c-.56.64-1.91,2.1-2.75,2.1-1.08,0-5.64-2-6.6-2s-3.06,2.48-3.6,3.1a.34.34,0,0,1-.3.1l-5.82-1a.35.35,0,0,0-.35.17c-.52.91-2.67,4.59-3.72,4.59s-2.25-1.19-2.83-1.75a.33.33,0,0,0-.51.07L21.67,38a.32.32,0,0,1-.32.15l-5.61-.77a.34.34,0,0,0-.37.24c-.18.68-.72,2.38-1.49,2.48S3.3,39.71.81,39.59A.32.32,0,0,1,.56,39.08Z"/><path class="cls-2" d="M.85,39.18l13.5,557.59s8.42,3.79,9.69,2.52a13,13,0,0,0,2.1-2.94,37.46,37.46,0,0,0,4.68-1.48c.69-.43,1.47-3.12,1.47-3.12s3.21.09,4.25,0S38.88,589,38.88,589s2.95-.52,4.51-.69,2.25-2.6,2.25-2.6,5.2.08,6.07.08S53.87,584,53.87,584s3.13.18,3.82.09,8.41-3.81,8.41-3.81a17.91,17.91,0,0,0,4.24.78c1.39-.09,6.24-2.69,6.24-2.69s4.6,2.86,7.8,2.86,8,.17,10.32-.61c0,0,19-6.18,20.34-11S125.79,17.19,125.79,17.19"/><line class="cls-2" x1="0.71" y1="38.49" x2="71.73" y2="17.21"/><line class="cls-2" x1="43.45" y1="29.33" x2="70.56" y2="21.61"/><path class="cls-2" d="M103.69,7.78a6.64,6.64,0,0,1,5.57.9c.68.52,1.44,1.09,1.35,1.71-.2,1.33-4.2,2.12-7.45,1.34-.85-.2-2.48-.59-2.61-1.43S102.3,8.21,103.69,7.78Z"/><line class="cls-2" x1="13.88" y1="40.06" x2="26.14" y2="596.35"/><line class="cls-2" x1="21.35" y1="38.11" x2="32.29" y2="591.75"/><line class="cls-2" x1="27.32" y1="35.98" x2="38.88" y2="588.98"/><line class="cls-2" x1="37.51" y1="32.13" x2="45.64" y2="585.69"/><line class="cls-2" x1="53.87" y1="583.95" x2="47.71" y2="31.06"/><line class="cls-2" x1="66.46" y1="26.68" x2="66.1" y2="580.23"/><line class="cls-2" x1="80.81" y1="25.43" x2="76.58" y2="578.32"/></svg>