<?xml version="1.0" encoding="UTF-8"?><svg id="Layer_1" xmlns="http://www.w3.org/2000/svg" viewBox="0 0 244.33 334.6"><defs><style>.cls-1{fill:none;stroke:#fff;stroke-miterlimit:10;}</style></defs><path class="cls-1" d="m.94,94.89l74.64-9s3.49,0,5.81-2.62c2.32-2.61,97.01-77.25,97.01-77.25,0,0,4.64-5.52,10.74-5.52s52.86,2.61,52.86,2.61c0,0,2.32,2.04,1.74,3.78s1.16,3.48-2.03,3.19-49.37-1.74-49.37-1.74c0,0-2.62-.58-7.26,2.32-4.65,2.91-94.69,76.68-94.69,76.68,0,0-5.8,4.94-19.16,6.68S2.1,103.31,2.1,103.31c0,0-2.61-3.19-1.16-8.42h0Z"/><polyline class="cls-1" points="215.52 230.53 209.55 235.07 207.05 9.2 221.1 9.48"/><line class="cls-1" x1="221.1" y1="9.48" x2="221.37" y2="33.71"/><polyline class="cls-1" points="215.52 230.53 213.94 33.71 221.37 33.71"/><polygon class="cls-1" points="215.52 230.53 213.94 33.71 223.85 34.26 223.76 233.85 215.52 230.53"/><path class="cls-1" d="m61.78,321.98l1.13-.47,10.94,5.85-20.75,6.7-12.45-6.13,3.02-1.41,3.4-22.26.66-4.36s.47-1.51,1.7-1.39c2.08.2,7.64,3.02,7.64,3.02,0,0,1.32-.28,1.04,2.55l-.28,2.83-4.24,22.35s.06,3.04-2.54,1.81-6.88-2.9-6.88-2.9c0,0-1.04-.98-.38-1.72"/><polyline class="cls-1" points="51.84 125.88 50.43 96.87 32.67 99.13 44.47 322.05"/><path class="cls-1" d="m52.34,331.37s1.08.6,3.57.44c2.5-.16,2.45-2.03,2.45-2.03,0,0,.24-1.53.61-3.85.61-3.95,1.59-10.17,2.35-15.01.57-3.66,1.02-6.52,1.1-7.02.26-1.54-1.29-1.68-1.29-1.68l-1.03-.12-2.3-.28-6-2.72"/><path class="cls-1" d="m44.47,322.05l3.05-21.06s.37-2.16,1.05-2.34c.68-.17,3.23.45,3.23.45l-9.28-174.28,9.32,1.06,8.28,176.06"/><polyline class="cls-1" points="61.31 310.75 61.32 310.92 62.36 327.18 59.05 325.94"/><path class="cls-1" d="m47.23,133.28s.02.58-.39.85c-.05.03-.17.11-.33.12h-.03c-.16,0-.74-.38-.74-.96,0-.53.33-.96.74-.96s.74.43.74.96h0Z"/><path class="cls-1" d="m46.63,133.98c0,1.71-.13,5.47-.73,8.75-.86,4.73-1.84,6.76-2.59,11.18-.27,1.61-.45,3.32-.45,8.61,0,8.57,0,12.85.64,17.48.67,4.89,1.69,12.29,5.85,20.37,2.23,4.34,5.66,9.45,8.16,13.17.85,1.26,2.96,2.4,3.15,4.56.22,2.45-1.77,4.66-3.53,6.17"/><path class="cls-1" d="m53.55,300.15c-2.32-5.26-5.45-8.47-7.45-9.13-3.51-1.15-8.41-.06-13.46,1.07-2.37.53-4,1.04-6.11.41-.36-.11-3.53-1.11-4.96-4.13-1.83-3.89,1.95-9.81,5.06-11.81,1.23-.8,3.23-.35,8.72-.53,5.14-.16,5.59.41,7.78-.46,2.46-.97,3.95-2.49,5.45-4.05,2.74-2.84,3.13-3.76,8.31-13.93,1.52-2.99,1.88-4.92,2.26-7.63.36-2.57.31-5.25-1.5-6.65"/><polyline class="cls-1" points="235.2 231.94 218.03 240.71 208.7 237.93 200.09 235.37 204.16 232.56 209.4 228.58 209.55 235.07 215.52 230.53 223.76 233.85 224.2 228.21 235.2 231.94"/></svg>