<?xml version="1.0" encoding="utf-8"?>
<!-- Generator: Adobe Illustrator 27.6.1, SVG Export Plug-In . SVG Version: 6.00 Build 0)  -->
<svg version="1.1" id="Layer_1" xmlns="http://www.w3.org/2000/svg" xmlns:xlink="http://www.w3.org/1999/xlink" x="0px" y="0px"
	 viewBox="0 0 244.3 334.6" style="enable-background:new 0 0 244.3 334.6;" xml:space="preserve">
<style type="text/css">
	.st0{fill:none;stroke:#FFFFFF;stroke-miterlimit:10;}
</style>
<path class="st0" d="M0.9,94.9l74.6-9c0,0,3.5,0,5.8-2.6c2.3-2.6,97-77.2,97-77.2s4.6-5.5,10.7-5.5S242,3.1,242,3.1s2.3,2,1.7,3.8
	s1.2,3.5-2,3.2s-49.4-1.7-49.4-1.7s-2.6-0.6-7.3,2.3c-4.6,2.9-94.7,76.7-94.7,76.7s-5.8,4.9-19.2,6.7s-69.1,9.3-69.1,9.3
	S-0.5,100.1,0.9,94.9C0.9,94.9,0.9,94.9,0.9,94.9z"/>
<polyline class="st0" points="215.5,230.5 209.6,235.1 207.1,9.2 221.1,9.5 "/>
<line class="st0" x1="221.1" y1="9.5" x2="221.4" y2="33.7"/>
<polyline class="st0" points="215.5,230.5 213.9,33.7 221.4,33.7 "/>
<polygon class="st0" points="215.5,230.5 213.9,33.7 223.9,34.3 223.8,233.9 "/>
<path class="st0" d="M61.8,322l1.1-0.5l10.9,5.9l-20.8,6.7l-12.5-6.1l3-1.4l3.4-22.3l0.7-4.4c0,0,0.5-1.5,1.7-1.4
	c2.1,0.2,7.6,3,7.6,3s1.3-0.3,1,2.5l-0.3,2.8l-4.2,22.4c0,0,0.1,3-2.5,1.8s-6.9-2.9-6.9-2.9s-1-1-0.4-1.7"/>
<polyline class="st0" points="51.8,125.9 50.4,96.9 32.7,99.1 44.5,322 "/>
<path class="st0" d="M52.3,331.4c0,0,1.1,0.6,3.6,0.4c2.5-0.2,2.5-2,2.5-2s0.2-1.5,0.6-3.9c0.6-4,1.6-10.2,2.3-15
	c0.6-3.7,1-6.5,1.1-7c0.3-1.5-1.3-1.7-1.3-1.7l-1-0.1l-2.3-0.3l-6-2.7"/>
<path class="st0" d="M44.5,322l3-21.1c0,0,0.4-2.2,1-2.3c0.7-0.2,3.2,0.5,3.2,0.5l-9.3-174.3l9.3,1.1l8.3,176.1"/>
<polyline class="st0" points="61.3,310.8 61.3,310.9 62.4,327.2 59,325.9 "/>
<path class="st0" d="M47.2,133.3c0,0,0,0.6-0.4,0.9c0,0-0.2,0.1-0.3,0.1h0c-0.2,0-0.7-0.4-0.7-1c0-0.5,0.3-1,0.7-1
	S47.2,132.8,47.2,133.3L47.2,133.3L47.2,133.3z"/>
<path class="st0" d="M46.6,134c0,1.7-0.1,5.5-0.7,8.8c-0.9,4.7-1.8,6.8-2.6,11.2c-0.3,1.6-0.5,3.3-0.5,8.6c0,8.6,0,12.9,0.6,17.5
	c0.7,4.9,1.7,12.3,5.8,20.4c2.2,4.3,5.7,9.4,8.2,13.2c0.8,1.3,3,2.4,3.2,4.6c0.2,2.4-1.8,4.7-3.5,6.2"/>
<path class="st0" d="M53.5,300.1c-2.3-5.3-5.5-8.5-7.5-9.1c-3.5-1.1-8.4-0.1-13.5,1.1c-2.4,0.5-4,1-6.1,0.4c-0.4-0.1-3.5-1.1-5-4.1
	c-1.8-3.9,2-9.8,5.1-11.8c1.2-0.8,3.2-0.4,8.7-0.5c5.1-0.2,5.6,0.4,7.8-0.5c2.5-1,4-2.5,5.5-4c2.7-2.8,3.1-3.8,8.3-13.9
	c1.5-3,1.9-4.9,2.3-7.6c0.4-2.6,0.3-5.2-1.5-6.6"/>
<polyline class="st0" points="235.2,231.9 218,240.7 208.7,237.9 200.1,235.4 204.2,232.6 209.4,228.6 209.6,235.1 215.5,230.5 
	223.8,233.9 224.2,228.2 235.2,231.9 "/>
</svg>
