<?xml version="1.0" encoding="utf-8"?>
<!-- Generator: Adobe Illustrator 27.3.1, SVG Export Plug-In . SVG Version: 6.00 Build 0)  -->
<svg version="1.1" id="Layer_1" xmlns="http://www.w3.org/2000/svg" xmlns:xlink="http://www.w3.org/1999/xlink" x="0px" y="0px"
	 viewBox="0 0 700.8 600" style="enable-background:new 0 0 700.8 600;" xml:space="preserve">
<style type="text/css">
	.st0{fill:#FFFFFF;}
</style>
<path class="st0" d="M562.1,0c0.8,0.2,1.5,0.5,2.3,0.7c4.9,1.2,8.2,4.3,9.8,9c0.6,1.7,1.1,3.5,1.2,5.4c0.5,6.9,0,13.7-2.6,20.3
	c-10.6,26.9-21.2,53.9-31.7,80.9c-0.4,1-0.9,1.9-0.9,2.9c0.4,0.8,1.2,1,1.9,1.4c2.7,1.3,5.2,2.8,7.6,4.5c5.1,3.6,9.4,7.9,12.8,13.1
	c2.7,4.2,4.7,8.8,5.5,13.7c0.4,2.6,0.8,5.2,0.5,7.9c-0.1,0.8,0,1.6,0.5,2.3c0.6,0.7,0.4,1.7,0.4,2.6c0,4.5,0,9,0,13.4
	c0,4.3-0.1,3.6,2.6,6.3c15.4,15.4,30.8,30.8,46.1,46.2c1.7,1.7,1.5,1.8,3.9,0.9c2.6-0.9,5.3-1.8,7.9-2.8c1.3-0.5,2.3-0.3,3.2,0.7
	c0.2,0.2,0.3,0.3,0.5,0.5c7.9,7.6,15.7,15.3,23.6,22.9c11.7,11.3,23.3,22.6,35,33.9c2.4,2.3,4.8,4.7,7.3,7c0.4,0.4,0.9,0.7,1.3,1
	c0,0.3,0,0.6,0,1c-0.2,0.5-0.5,1-0.5,1.6c-0.5,4.9-1,9.9-1.4,14.8c-0.4,4.1-0.8,8.3-1.2,12.4c-0.4,4.1-0.8,8.1-1.1,12.2
	c-0.4,4.1-0.8,8.3-1.2,12.4c-0.4,4-0.8,8-1.2,11.9c-0.4,4.1-0.8,8.1-1.2,12.2c-0.4,4.2-0.8,8.4-1.2,12.6c-0.4,4.4-0.9,8.7-1.3,13.1
	c-0.2,1.8-0.3,3.7-0.3,5.5c0,8,0,16,0,24c0,3,0.2,2.8-2.4,4.4c-12.5,7.4-24.9,14.8-37.4,22.1c-30.5,18.1-61.1,36.2-91.6,54.3
	c-15.5,9.2-31,18.3-46.4,27.5c-1,0.6-2.1,1.2-3.2,1.8c-0.2-0.5-0.4-0.8-0.6-1.2c-0.4-0.7-0.7-1.4-1.2-2c-5-5.9-10.1-11.8-15.1-17.7
	c-1.4-1.6-2.8-3.3-4.2-4.9c-0.5-0.6-1.1-1.2-1.5-1.7c-1.1-0.2-1.7,0.4-2.4,0.7c-5.4,2.9-10.9,5.8-16.3,8.7
	c-7.3,3.9-14.7,7.9-22,11.8c-0.4,0.2-0.9,0.4-1.4,0.6c-0.4-0.4-0.9-0.7-1.2-1.1c-1.4-1.7-2.8-3.5-4.3-5.2c-0.4-0.5-0.9-0.9-1.4-1.5
	c-0.8,0.4-1.5,0.7-2.2,1.1c-10.4,5.7-20.6,11.6-30.6,18c-7.3,4.7-14.4,9.5-21.6,14.3c-6.1,4-12.3,7.8-18.8,11.1
	c-8,4-16.3,7-24.9,9.2c-1.9,0.5-3.5,1.3-5.1,2.6c-3.6,2.9-7.3,5.7-11,8.5c-5.4,3.9-11.3,6.9-17.9,8.4c-2.3,0.5-4.6,0.8-6.8,1.2
	c-0.6,0.1-1.2,0.3-1.8,0.5c-5.8,0-11.5,0-17.3,0c-0.5-0.1-1.1-0.3-1.6-0.4c-3.1-0.5-6.2-0.9-9.2-1.5c-10.9-2.4-20.8-6.8-29.6-13.6
	c-7.3-5.6-13.4-12.3-18.5-20c-1.3-2-2.9-3.7-4.8-5.3c-4.3-3.5-8-7.6-11.2-12.1c-3.1-4.6-5.2-9.7-6.6-15.1c-0.8-2.9-1.3-5.9-2-8.9
	c-0.1-0.5-0.4-1-0.5-1.4c-0.3,0-0.5-0.1-0.6-0.1c-0.7,0.2-1.4,0.4-2.1,0.6c-11,3.7-22.2,6.6-33.7,8.5c-6.1,1-12.2,1.8-18.3,2.1
	c-5.7,0.3-11.3,0.3-17,0.1c-4.4-0.2-8.8-0.6-13.1-1.3c-4.1-0.6-8.2-1.5-12.4-0.8c-0.3,0-0.6,0-1,0c-8.6,0.1-17.1-0.2-25.6-1.3
	c-8.3-1-16.4-2.8-24.2-5.8c-9.4-3.6-17.7-8.8-24.8-16c-5.1-5.1-9.4-10.9-12.8-17.3c-4.5-8.3-7.8-17-8.7-26.5
	c-0.1-0.8-0.3-1.6-0.9-2.2c0-2.1,0-4.2,0-6.2c0.8-0.7,0.8-1.7,1-2.6c0.9-7.1,3.5-13.4,8.1-18.9c3.2-3.9,7.1-7.1,11.5-9.7
	c5.9-3.6,12.3-6,19-7.9c7.6-2.1,15.3-3.3,23.1-4c6.9-0.6,13.7-1,20.6-0.8c1.8,0,3.5-0.3,5.1-1c7.7-3.3,15.7-5.8,24-7.4
	c5.6-1.1,11.2-1.7,16.9-1.7c5.8-0.1,11.5,0.1,17.3,0.6c6.5,0.6,12.8,1.7,18.9,4.3c5.5,2.3,10.2,5.7,13.9,10.4c2,2.5,3.4,5.2,4.4,8.2
	c1.4,4,2.2,8.2,3,12.3c2.1,10.8,4,21.7,6.3,32.5c2.9,13.9,6.1,27.8,9.1,41.7c0.3,1.1,0.4,2.4,1.1,3.4c0.8,0.4,1.5-0.1,2.1-0.3
	c5.2-2.2,10.5-4.4,15.6-6.8c15.2-7.1,29.7-15.4,43.5-24.8c2.1-1.4,3.8-3.1,5.2-5.2c2.9-4.4,5.4-8.9,7.7-13.6
	c4.6-9.4,8.5-19,12.2-28.7c4.4-11.6,8.5-23.3,12.2-35.1c3.4-10.8,6.5-21.8,9.1-32.8c0.1-0.5,0.2-1.1,0.3-1.8
	c-0.9,0.4-1.1,1.1-1.5,1.7c-3,5.1-6,10.2-9,15.3c-6.9,11.8-13.8,23.6-20.8,35.4c-3,5-6.5,9.7-10.8,13.7c-2.2,2.1-4.6,4-7.2,5.5
	c-2.7,1.6-5.6,2.5-8.9,2.7c-5.6,0.2-10.7-3.8-12.2-8.7c-0.8-2.5-1.1-5-0.9-7.6c0.3-4.3,1.3-8.5,2.6-12.6c1.7-4.9,3.7-9.7,6.1-14.3
	c0.7-1.4,1.6-2.8,2.5-4.1c12.7-19.3,25.4-38.6,38.1-58c13.8-21.1,27.7-42.1,41.5-63.2c8.9-13.5,17.7-27,26.6-40.5
	c0.1-0.2,0.2-0.4,0.4-0.6c1.1-1.3,1.1-2.6,0.3-4.1c-2.8-5.2-4.1-10.8-4.3-16.6c-0.2-3.9,0.3-7.8,1.5-11.6c0.3-1,0.6-2,1-3
	c0.6-1.3,0.4-2.4,0-3.7c-2.7-7.7-3.7-15.7-3.1-23.9c0.4-5.9,1.8-11.7,3.7-17.3c3.3-9.6,8.1-18.5,14.6-26.3
	c6.7-7.9,14.6-14.1,24.4-17.6c6.8-2.4,13.8-3.3,21-2.6c9.7,1,18.4,4.7,26.2,10.4c6.7,4.8,12.5,10.5,17.2,17.2
	c0.2,0.3,0.5,0.6,0.7,0.9c0.1,0.1,0.3,0.2,0.6,0.3c0.4-0.3,0.8-0.5,1.2-0.9c9.6-9.7,21.4-14.9,34.7-17.2c2.5-0.4,5.1-0.7,7.6-0.9
	c1.3-0.1,2-0.6,2.4-1.9c1.4-4.2,2.9-8.3,4.4-12.4c5.7-16.1,11.3-32.3,17-48.4c3.9-11.2,7.9-22.3,11.8-33.5c1.5-4.3,3.7-8.2,6.9-11.4
	c2.4-2.4,5.2-4.2,8.6-5c0.6-0.2,1.2-0.4,1.8-0.7C559.2,0,560.6,0,562.1,0z M226.1,508.8c0.3-0.2,0.6-0.3,0.9-0.5
	c0.8-0.2,1.6-0.3,2.3-0.6c8.9-3.4,17.2-8,24.7-13.9c0.3-0.2,0.5-0.5,0.8-0.7c-0.5-0.1-0.8,0-1.2,0.2c-8.1,5-16.4,9.6-24.8,13.9
	c-0.6,0.3-1.2,0.8-1.8,1.2C226.8,508.5,226.4,508.7,226.1,508.8c0,0.1-0.1,0.1-0.2,0.1C226,508.9,226,508.8,226.1,508.8z M451.8,471
	c-0.6,0.1-1,0.2-1.5,0.4c-2.3,0.7-4.6,1.5-6.9,2.1c-2.4,0.7-4,0.2-5.3-2c-0.7-1.2-1.3-2.6-1.7-4c-1.1-4.1-1.4-8.2-0.9-12.4
	c0.4-3.6,0.4-3.1-1.7-5.6c-4.7-5.6-9.5-11.2-14.3-16.8c-1.1-1.3-2.2-2.5-3.3-3.8c-0.6-0.7-1.3-0.9-2.1-0.7c-0.5,0.2-1.1,0.3-1.6,0.5
	c-2,0.6-4,1.3-5.9,1.9c-2.2,0.7-3.7,0.2-5-1.7c-0.7-1-1.2-2.1-1.5-3.2c-0.5-1.9-0.9-3.9-1.2-5.9c-0.4-3-0.3-6.1,0.1-9.1
	c0.2-1.3-0.2-2.3-1-3.3c-0.9-1-1.8-2.1-2.7-3.1c-7.7-9.1-15.5-18.1-23.2-27.2c-0.4-0.4-0.8-0.8-1.2-1.1c-1,0.6-1.5,1.6-2.1,2.4
	c-7.3,9.8-14.7,19.4-22.5,28.7c-7,8.2-14,16.4-21.1,24.5c-8.3,9.4-16.9,18.5-26.1,27.1c-8,7.5-16.4,14.5-25.3,21
	c-2.5,1.8-4.7,3.7-6.8,6c-7.3,8.3-16,14.9-25.8,20c-7.7,4-15.8,6.9-24.2,9.1c-3.4,0.9-6.8,1.6-10.3,2.5c-0.8,0.2-1.8,0.2-2.4,0.9
	c-0.2,0.9,0.2,1.8,0.4,2.6c1.5,4.7,2.9,9.5,4.6,14.2c2.6,7.4,5.8,14.5,9.7,21.4c1.1,1.9,2.5,3.4,4.4,4.6c4.7,2.9,9.7,5.4,14.9,7.2
	c13.8,4.7,27.9,8.2,42.3,10.5c7.2,1.1,14.5,1.7,21.7,1.6c4.1,0,8.1-0.1,12.2-0.4c6.3-0.5,12.5-1.5,18.7-2.8c1.3-0.3,2.4-0.8,3.4-1.6
	c10.2-8.4,20.7-16.4,31.4-24.1c8.5-6.1,17.2-12,26-17.6c12.9-8.2,25.8-16.4,38.7-24.6c2-1.2,3.9-2.5,5.8-3.8
	c0.4-0.3,0.7-0.7,1.2-1.2c-0.5-0.6-0.8-1.2-1.2-1.7c-1.4-1.8-2.9-3.6-4.4-5.4c-0.4-0.5-0.9-0.9-0.8-1.8c0.3-0.2,0.7-0.5,1.1-0.7
	c1.5-0.8,2.9-1.6,4.4-2.5c6.2-3.5,12.4-6.9,18.7-10.4c0.7-0.4,1.6-0.7,2.1-1.6C458.8,478.5,453.7,472.6,451.8,471z M686.6,306.2
	c-1.1,0.5-1.9,0.9-2.7,1.3c-4.2,2.2-8.3,4.5-12.5,6.7c-10.8,5.8-21.7,11.7-32.5,17.5c-14.1,7.6-28.2,15.2-42.2,22.8
	c-8.5,4.6-17,9.2-25.6,13.8c-13.9,7.5-27.7,15-41.6,22.4c-6.9,3.7-13.8,7.4-20.7,11.2c-2.6,1.4-2.5,1.1-2.4,4.3
	c0.2,5.6,0.4,11.2,0.6,16.8c0,0.1,0,0.2,0,0.2c0.3,5.9,0.6,11.8,0.8,17.7c0.2,6.1,0.4,12.1,0.6,18.2c0,0.2,0,0.5,0,0.7
	c0.3,5.4,0.5,10.9,0.7,16.3c0.2,6.3,0.4,12.6,0.6,18.9c0,0.2,0,0.5,0,0.7c0.3,5.7,0.5,11.5,0.8,17.2c0.2,6,0.4,12,0.6,18
	c0,0.5,0.1,1,0.2,1.4c0,0.2,0.3,0.4,0.4,0.6c1.2-0.2,2.1-0.9,3-1.5c4.3-2.5,8.5-5,12.8-7.6c26-15.4,52-30.8,78-46.2
	c17.8-10.6,35.6-21.1,53.5-31.7c8.6-5.1,17.2-10.2,25.8-15.3c1.4-0.8,2.2-1.8,2-3.4c-0.1-0.5,0-1,0-1.4c0-38.6,0-77.3,0-115.9
	c0-0.8,0-1.6,0-2.4C686.9,307.3,686.8,306.9,686.6,306.2z M524.2,294.1c0.1-2.9-0.5-9.2-1.4-13.7c-2.6-14.2-8.3-26.8-17.8-37.7
	c-6.7-7.8-14.7-13.7-24.1-17.7c-9-3.8-18.4-5.2-28.2-4.4c-7.1,0.6-13.8,2.6-20.2,5.7c-11.1,5.2-20,13.1-26.9,23.2
	c-9,13.2-13.2,28-13.9,43.8c-0.1,3,0,6.1,0.3,9.1c0.7,9,2.8,17.7,6.4,26c4.8,11.2,11.8,20.9,21.4,28.5c12.6,10,26.9,14.8,43.1,13.5
	c7.9-0.6,15.4-2.8,22.4-6.5c12.2-6.4,21.4-15.8,28.2-27.7C520.7,323.4,524.1,309.8,524.2,294.1z M91.2,414.7c-1,0-1.9,0.1-2.9,0
	c-1.5-0.1-2.8,0.2-4.2,0.9c-2.9,1.4-5.8,2.7-8.6,4.2c-8.4,4.6-16.8,9.2-25.2,13.9c-4.6,2.6-9.1,5.3-13.4,8.4c-3,2.1-5.7,4.4-8.1,7.1
	c-3.8,4.3-5.6,9.3-5.1,15c0.2,2.5,0.8,4.9,1.6,7.2c1.1,3.1,2.6,6,4.3,8.8c2.4,3.8,5.2,7.3,8.3,10.6c4.9,5.2,10.3,9.9,16,14.1
	c14.4,10.6,30.2,18.2,47.8,22.1c2,0.4,3.9,0.6,5.9,0.3c1.2-0.2,2.4-0.1,3.6-0.2c3-0.2,5.9-0.4,8.8-0.7c4-0.4,8-0.8,11.9-1.2
	c6-0.7,12.1-1.4,18.1-2.2c7.9-1,15.7-2.1,23.5-3.2c5.9-0.8,11.9-1.7,17.8-2.6c3.4-0.5,3.3-0.5,2.5-3.8c-1.7-7.7-4-15.3-7.1-22.6
	c-2.3-5.5-4.8-10.8-7.2-16.2c-2.8-6.2-6-12.2-9.6-18c-4.2-6.7-9.1-12.9-15-18.4c-9-8.4-19.4-14.4-31-18.2
	C113.4,416.4,102.4,415.1,91.2,414.7z M685.8,302.7c-0.8-0.9-1.4-1.5-2-2.1c-5.5-5.6-11.1-11.1-16.6-16.6
	c-30.9-30.9-61.9-61.9-92.8-92.8c-1.1-1.1-2.3-2.3-3.4-3.4c-0.3-0.3-0.6-0.6-1.1-0.4c-0.4,0.8-0.2,1.8-0.2,2.7c0,18.8,0,37.6,0,56.4
	c0,0.4,0,0.8,0,1.2c-0.1,1.4,0.5,2.4,1.5,3.4c1.4,1.3,2.8,2.6,4.2,3.9c2.6,2.4,5.1,4.9,7.6,7.3c5,4.7,10,9.5,14.9,14.3
	c0.4,0.4,0.7,0.9,0.8,1.1c-0.4,1.3-0.8,2.3-1,3.4c-0.6,4.3-1.1,8.6-1.6,12.9c-0.6,4.8-1.3,9.7-1.8,14.5c-0.2,1.4-0.7,2.2-2.1,2.5
	c-0.5,0.1-1.1,0.3-1.6,0.5c-8,2.4-15.9,4.8-23.9,7.2c-15.4,4.7-30.8,9.3-46.2,13.9c-1.3,0.4-2.2,1.1-2.8,2.3
	c-1.9,3.8-4.2,7.4-6.7,10.8c-5.7,7.5-12.3,13.8-20.4,18.7c-3.9,2.4-8,4.3-12.4,5.8c-0.6,0.2-1.5,0.2-1.8,1.2
	c0.5,0.6,1.1,1.2,1.7,1.8c5,5.1,10,10.1,15,15.2c3.3,3.4,6.6,6.8,9.9,10.1c0.6,0.6,1.1,1.4,2.2,1.6c0.6-0.3,1.2-0.5,1.8-0.9
	c1.9-1,3.8-2,5.7-3.1c11.1-6,22.3-12,33.4-18c13.7-7.4,27.5-14.8,41.2-22.2c8.8-4.7,17.6-9.5,26.4-14.2c13.9-7.5,27.7-15,41.6-22.4
	c9.5-5.1,19-10.3,28.5-15.4C684.4,303.6,684.9,303.3,685.8,302.7z M441.2,187.5c0.1,0.5,0.3,1,0.3,1.6c0,1.2,0,2.4,0,3.6
	c0,1.2-0.3,2.2-0.9,3.2c-1.8,3.1-3.8,6.1-6.2,8.8c-1.2,1.3-2.5,2.4-3.9,3.5c-1.9,1.4-4.1,2.2-6.5,2.1c-3-0.1-5.9,0-8.9-0.1
	c-5.9-0.1-11.8-0.3-17.6-2c-0.1,0-0.2,0-0.2-0.1c-1.2-0.4-2.1-0.1-3,0.8c-3.8,3.9-7.6,7.8-11.4,11.7c-0.3,0.3-0.4,0.6-0.7,1
	c0.4,0.4,0.7,0.8,1.1,1c1.5,1,3,2.1,4.6,3c8,4.6,16.4,7.4,25.8,7.1c1.8-0.1,3.2-0.5,4.6-1.6c8.2-6.5,17.4-10.9,27.8-12.9
	c1.6-0.3,2.8-1,3.9-2.2c4.8-5.2,8.8-10.9,11.8-17.4c5.6-12.4,7.4-25.4,5.7-38.9c-1.6-12.4-6.1-23.6-14.7-33
	c-6.5-7.1-14-12.9-22.9-16.7c-8.2-3.5-16.8-4.5-25.6-3.1c-9.4,1.5-17.5,6-24.5,12.3c-0.5,0.5-0.9,1-1.5,1.6c0.5,1,1,2,1.5,2.9
	c1.8,3.7,2,7.4,0.3,11.1c-2.9,6.5-8,10.2-15.1,11c-0.7,0.1-1.4,0.1-2.2,0.1c-1,0-1.6,0.5-2,1.4c-0.1,0.4-0.3,0.7-0.4,1.1
	c-1,3.3-2.1,6.5-3,9.9c-2.2,8.9-2.2,17.9,0,26.8c2.1,8.7,6.1,16.5,11.5,23.6c2.7,3.6,5.7,6.9,9.2,9.8c0.4,0.3,0.9,0.6,1.4,0.9
	c0.5-0.4,0.9-0.8,1.3-1.2c3.8-3.8,7.5-7.6,11.3-11.5c2.1-2.2,4.4-4.2,7.3-5.2c0.1-0.1,0.3-0.2,0.4-0.2c1.1-0.4,1.6-1.2,1.5-2.4
	c0-1.9,0-3.8,0-5.8c0-0.8-0.1-1.6,0.4-2.4c1-0.5,2.1-0.5,3.2-0.6c1-0.1,2.1-0.1,3.1-0.2c4.5-0.4,9.1-0.8,13.6-1.2
	c5.3-0.5,10.7-0.9,16-1.4C438.8,187.2,440,187,441.2,187.5z M508.1,531.1c0-1.5,0-2.6,0-3.7c0-1.2-0.2-2.4-0.2-3.6
	c-0.2-6.3-0.4-12.6-0.6-18.9c0-0.2,0-0.5,0-0.7c-0.3-5.5-0.5-11-0.8-16.5c-0.2-6.4-0.4-12.8-0.7-19.2c0-0.2,0-0.5,0-0.7
	c-0.3-5.9-0.6-11.8-0.8-17.7c-0.2-5.9-0.4-11.8-0.6-17.7c0-0.2,0-0.3,0-0.5c-0.3-6.5-0.6-12.9-0.8-19.4c-0.1-2.3-0.3-4.6-0.3-6.9
	c0-1.7-0.6-3-1.9-4.2c-6.7-6.7-13.4-13.6-20-20.3c-2.1-2.1-4.2-4.2-6.2-6.3c-0.4-0.4-0.8-1-1.1-1.4c0.3-0.6,0.5-1.1,0.9-1.8
	c-0.9,0.2-1.5,0.3-2.1,0.5c-8.1,2-16.3,2.4-24.5,1c-13.5-2.2-25.1-8.3-35-17.7c-5.4-5.2-10-11-13.7-17.5c-0.3-0.6-0.6-1.3-1.4-1.7
	c-0.8,0.4-1.2,1.2-1.6,1.9c-5.2,8.3-10.6,16.6-16.3,24.6c-2.1,3-4.2,5.9-6.2,8.8c-0.4,0.6-1.1,1.2-1.1,2.2c0.8,1.4,2,2.6,3.1,3.8
	c5.4,6.3,10.8,12.6,16.2,19c2.1,2.5,4.2,5,6.4,7.5c0.4,0.5,0.7,1.1,1.6,1c0.2-0.3,0.5-0.6,0.6-0.9c0.9-1.7,2.2-2.7,4-3.2
	c0.8-0.2,1.5-0.6,2.2-0.9c4.4-1.8,8.9-3.6,13.3-5.4c0.6-0.2,1.2-0.3,1.7-0.5c1.3,1.3,2.1,2.8,2.9,4.3c2.4,4.2,4.3,8.6,5.1,13.4
	c0.6,3.3,0.6,6.7-0.5,10c-0.5,1.6-1.4,2.6-3.1,3c-2,0.5-4,1.2-6,1.8c-0.6,0.2-1.3,0.3-1.5,1c0.9,1.6,12.5,15.4,16.5,19.7
	c0.3,0.3,0.7,0.6,1.2,1c0.4-0.6,0.7-1,1-1.5c0.8-1.5,2-2.5,3.6-3c0.9-0.3,1.8-0.7,2.7-1c4.3-1.7,8.6-3.5,12.9-5.2
	c0.7-0.3,1.3-0.7,2.2-0.4c0.3,0.4,0.8,0.9,1.1,1.4c1,1.6,1.9,3.1,2.8,4.8c2,4,3.6,8.2,4.2,12.7c0.4,3.1,0.2,6.1-0.9,9
	c-0.5,1.3-1.3,2.1-2.6,2.5c-2.3,0.7-4.6,1.4-6.9,2.2c-0.4,0.1-0.7,0.5-1.1,0.7c1.6,2.5,5.7,7.3,7.4,8.4c0.6-0.3,1.2-0.5,1.9-0.9
	c7.6-4.2,15.2-8.5,22.8-12.7c2.3-1.3,4.6-2.5,6.9-3.8c1-0.6,1.9-0.7,3-0.3c0.5,0.2,1.1,0.3,1.6,0.5c3.9,1.6,5.9,4.7,5.5,8.9
	c-0.2,1.5-0.6,3-1.1,4.4c-1.3,3.6-1.6,3.9-5,5.7c-7.3,3.9-14.5,7.8-21.8,11.7c-0.5,0.3-1,0.7-1.5,1c1,1.9,1.2,2,2.7,1.2
	c0.2-0.1,0.4-0.2,0.6-0.3c3.3-1.8,6.6-3.7,9.8-5.5c2-1.1,4.1-2.2,6.1-3.4c0.8-0.4,1.6-0.7,2.5-0.5c6.2,1.2,8.4,5.8,7.5,10.4
	c-0.3,1.7-1,3.4-1.6,5c-0.6,1.7-1.8,2.9-3.5,3.7c-3,1.5-5.9,3.1-8.9,4.7c-0.5,0.3-1.2,0.5-1.3,1.2c0.8,1.2,16.1,19.4,17.6,20.9
	C507.3,530.6,507.6,530.7,508.1,531.1z M566.4,172.2c-0.2,0-0.3-0.1-0.5-0.1c-0.3,0.6-0.6,1.2-1,1.8c-1.3,2.2-2.5,4.5-4,6.5
	c-4.6,6.1-10.4,10.9-17.1,14.5c-9.8,5.3-20.4,7.8-31.5,8.2c-1.3,0-2.6,0.1-3.8,0c-1,0-1.7,0.4-2,1.4c-0.1,0.2-0.1,0.3-0.2,0.4
	c-1.8,4.5-3.5,8.9-5.3,13.4c-0.4,1-0.4,1.8,0.4,2.6c3.1,3.1,5.1,6.9,6.7,11c1.7,4.2,3,8.6,3.9,13.1c0.3,1.3,0.7,2.4,1.5,3.5
	c2.6,3.9,4.8,7.9,6.6,12.2c4.4,10.2,6.9,20.8,7,31.9c0,2,0,4,0,6c0,0.5,0.2,1,0.3,1.6c1.2,0,2.2-0.4,3.1-0.8
	c16.6-5.9,33.3-11.9,49.9-17.8c3.6-1.3,7.2-2.6,10.8-3.9c0.6-0.2,1.4-0.3,1.8-1.3c-0.4-0.5-0.9-1-1.4-1.5
	c-7.6-7.2-15.2-14.4-22.7-21.7c-2.9-2.8-2.5-1.9-2.5-6c0-24.1,0-48.1,0-72.2C566.4,174.1,566.4,173.1,566.4,172.2z M358.7,284
	c-1,0.9-1.4,1.8-1.8,2.6c-7.5,12.8-15.1,25.7-22.6,38.5c-5.5,9.3-10.9,18.6-16.4,27.9c-0.7,1.1-1.1,2.3-1.4,3.5
	c-0.6,2.7-1.2,5.3-1.9,7.9c-5,21.1-11.3,41.8-18.8,62.2c-5.8,15.8-11.7,31.5-19.8,46.3c-0.1,0.2-0.1,0.6-0.2,1c1.3-0.2,2-1,2.8-1.6
	c8.3-6.4,16.1-13.4,23.6-20.7c7.1-6.9,13.7-14.1,20.3-21.4c8.9-10,17.7-20.2,26.2-30.6c6.4-7.9,12.6-15.9,18.6-24.1
	c0.5-0.6,0.9-1.3,1.3-2c-0.4-0.6-0.7-1-1-1.4c-1.9-2.2-3.8-4.4-5.6-6.6c-3.5-4.3-2.9-2.5-3-7.9c0-23.4,0-46.9,0-70.3
	C358.9,286.3,359.1,285.3,358.7,284z M362.4,228c-0.5,0.8-0.8,1.4-1.2,2c-1.7,2.6-3.4,5.2-5.1,7.8c-10.1,15.4-20.2,30.8-30.3,46.1
	c-14.1,21.5-28.2,42.9-42.3,64.4c-9.5,14.4-19,28.9-28.5,43.3c-1.3,1.9-2.5,3.9-3.7,5.9c-1.9,3.5-3.5,7.2-4.9,10.9
	c-1.5,4.1-2.8,8.2-3.4,12.5c-0.4,3-0.5,5.9,0.4,8.8c1.6,5.1,6.6,7.9,11.7,6.6c1.3-0.3,2.6-0.8,3.8-1.4c3-1.4,5.6-3.5,7.9-5.8
	c4.3-4.1,7.8-8.9,10.8-14c7.5-12.8,15.1-25.7,22.6-38.5c4-6.8,8-13.7,12.1-20.5c1-1.7,1.8-3.5,2.2-5.5c1-4.7,2.1-9.4,3.2-14
	c1.8-8,3.9-16,6.4-23.9c7.8-24.6,19.5-47.2,34.7-68.1c5.1-7,10.5-13.7,16.2-20.2c0.7-0.8,1.5-1.5,1.9-2.6c-0.4-0.4-0.7-0.8-1.1-1.2
	c-3.4-3-6.4-6.3-9.2-9.8c-2.8-3.5-5.2-7.3-7.2-11.3c-0.3-0.5-0.4-1.3-1.2-1.4c-1,1.9-1.5,4.3-1.7,7.6
	C356.2,213.8,358.2,221.1,362.4,228z M537.7,115.6c0.9-1.4,1.2-2.6,1.7-3.8c10.1-25.8,20.3-51.7,30.4-77.5
	c2.2-5.5,2.9-11.1,2.7-16.9c-0.1-2.9-0.6-5.7-2-8.3c-1.2-2.2-2.8-3.9-5.1-4.8c-4-1.5-8-1.4-11.8,0.5c-2.3,1.2-4.1,3-5.8,5
	c-2.2,2.8-3.6,6-4.8,9.3c-3.3,9.3-6.5,18.6-9.8,27.8c-3.9,11.2-7.9,22.3-11.8,33.5c-2.3,6.6-4.6,13.1-6.9,19.7
	c-0.3,0.8-0.7,1.6-0.6,2.6c0.8,0.6,1.8,0.6,2.7,0.9c4.8,1.2,9.6,2.7,13.8,5.3c2.4,1.5,4.6,3.2,6.2,5.6
	C536.9,114.8,537.2,115.1,537.7,115.6z M370.5,370.4c1-0.7,1.5-1.5,2-2.3c7.9-11,15.4-22.2,22.5-33.7c1.8-3,1.6-2.5,0.4-5.2
	c-3.6-8.5-5.8-17.5-6.5-26.7c-0.6-8.4-0.2-16.8,1.6-25.1c1.8-8.6,4.8-16.7,9.1-24.4c0.3-0.6,0.6-1.2,1-2c-1-0.3-1.8,0.1-2.5,0.2
	c-4.8,1.2-9.5,1.3-14.2-0.1c-1-0.3-2-0.5-3-0.8c-2.3-0.5-2.4-0.5-3.6,1.6c-1.8,3-3.6,6.1-5.3,9.1c-3,5.1-6,10.2-9,15.3
	c-0.6,1.1-1,2.2-0.9,3.4c0,0.6,0,1.1,0,1.7c0,25.2,0,50.4,0,75.6c0,0.6,0,1.3,0,1.9c-0.1,1.2,0.3,2.1,1.1,3c2.2,2.5,4.4,5.1,6.6,7.6
	C369.8,369.9,370.1,370.1,370.5,370.4z M77.6,415.2c0-0.2-0.1-0.3-0.1-0.5c-0.7,0-1.4-0.1-2.1-0.1c-3.3,0.1-6.5,0.3-9.8,0.5
	c-5.4,0.3-10.7,1-15.9,2c-7.8,1.5-15.4,3.6-22.6,7c-5.2,2.5-10,5.7-14,9.9c-5.4,5.8-8.4,12.6-9.1,20.4c-0.5,5.9,0,11.8,1.6,17.6
	c2.8,10.4,7.6,19.7,14.3,28c5.9,7.4,13.1,13.3,21.6,17.6c6.3,3.2,13,5.4,19.9,6.9c4.8,1.1,9.6,1.8,14.4,2.3
	c4.3,0.4,8.6,0.7,12.9,0.7c0.4,0,1,0.2,1.3-0.5c-0.5-0.2-1-0.4-1.5-0.6c-7.8-2.6-15.2-6-22.3-10C54.6,509.9,44.1,502,35,492.2
	c-3.1-3.3-5.8-6.8-8.2-10.6c-2.8-4.5-5-9.3-5.9-14.6c-1.3-7.8,0.5-14.8,6.1-20.6c2.3-2.4,4.7-4.6,7.4-6.4c2.9-2,5.8-4,8.8-5.8
	c10.7-6.3,21.5-12.3,32.5-18C76.4,415.9,77,415.5,77.6,415.2z M508.7,199.7c0.9,0.6,1.9,0.4,2.8,0.4c4.1-0.3,8.1-0.5,12.1-1.3
	c8.8-1.7,17-4.9,24.4-10.2c5.6-3.9,10.2-8.7,13.4-14.8c5.6-10.8,5.5-21.5-0.4-32.1c-4.8-8.6-12.2-14.4-21-18.7
	c-0.3-0.2-0.7-0.2-1.1-0.3c-0.8,0.8-1,1.7-1.3,2.6c-5.7,14.6-11.4,29.2-17.2,43.8c-3.7,9.4-7.4,18.8-11,28.1
	C509,197.9,508.6,198.7,508.7,199.7z M94.8,411.6c0.2,0.1,0.4,0.2,0.6,0.2c1.8,0.2,3.5,0.3,5.3,0.4c9,0.7,17.7,2.4,26.2,5.5
	c15.2,5.4,28,14.3,38.2,26.8c5.1,6.2,9.3,13,13,20.1c2.4,4.8,4.7,9.6,7,14.5c5.2,10.9,9.2,22.2,11.8,33.9c0.2,0.7,0.3,1.4,0.5,2.1
	c0.2,0.7,0.7,0.9,1.5,0.7c0.6-0.1,0.9-0.5,0.8-1.2c-0.1-0.5-0.2-0.9-0.3-1.4c-3.8-15.7-7.2-31.5-10.4-47.3
	c-1.9-9.2-3.5-18.4-5.3-27.6c-0.7-3.8-1.6-7.5-2.6-11.2c-1.5-5.6-4.7-10.1-9.3-13.6c-5.1-4-11-6.1-17.3-7.4
	c-7-1.4-14.1-1.6-21.2-1.8c-7.1-0.2-14.1,0.5-21,1.8c-5.6,1.1-11,2.6-16.4,4.6C95.6,410.8,94.9,410.8,94.8,411.6z M379.7,224.1
	c-6.2,6.7-11.8,13.6-17.1,20.7c-11.5,15.6-21.1,32.2-28.6,50.1c-6.4,15.1-10.7,30.8-14.2,46.8c-0.1,0.3,0,0.6,0,0.9
	c2-2.5,3.5-5.1,5.1-7.8c1.6-2.7,3.2-5.4,4.7-8.1c1.5-2.6,3.1-5.2,4.6-7.9c1.6-2.7,3.2-5.4,4.7-8.1c1.6-2.7,3.2-5.4,4.7-8.1
	c1.6-2.7,3.2-5.4,4.7-8.1c1.6-2.7,3.2-5.4,4.7-8.1c1.6-2.7,3.2-5.4,4.7-8.1c1.5-2.6,3.1-5.2,4.6-7.9c1.6-2.7,3.2-5.4,4.7-8.1
	c1.6-2.7,3.1-5.4,4.7-8.1c1.6-2.7,3-5.4,4.9-8.1c1.1,0.2,2.2,0.3,3.2,0.5c2,0.5,4,1,6.1,1.5c5.7,1.4,11.1,0.2,16.3-2.1
	c1.3-0.6,2.4-1.5,3.4-2.6c1.8-2.1,3.7-4.2,5.5-6.4c0.2-0.3,0.4-0.6,0.6-1c-1-0.5-2-0.5-3-0.6c-4.1-0.2-8.1-1.1-12-2.4
	c-5.4-1.8-10.4-4.5-15.1-7.8C381.3,225.2,380.6,224.7,379.7,224.1z M594.2,280.2c-0.5,0.1-1.1,0.2-1.7,0.5c-2.7,1-5.4,1.9-8.1,2.9
	c-15.1,5.4-30.1,10.7-45.2,16.1c-3.5,1.3-7.1,2.6-10.6,3.8c-1.2,0.4-1.8,1.1-1.9,2.4c-0.2,1.7-0.4,3.5-0.7,5.2
	c-1,5.4-2.5,10.8-4.5,15.9c-0.2,0.6-0.8,1.2-0.4,2.1c0.7-0.2,1.4-0.3,2.1-0.5c1.8-0.5,3.7-1.1,5.5-1.7c20.1-6.1,40.1-12.1,60.2-18.2
	c2.9-0.9,2.4-1,2.7-3.2c0.6-4.4,1.1-8.7,1.7-13.1c0.4-3.4,0.8-6.8,1.3-10.2C594.6,281.5,594.8,280.9,594.2,280.2z M478.2,192.5
	c0.9-0.7,1-1.4,1.2-2.1c0.9-2.6,1.9-5.3,2.8-7.9c3.5-10.1,7.1-20.2,10.6-30.3c2.2-6.3,4.5-12.7,6.7-19c1.6-4.7,3.3-9.4,4.9-14
	c0.3-0.7,0.7-1.4,0.3-2.3c-0.2-0.1-0.4-0.2-0.6-0.2c-1,0-2.1,0-3.1,0.1c-6.4,0.8-12.6,2.3-18.5,4.9c-6.7,2.9-12.7,6.7-17.8,12
	c-2.2,2.2-1.7,2.2-0.7,4.3c3.9,7.8,6.1,16.1,6.7,24.9c0.5,7.4,0.4,14.7-1.3,22c-0.1,0.6-0.1,1.2-0.2,1.9
	C472.1,189,475,190.8,478.2,192.5z M475.1,210.9c-2-1.7-2.3-1.8-4.8-1.9c-0.2,0-0.5,0-0.7,0c-3.1,0.3-6.2,0.5-9.3,0.8
	c-0.9,0.1-1.5,0.5-2,1.1c-1.3,1.7-2.6,3.3-3.8,4.9c-0.2,0.2-0.2,0.5-0.4,0.9c0.9,0.5,1.7,0.3,2.4,0.3c3.2-0.1,6.4,0.2,9.6,0.6
	c11.3,1.5,21.4,5.8,30.4,12.7c3.3,2.5,6.3,5.2,9.1,8.2c0.4,0.4,0.7,1.1,1.5,1c0-0.2,0.1-0.5,0.1-0.7c-1.2-4.2-2.7-8.2-5-11.9
	c-1.1-1.7-2.2-3.3-3.9-4.5c-1.7-1.2-1.6-1.5-1-3.2c0.1-0.4,0.3-0.7,0.4-1.1c3.4-8.8,6.9-17.6,10.3-26.4c0.2-0.5,0.4-1,0.6-1.6
	c0.3-1,0.1-1.5-0.7-2.1c-0.4-0.3-0.9-0.6-1.4-0.9c-1.6-0.8-3.3-1.2-5.1-1.4c-5.5-0.5-10.9,0.1-16.2,1.4c-0.9,0.2-1.5,0.7-1.9,1.7
	c-0.6,1.7-1.2,3.5-1.9,5.2c-1.8,5-3.5,10-5.3,14.9C476,209.6,475.9,210.4,475.1,210.9z M226.2,566.6c-0.1,0.2-0.1,0.3-0.1,0.3
	c0.2,0.4,0.4,0.9,0.7,1.2c4.7,5.8,9.9,11.1,16,15.4c12.5,8.8,26.5,12.8,41.6,13.5c5.4,0.3,10.7,0,16-0.9c4.6-0.8,9-2,13.2-4.1
	c5.3-2.7,10.1-6.2,14.7-9.9c0.1-0.1,0.2-0.4,0.3-0.8c-0.8,0.1-1.4,0.1-2,0.2c-7.9,1.4-15.9,1.8-23.9,2c-2.1,0-4.1-0.2-6.2-0.2
	c-7.3-0.1-14.5-1-21.7-2.3c-8.3-1.5-16.4-3.6-24.5-5.7c-8.1-2.1-15.9-4.7-23.4-8.5C226.8,566.7,226.5,566.7,226.2,566.6z M441.9,507
	c-1,0.6-1.8,1.1-2.6,1.6c-7.8,5-15.6,10.1-23.4,15.1c-7.5,4.8-15.2,9.5-22.7,14.4c-9.7,6.2-19.2,12.8-28.4,19.6
	c-6.8,5-13.5,10.3-20.2,15.5c-0.3,0.2-0.9,0.4-0.6,1.1c0.4-0.1,0.9-0.2,1.4-0.3c5.6-1.8,11-3.9,16.3-6.4c8.3-4,16.1-9,23.6-14.2
	c10.6-7.3,21.5-14.2,32.6-20.7c5.2-3.1,10.6-6,15.8-9.1c0.5-0.3,1.2-0.5,1.4-1.2c-0.2-1.2-1.6-1.8-1.7-3.2c0.5-0.3,1-0.7,1.6-1
	c7.2-4,14.4-8,21.6-12c4.9-2.7,9.8-5.4,14.7-8.2c0.8-0.5,1.7-0.8,2.3-1.6c-0.6-1.1-0.6-1.1-1.7-1.8c-1.6,0.8-3.3,1.7-5,2.6
	c-6.8,3.7-13.7,7.3-20.5,11c-0.7,0.4-1.3,1-2.2,0.8C443.4,508.4,442.7,507.8,441.9,507z M696.2,295c-0.6-0.6-1-1.1-1.5-1.6
	c-0.7-0.7-1.4-1.3-2.1-2c-10.5-10.2-21-20.3-31.5-30.5c-9.2-9-18.4-17.9-27.7-26.9c-0.5-0.4-0.9-0.9-1.4-1.3
	c-0.7-0.7-1.5-0.9-2.4-0.5c-1.9,0.7-3.9,1.4-5.9,2.1c-0.3,0.1-0.6,0.4-1,0.7c0.7,1.3,1.7,2.1,2.6,2.9c20.4,20.4,40.8,40.8,61.2,61.2
	c0.3,0.3,0.5,0.6,0.9,0.8c0.4,0.3,0.9,0.6,1.2,0.9C690.5,299.8,694.7,296.6,696.2,295z M485.4,183.6c0.7,0,1.1,0,1.5,0
	c1-0.1,2-0.4,3.1-0.5c2.8-0.4,5.5-0.8,8.3-0.7c3.9,0.1,7.8,0.7,11.3,2.8c0.2,0.1,0.4,0.1,0.7,0.1c0.2-0.3,0.4-0.5,0.5-0.8
	c2.1-5.3,4.2-10.7,6.3-16.1c0.2-0.4,0.2-0.9,0.2-1.5c-0.3-0.2-0.5-0.4-0.8-0.6c-5-3.4-10.2-6.5-15.9-8.9c-1.4-0.6-2.9-0.9-4.4-1.3
	c-0.4-0.1-0.8-0.1-1,0.4c0.2,0.4,0.4,0.8,0.6,1.3c-0.3,0.1-0.5,0.3-0.7,0.3c-0.9,0.1-1.4,0.7-1.7,1.5c-0.1,0.2-0.2,0.5-0.2,0.7
	c-2.5,7.2-5,14.3-7.6,21.5C485.6,182.4,485.6,182.9,485.4,183.6z M445.2,529c0.8-0.4,1.6-0.8,2.4-1.2c9.4-5,18.7-10,28.1-15
	c2.2-1.2,4.4-2.3,6.5-3.5c0.5-0.3,1.2-0.5,1.3-1.5c-1.1-1.3-2.3-2.8-3.6-4.2c-1.3-1.5-2.4-3.1-4.1-4.5c-0.8,0.4-1.5,0.7-2.2,1.1
	c-7.8,4.3-15.7,8.7-23.5,13c-3.6,2-7.3,4-10.9,6.1c-0.5,0.3-1.1,0.4-1.1,1.1c1.4,1.1,1.4,1.1,2.2,2.7
	C441.2,524.9,443.3,527.5,445.2,529z M399.7,205.2c1.9,0.8,5.1,1.6,7.1,1.6c5.6,0.1,11.2,0.2,16.8,0.4c1.5,0,3-0.3,4.3-1.2
	c1.2-0.8,2.4-1.7,3.4-2.7c2.5-2.5,4.5-5.4,6.2-8.5c0.2-0.3,0.3-0.6,0.4-0.9c0.4-1.1,0.5-2.2-0.1-3.2c-1.1-0.4-2.1-0.2-3.1-0.1
	c-2.5,0.2-5.1,0.5-7.6,0.7c-6.5,0.6-13,1.1-19.6,1.6c-0.9,0.1-1.9,0.1-2.9,0.8c-0.1,0.8-0.1,1.7-0.2,2.5c0,1.6,0,3.2,0,4.8
	c0,0.9-0.3,1.5-1.2,1.9c-0.5,0.2-1,0.5-1.5,0.7C401.1,204.2,400.3,204.3,399.7,205.2z M518.7,164c0.4-0.7,0.6-1.1,0.8-1.5
	c2.3-5.9,4.7-11.9,7-17.8c0.8-2,0.8-2.8-1.8-3.4c-2.6-0.6-5.2-0.7-7.9-0.5c-1.1,0.1-2.2,0.1-3.3,0.3c-4.3,0.7-8.5,1.4-12.8,2.1
	c-1,0.2-1.7,0.7-2.1,1.8c-0.7,2.2-1.6,4.4-2.3,6.6c-0.1,0.4-0.1,0.9-0.1,1.3c0.4,0.1,0.6,0.3,0.8,0.3c3.1,0.7,6,1.8,8.7,3.3
	c3.3,1.8,6.5,3.7,9.8,5.6C516.6,162.7,517.5,163.3,518.7,164z M472.8,490.3c0.8-0.3,1.3-0.5,1.8-0.7c4.5-2.4,9-4.8,13.5-7.2
	c3.3-1.8,6.6-3.6,9.9-5.3c0.8-0.4,1.6-0.8,2-1.7c1-2,1.7-4,1.7-6.2c0-2.4-1.1-3.9-3.2-4.9c-1.2-0.6-2.2-0.6-3.4,0.1
	c-1.9,1.2-3.9,2.2-5.8,3.3c-7.5,4.2-15,8.3-22.4,12.5c-0.5,0.3-1,0.7-1.6,1.1c0.3,0.5,0.4,0.8,0.7,1.1
	C468.2,485,470.4,487.6,472.8,490.3z M510.2,113.7c0.2,0.1,0.3,0.3,0.5,0.4c1.8,0.7,3.3,1.9,4.6,3.4c1.6,1.8,3.1,3.6,4.5,5.6
	c2.9,4,5.3,8.3,7.7,12.7c0.4,0.7,0.6,1.5,1.4,2c0.2-0.3,0.4-0.5,0.6-0.8c2-5,3.9-10,5.9-14.9c0.4-1.1,0.3-2.2,0-3.3
	c-0.6-2-1.8-3.6-3.4-4.9c-1.5-1.2-3.1-2.3-4.8-3.2c-4.2-2.3-8.7-3.5-13.4-4.5c-0.4-0.1-0.8,0-1.1,0
	C511.6,108,510.3,111.7,510.2,113.7z M445.4,445.6c0.6,1.8,1.3,3.4,1.7,5.1c0.8,2.9,0.9,6,0.9,9c0,1,0.2,1.9,0.8,2.6
	c1,1.2,2.1,2.4,3.1,3.7c0.7,0.8,1.5,1.1,2.5,0.8c2.4-0.8,4.9-1.5,7.3-2.3c1.1-0.3,1.8-1,2-2.1c0.1-0.6,0.3-1.2,0.3-1.9
	c0.2-2.6,0.1-5.1-0.6-7.6c-1.1-4-2.7-7.7-4.8-11.2c-0.3-0.5-0.7-0.8-1-1.2C455.5,441.1,447.3,444.5,445.4,445.6z M421,397.5
	c-4,1.6-7.9,3.1-11.7,4.8c-0.3,0.1-0.4,0.4-0.6,0.6c0.1,0.4,0.2,0.7,0.3,1c1,2.3,1.7,4.7,1.9,7.1c0.2,1.7,0.4,3.5,0.3,5.2
	c0,1.6,0.4,2.8,1.5,3.9c0.9,0.9,1.7,1.9,2.5,2.9c0.4,0.4,0.8,0.7,1.3,1.1c3.1-0.8,6-1.8,8.9-2.8c0.9-0.3,1.3-0.9,1.5-1.7
	c0.6-2.1,0.7-4.2,0.5-6.4c-0.7-5.3-2.9-10.1-5.6-14.7C421.7,398.3,421.4,398,421,397.5z M444.9,505.3c0.7-0.3,1.1-0.5,1.6-0.7
	c4.8-2.6,9.6-5.1,14.4-7.7c2.5-1.4,5.1-2.7,7.6-4.1c0.4-0.2,0.8-0.7,1.2-1c-1.7-2.6-6.1-7.6-7.6-8.7c-1.6,0.6-19.8,10.5-23.1,12.7
	c-0.3,0.2-0.6,0.5-0.9,0.8c0.3,0.5,0.5,0.9,0.8,1.3C440.8,500.2,442.6,502.9,444.9,505.3z M524.7,137.7c-0.1-0.3-0.1-0.6-0.2-0.9
	c-2.9-5.2-5.9-10.4-9.6-15.1c-0.9-1.1-1.9-2.1-2.9-3.1c-0.5-0.5-1.1-0.9-1.8-1.2c-0.6-0.3-1.3-0.1-1.6,0.5c-0.3,0.5-0.5,1-0.7,1.5
	c-0.5,1.3-0.9,2.5-1.4,3.8c-1.7,4.9-3.5,9.8-5.2,14.7c-0.2,0.6-0.6,1.1-0.1,1.9c1.2,0,2.5-0.4,3.7-0.6c1.3-0.2,2.7-0.4,4-0.6
	c1.3-0.2,2.5-0.3,3.8-0.5c1.3-0.1,2.7-0.3,4-0.4c1.3-0.1,2.6,0,3.8,0C521.9,137.7,523.3,137.7,524.7,137.7z M486.9,506.5
	c0.3,0,0.3,0,0.4,0c3.8-2,7.6-4,11.4-6.1c0.5-0.3,1-0.8,1.3-1.4c0.6-1.2,1.1-2.5,1.4-3.8c0.3-1.1,0.2-2.4,0.1-3.6
	c-0.2-2.6-4.2-4.9-6.6-3.4c-4.8,3-9.9,5.6-14.8,8.3c-0.4,0.2-0.6,0.6-0.9,0.9C480.3,499.3,485.4,505.3,486.9,506.5z M690.3,365.2
	c0.1,0,0.2,0,0.3,0c2.1-21.8,4.1-43.5,6.2-65.3c0-0.1-0.2-0.2-0.4-0.5c-0.3,0.1-0.7,0.3-1,0.5c-0.9,0.7-1.8,1.3-2.7,2
	c-2.9,2.2-2.6,1.8-2.6,5.4c0,16.8,0,33.6,0,50.3c0,2,0,4,0,6C690.2,364.1,690.3,364.7,690.3,365.2z M477.3,195.9
	c-0.2-0.2-0.3-0.4-0.4-0.5c-2.6-1.6-5.1-3.2-7.7-4.8c-0.2-0.1-0.6-0.1-1-0.2c-0.5,1.4-1,2.8-1.5,4.1c-0.5,1.3-0.9,2.5-1.5,3.8
	c-0.6,1.3-1.2,2.6-1.8,3.9c-0.6,1.3-1.5,2.4-1.8,3.8c0.8,0.6,1.5,0.4,2.2,0.3c2.9-0.4,5.7-0.4,8.6-0.2c0.5,0,0.9,0,1.3-0.1
	C474.9,203.8,476.8,198.2,477.3,195.9z M375.8,123.7c-0.3,0.1-0.5,0.1-0.6,0.2c-0.2,0.1-0.4,0.3-0.5,0.5c-4.6,5.2-8.4,11-11.4,17.3
	c-0.1,0.3-0.1,0.6-0.2,1c0.4,0.1,0.7,0.2,1,0.2c6.1-0.6,10.5-3.6,13-9.2c1.3-3.1,1.1-6.2-0.6-9.2C376.4,124.2,376,123.9,375.8,123.7
	z M122.6,529.7c0.6,0.1,0.9,0.1,1.2,0.1c5.9,0.1,11.8,0.2,17.7-0.3c6.8-0.5,13.5-1.3,20.2-2.6c6.2-1.1,12.3-2.6,18.4-4.3
	c0.6-0.2,1.3-0.1,1.8-0.9c-19.6,2.7-39.1,5.5-58.7,7.4C123.1,529.2,123,529.4,122.6,529.7z M201,519.7c-0.5,0-0.6,0-0.8,0
	c-0.2,0-0.3,0.1-0.5,0.1c-0.9,0.4-1.1,0.7-1,1.7c0,0.3,0.1,0.6,0.1,0.9c0.8,3.5,1.5,7,2.4,10.5c1.9,6.9,5.4,13,10.2,18.2
	c0.3,0.4,0.6,0.9,1.4,0.8c-1.2-2.7-2.4-5.3-3.6-8c-1.1-2.6-2.1-5.2-3.1-7.8c-1-2.7-1.8-5.5-2.8-8.2C202.6,525.2,202,522.4,201,519.7
	z M404.9,427.7c0.9-0.1,1.2-0.8,1.5-1.4c0.9-1.8,1.3-3.8,1.6-5.7c0.1-0.9-0.2-1.5-0.8-2.2c-1.5-1.7-2.9-3.4-4.4-5.1
	c-0.2-0.2-0.5-0.3-0.9-0.4c-0.3,2.3-0.3,4.5-0.1,6.6c0.2,2.1,0.6,4.3,1.4,6.3C403.6,426.5,403.9,427.4,404.9,427.7z M438.9,455.8
	c-0.2,0.7-0.3,1-0.3,1.3c0,2.1,0,4.3,0.2,6.4c0.2,1.6,0.7,3.3,1.2,4.9c0.2,0.7,0.7,1.3,1.1,1.8c0.3,0.4,1,0.4,1.3,0
	c0.3-0.4,0.7-0.9,0.9-1.4c0.4-1.3,0.9-2.6,1.2-3.9c0.5-2.8,0.5-2.4-1.1-4.3c-1-1.2-2.1-2.4-3.1-3.6
	C439.9,456.7,439.5,456.4,438.9,455.8z M444.7,457c0.3-2.8-0.6-7.1-1.8-9c-0.1-0.1-0.2-0.3-0.3-0.4c-0.6-0.7-1.3-0.8-1.7,0
	c-0.4,0.6-0.7,1.2-1,1.9c-0.5,1-0.4,2,0.4,2.9c1.2,1.4,2.4,2.8,3.6,4.1C444,456.7,444.3,456.8,444.7,457z M407.7,414
	c0.2-0.5,0.4-0.7,0.4-0.9c0-2.5-0.5-4.9-1.5-7.2c-0.2-0.4-0.4-0.7-0.6-1c-0.5-0.7-1.3-0.8-1.7,0c-0.5,0.8-0.9,1.7-1.2,2.6
	c-0.2,0.6-0.1,1.1,0.3,1.6C404.6,410.6,405.9,412.2,407.7,414z M410.9,423.2c-0.6,1-0.9,1.8-0.6,2.8c1,0,1.8-0.1,2.3-0.9
	C412.3,424.3,411.9,423.7,410.9,423.2z M447.6,466.1c-0.5,0.9-0.9,1.7-0.5,2.6c1.2,0,1.2,0,2.1-0.7
	C449,467.2,448.5,466.5,447.6,466.1z"/>
<path class="st0" d="M488.2,273.8c-0.2,5.1-2.6,10.8-8.1,14.8c-7.3,5.4-16.9,4.4-23.1-1.5c-8.4-8.1-8.6-22.8,1.2-30.8
	c7.8-6.4,18.5-5.1,25,2.3C486.6,262.5,488.2,267,488.2,273.8z M454,272.7c-0.2,4.4,2.1,9.3,5.6,12.4c5.5,5,13.8,5.1,19.3,0.4
	c7.7-6.5,8.2-18.3,1.5-25.5c-6-6.4-15.5-6.2-21.3-0.5C455.6,263,454,267.2,454,272.7z"/>
<path class="st0" d="M461.8,404.1c0,2-0.4,3.8-1.4,5.5c-0.5,0.9-1.2,1.7-2.2,2.2c-1.8,1-3.8,0.9-5.4-0.5c-0.7-0.6-1.4-1.4-1.8-2.2
	c-1.6-3.3-1.7-6.6-0.1-9.9c0.4-0.9,1.1-1.8,1.9-2.4c2-1.7,4.4-1.5,6.3,0.2c1.5,1.3,2.2,3.1,2.5,5
	C461.8,402.6,461.8,403.4,461.8,404.1z M453.1,403.9c0,1.6,0.2,3,1.2,4.3c1,1.3,2.2,1.3,3.2,0.1c1.8-2.2,1.8-6.4,0.1-8.6
	c-1-1.3-2.4-1.3-3.3,0.1C453.3,401,453,402.4,453.1,403.9z"/>
<path class="st0" d="M478.1,419.9c0,1.3-0.2,2.8-0.7,4.1c-0.5,1.3-1.3,2.4-2.4,3.2c-1.8,1.3-4,1.3-5.8-0.1c-0.9-0.7-1.5-1.6-2-2.7
	c-1.4-3.3-1.4-6.5,0.1-9.7c0.1-0.3,0.3-0.6,0.5-0.8c2.2-3.3,5.9-3.5,8.4-0.4C477.7,415.3,478.2,417.5,478.1,419.9z M475.1,419.6
	c-0.1-1.6-0.4-3.3-1.7-4.6c-0.8-0.8-1.7-0.8-2.5,0c-0.3,0.3-0.5,0.6-0.7,0.9c-1.2,2.5-1.2,5,0,7.5c0.1,0.2,0.3,0.4,0.4,0.6
	c1,1.1,2.1,1.1,3,0C474.7,422.9,475.1,421.3,475.1,419.6z"/>
</svg>
