<?xml version="1.0" encoding="UTF-8"?><svg id="bench" xmlns="http://www.w3.org/2000/svg" viewBox="0 0 1366 768"><defs><style>.cls-1{fill:#97808c;}.cls-1,.cls-2,.cls-3{stroke:#fff;stroke-miterlimit:10;stroke-width:2px;}.cls-2{fill:#95879d;}.cls-3{fill:none;}</style></defs><line class="cls-2" x1="352.65" y1="270.9" x2="387.16" y2="114.21"/><line class="cls-2" x1="387.16" y1="114.21" x2="1038.83" y2="108"/><line class="cls-1" x1="1009.38" y1="308.6" x2="1038.83" y2="108"/><line class="cls-3" x1="352.65" y1="270.9" x2="1009.38" y2="308.6"/><line class="cls-3" x1="364.59" y1="260.83" x2="1001.42" y2="293.47"/><line class="cls-3" x1="1024.1" y1="120.73" x2="1001.42" y2="293.47"/><line class="cls-3" x1="393.25" y1="126.31" x2="1024.1" y2="120.73"/><line class="cls-3" x1="364.59" y1="260.83" x2="393.25" y2="126.31"/><line class="cls-3" x1="384.44" y1="261.85" x2="416.32" y2="126.1"/><line class="cls-3" x1="406.75" y1="263" x2="438.63" y2="125.9"/><line class="cls-3" x1="428.27" y1="261.63" x2="460.15" y2="124.54"/><line class="cls-3" x1="449.3" y1="264.8" x2="480.05" y2="124.97"/><line class="cls-3" x1="503.6" y1="125.45" x2="473.33" y2="266.72"/><line class="cls-3" x1="525.71" y1="126.89" x2="495.43" y2="268.17"/><line class="cls-3" x1="548.29" y1="125.93" x2="518.02" y2="267.2"/><line class="cls-3" x1="542.52" y1="270.09" x2="572.32" y2="124.48"/><line class="cls-3" x1="566.07" y1="271.05" x2="595.38" y2="123.04"/><line class="cls-3" x1="591.54" y1="272.01" x2="621.33" y2="124"/><line class="cls-3" x1="619.41" y1="272.97" x2="649.2" y2="124"/><line class="cls-3" x1="643.92" y1="274.89" x2="672.75" y2="123.04"/><line class="cls-3" x1="666.5" y1="275.85" x2="695.82" y2="130.61"/><line class="cls-3" x1="690.05" y1="277.3" x2="717.92" y2="128.81"/><line class="cls-3" x1="718.4" y1="277.78" x2="743.87" y2="131.21"/><line class="cls-3" x1="745.31" y1="279.7" x2="770.3" y2="131.21"/><line class="cls-3" x1="769.34" y1="279.7" x2="796.25" y2="129.29"/><line class="cls-3" x1="795.29" y1="281.62" x2="822.2" y2="128.33"/><line class="cls-3" x1="822.2" y1="284.98" x2="847.67" y2="132.65"/><line class="cls-3" x1="848.63" y1="285.47" x2="873.62" y2="122.56"/><line class="cls-3" x1="879.38" y1="122.56" x2="852.95" y2="285.47"/><line class="cls-3" x1="875.54" y1="284.98" x2="902.45" y2="122.08"/><line class="cls-3" x1="881.79" y1="285.47" x2="906.77" y2="123.04"/><line class="cls-3" x1="905.81" y1="288.83" x2="930.8" y2="122.08"/><line class="cls-3" x1="935.93" y1="121.61" x2="910.58" y2="288.13"/><line class="cls-3" x1="934.68" y1="290.01" x2="961.28" y2="120.99"/><line class="cls-3" x1="940" y1="289.7" x2="965.35" y2="121.3"/><line class="cls-3" x1="967.23" y1="290.95" x2="992.58" y2="120.36"/><line class="cls-3" x1="971.61" y1="291.58" x2="996.03" y2="120.05"/><line class="cls-3" x1="996.34" y1="293.14" x2="1019.19" y2="120.36"/><line class="cls-3" x1="815.5" y1="283.04" x2="842.81" y2="122.99"/><line class="cls-3" x1="847.67" y1="132.65" x2="842.81" y2="122.99"/><line class="cls-3" x1="822.2" y1="128.33" x2="842.81" y2="122.99"/><line class="cls-3" x1="810.31" y1="123.53" x2="821.23" y2="130.09"/><line class="cls-3" x1="795.83" y1="130.63" x2="810.31" y2="123.53"/><line class="cls-3" x1="780.26" y1="123.81" x2="796.25" y2="129.29"/><line class="cls-3" x1="770.3" y1="131.21" x2="780.26" y2="123.81"/><line class="cls-3" x1="754.59" y1="123.53" x2="770.3" y2="131.21"/><line class="cls-3" x1="743.87" y1="131.21" x2="754.59" y2="123.53"/><line class="cls-3" x1="729.74" y1="123.26" x2="743.87" y2="131.21"/><line class="cls-3" x1="717.92" y1="128.81" x2="729.74" y2="123.26"/><line class="cls-3" x1="672.93" y1="276.48" x2="701.88" y2="123.53"/><line class="cls-3" x1="717.92" y1="128.81" x2="701.88" y2="123.53"/><line class="cls-3" x1="694.78" y1="130.91" x2="674.84" y2="124.08"/><line class="cls-3" x1="650.8" y1="123.81" x2="670.19" y2="129.81"/><line class="cls-3" x1="622.4" y1="125.17" x2="648.31" y2="130.62"/><line class="cls-3" x1="595.36" y1="124.62" x2="619.66" y2="127.36"/><line class="cls-3" x1="572.32" y1="124.48" x2="592.9" y2="128.18"/><line class="cls-3" x1="550.02" y1="124.9" x2="569.68" y2="127.63"/><line class="cls-3" x1="525.71" y1="126.89" x2="545.37" y2="127.36"/><line class="cls-3" x1="504.95" y1="126.26" x2="523.52" y2="127.36"/><line class="cls-3" x1="852" y1="122.15" x2="825.48" y2="283.45"/><line class="cls-3" x1="701.88" y1="123.53" x2="695.82" y2="130.61"/><line class="cls-3" x1="352.65" y1="270.9" x2="367.95" y2="279.12"/><line class="cls-3" x1="1009.38" y1="308.6" x2="1020.47" y2="315.02"/><line class="cls-3" x1="367.95" y1="279.12" x2="1020.47" y2="315.02"/><line class="cls-3" x1="1038.83" y1="108" x2="1046.92" y2="118.51"/><line class="cls-3" x1="1020.47" y1="315.02" x2="1046.92" y2="118.51"/><line class="cls-3" x1="266.55" y1="342.1" x2="266.55" y2="321.95"/><line class="cls-3" x1="340.24" y1="309.98" x2="266.55" y2="321.95"/><line class="cls-3" x1="266.55" y1="342.1" x2="940.48" y2="399.42"/><line class="cls-3" x1="939.85" y1="374.86" x2="940.48" y2="399.42"/><line class="cls-3" x1="266.55" y1="321.95" x2="939.85" y2="374.86"/><line class="cls-3" x1="997.17" y1="352.18" x2="939.85" y2="374.86"/><line class="cls-3" x1="999.69" y1="373.6" x2="940.48" y2="399.42"/><line class="cls-3" x1="997.17" y1="352.18" x2="999.69" y2="373.6"/><line class="cls-3" x1="340.24" y1="309.98" x2="997.17" y2="352.18"/><line class="cls-3" x1="439.75" y1="314.39" x2="446.68" y2="284.16"/><line class="cls-3" x1="452.98" y1="316.91" x2="460.54" y2="284.79"/><line class="cls-3" x1="466.84" y1="317.54" x2="473.14" y2="287.31"/><line class="cls-3" x1="883.79" y1="306.2" x2="878.76" y2="342.1"/><line class="cls-3" x1="902.06" y1="309.35" x2="897.65" y2="343.36"/><line class="cls-3" x1="911.51" y1="309.35" x2="905.84" y2="343.36"/><line class="cls-3" x1="351.98" y1="349.71" x2="353.39" y2="366.14"/><line class="cls-3" x1="367" y1="350.18" x2="367.94" y2="367.55"/><line class="cls-3" x1="353.39" y1="366.14" x2="367.94" y2="367.55"/><line class="cls-3" x1="412.07" y1="355.81" x2="367.94" y2="367.55"/><line class="cls-3" x1="399.86" y1="357.69" x2="405.97" y2="541.71"/><line class="cls-3" x1="412.07" y1="355.81" x2="421.93" y2="542.18"/><line class="cls-3" x1="423.34" y1="355.34" x2="431.32" y2="532.32"/><line class="cls-3" x1="361.84" y1="563.3" x2="482.02" y2="522.93"/><line class="cls-3" x1="363.25" y1="579.73" x2="485.3" y2="537.95"/><line class="cls-3" x1="483.03" y1="522.93" x2="485.3" y2="537.95"/><line class="cls-3" x1="361.84" y1="563.3" x2="363.25" y2="579.73"/><line class="cls-3" x1="347.29" y1="559.08" x2="361.84" y2="563.3"/><line class="cls-3" x1="347.29" y1="559.08" x2="405.97" y2="541.71"/><line class="cls-3" x1="471.69" y1="519.64" x2="482.02" y2="522.93"/><line class="cls-3" x1="446.34" y1="527.62" x2="471.69" y2="519.64"/><line class="cls-3" x1="431.32" y1="532.32" x2="573.55" y2="367.55"/><line class="cls-3" x1="585.76" y1="368.49" x2="438.83" y2="536.54"/><line class="cls-3" x1="634.11" y1="373.65" x2="833.62" y2="610.24"/><line class="cls-3" x1="650.07" y1="373.65" x2="837.84" y2="599.92"/><line class="cls-3" x1="805.92" y1="387.73" x2="805.92" y2="407.92"/><line class="cls-3" x1="828.46" y1="389.14" x2="827.05" y2="409.33"/><line class="cls-3" x1="805.92" y1="407.92" x2="827.05" y2="409.33"/><line class="cls-3" x1="865.54" y1="393.37" x2="827.05" y2="409.33"/><line class="cls-3" x1="837.84" y1="599.92" x2="841.6" y2="402.75"/><line class="cls-3" x1="861.32" y1="395.24" x2="857.25" y2="612.42"/><line class="cls-3" x1="871.17" y1="393.84" x2="865.54" y2="593.81"/><line class="cls-3" x1="888.54" y1="579.73" x2="865.54" y2="593.81"/><line class="cls-3" x1="904.03" y1="583.96" x2="886.2" y2="578.79"/><line class="cls-3" x1="810.62" y1="639.35" x2="904.03" y2="583.96"/><line class="cls-3" x1="793.25" y1="634.65" x2="833.62" y2="610.24"/><line class="cls-3" x1="810.62" y1="639.35" x2="793.25" y2="634.65"/><line class="cls-3" x1="792.57" y1="656.92" x2="793.25" y2="634.65"/><line class="cls-3" x1="810.62" y1="639.35" x2="810.62" y2="660"/><line class="cls-3" x1="792.57" y1="656.92" x2="810.62" y2="660"/><line class="cls-3" x1="904.03" y1="583.96" x2="904.5" y2="603.67"/><line class="cls-3" x1="810.62" y1="660" x2="904.5" y2="603.67"/><line class="cls-3" x1="347.29" y1="559.08" x2="348.7" y2="577.85"/><line class="cls-3" x1="363.25" y1="579.73" x2="348.7" y2="577.85"/></svg>