<?xml version="1.0" encoding="UTF-8"?><svg id="Layer_1" xmlns="http://www.w3.org/2000/svg" viewBox="0 0 752.4 600"><defs><style>.cls-1{fill:#fff;}</style></defs><path class="cls-1" d="m752.4,459.36c-1.97.65-3.98,1.16-5.84,2.13-.58.3-1.4.27-2.1.22-2.39-.15-4.78-.37-7.17-.58-5.17-.44-10.35-.89-15.52-1.34-3.74-.32-7.48-.68-11.23-.95-1.19-.09-1.86-.73-2.47-1.64-2.23-3.32-4.49-6.62-6.75-9.92-.39-.57-.84-1.1-1.4-1.83-.57,1.03-.32,1.91-.36,2.74-.04.8.01,1.6-.02,2.4-.03.87.15,1.76-.35,2.66-.75.55-1.71.65-2.64.85-11.5,2.39-23.01,4.77-34.52,7.16-19.72,4.09-39.44,8.19-59.17,12.28-16.51,3.42-33.03,6.83-49.55,10.25-19.02,3.94-38.04,7.9-57.05,11.84-16.44,3.41-32.88,6.8-49.31,10.21-19.1,3.96-38.19,7.93-57.29,11.89-16.36,3.39-32.72,6.77-49.08,10.16-19.72,4.08-39.45,8.17-59.17,12.26-20.74,4.29-41.49,8.58-62.23,12.88-20.35,4.22-40.7,8.46-61.05,12.68-14.4,2.99-28.81,5.95-43.21,8.95-1.15.24-2.4.23-3.35.96-.35.87.11,1.48.4,2.11,1.27,2.76,2.57,5.51,3.87,8.26,1.5,3.18,3,6.36,4.49,9.55.29.63.51,1.3.82,2.1-.59.21-1,.42-1.44.5-2.6.47-5.2.89-7.8,1.36-.54.1-1.05.34-1.57.51h-3.84c-.84-.42-1.66-.93-2.54-1.26-8.06-3.08-16.11-6.17-24.2-9.17-1.4-.52-2.24-1.34-2.82-2.68-1.76-4.02-3.61-8.01-5.43-12.01-1.81-4-3.62-8.01-5.45-12-.25-.54-.34-1.23-1.16-1.56-.07.35-.18.64-.17.92.08,3.03.19,6.07.27,9.1.11,4.07.22,8.15.29,12.22,0,.43-.21.87-.35,1.42-.52-.1-.91-.12-1.27-.25-1.5-.55-2.99-1.12-4.48-1.69-5-1.9-9.99-3.84-15.01-5.68-1.41-.52-2-1.33-1.96-2.84.08-2.63.02-5.27.02-7.91,0-4.31,0-8.63-.01-12.94,0-.51.22-1.13-.49-1.59-.25.28-.54.53-.75.84-.63.92-1.23,1.87-1.84,2.81-2.96,4.55-5.98,9.07-8.86,13.67-1.14,1.81-2.58,2.54-4.84,1.62-1.48-.6-3.02-1.03-4.54-1.54-6.97-2.31-13.95-4.62-20.92-6.93,0-.16,0-.32,0-.48.31-.22.71-.38.91-.67.49-.73.89-1.52,1.33-2.28,8.77-15.16,17.53-30.33,26.3-45.49,2.88-4.98,5.74-9.98,8.66-14.94.81-1.37,1.2-2.75.96-4.34-.14-.94-.13-1.91-.16-2.87-.16-4.88-.31-9.75-.45-14.63-.19-6.23-.37-12.47-.54-18.7-.22-8.15-.43-16.31-.64-24.46,0-.24-.02-.48-.03-.72-.25-6.87-.51-13.74-.75-20.61-.16-4.55-.3-9.11-.44-13.67-.18-5.91-.36-11.83-.52-17.74-.23-8.47-.44-16.95-.66-25.42,0-.24-.02-.48-.03-.72-.25-6.87-.54-13.74-.75-20.61-.26-8.55-.45-17.11-.67-25.66,0-.24-.02-.48-.03-.72-.25-6.79-.51-13.58-.75-20.37-.17-4.71-.3-9.43-.45-14.15-.18-5.99-.36-11.99-.53-17.98-.23-8.39-.44-16.79-.65-25.18,0-.24-.02-.48-.03-.72-.25-6.87-.54-13.74-.74-20.62-.26-8.55-.45-17.11-.67-25.66,0-.24-.02-.48-.03-.72-.25-6.87-.51-13.74-.75-20.61-.16-4.71-.3-9.43-.45-14.15-.18-5.91-.36-11.83-.52-17.74-.23-8.47-.44-16.95-.66-25.42,0-.24-.02-.48-.03-.72-.25-6.71-.54-13.42-.74-20.14-.26-8.71-.45-17.43-.67-26.14,0-.24-.02-.48-.03-.72-.25-6.71-.54-13.42-.74-20.14-.26-8.71-.45-17.43-.68-26.14-.02-.8-.11-1.6-.15-2.39-.07-1.52-.14-3.04-.16-4.55,0-.62.13-1.24.19-1.78,1.17-.64,2.31-.63,3.42-.69,4.15-.22,8.3-.39,12.45-.62.86-.05,1.71-.29,2.57-.45,6.08,0,12.16,0,18.23,0,.94.12,1.88.34,2.83.34,28.06.17,56.13.34,84.19.48,35.1.17,70.2.33,105.3.48,9.28.04,18.55.05,27.83.09,26.62.13,53.25.28,79.87.41,32.62.16,65.24.3,97.86.45,34.94.16,69.88.32,104.82.48,9.51.04,19.03.05,28.55.09,27.5.13,55.01.28,82.51.41,7.28.04,14.55.04,21.83.08.86,0,1.76-.17,2.57.35.61.86.41,1.85.41,2.79.03,7.68.03,15.36.05,23.04.13,43.51.27,87.02.39,130.53.05,17.44.04,34.87.09,52.31.12,43.51.26,87.02.39,130.53.04,14.16.04,28.31.08,42.47.01,4.05-.34,2.97,2.17,6.31,12.49,16.62,25.01,33.23,37.52,49.83,4.38,5.81,8.77,11.6,13.16,17.4v.48ZM118.3,596.25c-.35-.93-.54-1.53-.81-2.1-1.21-2.61-2.44-5.22-3.67-7.82-5.18-11-10.36-21.99-15.53-32.99-6.39-13.61-12.77-27.23-19.14-40.85-1.8-3.84-3.57-7.69-5.39-11.52-.53-1.11-.77-2.24-.81-3.46-.1-3.28-.27-6.55-.39-9.83-.33-8.87-.65-17.74-.97-26.61-.32-8.79-.64-17.58-.96-26.37-.32-8.63-.63-17.26-.95-25.89-.32-8.87-.64-17.74-.97-26.61-.16-4.4-.32-8.79-.48-13.19-.32-8.87-.64-17.74-.97-26.61-.15-4.24-.31-8.47-.47-12.71-.32-8.87-.64-17.74-.97-26.61-.15-4.24-.31-8.47-.47-12.71-.33-8.95-.65-17.9-.97-26.85-.16-4.32-.31-8.63-.47-12.95-.32-8.79-.64-17.58-.96-26.37-.32-8.71-.64-17.42-.95-26.13-.32-8.87-.64-17.74-.97-26.61-.32-8.71-.64-17.42-.95-26.13-.32-8.87-.64-17.74-.97-26.61-.15-4.24-.31-8.47-.47-12.71-.33-8.95-.65-17.9-.97-26.85-.16-4.32-.31-8.63-.47-12.95-.32-8.79-.65-17.58-.96-26.37-.29-8.23-.58-16.46-.85-24.7-.02-.52.2-1.04.33-1.67,1.25-.03,2.36-.09,3.47-.09,34.14.17,68.29.08,102.43.33,53.66.39,107.31.15,160.97.52,49.26.34,98.52.31,147.78.51,48.54.19,97.08-.04,145.62.44,20.55.2,41.1.1,61.66.14,4.32,0,8.64,0,12.95.04.86,0,1.77-.19,2.56.52.46,1.28.25,2.65.25,3.99.01,121.67.01,243.34.01,365.02,0,.88.06,1.77-.01,2.64-.16,1.86.47,3.37,1.59,4.86,16.28,21.68,32.53,43.39,48.78,65.09.34.45.66.92,1.07,1.29.27.25.72.5,1.04.45,1.08-.16,2.18-.34,2.96-1.26-.33-1.06-1-1.76-1.57-2.52-11.31-15.01-22.63-30.02-33.94-45.03-4.81-6.39-9.6-12.79-14.44-19.16-.86-1.13-1.32-2.29-1.32-3.74-.03-6-.17-11.99-.21-17.99-.05-6.88-.03-13.76-.05-20.64-.2-53.99.11-107.99-.43-161.98-.07-7.2-.04-14.4-.05-21.6-.07-48.16-.13-96.31-.2-144.47,0-3.92,0-7.84-.03-11.76,0-1.18.03-2.4-.57-3.42-.89-.54-1.79-.39-2.65-.4-18.39-.12-36.78-.24-55.17-.35-7.2-.04-14.39-.04-21.59-.07-27.51-.13-55.01-.28-82.52-.41-7.04-.03-14.07-.03-21.11-.07-27.51-.13-55.01-.28-82.52-.41-7.04-.03-14.07-.03-21.11-.07-27.51-.13-55.01-.28-82.52-.41-7.04-.03-14.07-.03-21.11-.07-27.51-.13-55.01-.28-82.52-.41-6.96-.03-13.91-.03-20.87-.07-26.87-.13-53.73-.29-80.6-.41-18.95-.08-37.91-.11-56.86-.16-5.92-.02-11.84-.03-17.75-.04-.86,0-1.76-.16-2.6.44-.05.38-.16.77-.15,1.15.2,5.11.43,10.23.62,15.34.33,8.87.65,17.74.97,26.61.32,8.79.64,17.58.96,26.37.32,8.79.64,17.58.96,26.37.32,8.79.64,17.58.96,26.37.32,8.79.64,17.58.96,26.37.16,4.48.32,8.95.48,13.43.16,4.32.32,8.63.47,12.95.32,8.87.64,17.74.97,26.61.16,4.4.32,8.79.48,13.19.32,8.87.64,17.74.97,26.61.15,4.24.31,8.47.47,12.71.33,8.95.65,17.9.97,26.85.16,4.32.31,8.63.47,12.95.32,8.95.65,17.9.97,26.85.15,4.16.31,8.31.46,12.47.33,8.95.65,17.9.97,26.85.32,8.71.63,17.42.95,26.13.16,4.48.32,8.95.48,13.43.32,8.87.64,17.74.97,26.61.15,4.24.31,8.47.47,12.71.32,8.87.64,17.74.97,26.61.16,4.4.33,8.79.48,13.19.2,5.75.4,11.51.55,17.26.04,1.39.3,2.67.91,3.93,1.67,3.46,3.28,6.94,4.92,10.41,9.15,19.3,18.3,38.59,27.45,57.89,3.94,8.31,7.89,16.62,11.84,24.93.34.71.52,1.54,1.55,1.99,2.88-.44,5.94-.85,9.28-1.63ZM25.35,3.55c-.07.51-.2.97-.19,1.43.2,6.15.43,12.31.64,18.46.17,5.2.32,10.39.48,15.59.16,5.28.32,10.55.48,15.83.16,5.12.31,10.23.47,15.35.17,5.44.33,10.87.5,16.31.15,4.96.31,9.91.46,14.87.17,5.44.33,10.87.5,16.31.16,5.12.31,10.23.47,15.35.16,5.28.32,10.55.48,15.83.16,5.2.32,10.39.48,15.59.16,5.28.32,10.55.48,15.83.16,5.2.32,10.39.48,15.59.16,5.2.32,10.39.48,15.59.16,5.36.32,10.71.49,16.07.15,5.04.31,10.07.47,15.11.16,5.36.33,10.71.49,16.07.16,5.2.32,10.39.48,15.59.16,5.2.32,10.39.48,15.59.16,5.28.32,10.55.48,15.83.16,5.2.32,10.39.48,15.59.16,5.28.32,10.55.49,15.83.16,5.12.31,10.23.47,15.35.32,10.63.65,21.26.97,31.89.15,5.04.31,10.07.46,15.11.17,5.6.33,11.19.5,16.79.15,4.8.31,9.59.45,14.39.19,6.55.38,13.11.56,19.67.21,7.83.41,15.67.62,23.5,0,.24.02.48.03.72.25,6.63.47,13.26.76,19.9.09,1.99-.39,3.75-1.39,5.47-6.43,11.06-12.82,22.15-19.22,33.23-4.96,8.59-9.93,17.17-14.88,25.76-.43.75-1.04,1.43-1.07,2.39.17.17.32.41.52.47,7.35,2.49,14.69,4.96,22.05,7.43.44.15.92.17,1.49.27.44-.6.89-1.15,1.28-1.75,2.8-4.29,5.58-8.59,8.37-12.88,1.83-2.81,3.67-5.62,5.53-8.42.24-.36.39-.92,1.12-.82.34.8.18,1.68.18,2.54.02,7.84,0,15.68.01,23.52,0,.72.02,1.44.02,2.16,0,.89.35,1.54,1.21,1.86.22.08.44.19.66.28,5.08,1.94,10.16,3.88,15.25,5.79.49.19,1.05.22,1.62.33.49-.94.37-1.83.34-2.69-.15-4.8-.31-9.59-.49-14.39-.08-2.08-.22-4.15-.29-6.23-.08-2.24-.11-4.48-.14-6.72,0-.28-.04-.66.55-.67.3.59.64,1.21.94,1.85,1.1,2.4,2.18,4.81,3.28,7.21,3.71,8.16,7.44,16.3,11.1,24.48.74,1.65,1.74,2.71,3.49,3.29,2.96.98,5.84,2.18,8.76,3.29,4.41,1.67,8.82,3.35,13.24,5.01.47.18.99.62,1.61-.06-.29-.68-.58-1.41-.91-2.12-3.51-7.45-7.03-14.9-10.56-22.35-8.26-17.42-16.54-34.83-24.8-52.24-2.61-5.49-5.22-10.98-7.78-16.49-.4-.85-.75-1.79-.83-2.72-.22-2.71-.33-5.43-.42-8.14-.23-7.03-.44-14.07-.65-21.1,0-.24-.02-.48-.03-.72-.26-5.99-.54-11.98-.76-17.97-.25-7.11-.44-14.23-.66-21.34,0-.24-.02-.48-.03-.72-.27-6.55-.56-13.1-.8-19.65-.23-6.31-.41-12.63-.61-18.94,0-.16-.01-.32-.02-.48-.26-6.31-.56-12.62-.78-18.93-.25-6.87-.43-13.75-.64-20.62,0-.24-.02-.48-.03-.72-.25-5.83-.54-11.66-.75-17.49-.25-6.95-.44-13.91-.65-20.86,0-.16-.01-.32-.02-.48-.27-6.39-.56-12.78-.79-19.17-.24-6.71-.42-13.43-.63-20.14,0-.24-.02-.48-.03-.72-.25-5.83-.54-11.66-.74-17.49-.25-7.03-.44-14.07-.65-21.1,0-.24-.02-.48-.03-.72-.26-5.99-.54-11.98-.76-17.97-.25-7.03-.44-14.07-.65-21.1,0-.24-.02-.48-.03-.72-.27-6.55-.56-13.1-.8-19.65-.23-6.39-.41-12.79-.61-19.18,0-.16-.01-.32-.02-.48-.25-5.83-.54-11.66-.75-17.49-.26-7.19-.45-14.39-.66-21.58,0-.24-.02-.48-.03-.72-.27-6.39-.56-12.78-.79-19.17-.24-6.55-.42-13.11-.62-19.66,0-.16-.01-.32-.02-.48-.27-6.39-.56-12.78-.79-19.17-.24-6.71-.42-13.43-.63-20.14,0-.24-.02-.48-.03-.72-.25-5.99-.52-11.98-.76-17.97-.17-4.07-.3-8.15-.48-12.22-.03-.61-.21-1.21-.33-1.86-.61-.09-1.08-.24-1.53-.21-4.55.22-9.1.46-13.65.73-.46.03-.9.25-1.43.41Zm92.22,549.61c.53-.95.38-1.85.35-2.71-.05-1.52-.21-3.03-.26-4.55-.18-5.35-.32-10.71-.48-16.07-.16-5.52-.32-11.03-.49-16.55-.16-5.28-.31-10.55-.47-15.83-.16-5.52-.32-11.03-.48-16.55-.16-5.36-.32-10.71-.47-16.07-.16-5.6-.33-11.19-.49-16.79-.16-5.28-.31-10.55-.47-15.83-.16-5.6-.33-11.19-.49-16.79-.15-5.28-.31-10.55-.47-15.83-.16-5.6-.33-11.19-.49-16.79-.15-5.28-.31-10.55-.47-15.83-.16-5.6-.33-11.19-.49-16.79-.16-5.6-.32-11.19-.49-16.79-.16-5.52-.32-11.03-.48-16.55-.16-5.36-.31-10.71-.47-16.07-.16-5.36-.32-10.71-.48-16.07-.16-5.44-.32-10.87-.48-16.31-.16-5.52-.32-11.03-.48-16.55-.16-5.36-.32-10.71-.47-16.07-.16-5.52-.32-11.03-.48-16.55-.16-5.36-.31-10.71-.47-16.07-.16-5.52-.32-11.03-.49-16.55-.16-5.36-.32-10.71-.47-16.07-.16-5.52-.32-11.03-.48-16.55-.16-5.68-.33-11.35-.49-17.03-.16-5.44-.32-10.87-.48-16.31-.16-5.44-.32-10.87-.48-16.31-.16-5.36-.32-10.71-.48-16.07-.16-5.44-.32-10.87-.48-16.31-.16-5.44-.32-10.87-.48-16.31-.16-5.44-.32-10.87-.48-16.31-.16-5.6-.33-11.19-.49-16.79-.09-3.09-.09-3.13-3.1-3.02-4.47.16-8.94.38-13.42.58-.4.02-.8.05-1.19.14-.52.12-.82.48-.87,1.01-.03.32-.02.64,0,.96.21,6.07.43,12.15.64,18.22.16,4.87.31,9.75.46,14.63.16,5.12.32,10.23.48,15.35.16,5.04.32,10.07.47,15.11.16,5.2.32,10.39.49,15.59.16,5.04.32,10.07.47,15.11.16,5.28.33,10.55.49,15.83.15,4.96.31,9.91.47,14.87.16,5.28.33,10.55.49,15.83.15,4.96.31,9.91.47,14.87.17,5.36.33,10.71.5,16.07.15,4.88.31,9.75.46,14.63.17,5.36.33,10.71.5,16.07.16,5.04.31,10.07.47,15.11.16,5.28.33,10.55.49,15.83.16,5.12.32,10.23.48,15.35.16,5.27.33,10.55.49,15.82.15,4.96.31,9.91.47,14.87.16,5.12.32,10.23.48,15.35.16,5.04.32,10.07.47,15.11.16,5.2.32,10.39.49,15.59.16,5.04.32,10.07.47,15.11.16,5.28.33,10.55.49,15.83.15,4.96.31,9.91.47,14.87.16,5.2.32,10.39.49,15.59.16,5.12.32,10.23.48,15.35.16,5.12.32,10.23.48,15.35.16,5.12.32,10.23.48,15.35.16,5.12.32,10.23.48,15.35.16,5.28.33,10.55.49,15.83.16,5.12.32,10.23.48,15.35.16,5.28.33,10.55.49,15.83.16,5.12.32,10.23.48,15.35.17,5.59.33,11.19.51,16.78.03.78-.11,1.61.56,2.51,4.45.92,9.19.84,13.84,1.46.94.12,1.91.27,2.95-.17ZM107.18,22.01c-.06.44-.19.98-.18,1.52.02,2.48.05,4.96.14,7.44.23,6.63.53,13.26.74,19.89.26,8.55.45,17.11.67,25.66,0,.24.02.48.03.72.25,6.47.54,12.94.74,19.41.26,8.39.45,16.79.67,25.18,0,.24.02.48.03.72.25,6.55.51,13.1.75,19.65.17,4.71.31,9.43.45,14.14.18,5.99.37,11.99.53,17.98.23,8.23.43,16.47.65,24.7,0,.24.02.48.03.72.25,6.47.51,12.94.74,19.41.17,4.63.31,9.27.45,13.91.18,5.83.36,11.67.53,17.5.23,8.15.43,16.31.65,24.46,0,.24.02.48.03.72.25,6.63.54,13.26.74,19.89.26,8.55.45,17.11.67,25.66,0,.24.02.48.03.72.25,6.31.51,12.62.74,18.93.18,4.87.31,9.75.47,14.62.16,5.19.33,10.39.49,15.58.16,4.95.31,9.91.47,14.86.17,5.27.33,10.55.49,15.82.16,4.95.31,9.91.47,14.86.17,5.27.33,10.55.49,15.82.16,5.11.33,10.23.48,15.34.22,7.83.4,15.67.64,23.5.22,7.03.52,14.06.76,21.09.18,5.27.35,10.55.5,15.82.2,6.79.39,13.59.58,20.38.18,6.31.36,12.63.54,18.94,0,.24,0,.48.03.72.12,1.36.31,1.62,1.75,1.76,4.69.46,9.39.9,14.08,1.3.52.04,1.05-.15,1.73-.26.04-.9.14-1.68.11-2.46-.1-3.36-.25-6.71-.36-10.07-.18-5.83-.34-11.67-.51-17.5-.15-5.2-.31-10.39-.46-15.59-.17-5.67-.33-11.35-.5-17.02-.15-4.96-.3-9.91-.45-14.87-.17-5.67-.33-11.35-.5-17.02-.15-5.19-.31-10.39-.46-15.58-.17-5.75-.33-11.51-.5-17.26-.15-5.12-.31-10.23-.46-15.35-.17-5.75-.33-11.51-.5-17.26-.15-5.12-.31-10.23-.46-15.35-.17-5.83-.34-11.67-.51-17.5-.15-5.2-.31-10.39-.46-15.59-.16-5.35-.32-10.71-.48-16.06-.16-5.27-.31-10.55-.47-15.82-.17-5.59-.33-11.19-.49-16.78-.16-5.27-.31-10.55-.47-15.82-.17-5.67-.33-11.35-.5-17.02-.15-5.2-.31-10.39-.46-15.59-.17-5.59-.33-11.19-.49-16.78-.16-5.43-.32-10.87-.48-16.3-.16-5.59-.33-11.19-.49-16.78-.15-4.96-.3-9.91-.45-14.87-.17-5.75-.33-11.51-.5-17.26-.15-5.12-.31-10.23-.46-15.35-.17-5.75-.33-11.51-.5-17.26-.15-5.12-.31-10.23-.46-15.35-.17-5.83-.34-11.67-.51-17.5-.15-5.04-.3-10.07-.45-15.11-.17-5.83-.34-11.67-.51-17.5-.15-5.2-.32-10.39-.46-15.59-.21-7.99-.41-15.99-.61-23.98-.03-1.2-.01-2.4-.09-3.6-.09-1.51-.36-1.72-1.94-1.77-.16,0-.32,0-.48,0-4.55.2-9.1.39-13.65.61-.79.04-1.61.06-2.35.76Zm56.93,525.06c.06-.61.17-1.07.15-1.53-.16-5.6-.34-11.19-.5-16.79-.18-6.08-.37-12.15-.53-18.23-.24-9.11-.45-18.23-.67-27.35,0-.24-.02-.48-.03-.72-.25-6.71-.51-13.42-.74-20.14-.17-4.96-.31-9.91-.45-14.87-.18-6.08-.34-12.15-.52-18.23-.14-4.64-.29-9.27-.43-13.91-.18-5.92-.34-11.83-.52-17.75-.15-5.12-.31-10.23-.46-15.35-.16-5.52-.33-11.03-.49-16.55-.15-5.12-.31-10.23-.46-15.35-.17-5.76-.33-11.51-.5-17.27-.15-4.96-.31-9.91-.45-14.87-.19-6.72-.38-13.43-.55-20.15-.22-8.39-.42-16.79-.63-25.19,0-.24-.02-.48-.03-.72-.25-6.71-.53-13.42-.73-20.14-.27-9.19-.46-18.39-.68-27.58,0-.24-.02-.48-.02-.72-.25-6.63-.5-13.26-.73-19.9-.17-5.04-.31-10.07-.46-15.11-.18-6-.34-11.99-.52-17.99-.14-4.72-.3-9.43-.44-14.15-.18-6-.35-11.99-.52-17.99-.14-4.88-.3-9.75-.44-14.63-.18-6.08-.34-12.15-.52-18.23-.14-4.64-.29-9.27-.43-13.91-.18-6-.35-11.99-.52-17.99-.15-5.04-.3-10.07-.45-15.11-.17-5.52-.34-11.03-.49-16.55-.19-6.64-.36-13.27-.55-19.91-.07-2.57-.17-2.7-2.78-2.61-4.55.16-9.11.37-13.66.58-1.96.09-2.24.37-2.2,2.29.04,1.84.23,3.67.28,5.51.24,8.63.45,17.27.68,25.9,0,.24.02.48.03.72.25,6.23.51,12.46.73,18.7.18,4.79.31,9.59.46,14.39.17,5.52.34,11.03.51,16.55.15,4.72.3,9.43.45,14.15.17,5.2.33,10.39.49,15.59.16,4.96.31,9.91.47,14.87.16,5.2.33,10.39.49,15.59.16,4.96.32,9.91.47,14.87.16,5.12.32,10.23.48,15.35.16,5.28.33,10.55.49,15.83.15,4.8.32,9.59.46,14.39.23,7.99.4,15.99.65,23.98.22,6.95.52,13.9.76,20.86.19,5.35.34,10.71.51,16.07.17,5.36.33,10.71.5,16.07.15,4.64.3,9.27.45,13.91.17,5.44.34,10.87.51,16.31.15,4.8.31,9.59.46,14.39.17,5.44.34,10.87.51,16.31.15,4.64.3,9.27.45,13.91.17,5.52.34,11.03.51,16.55.15,4.72.31,9.43.45,14.15.19,6.15.37,12.31.54,18.46.22,7.91.42,15.83.64,23.74,0,.16.01.32.02.48.24,6.15.51,12.3.73,18.46.18,4.95.32,9.91.47,14.87.17,5.52.34,11.03.51,16.55.14,4.56.31,9.11.44,13.67.22,7.51.41,15.03.62,22.54.07,2.32.16,4.63.29,6.95.13,2.4-.17,2.85,3.09,3.09,3.27.24,6.53.58,9.79.85,1.43.12,2.86.33,4.56.02Zm-70.07-7.82c.17-.03.34-.06.51-.09,0-.71.02-1.42,0-2.12-.12-3.44-.27-6.87-.39-10.31-.17-4.87-.32-9.75-.49-14.63-.15-4.56-.32-9.11-.47-13.67-.16-4.8-.32-9.59-.48-14.39-.16-4.8-.32-9.59-.48-14.39-.16-4.64-.32-9.27-.47-13.91-.16-4.8-.32-9.59-.48-14.39-.32-9.51-.64-19.02-.96-28.53-.16-4.72-.32-9.43-.48-14.15-.32-9.51-.64-19.02-.96-28.53-.16-4.72-.32-9.43-.48-14.15-.32-9.51-.64-19.02-.96-28.53-.16-4.72-.32-9.43-.48-14.15-.32-9.59-.65-19.18-.97-28.77-.16-4.8-.32-9.59-.48-14.39-.32-9.43-.64-18.86-.96-28.29-.16-4.8-.32-9.59-.48-14.39-.16-4.72-.32-9.43-.48-14.15-.16-4.64-.32-9.27-.47-13.91-.17-4.96-.33-9.91-.49-14.87-.16-4.64-.31-9.27-.47-13.91-.16-4.64-.31-9.27-.47-13.91-.32-9.51-.64-19.02-.96-28.53-.16-4.72-.33-9.43-.47-14.15-.22-7.43-.4-14.87-.65-22.3-.22-6.63-.52-13.26-.77-19.89-.18-4.87-.34-9.75-.5-14.63-.19-5.99-.38-11.99-.56-17.98-.18-5.83-.35-11.67-.54-17.5-.07-2.25-.26-2.46-2.53-2.47-4.88-.03-9.76-.01-14.63,0-.48,0-.96.04-1.43.13-.51.1-.87.43-.92.97-.06.55-.09,1.12-.06,1.67.09,1.92.24,3.83.31,5.75.33,8.87.65,17.74.97,26.61.32,8.79.64,17.58.96,26.37.32,8.63.63,17.26.95,25.89.32,8.87.65,17.74.97,26.61.16,4.39.32,8.79.48,13.19.16,4.32.32,8.63.47,12.95.32,8.87.64,17.74.97,26.61.15,4.24.31,8.47.47,12.71.33,8.95.65,17.9.98,26.85.16,4.32.31,8.63.47,12.95.32,8.87.64,17.74.97,26.61.32,8.63.63,17.26.95,25.89.32,8.87.64,17.74.97,26.61.32,8.71.64,17.42.95,26.13.32,8.87.64,17.74.97,26.61.15,4.24.31,8.47.47,12.71.33,8.95.65,17.9.97,26.85.16,4.32.31,8.63.47,12.95.32,8.87.64,17.74.97,26.61.32,8.63.65,17.26.94,25.89.24,7.03.46,14.07.63,21.1.04,1.56.37,2.97,1.03,4.38,5.73,12.15,11.42,24.32,17.13,36.49.3.64.65,1.25.98,1.87Zm92.47,1.77c.04-.92.12-1.71.1-2.49-.08-2.56-.23-5.11-.3-7.67-.18-6.23-.33-12.47-.5-18.71-.16-5.84-.31-11.67-.47-17.51-.17-6.24-.33-12.47-.49-18.71-.15-5.76-.31-11.51-.46-17.27-.17-6.32-.33-12.63-.5-18.95-.15-5.68-.31-11.35-.46-17.03-.17-6.32-.33-12.63-.5-18.95-.15-5.84-.31-11.67-.47-17.51-.17-6.24-.33-12.47-.49-18.71-.15-5.76-.31-11.51-.46-17.27-.17-6.4-.33-12.79-.5-19.19-.15-5.6-.3-11.19-.45-16.79-.17-6.4-.33-12.79-.5-19.19-.15-5.6-.3-11.19-.45-16.79-.17-6.56-.34-13.11-.51-19.67-.15-5.6-.3-11.19-.45-16.79-.17-6.48-.34-12.95-.51-19.43-.15-5.52-.3-11.03-.45-16.55-.17-6.56-.34-13.11-.51-19.67-.14-5.44-.3-10.87-.44-16.31-.18-6.64-.34-13.27-.52-19.91-.14-5.36-.3-10.71-.44-16.07-.18-6.88-.35-13.75-.53-20.63-.14-5.28-.3-10.55-.44-15.83-.18-6.72-.34-13.43-.52-20.15-.14-5.28-.3-10.55-.44-15.83-.18-6.88-.35-13.75-.53-20.63-.16-6-.32-11.99-.48-17.99-.01-.4-.04-.8-.09-1.2-.07-.63-.43-1.02-1.07-1.1-.47-.06-.96-.09-1.43-.09-4.4,0-8.8-.02-13.19,0-2.27.01-2.46.2-2.42,2.49.03,1.84.22,3.67.27,5.51.17,5.76.32,11.51.47,17.27.16,6.16.33,12.31.49,18.47.16,5.84.31,11.67.47,17.51.16,6.08.32,12.15.48,18.23.16,6,.32,11.99.48,17.99.16,5.92.32,11.83.47,17.75.16,6.16.33,12.31.49,18.47.16,5.84.32,11.67.47,17.51.16,6.16.33,12.31.49,18.47.16,5.84.31,11.67.47,17.51.16,6.08.32,12.15.49,18.23.16,5.92.32,11.83.47,17.75.16,6.08.32,12.15.48,18.23.16,5.92.32,11.83.47,17.75.16,6.08.32,12.15.48,18.23.16,5.92.32,11.83.47,17.75.16,6.08.32,12.15.49,18.23.16,5.92.32,11.83.47,17.75.16,6.08.32,12.15.49,18.23.16,5.92.32,11.83.47,17.75.16,6.16.33,12.31.49,18.47.15,5.68.31,11.35.46,17.03.17,6.32.33,12.63.5,18.95.15,5.68.31,11.35.46,17.03.17,6.32.33,12.63.5,18.95.15,5.68.31,11.35.46,17.03.17,6.32.34,12.63.5,18.95.19,7.36.36,14.71.55,22.07.02.79-.08,1.61.45,2.47.41.14.92.38,1.45.48,6.39,1.23,13.82,2.19,16.21,2.07Zm85.42-18.08c.68-.66.54-1.42.52-2.11-.05-1.6-.2-3.19-.24-4.79-.18-8-.34-15.99-.51-23.99-.15-7.2-.31-14.39-.46-21.59-.16-7.76-.33-15.51-.49-23.27-.16-7.44-.31-14.87-.47-22.31-.16-7.76-.33-15.51-.49-23.27-.16-7.44-.31-14.87-.47-22.31-.16-7.76-.33-15.51-.49-23.27-.15-7.28-.31-14.55-.46-21.83-.17-8-.33-15.99-.5-23.99-.15-7.2-.31-14.39-.46-21.59-.17-7.84-.33-15.67-.5-23.51-.16-7.36-.31-14.71-.47-22.07-.17-7.92-.33-15.83-.5-23.75-.15-7.12-.31-14.23-.46-21.35-.17-8.24-.34-16.47-.51-24.71-.15-6.96-.3-13.91-.45-20.87-.17-8-.33-15.99-.5-23.99-.15-7.36-.31-14.71-.47-22.07-.16-7.68-.32-15.35-.49-23.03-.15-7.28-.32-14.55-.46-21.83-.19-9.68-.38-19.35-.56-29.03-.06-3.2-.08-6.4-.12-9.6,0-.64,0-1.28-.06-1.92-.11-1.19-.44-1.5-1.68-1.57-.56-.03-1.12,0-1.68.02-1.84.05-3.67.13-5.51.16-2.32.03-4.64-.01-6.96.01-2.57.02-2.73.16-2.69,2.73.05,2.64.22,5.27.28,7.91.18,7.6.33,15.19.5,22.79.16,7.2.32,14.39.47,21.59.16,7.2.32,14.39.47,21.59.16,7.36.32,14.71.48,22.07.16,7.44.32,14.87.49,22.31.16,7.28.32,14.55.48,21.83.16,7.44.32,14.87.49,22.31.16,7.28.32,14.55.48,21.83.16,7.28.32,14.55.48,21.83s.32,14.55.48,21.83c.16,7.44.33,14.87.49,22.31.16,7.44.32,14.87.48,22.31.16,7.28.32,14.55.48,21.83.16,7.28.32,14.55.48,21.83.16,7.36.32,14.71.48,22.07.16,7.2.32,14.39.47,21.59.16,7.52.33,15.03.49,22.55.16,7.36.32,14.71.48,22.07.16,7.28.32,14.55.48,21.83.16,7.36.32,14.71.48,22.07.16,7.2.32,14.39.47,21.59.18,8.48.35,16.95.53,25.43.02.87-.11,1.77.39,2.66.22.11.49.33.79.37,5.21.81,10.43,1.6,15.65,2.38.3.04.62-.05.85-.07ZM200.66,20.68c-.66,1.07-.54,1.89-.52,2.67.09,3.04.23,6.07.31,9.11.18,7.12.33,14.23.5,21.35.15,6.64.31,13.27.46,19.91.17,7.28.33,14.55.5,21.83.15,6.64.31,13.27.46,19.91.17,7.2.33,14.39.5,21.59.15,6.56.31,13.11.46,19.67.17,7.28.33,14.55.5,21.83.15,6.64.31,13.27.46,19.91.17,7.2.33,14.39.5,21.59.15,6.56.31,13.11.46,19.67.17,7.28.33,14.55.5,21.83.15,6.64.31,13.27.46,19.91.17,7.28.33,14.55.5,21.83.15,6.48.31,12.95.45,19.43.17,7.44.34,14.87.51,22.31.15,6.32.3,12.63.45,18.95.17,7.6.34,15.19.52,22.79.15,6.32.3,12.63.45,18.95.18,7.68.34,15.35.52,23.03.14,6.08.3,12.15.44,18.23.18,7.68.34,15.35.52,23.03.14,6.24.3,12.47.44,18.71.18,7.92.37,15.83.52,23.75.08,4.16.11,8.32.17,12.48,0,.64,0,1.28.06,1.92.13,1.43.43,1.8,1.88,2.02,4.66.71,9.33,1.39,14,2.06.61.09,1.24.06,1.81.09.68-.9.47-1.81.46-2.66-.12-5.52-.28-11.03-.41-16.55-.17-7.04-.33-14.07-.49-21.11-.16-6.72-.31-13.43-.47-20.15-.16-6.96-.33-13.91-.49-20.87-.16-6.64-.31-13.27-.47-19.91-.17-7.12-.33-14.23-.5-21.35-.15-6.48-.31-12.95-.46-19.43-.17-7.12-.33-14.23-.5-21.35-.15-6.64-.31-13.27-.47-19.91-.16-7.04-.33-14.07-.49-21.11-.15-6.56-.31-13.11-.46-19.67-.17-7.2-.33-14.39-.5-21.59-.15-6.56-.31-13.11-.46-19.67-.17-7.04-.33-14.07-.49-21.11-.15-6.56-.31-13.11-.46-19.67-.17-7.2-.33-14.39-.5-21.59-.15-6.4-.3-12.79-.45-19.19-.17-7.28-.34-14.55-.51-21.83-.15-6.48-.31-12.95-.46-19.43-.17-7.2-.33-14.39-.5-21.59-.15-6.4-.31-12.79-.45-19.19-.17-7.44-.34-14.87-.51-22.31-.14-6.16-.3-12.31-.44-18.47-.18-7.68-.36-15.35-.52-23.03-.09-4.48-.12-8.96-.19-13.44-.02-1.35,0-2.71-.69-4.11-.69-.07-1.39-.21-2.09-.2-4.94.04-9.89-.16-14.79.13Zm190.44,477.44c.61-1.24.45-2.21.44-3.16-.1-6.32-.24-12.63-.33-18.95-.18-13.11-.32-26.23-.5-39.34-.17-12.15-.09-24.31-.42-36.46-.35-13.19-.36-26.39-.54-39.58-.17-12.23-.08-24.47-.42-36.7-.37-12.95-.12-25.91-.49-38.86-.35-12.31-.12-24.63-.47-36.94-.37-12.95-.12-25.91-.49-38.86-.35-12.31-.12-24.63-.46-36.94-.37-13.03-.13-26.07-.5-39.11-.35-12.39-.12-24.79-.47-37.18-.36-12.87-.08-25.75-.49-38.62-.23-7.19-.12-14.4-.18-21.59-.03-3.84-.05-7.68-.11-11.52-.02-1.18,0-2.39-.71-3.59-.79-.05-1.57-.15-2.35-.16-4.4-.02-8.8,0-13.19,0-.48,0-.96,0-1.44.05-.81.09-1.16.41-1.23,1.2-.06.63-.07,1.28-.06,1.92.09,4,.22,7.99.27,11.99.18,13.43.33,26.87.49,40.3.16,13.19.32,26.39.47,39.58.16,13.83.32,27.67.49,41.5.15,12.87.31,25.75.47,38.62.16,13.67.33,27.35.49,41.02.16,13.35.32,26.71.48,40.06.16,13.43.32,26.87.48,40.3.16,13.19.32,26.39.48,39.58.17,13.99.33,27.99.49,41.98.15,12.95.32,25.91.47,38.86.19,16.47.37,32.95.55,49.42.03,2.64.03,5.28.06,7.92,0,.64.03,1.28.11,1.91.06.53.42.84.95.93.31.05.63.09.95.1,4.87.16,9.75.32,14.62.45.7.02,1.4-.09,2.11-.14Zm-57.2,12.66c.03-1.05.09-1.92.07-2.79-.11-4.96-.26-9.91-.36-14.87-.17-7.83-.31-15.67-.46-23.5-.17-8.71-.33-17.43-.5-26.14-.15-7.75-.31-15.51-.46-23.26-.17-9.03-.34-18.07-.51-27.1-.14-7.44-.3-14.87-.44-22.31-.18-9.11-.34-18.23-.52-27.34-.14-7.36-.3-14.71-.44-22.07-.17-8.87-.34-17.75-.51-26.62-.15-7.75-.31-15.51-.46-23.26-.17-8.63-.33-17.27-.5-25.9-.15-7.83-.31-15.67-.46-23.5-.17-8.55-.33-17.11-.49-25.66-.15-7.91-.31-15.83-.47-23.74-.17-8.55-.33-17.11-.49-25.66-.15-7.91-.31-15.83-.47-23.74-.17-8.47-.33-16.95-.49-25.42-.16-7.99-.31-15.99-.47-23.98-.17-8.55-.33-17.11-.49-25.66-.16-8.31-.32-16.63-.48-24.94-.05-2.6-.16-2.72-2.73-2.73-4.16-.02-8.32-.01-12.47,0-.7,0-1.41.11-1.95.15-.74.85-.62,1.68-.6,2.46.06,2.16.21,4.31.25,6.47.17,9.35.32,18.71.47,28.06.17,10.07.33,20.15.5,30.22.15,9.27.31,18.55.46,27.82.17,10.15.33,20.31.5,30.46.15,9.19.31,18.39.46,27.58.17,10.31.34,20.63.51,30.94.15,9.03.3,18.07.45,27.1.17,10.31.34,20.63.51,30.94.15,9.03.3,18.07.45,27.1.17,10.39.34,20.79.51,31.18.15,8.95.3,17.91.45,26.86.17,10.47.34,20.95.51,31.42.15,8.87.3,17.75.45,26.62.17,10.55.34,21.11.51,31.66.15,8.79.3,17.59.45,26.38.18,11.27.36,22.55.53,33.82.05,3.12.05,6.24.1,9.36.01.78-.14,1.62.66,2.4,5.63.74,11.46.94,17.26,1.46.29.03.6-.14,1.18-.29ZM194.17,20.8c-.93,0-1.56-.04-2.18,0-.72.05-1.43.19-2.14.26-3.42.35-6.84.69-10.26,1.05-1.76.19-1.96.44-2,2.3-.01.48,0,.96.02,1.44.1,2.08.23,4.15.3,6.23.18,6.07.33,12.15.5,18.23.15,5.6.31,11.19.47,16.79.16,5.76.32,11.51.48,17.27.16,6,.33,11.99.49,17.99.16,5.68.31,11.35.47,17.03.16,5.84.32,11.67.48,17.51.16,6,.32,11.99.49,17.99.16,5.68.32,11.35.47,17.03.16,5.68.31,11.35.47,17.03.16,6,.33,11.99.49,17.99.16,5.68.31,11.35.47,17.03.16,5.92.32,11.83.49,17.75.16,5.76.32,11.51.48,17.27.16,5.92.32,11.83.49,17.75.15,5.6.31,11.19.46,16.79.17,6.08.33,12.15.5,18.23.15,5.6.31,11.19.47,16.79.16,6,.33,11.99.49,17.99.16,5.68.31,11.35.47,17.03.16,6,.33,11.99.49,17.99.15,5.52.31,11.03.46,16.55.17,6.16.34,12.31.5,18.47.15,5.52.31,11.03.46,16.55.17,6.4.34,12.79.52,19.19.14,5.28.3,10.55.45,15.83.17,6.08.33,12.15.5,18.23.15,5.6.32,11.19.46,16.79.2,7.83.39,15.67.58,23.51.04,1.76.05,3.52.09,5.28.01.56.04,1.12.12,1.67.09.62.48.99,1.1,1.1.24.04.47.08.71.1,4.37.46,8.74.92,13.12,1.36.63.06,1.28.07,1.92.04.78-.04,1.12-.39,1.19-1.22.05-.64.05-1.28.03-1.92-.12-3.76-.27-7.51-.39-11.27-.17-5.28-.32-10.55-.48-15.83-.16-5.36-.32-10.71-.49-16.07-.16-5.12-.31-10.23-.47-15.35-.16-5.36-.32-10.71-.48-16.07-.16-5.52-.32-11.03-.49-16.55-.16-5.2-.32-10.39-.47-15.59-.16-5.28-.32-10.55-.48-15.83s-.32-10.55-.48-15.83c-.17-5.6-.33-11.19-.49-16.79-.15-5.04-.31-10.07-.46-15.11-.17-5.52-.33-11.03-.5-16.55-.15-5.04-.31-10.07-.46-15.11-.17-5.76-.34-11.51-.51-17.27-.15-5.12-.31-10.23-.47-15.35-.16-5.28-.32-10.55-.48-15.83-.16-5.2-.33-10.39-.47-15.59-.24-9.03-.45-18.07-.67-27.1-.02-.64-.03-1.28-.05-1.92-.25-6.63-.5-13.26-.74-19.9-.17-4.87-.31-9.75-.45-14.63-.17-5.6-.33-11.19-.5-16.79-.16-5.28-.31-10.55-.47-15.83-.16-5.36-.32-10.71-.49-16.07-.16-5.12-.31-10.23-.47-15.35-.16-5.44-.33-10.87-.49-16.31-.16-5.44-.32-10.87-.48-16.31-.16-5.2-.32-10.39-.48-15.59-.16-5.28-.32-10.55-.48-15.83-.16-5.28-.32-10.55-.48-15.83-.16-5.44-.33-10.87-.48-16.31-.19-6.63-.37-13.27-.56-19.9-.02-.78-.11-1.57-.2-2.66Zm56.56,507.07c.06-1.04.16-1.82.14-2.6-.06-1.92-.22-3.83-.27-5.75-.17-6.39-.32-12.79-.48-19.18-.16-6.71-.33-13.43-.49-20.14-.16-6.39-.31-12.79-.47-19.18-.17-6.79-.33-13.59-.49-20.38-.15-6.31-.31-12.63-.46-18.94-.17-6.95-.33-13.91-.5-20.86-.15-6.31-.31-12.63-.47-18.94-.17-6.87-.33-13.75-.5-20.62-.15-6.23-.31-12.47-.46-18.7-.17-6.79-.33-13.59-.5-20.38-.16-6.39-.31-12.79-.47-19.18-.16-6.71-.33-13.43-.49-20.14-.16-6.55-.32-13.11-.48-19.66-.16-6.71-.32-13.43-.49-20.14-.16-6.39-.31-12.79-.47-19.18-.16-6.79-.33-13.59-.49-20.38-.15-6.31-.31-12.63-.46-18.94-.17-6.79-.33-13.59-.49-20.38-.16-6.47-.32-12.95-.47-19.42-.16-6.79-.33-13.59-.49-20.38-.15-6.32-.31-12.63-.46-18.95-.17-6.87-.33-13.75-.5-20.62-.15-6.24-.31-12.47-.46-18.7-.18-7.43-.35-14.87-.52-22.3-.16-6.87-.32-13.75-.5-20.62-.02-.78.12-1.62-.59-2.32-.25-.06-.55-.2-.86-.2-5.12-.02-10.23-.03-15.35,0-.44,0-.88.26-1.45.45-.03.93-.1,1.8-.08,2.66.12,4.64.27,9.27.41,13.91.16,5.59.31,11.19.47,16.78.17,5.99.33,11.99.49,17.98.15,5.51.31,11.03.46,16.54.17,6.07.33,12.15.5,18.22.15,5.43.31,10.87.46,16.3.18,6.39.34,12.79.52,19.18.15,5.28.3,10.55.45,15.82.17,6.07.33,12.15.5,18.22.15,5.44.31,10.87.46,16.3.17,6.15.33,12.31.51,18.46.15,5.35.3,10.71.45,16.06.17,6.23.34,12.47.51,18.7.15,5.28.3,10.55.45,15.82.17,6.23.34,12.47.51,18.7.15,5.59.31,11.19.47,16.78.16,5.91.33,11.83.49,17.74.15,5.51.31,11.03.46,16.54.17,5.99.33,11.99.5,17.98.15,5.51.31,11.03.46,16.54.17,5.99.33,11.99.5,17.98.15,5.51.31,11.03.46,16.54.17,6.07.33,12.15.5,18.22.15,5.43.31,10.87.46,16.3.17,6.15.34,12.31.51,18.46.16,5.67.32,11.35.47,17.02.2,7.51.38,15.03.57,22.54.2,8.31.39,16.63.61,24.94.05,1.92.2,3.83.32,5.75.03.39.16.76.23,1.08,1.69.75,5.62,1.5,13.94,2.66.69.1,1.41.01,2.43.01ZM673.93,19.62c.48,1.38.3,2.66.3,3.92,0,138.86,0,277.72,0,416.58,0,1.04-.02,2.08.03,3.12.02.46.18.91.28,1.42.63,0,1.19.09,1.71-.01,4.39-.86,8.78-1.76,13.17-2.65.31-.06.62-.16.92-.26.59-.19.94-.6.99-1.22.05-.56.07-1.12.07-1.68.03-2.32.03-4.64.07-6.96,0-.52.1-1.05.17-1.72.99.42,1.27,1.21,1.7,1.84,4.05,5.95,8.09,11.91,12.13,17.86,1.26,1.85,2.57,3.67,3.78,5.55.67,1.05,1.54,1.47,2.77,1.55,4.31.29,8.6.67,12.9,1.04,2.47.21,4.93.49,7.4.7,2.71.24,5.42.45,8.13.64.52.04,1.13.19,1.54-.51-.19-.84-.84-1.47-1.35-2.16-15.53-20.75-31.07-41.48-46.59-62.23-3.06-4.09-2.59-2.53-2.59-7.85,0-121.5,0-243,0-364.51,0-1.04.02-2.08-.04-3.12-.02-.45-.22-.89-.36-1.44-.79-.07-1.49-.18-2.2-.18-6.4-.03-12.79-.03-19.19-.04-.48,0-.96.04-1.43.12-.55.1-.79.52-.79,1.04,0,.52.21.98.77,1.05.71.09,1.43.08,2.15.09,1.11.01,2.22,0,3.55,0Zm-361.53,494.21c.55-.92.42-1.73.4-2.52-.08-2.96-.23-5.91-.29-8.87-.18-7.75-.32-15.51-.48-23.27-.16-7.84-.32-15.67-.48-23.51s-.32-15.67-.48-23.51c-.16-7.84-.32-15.67-.48-23.51-.16-7.84-.32-15.67-.48-23.51-.16-7.84-.32-15.67-.48-23.51-.16-7.84-.32-15.67-.48-23.51-.16-7.84-.32-15.67-.48-23.51-.16-7.84-.32-15.67-.48-23.51-.16-8-.32-15.99-.49-23.99-.16-7.68-.32-15.35-.47-23.03-.16-7.68-.32-15.35-.47-23.03-.16-7.92-.32-15.83-.48-23.75-.16-7.76-.32-15.51-.48-23.27-.16-7.92-.32-15.83-.48-23.75-.16-7.76-.32-15.51-.48-23.27-.16-7.92-.32-15.83-.48-23.75-.16-7.76-.32-15.51-.48-23.27-.16-7.92-.33-15.83-.48-23.75-.21-10.87-.39-21.75-.59-32.62-.01-.64-.02-1.28-.09-1.92-.09-.78-.43-1.1-1.25-1.18-.63-.06-1.28-.06-1.92-.06-3.28,0-6.56,0-9.84,0-3.27,0-3.3.02-3.25,3.37.1,6.32.26,12.63.37,18.95.17,9.84.33,19.67.49,29.51.15,9.2.31,18.39.47,27.59.17,9.84.33,19.67.49,29.51.15,9.2.31,18.39.47,27.59.16,9.76.33,19.51.49,29.27.16,9.28.31,18.55.47,27.83.16,9.76.33,19.51.49,29.27.16,9.28.31,18.55.47,27.83.17,10,.33,19.99.5,29.99.15,8.88.3,17.75.45,26.63.17,10.16.34,20.31.51,30.47.15,8.88.31,17.75.45,26.63.17,10.08.33,20.15.5,30.23.15,8.96.31,17.91.46,26.87.17,10.16.34,20.31.5,30.47.06,3.68.05,7.36.11,11.04.14,8.88.3,17.75.46,26.63.05,2.55.22,2.72,2.69,2.91.24.02.48.02.72.04,3.58.28,7.17.58,10.75.84,1.18.09,2.38.33,3.61-.1Zm-24.92-244.16c-.15-3.38-.32-6.17-.39-8.97-.19-7.76-.34-15.51-.5-23.27-.15-7.28-.31-14.55-.47-21.83-.16-7.76-.33-15.51-.49-23.27-.15-7.28-.31-14.55-.47-21.83-.16-7.76-.33-15.51-.49-23.27-.15-7.28-.31-14.55-.47-21.83-.17-7.84-.33-15.67-.5-23.51-.15-7.2-.32-14.39-.46-21.59-.21-10.64-.4-21.27-.6-31.91-.17-8.72-.35-17.43-.52-26.15,0-.08,0-.16,0-.24-.09-2.27-.25-2.47-2.5-2.49-3.76-.03-7.52-.02-11.28,0-2.88.01-3,.11-2.94,2.97.07,3.68.24,7.35.32,11.03.18,8.08.33,16.15.5,24.23.15,7.6.31,15.19.46,22.79.17,8.16.33,16.31.49,24.47.16,7.68.31,15.35.47,23.03.17,8.16.33,16.31.5,24.47.15,7.52.31,15.03.46,22.55.17,8.24.33,16.47.5,24.71.15,7.6.31,15.19.46,22.79.17,8.24.33,16.47.5,24.71.15,7.44.31,14.87.46,22.31.17,8.24.33,16.47.5,24.71.16,7.76.32,15.51.47,23.27.16,8.16.33,16.31.49,24.47.15,7.36.3,14.71.45,22.07.17,8.4.34,16.79.51,25.19.15,7.6.31,15.19.47,22.79.16,8,.32,15.99.49,23.99.15,7.6.31,15.19.47,22.79.16,8.08.34,16.15.49,24.23.2,10.48.38,20.95.58,31.43.01.64.04,1.28.11,1.91.06.53.42.85.94.94.39.07.79.09,1.19.12,4.39.25,8.78.51,13.17.75,1.4.08,1.73-.21,1.79-1.57.03-.56.02-1.12,0-1.68-.09-2.32-.23-4.63-.28-6.95-.17-7.28-.32-14.55-.47-21.83-.16-7.68-.33-15.35-.49-23.03-.16-7.36-.31-14.71-.47-22.07-.16-7.68-.33-15.35-.49-23.03-.16-7.36-.31-14.71-.47-22.07-.16-7.68-.33-15.35-.49-23.03-.16-7.36-.31-14.71-.47-22.07-.16-7.68-.33-15.35-.49-23.03-.16-7.36-.32-14.71-.47-22.07-.19-9.44-.38-18.87-.55-28.31-.05-2.8,0-5.6,0-7.82Zm65.26,237.43c.49-.81.4-1.62.37-2.41-.09-2.96-.23-5.91-.29-8.87-.18-7.84-.33-15.67-.49-23.51-.16-7.68-.32-15.35-.47-23.03-.17-8.16-.33-16.31-.5-24.47-.15-7.36-.31-14.71-.46-22.07-.17-8.08-.33-16.15-.49-24.23-.16-7.6-.31-15.19-.47-22.79-.17-8.16-.33-16.31-.5-24.47-.15-7.36-.31-14.71-.46-22.07-.17-8-.33-15.99-.49-23.99-.16-7.84-.32-15.67-.48-23.51-.16-7.68-.32-15.35-.48-23.03-.16-7.68-.32-15.35-.47-23.03-.18-9.03-.34-18.07-.53-27.1-.13-6.4-.29-12.79-.42-19.19-.17-8.16-.33-16.31-.5-24.47-.15-7.52-.31-15.03-.47-22.55-.16-8-.33-15.99-.49-23.99-.15-7.52-.32-15.03-.47-22.55-.17-8.47-.33-16.95-.5-25.43-.17-8.71-.35-17.43-.53-26.14-.02-.78.12-1.61-.51-2.46-.5-.06-1.12-.22-1.74-.2-4.15.14-8.31.32-12.46.49-.24,0-.48.04-.71.09-.52.11-.88.43-.93.96-.07.71-.1,1.44-.08,2.15.14,7.12.29,14.23.43,21.35.17,8.32.32,16.63.49,24.95.16,7.92.31,15.83.47,23.75.16,8.24.32,16.47.48,24.71.16,8.32.32,16.63.48,24.95.16,8.16.32,16.31.48,24.47.16,8.16.32,16.31.48,24.47.16,8.16.32,16.31.48,24.47.16,8.24.32,16.47.48,24.71.16,8.08.32,16.15.47,24.23.16,8.32.32,16.63.49,24.95.16,8,.32,15.99.47,23.99.16,8.4.33,16.79.49,25.19.16,7.92.31,15.83.47,23.75.17,8.48.33,16.95.49,25.43.15,7.84.31,15.67.46,23.51.17,8.48.33,16.95.5,25.43.15,7.68.31,15.35.46,23.03.18,9.44.36,18.87.53,28.31.07,3.92.08,7.84.14,11.76.01.86-.17,1.78.63,2.69,4.87.87,9.97,1.29,15.03,1.95.37.05.76-.11,1.13-.17Zm94.01-18.49c.51-.67.4-1.49.38-2.27-.07-2.48-.22-4.95-.27-7.43-.2-10.39-.1-20.79-.44-31.19-.34-10.63-.36-21.27-.52-31.91-.16-10.24-.31-20.47-.47-30.71-.16-10.32-.32-20.63-.48-30.95-.16-10.48-.32-20.95-.48-31.43-.16-10.48-.32-20.95-.49-31.43-.16-10.16-.31-20.31-.47-30.47-.16-10.4-.32-20.79-.48-31.19-.16-10.24-.32-20.47-.48-30.71-.16-10.72-.33-21.43-.49-32.15-.16-10.08-.31-20.15-.47-30.23-.16-10.48-.32-20.95-.48-31.43-.16-10.16-.32-20.31-.47-30.47-.19-13.2-.38-26.39-.56-39.59-.04-3.04-.05-6.08-.08-9.12,0-.64,0-1.28-.02-1.92-.07-2.34-.2-2.47-2.43-2.53-.08,0-.16,0-.24,0-3.76,0-7.52-.01-11.28,0-2.6.01-2.74.12-2.7,2.7.04,3.12.21,6.23.26,9.35.2,11.43.09,22.87.45,34.31.35,11.35.12,22.71.48,34.07.36,11.35.12,22.71.48,34.07.36,11.35.12,22.71.48,34.07.36,11.35.12,22.71.48,34.07.36,11.35.12,22.71.48,34.07.36,11.35.12,22.71.48,34.07.36,11.35.13,22.71.48,34.07.35,11.43.13,22.87.48,34.31.35,11.27.13,22.55.48,33.83.35,11.43.13,22.87.48,34.31.35,11.27.16,22.55.47,33.83.36,13.11.39,26.23.57,39.34.02,1.2,0,2.4.05,3.6.03.62.17,1.23.24,1.77,2.37.76,14.06,1.65,16.58,1.28Zm-76.49,15.02c.05-.91.14-1.7.12-2.48-.07-3.12-.22-6.23-.27-9.35-.18-10.24-.34-20.47-.5-30.71-.16-9.6-.31-19.19-.47-28.79-.16-10-.32-19.99-.49-29.99-.16-9.68-.31-19.35-.47-29.03-.16-10-.32-19.99-.49-29.99-.16-9.84-.32-19.67-.48-29.51-.16-10-.32-19.99-.49-29.99-.15-9.52-.31-19.03-.47-28.55-.17-10.32-.33-20.63-.5-30.95-.15-9.36-.31-18.71-.46-28.07-.17-10.4-.33-20.79-.5-31.19-.15-9.44-.31-18.87-.46-28.31-.17-10.16-.33-20.31-.49-30.47-.15-9.52-.31-19.03-.46-28.55-.17-10.64-.36-21.27-.5-31.91-.1-6.96-.12-13.92-.21-20.88-.03-2.28-.24-2.48-2.48-2.46-4.16.03-8.32.11-12.47.17-.48,0-.96.03-1.43.11-.65.1-1.03.48-1.03,1.12,0,.96.1,1.91.12,2.87.17,7.92.33,15.83.49,23.75.16,7.52.32,15.03.47,22.55.17,8.56.33,17.11.51,25.67.14,6.8.3,13.59.44,20.39.18,8.48.33,16.95.51,25.43.14,7.04.31,14.07.45,21.11.17,8,.33,15.99.49,23.99.15,7.44.31,14.87.47,22.31.17,8.08.33,16.15.49,24.23.16,7.6.32,15.19.47,22.79.16,7.76.32,15.51.48,23.27.16,7.52.31,15.03.47,22.55.16,7.92.33,15.83.49,23.75.15,7.44.31,14.87.47,22.31.17,8.08.33,16.15.5,24.23.15,7.44.31,14.87.46,22.31.16,7.92.33,15.83.49,23.75.15,7.44.31,14.87.47,22.31.17,8,.34,15.99.49,23.99.2,10.56.39,21.11.59,31.67.02.79.1,1.58.15,2.39.55.22.97.47,1.42.56,4.47.93,11.55,1.8,13.59,1.62Zm57.26-11.97c.61-.88.44-1.7.42-2.48-.07-3.12-.21-6.23-.27-9.35-.21-11.03-.09-22.07-.43-33.11-.36-11.67-.13-23.35-.5-35.03-.35-11.03-.12-22.07-.46-33.11-.36-11.75-.13-23.51-.5-35.27-.34-10.95-.13-21.91-.46-32.87-.35-11.83-.35-23.67-.54-35.5-.17-10.88-.09-21.75-.42-32.63-.36-11.83-.14-23.67-.5-35.51-.34-10.87-.13-21.75-.45-32.63-.36-12.15-.35-24.31-.55-36.46-.17-10.56-.1-21.11-.41-31.67-.36-11.99-.38-23.99-.54-35.98-.2-15.2-.39-30.39-.58-45.59,0-.4.01-.8-.04-1.2-.06-.46-.18-.91-.28-1.43-.47-.1-.85-.26-1.23-.25-4.71.19-9.42.39-14.13.62-.3.01-.58.22-.91.35-.39.94-.27,1.91-.26,2.86.13,7.92.27,15.83.41,23.75.18,9.92.09,19.83.43,29.75.35,10.31.13,20.63.49,30.95.34,9.91.13,19.83.47,29.75.35,10.31.36,20.63.53,30.94.16,10,.32,19.99.48,29.99.16,10.24.32,20.47.48,30.71.16,10,.32,19.99.47,29.99.16,10.4.32,20.79.49,31.19.15,9.76.31,19.51.47,29.27.16,10.4.33,20.79.49,31.19.15,9.76.31,19.51.47,29.27.17,10.48.33,20.95.49,31.43.15,9.68.32,19.35.46,29.03.19,12.96.38,25.91.56,38.87.03,2.24.02,4.48.08,6.72.04,1.43.26,1.68,1.65,1.86,4.44.59,8.88,1.14,13.32,1.69.23.03.46-.05.8-.08ZM496.55,21.75c-.55,1.09-.4,2.06-.39,3.01.11,9.76.25,19.51.37,29.27.19,15.6.09,31.19.43,46.79.36,16.47.13,32.95.5,49.43.35,15.43.12,30.87.46,46.31.37,16.63.13,33.27.5,49.91.35,15.35.12,30.71.46,46.07.37,16.79.12,33.59.51,50.39.35,15.35.14,30.71.45,46.07.36,17.51.39,35.03.55,52.55.08,9.28.11,18.56.16,27.84,0,.8,0,1.6.05,2.4.08,1.08.35,1.39,1.47,1.51,4.29.48,8.58.93,12.88,1.36.51.05,1.05-.16,1.56-.24.38-1.07.28-2.03.27-2.98-.1-7.2-.23-14.39-.32-21.59-.21-16.08-.08-32.15-.44-48.23-.37-16.47-.12-32.95-.49-49.43-.36-16.15-.11-32.31-.48-48.47-.37-16.31-.11-32.63-.48-48.95-.36-16.15-.12-32.31-.48-48.47-.36-16.39-.15-32.79-.48-49.19-.36-18.39-.36-36.79-.56-55.19-.16-14.08.04-28.15-.42-42.23-.17-5.35-.08-10.72-.11-16.08-.04-6.32-.07-12.64-.12-18.96,0-.94.19-1.93-.48-2.81-.2-.07-.42-.23-.64-.23-4.4-.04-8.79-.06-13.19-.07-.47,0-.94.13-1.53.22Zm-94.78.82c-.91-.06-1.78-.15-2.64-.15-2.64-.02-5.28-.01-7.92,0-3.54,0-3.58.01-3.53,3.6.13,8.88.1,17.75.34,26.63.36,12.95.13,25.91.5,38.87.35,12.23.12,24.47.47,36.71.36,12.87.12,25.75.49,38.63.35,12.23.12,24.47.46,36.71.37,13.03.13,26.07.5,39.11.35,12.23.11,24.47.46,36.71.37,12.87.13,25.75.49,38.63.35,12.31.12,24.63.47,36.95.36,12.95.13,25.91.5,38.87.35,12.15.13,24.31.46,36.47.35,13.11.38,26.23.53,39.35.08,6.96.1,13.92.15,20.88,0,.8,0,1.6.05,2.4.08,1.22.36,1.53,1.53,1.78.31.07.63.1.95.13,3.5.33,7,.67,10.51.97.93.08,1.91.31,2.79-.2.61-.81.42-1.72.4-2.58-.08-4.4-.23-8.79-.31-13.19-.17-9.68-.31-19.35-.46-29.03-.17-10.64-.33-21.27-.5-31.91-.15-9.76-.31-19.51-.46-29.27-.16-10.48-.33-20.95-.49-31.43-.16-10-.32-19.99-.47-29.99-.17-11.28-.34-22.55-.51-33.83-.14-9.12-.3-18.23-.45-27.35-.17-10.64-.33-21.27-.5-31.91-.15-9.84-.31-19.67-.47-29.51-.16-10.48-.32-20.95-.49-31.43-.17-9.92-.1-19.83-.43-29.75-.35-10.39-.13-20.79-.49-31.19-.35-9.99-.18-19.99-.46-29.99-.38-13.59-.43-27.19-.61-40.78-.07-5.2-.08-10.4-.15-15.6-.02-1.35.1-2.73-.72-4.29Zm60.94,461.91c.64-1.03.45-2.01.44-2.94-.2-18.23-.07-36.47-.42-54.7-.37-19.67-.12-39.35-.48-59.02-.37-20.07-.12-40.15-.49-60.22-.36-19.43-.11-38.87-.47-58.3-.37-20.23-.11-40.47-.49-60.7-.36-19.43-.11-38.87-.47-58.3-.37-20.31-.11-40.63-.49-60.94-.28-15.27-.18-30.56-.25-45.83,0-.64.01-1.28-.02-1.92-.08-1.7-.33-1.96-1.94-2.06-.24-.01-.48-.01-.72-.01-3.92,0-7.84,0-11.75,0-.56,0-1.12.03-1.67.1-.63.08-1.02.46-1.07,1.1-.06.8-.08,1.6-.07,2.39.14,9.2.29,18.39.43,27.59.16,10.64.31,21.27.47,31.91.17,11.27.33,22.55.5,33.82.15,10.48.31,20.95.46,31.43.17,11.75.34,23.51.51,35.26.15,10,.3,19.99.45,29.99.17,11.83.34,23.67.51,35.5.15,10.24.31,20.47.46,30.71.17,11.51.33,23.03.5,34.54.15,10.24.31,20.47.45,30.71.18,12.63.35,25.27.53,37.9.13,9.12.29,18.23.43,27.35.17,11.43.34,22.87.5,34.3.17,11.67.33,23.35.51,35.02.01.86-.13,1.77.54,2.75,3.51,1.04,7.32,1.54,11.05,2.36.68.15,1.39.15,2.06.22Zm35.5-7.08c.51-1.13.36-2.18.35-3.2-.11-9.68-.24-19.35-.37-29.03-.19-15.35-.09-30.71-.42-46.07-.36-16.87-.13-33.75-.51-50.62-.34-15.27-.11-30.55-.45-45.82-.37-16.71-.12-33.43-.5-50.14-.35-15.59-.13-31.19-.46-46.78-.36-16.87-.13-33.75-.5-50.62-.34-15.35-.12-30.71-.45-46.06-.37-16.95-.13-33.91-.5-50.86-.25-11.19-.16-22.4-.23-33.59,0-.56,0-1.12-.04-1.68-.1-1.2-.41-1.51-1.62-1.66-.48-.06-.96-.05-1.44-.08-2.71-.14-5.43-.3-8.14-.43-1.2-.06-2.4-.1-3.6-.08-1.07.02-1.4.36-1.47,1.47-.06.8-.04,1.6-.03,2.4.18,12.07.08,24.15.43,36.23.36,12.47.12,24.95.47,37.42.36,12.87.13,25.75.49,38.62.35,12.55.13,25.11.47,37.67.35,12.87.35,25.75.53,38.62.17,12.39.09,24.79.42,37.19.35,12.95.37,25.91.53,38.86.16,12.4.32,24.79.47,37.19.17,13.36.33,26.71.5,40.07.15,12,.31,23.99.46,35.99.17,13.52.34,27.03.5,40.55.06,5.44.08,10.88.12,16.32.04,4.96.05,9.92.12,14.88.03,2.44.32,2.71,2.77,2.9,2.39.18,4.78.39,7.18.49,1.58.07,3.18.37,4.92-.11Zm-17.31,5.12c.68-.87.46-1.87.44-2.8-.12-10.16-.28-20.31-.41-30.47-.17-12.79-.32-25.59-.48-38.38-.16-12.71-.32-25.43-.48-38.14-.16-12.71-.32-25.43-.48-38.14-.16-12.79-.31-25.59-.49-38.38-.18-12.63-.08-25.27-.43-37.9-.36-12.95-.12-25.91-.49-38.86-.36-12.63-.12-25.27-.47-37.9-.36-12.95-.12-25.91-.49-38.86-.36-12.63-.11-25.27-.47-37.9-.36-12.79-.02-25.59-.5-38.38-.14-3.83-.05-7.68-.1-11.52-.13-9.92-.27-19.83-.41-29.74,0-.4,0-.8-.05-1.2-.11-1.05-.44-1.45-1.52-1.47-3.68-.04-7.35-.01-11.03-.01-.08,0-.16.02-.24.04-.76.13-1.09.46-1.15,1.29-.06.72-.05,1.44-.04,2.16.13,11.67.1,23.35.31,35.03.37,19.83.12,39.67.49,59.5.37,19.91.11,39.83.48,59.74.37,19.75.12,39.51.48,59.26.37,20.23.12,40.47.49,60.7.36,19.35.11,38.71.47,58.06.37,20.39.09,40.79.49,61.18.26,12.95.13,25.91.22,38.87.05,6.8.19,13.59.31,20.39.03,1.87.22,2.05,2.01,2.29,3.96.54,7.92,1.06,11.89,1.57.54.07,1.1,0,1.65,0Zm50.76-460.56c-.44.66-.37,1.47-.35,2.26.06,2.08.21,4.15.23,6.23.2,20.31.08,40.63.46,60.94.36,19.59.11,39.19.47,58.78.37,20.07.11,40.15.48,60.22.36,19.67.12,39.35.47,59.02.37,20.23.12,40.47.49,60.7.36,19.51.14,39.03.46,58.54.36,22.39.39,44.78.56,67.18.02,2.56.03,5.12.05,7.68,0,.64,0,1.28.06,1.92.09.97.36,1.28,1.27,1.47.31.07.63.09.95.13,3.49.44,6.98.88,10.47,1.3.63.08,1.28.13,1.91.12.81-.01,1.2-.35,1.27-1.13.07-.79.08-1.6.06-2.39-.2-11.59-.09-23.19-.43-34.78-.36-12.15-.13-24.31-.47-36.46-.36-12.71-.13-25.43-.49-38.14-.35-12.07-.12-24.15-.47-36.22-.36-12.63-.13-25.27-.49-37.9-.35-12.15-.12-24.31-.47-36.46-.36-12.63-.13-25.27-.49-37.9-.35-12.15-.12-24.31-.47-36.46-.36-12.71-.13-25.43-.5-38.14-.35-12.07-.12-24.15-.46-36.22-.36-12.79-.15-25.59-.49-38.38-.27-10.07-.17-20.15-.25-30.23,0-1.2-.04-2.4-.17-3.59-.16-1.54-.41-1.78-1.93-1.87-3.11-.2-6.22-.37-9.34-.51-.78-.04-1.6-.2-2.39.34Zm161.82,414.72c-.05,1.13-.08,1.92-.11,2.71-.02.8,0,1.6-.06,2.4-.08,1.14-.3,1.4-1.34,1.7-.54.15-1.09.27-1.64.38-12.07,2.44-24.14,4.88-36.21,7.31-17.79,3.58-35.59,7.15-53.38,10.74-25.08,5.06-50.15,10.14-75.23,15.2-28.13,5.68-56.27,11.34-84.41,17.02-24.22,4.89-48.43,9.79-72.65,14.67-15.44,3.12-30.88,6.21-46.32,9.33-22.57,4.56-45.14,9.13-67.71,13.68-17.79,3.59-35.59,7.15-53.38,10.74-22.65,4.57-45.29,9.16-67.94,13.74-8.7,1.76-17.4,3.5-26.1,5.26-.69.14-1.46.11-1.95.82.02.21,0,.48.09.68,1.48,3.19,2.98,6.38,4.49,9.55.13.28.38.49.54.69,1,.27,1.84-.09,2.69-.26,10.26-2.1,20.52-4.23,30.77-6.36,19.02-3.95,38.04-7.9,57.07-11.85,16.52-3.42,33.04-6.83,49.56-10.26,18.94-3.93,37.89-7.87,56.83-11.8,16.52-3.42,33.04-6.83,49.56-10.25,19.02-3.94,38.04-7.9,57.07-11.85,16.52-3.42,33.04-6.83,49.56-10.26,18.94-3.93,37.89-7.87,56.83-11.8,16.6-3.44,33.2-6.86,49.79-10.3,18.95-3.93,37.89-7.87,56.83-11.79,17.77-3.68,35.54-7.36,53.31-11.04,5.17-1.07,10.33-2.14,15.49-3.24,1.86-.4,2-.56,2.03-2.35.04-2.32.05-4.64,0-6.96-.01-.61-.2-1.28-.52-1.79-.83-1.36-1.77-2.66-2.7-3.97-.11-.16-.38-.22-.9-.49Zm-81.01,17.33c.47-1.16.27-2.29.27-3.39.01-142.3,0-284.6,0-426.9,0-.56,0-1.12,0-1.68-.05-2.3-.21-2.49-2.45-2.51-3.68-.03-7.36-.01-11.03,0-.4,0-.8.04-1.19.09-.63.08-1.03.46-1.07,1.09-.06.96-.09,1.92-.08,2.88.18,25.35.09,50.71.33,76.06.4,41.19.11,82.38.49,123.57.38,41.11.02,82.22.49,123.33.21,18.64.11,37.27.15,55.91.03,15.2.06,30.4.11,45.59,0,.94.1,1.89.15,2.73,1.77.91,7.33,2.36,12.2,3.21.52.09,1.07.01,1.64.01Zm-93.57,15.29c1.3.21,2.31.43,3.33.53,2.71.25,5.43.36,8.12.7,2.52.32,2.72-.13,2.66-2.55-.07-2.64-.21-5.27-.24-7.91-.2-20.08-.09-40.15-.45-60.23-.36-19.75-.11-39.51-.47-59.27-.37-20.15-.11-40.31-.49-60.47-.36-19.75-.11-39.51-.47-59.27-.37-20.55-.15-41.11-.49-61.67-.36-22.31-.38-44.63-.55-66.95-.15-19.68-.31-39.35-.47-59.03-.02-3.04-.03-6.08-.07-9.12-.01-.78.14-1.62-.53-2.29-.2-.06-.43-.19-.65-.2-4.16-.02-8.31-.03-12.47,0-.36,0-.71.27-1.18.46-.03,1.08-.09,2.11-.08,3.14.11,9.2.24,18.39.36,27.59.2,16,.08,31.99.44,47.99.37,16.31.12,32.63.49,48.95.36,15.99.12,31.99.47,47.99.36,16.39.12,32.79.49,49.19.35,15.75.11,31.51.46,47.27.37,16.55.12,33.11.49,49.67.36,15.83.11,31.67.47,47.51.37,16.55.07,33.11.5,49.67.22,8.39.12,16.8.18,25.2,0,.95.09,1.89.15,3.11Zm59.89-448.54c-.77-.04-1.48-.14-2.18-.11-3.43.16-6.86.36-10.29.55-.32.02-.64.06-.95.13-.61.14-1,.52-1.03,1.15-.05.96-.07,1.92-.07,2.88.13,16.63.27,33.27.39,49.9.16,22.47.31,44.94.47,67.42.17,24.15.33,48.3.5,72.45.15,22.31.31,44.62.46,66.94.17,23.99.33,47.98.5,71.97.15,22.31.31,44.62.46,66.94.03,3.76.04,7.52.06,11.28.03,7.76.05,15.52.1,23.27,0,1.02-.19,2.09.42,3.13.47.16.98.41,1.51.52,3.45.68,6.9,1.35,10.36,1.98.51.09,1.07-.04,1.51-.06.63-.94.49-1.84.47-2.71-.05-3.68-.19-7.35-.22-11.03-.26-32.15-.06-64.3-.45-96.45-.4-32.15-.08-64.3-.48-96.45-.4-32.15-.08-64.3-.48-96.45-.4-32.23-.01-64.46-.49-96.69-.18-12.31-.1-24.63-.15-36.95,0-1.1.16-2.24-.42-3.62Zm-13.92,443.73c.52-1.33.38-2.38.37-3.4-.09-10-.23-20-.3-29.99-.18-24.16-.34-48.31-.5-72.47-.15-22.24-.31-44.48-.46-66.71-.17-24.16-.33-48.31-.5-72.47-.15-22.24-.31-44.48-.46-66.71-.17-24.16-.35-48.31-.49-72.47-.11-18.32-.15-36.64-.22-54.96,0-.64.03-1.28-.03-1.92-.06-.53-.24-1.05-.39-1.68-4.26-.34-8.38.48-12.53.44-.53,0-1.06.23-1.5.34-.57,1.03-.38,2.01-.37,2.95.12,9.92.26,19.83.41,29.75.18,11.92.09,23.83.42,35.75.36,12.95.14,25.91.5,38.87.34,11.83.12,23.67.46,35.51.36,12.95.13,25.91.5,38.87.34,11.83.12,23.67.46,35.51.36,12.95.13,25.91.5,38.87.34,11.83.13,23.67.45,35.51.36,13.03.13,26.07.51,39.11.34,11.75.13,23.51.45,35.27.36,13.35.4,26.71.54,40.07.1,9.6.13,19.2.22,28.8.01,1.36.11,2.72.23,4.07.05.53.27,1.04.45,1.67,3.76.62,7.45,1.13,11.3,1.43Zm29.64-444.5c-.73-.52-1.56-.35-2.34-.31-2.55.13-5.1.34-7.66.47-3.34.16-3.37.14-3.34,3.41.07,6.96.19,13.91.24,20.87.25,32.39.05,64.79.45,97.18.39,31.91.08,63.83.48,95.74.4,32.39.08,64.79.48,97.18.39,31.91-.03,63.83.5,95.74.07,4.08.04,8.16.05,12.24.01,3.68.01,7.36.04,11.04,0,.86-.18,1.77.56,2.66,3.51.6,7.17.87,10.82,1.18.44.04.9-.15,1.35-.23.52-1.36.33-2.65.32-3.91-.19-27.11-.08-54.23-.34-81.34-.4-41.11-.11-82.23-.49-123.34-.38-41.11-.06-82.23-.48-123.34-.26-25.92-.14-51.83-.19-77.75-.02-8.24-.04-16.48-.07-24.72,0-.94.19-1.93-.4-2.78Zm34.12,432.14c.06-.82.13-1.37.13-1.91,0-1.92-.03-3.84-.04-5.76-.03-22.72-.02-45.43-.1-68.15-.13-36.15.09-72.3-.36-108.45-.11-8.56-.03-17.12-.06-25.67-.18-48.31.05-96.62-.4-144.92-.22-23.75-.09-47.51-.12-71.27,0-1.2.01-2.4-.06-3.6-.03-.53-.24-1.04-.35-1.51-.38-.1-.62-.22-.84-.2-3.43.18-6.86.37-10.29.56-.08,0-.16.03-.23.05-.74.17-1.09.51-1.14,1.33-.06,1.04-.06,2.08-.06,3.12,0,139.73,0,279.47,0,419.2,0,.8-.03,1.6.02,2.4.03.54.18,1.07.29,1.7,3.88,1.18,7.81,1.92,11.68,2.86.53.13,1.08.13,1.93.23Zm14.07-2.06c.43-1.53.29-2.82.29-4.08,0-140.21,0-280.42,0-420.63,0-.72,0-1.44,0-2.16,0-.4,0-.8-.04-1.2-.1-1.05-.41-1.34-1.53-1.44-.32-.03-.64-.03-.96-.03-2.8,0-5.6,0-8.4,0-.4,0-.8,0-1.2.06-.77.1-1.11.44-1.17,1.26-.06.8-.06,1.6-.06,2.4.08,12.39.22,24.79.25,37.18.06,23.67.02,47.35.12,71.03.13,34.55-.08,69.1.34,103.65.21,17.03.05,34.07.12,51.11.16,41.35-.13,82.7.38,124.05.13,10.88.05,21.76.07,32.63,0,.8.02,1.6.08,2.4.04.52.33.89.83,1.08.37.14.75.28,1.14.38,2.63.69,5.26,1.38,7.89,2.05.52.13,1.07.16,1.85.28Zm15.07-4.07c.62-1.12.44-2.09.42-3.04-.04-2.24-.19-4.48-.19-6.71-.05-31.28-.05-62.55-.13-93.83-.11-41.75.04-83.51-.31-125.26-.26-31.99-.13-63.99-.16-95.99-.04-32.32-.07-64.63-.1-96.95,0-.64.01-1.28-.02-1.92-.09-1.39-.37-1.73-1.72-1.75-2.48-.05-4.96-.03-7.44-.03-.56,0-1.12,0-1.68.04-1.06.09-1.38.41-1.44,1.52-.06,1.04-.04,2.08-.04,3.12,0,137.66,0,275.33,0,412.99,0,.8,0,1.6,0,2.4,0,.4.03.8.08,1.2.06.52.36.88.83,1.08.37.15.75.28,1.13.39,3.16.87,6.32,1.73,9.49,2.58.37.1.77.1,1.28.15Zm14.2-2.08c.49-1.19.28-2.4.28-3.57.01-138.14.01-276.29,0-414.43,0-.88.02-1.76-.03-2.64-.02-.46-.17-.91-.28-1.45-3.52-.63-6.92.26-10.32.23-.7,0-1.46-.07-2.05.52-.47.88-.3,1.86-.3,2.8,0,5.84,0,11.68.02,17.52.13,41.83-.11,83.67.34,125.5.17,16.24.06,32.48.08,48.71.02,19.44.02,38.88.08,58.31.12,38.87-.13,77.75.33,116.62.13,10.72.03,21.44.04,32.16,0,4.8.01,9.6.04,14.4,0,.95-.14,1.92.49,3.03,3.03.99,6.36,1.49,9.6,2.29.51.13,1.08.02,1.68.02Zm-574.15,102.83c.05-1.04.14-1.73.12-2.41-.13-4.48-.29-8.95-.44-13.43-.16-5.03-.32-10.07-.47-15.1-.16-5.19-.32-10.39-.49-15.58-.16-5.04-.31-10.07-.47-15.11-.16-5.27-.33-10.55-.49-15.82-.15-4.96-.31-9.91-.47-14.87-.16-5.27-.33-10.55-.49-15.82-.15-4.96-.31-9.91-.47-14.87-.17-5.35-.33-10.71-.5-16.06-.15-4.88-.31-9.75-.46-14.63-.17-5.35-.33-10.71-.5-16.06-.16-5.04-.31-10.07-.47-15.11-.17-5.35-.33-10.71-.5-16.06-.16-5.04-.33-10.07-.47-15.11-.22-7.67-.39-15.35-.62-23.02-.23-7.35-.53-14.7-.78-22.05-.19-5.43-.34-10.87-.51-16.3-.16-5.11-.32-10.23-.48-15.34-.16-5.04-.32-10.07-.47-15.11-.16-5.27-.33-10.55-.49-15.82-.15-4.96-.31-9.91-.47-14.87-.16-5.27-.33-10.55-.49-15.82-.15-4.96-.31-9.91-.47-14.87-.17-5.35-.33-10.71-.5-16.06-.15-4.88-.31-9.75-.46-14.63-.17-5.35-.33-10.71-.5-16.06-.16-5.04-.31-10.07-.47-15.11-.17-5.35-.33-10.71-.5-16.06-.16-5.04-.31-10.07-.47-15.11-.16-5.27-.33-10.55-.49-15.82-.15-4.96-.32-9.91-.46-14.87-.21-7.59-.4-15.19-.62-22.78-.06-2.16-.2-4.31-.28-6.47-.05-1.36-.11-2.72-.1-4.08.01-1.76.29-2.01,2.11-2.14.48-.04.96-.04,1.44-.05,1.28-.04,2.56-.03,3.84-.12,1.51-.1,3.03-.24,4.54-.41.66-.07,1-.53.98-1.15-.02-.6-.38-.99-1.06-1.09-.39-.06-.8-.07-1.2-.07-5.92-.01-11.83-.02-17.75-.02-.47,0-.97.03-1.41.18-.23.08-.46.43-.52.7-.11.44.14.82.58.89.71.11,1.43.13,2.14.17.88.04,1.76.02,2.63.08.63.04,1.01.42,1.1,1.06.04.32.07.64.08.96.14,3.44.28,6.87.41,10.31.17,4.71.32,9.43.48,14.14.16,4.63.32,9.27.47,13.9.16,4.87.33,9.75.49,14.62.16,4.71.32,9.43.48,14.14.16,4.71.32,9.43.48,14.14.16,4.71.32,9.43.48,14.14.32,9.59.64,19.18.97,28.77.16,4.63.31,9.27.47,13.9.17,4.95.33,9.91.5,14.86.15,4.48.31,8.95.46,13.42.33,9.75.65,19.5.98,29.25.15,4.48.31,8.95.46,13.43.33,9.83.66,19.66.99,29.49.15,4.4.31,8.79.45,13.19.2,6.23.39,12.47.57,18.7.2,6.79.4,13.59.6,20.38,0,.16.01.32.02.48.25,6.31.54,12.62.75,18.93.25,7.67.44,15.35.66,23.02,0,.24.02.48.03.72.27,7.11.56,14.22.8,21.33.23,6.95.41,13.91.62,20.86,0,.24.02.48.03.72.25,6.39.54,12.78.75,19.17.25,7.59.44,15.19.65,22.78,0,.24.02.48.03.72.25,6.31.51,12.62.76,18.93.16,4.07.3,8.15.43,12.23.2,6.15.39,12.31.57,18.46.21,6.95.41,13.91.61,20.86,0,.16.01.32.02.48.27,7.19.55,14.38.81,21.57.1,2.72.09,5.44.26,8.15.09,1.31.1,2.53-.76,3.65.59,1.09.75,2.3,1.91,3.44Zm38.02,6.68c-.54-.24-.73-.38-.94-.4-2.31-.21-4.62-.38-6.93-.58-1.75-.15-3.5-.31-5.25-.52-.82-.09-1.12-.43-1.23-1.22-.05-.32-.06-.64-.07-.96-.14-4-.29-7.99-.43-11.99-.16-4.72-.31-9.43-.45-14.15-.19-6.31-.38-12.63-.55-18.95-.21-7.75-.42-15.51-.62-23.26,0-.24-.02-.48-.03-.72-.25-6.63-.54-13.26-.74-19.9-.26-8.55-.45-17.11-.67-25.66,0-.24-.02-.48-.03-.72-.25-6.55-.54-13.1-.74-19.66-.26-8.31-.44-16.63-.66-24.94,0-.24-.02-.48-.03-.72-.25-6.63-.52-13.26-.75-19.9-.17-4.63-.3-9.27-.45-13.91-.18-5.68-.35-11.35-.52-17.03-.14-4.56-.29-9.11-.44-13.67-.18-5.84-.35-11.67-.54-17.51-.14-4.4-.29-8.79-.43-13.19-.18-5.84-.35-11.67-.53-17.51-.13-4.24-.28-8.47-.42-12.71-.18-5.91-.36-11.83-.54-17.75-.13-4.32-.29-8.63-.42-12.95-.18-5.91-.36-11.83-.54-17.75-.13-4.32-.29-8.63-.42-12.95-.18-5.91-.36-11.83-.54-17.75-.14-4.32-.29-8.63-.42-12.95-.19-5.99-.36-11.99-.54-17.98-.13-4.08-.28-8.15-.41-12.23-.19-5.99-.36-11.99-.54-17.98-.13-4.24-.29-8.47-.42-12.71-.19-5.99-.35-11.99-.54-17.98-.13-4.24-.3-8.47-.43-12.7-.19-6.07-.37-12.15-.54-18.22-.12-4.16-.13-8.31-.39-12.47-.36-5.82-.42-11.66-.57-17.5-.09-3.52-.13-7.04-.17-10.56,0-.46.07-.93.12-1.45.52-.16.96-.36,1.42-.41.87-.1,1.75-.13,2.63-.16,2-.07,4-.09,5.99-.21.93-.06,1.93-.01,2.66-.74.28-.83.33-1.61-.1-2.35-.77-.62-1.68-.47-2.54-.48-5.12-.03-10.24-.04-15.35-.04-.64,0-1.28.02-1.91.1-.64.08-.96.57-.89,1.19.07.57.43.88.95.88,1.04,0,2.07-.07,3.11-.13.94-.06,1.9-.28,2.89.27.42,1.94.54,3.93.6,5.9.18,5.51.11,11.03.45,16.54.33,5.42.15,10.87.47,16.3.32,5.42.16,10.87.47,16.3.31,5.42.15,10.87.48,16.3.33,5.42.35,10.87.51,16.3.16,5.44.32,10.87.47,16.31.17,5.76.33,11.51.49,17.27.16,5.44.32,10.87.48,16.31.16,5.44.32,10.87.48,16.31.16,5.36.32,10.71.48,16.07.16,5.44.32,10.87.48,16.31.16,5.44.32,10.87.48,16.31.16,5.44.32,10.87.48,16.31.16,5.44.32,10.87.48,16.31.16,5.44.32,10.87.48,16.31.16,5.44.32,10.87.48,16.31.16,5.44.32,10.87.48,16.31.16,5.52.32,11.03.48,16.55.16,5.36.32,10.71.47,16.07.17,5.84.33,11.67.5,17.51.15,5.28.31,10.55.47,15.83.16,5.6.32,11.19.49,16.79.15,5.12.31,10.23.46,15.35.17,5.76.33,11.51.5,17.27.15,5.12.31,10.23.46,15.35.17,5.76.33,11.51.5,17.27.15,5.12.31,10.23.46,15.35.17,5.84.34,11.67.51,17.51.15,5.04.31,10.07.45,15.11.21,7.67.4,15.35.6,23.03.2,7.68.39,15.35.6,23.02.02.72.13,1.44.15,2.15.08,2.8.16,5.6.18,8.39,0,1.09-.41,1.43-1.51,1.34-2.07-.16-4.14-.39-6.21-.56-3.03-.26-6.05-.52-9.08-.73-.5-.04-1.02.16-1.67.27.55,2.04,1.35,3.73,2.45,5.22,1.89-.05,29.08-5.49,31.95-6.42Zm7.72-1.66c.3.03.7.17,1.06.09,3.92-.78,7.83-1.58,11.74-2.4.15-.03.25-.3.51-.61-2.09-.22-3.99-.41-5.88-.61-1.96-.21-3.99.05-5.95-.83-.4-1.44-.49-2.86-.53-4.29-.15-4.79-.31-9.59-.46-14.38-.17-5.19-.33-10.39-.49-15.58-.16-5.03-.32-10.07-.47-15.1-.16-5.19-.33-10.39-.49-15.58-.15-4.87-.31-9.75-.47-14.62-.17-5.27-.33-10.55-.49-15.82-.16-4.95-.31-9.91-.47-14.86-.16-5.11-.32-10.23-.48-15.34-.16-4.95-.31-9.91-.47-14.86-.17-5.43-.33-10.87-.51-16.3-.15-4.64-.31-9.27-.45-13.91-.19-6.23-.37-12.47-.55-18.7-.21-7.67-.42-15.35-.62-23.02,0-.16-.01-.32-.02-.48-.25-6.47-.52-12.94-.75-19.41-.18-4.87-.31-9.75-.47-14.62-.17-5.51-.34-11.03-.51-16.54-.14-4.56-.3-9.11-.44-13.67-.18-5.59-.34-11.19-.52-16.78-.15-4.64-.31-9.27-.45-13.91-.19-6.15-.38-12.31-.55-18.46-.22-7.91-.42-15.83-.63-23.74,0-.24-.02-.48-.03-.72-.25-6.47-.51-12.94-.75-19.41-.16-4.47-.3-8.95-.44-13.43-.18-5.83-.35-11.67-.54-17.5-.13-4.24-.29-8.47-.42-12.71-.2-6.55-.39-13.11-.57-19.66-.21-7.59-.41-15.19-.62-22.78,0-.24-.02-.48-.03-.72-.25-6.55-.52-13.1-.76-19.65-.16-4.47-.32-8.95-.45-13.42-.21-7.27-.4-14.55-.59-21.82-.05-2-.08-4-.15-6-.1-2.88-.23-5.75-.31-8.62-.02-.7.1-1.4.15-2.02.37-.21.57-.38.79-.42.55-.1,1.1-.18,1.66-.2,1.68-.07,3.36-.06,5.03-.16,1.75-.1,3.51-.26,5.26-.42.52-.05.89-.33.93-.91.03-.5-.28-.91-.83-.98-.63-.08-1.27-.12-1.91-.13-5.84-.05-11.67-.1-17.51-.14-1.34,0-1.74.41-1.68,1.71.04.95.36,1.31,1.29,1.38.48.03.96.03,1.44,0,1.12-.05,2.23-.14,3.35-.18.94-.03,1.32.31,1.44,1.22.05.39.06.8.07,1.2.15,4.87.31,9.75.45,14.62.16,5.27.31,10.55.46,15.82.16,5.27.31,10.55.47,15.82.16,5.35.31,10.71.47,16.06.16,5.59.32,11.19.49,16.78.15,5.27.31,10.55.47,15.82.16,5.59.32,11.19.49,16.78.15,5.28.31,10.55.47,15.82.17,5.75.33,11.51.5,17.26.15,5.28.31,10.55.47,15.83.16,5.59.33,11.19.49,16.78.15,4.96.3,9.91.45,14.87.17,5.75.34,11.51.51,17.26.15,5.12.31,10.23.46,15.35.17,5.83.34,11.67.51,17.5.15,5.04.3,10.07.45,15.11.17,5.83.34,11.67.51,17.5.15,5.2.31,10.39.46,15.59.17,5.75.33,11.51.5,17.26.14,4.8.3,9.59.44,14.39.17,5.91.34,11.83.51,17.74.15,4.96.3,9.91.45,14.87.17,5.91.34,11.83.51,17.74.15,4.96.3,9.91.45,14.87.18,6.07.35,12.15.52,18.22.14,4.8.3,9.59.44,14.39.18,5.99.34,11.99.52,17.98.15,5.04.3,10.07.45,15.11.16,5.51.33,11.03.49,16.54.15,5.11.32,10.23.46,15.35.21,7.51.4,15.03.59,22.54.19,7.03.37,14.07.57,21.1.02.71-.07,1.45.5,2.17Zm65.24-12.8c.02-.16.03-.33.05-.49-.44-.11-.87-.27-1.32-.32-5.09-.51-10.18-1.02-15.27-1.51-2.54-.24-2.61-.31-2.69-2.9-.14-4.72-.29-9.43-.43-14.15-.17-5.84-.32-11.67-.48-17.51-.15-5.52-.31-11.03-.46-16.55-.17-6.16-.33-12.31-.5-18.47-.15-5.52-.31-11.03-.46-16.55-.17-6.08-.33-12.15-.5-18.23-.15-5.6-.31-11.19-.46-16.79-.17-6.08-.33-12.15-.5-18.23-.15-5.44-.31-10.87-.45-16.31-.17-6.32-.34-12.63-.51-18.95-.15-5.36-.3-10.71-.45-16.07-.17-6.24-.34-12.47-.51-18.71-.15-5.44-.3-10.87-.45-16.31-.17-6.24-.34-12.47-.51-18.71-.15-5.28-.3-10.55-.44-15.83-.18-6.4-.34-12.79-.52-19.19-.14-5.28-.3-10.55-.44-15.83-.18-6.4-.34-12.79-.52-19.19-.14-5.28-.3-10.55-.44-15.83-.17-6.23-.34-12.47-.51-18.7-.15-5.6-.31-11.19-.46-16.79-.17-6.08-.33-12.15-.5-18.23-.15-5.28-.3-10.55-.45-15.83-.18-6.55-.35-13.11-.53-19.67-.14-5.12-.3-10.23-.44-15.35-.18-6.47-.34-12.95-.52-19.42-.14-5.2-.31-10.39-.44-15.59-.2-7.51-.38-15.03-.56-22.54-.07-3.04-.09-6.08-.17-9.12-.1-4.08-.25-8.15-.36-12.23-.02-.7.1-1.4.17-2.23.81-.18,1.49-.41,2.19-.49,2.06-.23,4.14-.4,6.2-.62,1.1-.11,2.23-.13,3.2-.77.32-1,.4-1.91-.2-2.85-.57-.07-1.12-.2-1.66-.2-5.28-.02-10.56-.03-15.83-.03-.4,0-.8.02-1.2.07-.62.09-.94.52-.95,1.18,0,.66.31,1.15.92,1.2,1.03.09,2.07.07,3.11.12.94.04,1.93-.17,2.87.46.07.24.22.53.25.83.14,1.91.3,3.83.36,5.74.19,6.07.33,12.15.49,18.22.16,5.92.31,11.83.47,17.75.16,6.08.32,12.15.48,18.23.16,6.08.32,12.15.48,18.23.16,5.92.31,11.83.47,17.75.16,6.08.32,12.15.48,18.23.16,6,.32,11.99.48,17.99.16,6,.32,11.99.48,17.99.16,6.16.32,12.31.49,18.47.15,5.84.31,11.67.47,17.51.17,6.24.33,12.47.49,18.71.16,5.92.32,11.83.47,17.75.16,6.16.32,12.31.49,18.47.16,5.84.31,11.67.47,17.51.16,6.16.33,12.31.49,18.47.16,5.84.31,11.67.47,17.51.17,6.32.33,12.63.5,18.95.15,5.68.31,11.35.46,17.03.17,6.32.33,12.63.5,18.95.15,5.68.31,11.35.46,17.03.17,6.4.34,12.79.5,19.19.15,5.76.31,11.51.46,17.27.17,6.32.33,12.63.5,18.95.15,5.68.31,11.35.46,17.03.17,6.48.34,12.95.51,19.43.15,5.52.3,11.03.45,16.55.18,6.88.36,13.75.53,20.63.2,8.39.39,16.79.58,25.18.01.48.02.96.09,1.43.05.3.21.57.32.84.31.07.56.19.77.15,6.35-1.24,12.69-2.5,19.03-3.75ZM152.9,18.83c.71-.58,1.54-.45,2.33-.46,2.48-.02,4.96,0,7.44-.01.64,0,1.28-.03,1.91-.13.56-.08.86-.61.82-1.28-.03-.53-.26-.93-.8-1.05-.31-.07-.63-.11-.95-.11-5.76-.02-11.51-.03-17.27-.03-.47,0-.97.07-1.39.25-.22.09-.43.5-.42.75,0,.26.24.59.47.74.25.15.62.17.93.16.8-.03,1.59-.12,2.39-.18,2.01-.14,2.27.07,2.36,2,.12,2.48.25,4.95.33,7.43.18,5.75.34,11.51.51,17.26.15,4.95.3,9.91.45,14.86.17,5.83.34,11.67.51,17.5.15,5.03.3,10.07.45,15.1.18,5.99.34,11.99.52,17.98.14,4.72.3,9.43.44,14.14.18,5.91.34,11.83.52,17.74.15,5.11.31,10.23.46,15.34.16,5.43.32,10.87.49,16.3.16,5.19.31,10.39.47,15.58.17,5.83.34,11.67.51,17.5.14,4.88.3,9.75.45,14.62.17,5.83.34,11.67.51,17.5.15,5.03.3,10.07.45,15.1.18,5.99.34,11.99.52,17.98.14,4.72.29,9.43.43,14.14.17,5.83.34,11.67.51,17.5.15,5.19.32,10.39.46,15.58.2,7.27.39,14.55.58,21.82.2,7.59.4,15.19.6,22.78,0,.24.02.48.03.72.25,6.63.51,13.26.74,19.89.17,4.95.31,9.91.46,14.86.18,5.83.35,11.67.52,17.5.14,4.87.14,9.75.41,14.62.38,6.78.43,13.58.6,20.37.21,8.23.4,16.46.6,24.69,0,.18.09.35.14.53.22-.73.23-1.44.22-2.15-.09-5.11-.08-10.22-.37-15.34-.35-6.06-.14-12.14-.48-18.22-.32-5.82-.12-11.67-.45-17.5-.35-6.06-.36-12.15-.52-18.22-.16-5.99-.31-11.99-.47-17.98-.16-6.07-.32-12.15-.48-18.22-.16-5.91-.31-11.83-.47-17.74-.16-6.15-.32-12.31-.49-18.46-.15-5.67-.31-11.35-.46-17.02-.17-6.31-.33-12.63-.5-18.94-.15-5.67-.31-11.35-.46-17.02-.17-6.31-.33-12.63-.5-18.94-.15-5.67-.31-11.35-.46-17.02-.17-6.39-.34-12.79-.51-19.18-.15-5.59-.3-11.19-.45-16.78-.17-6.39-.33-12.79-.5-19.18-.15-5.59-.3-11.19-.45-16.78-.17-6.39-.34-12.79-.51-19.18-.15-5.6-.3-11.19-.45-16.78-.17-6.39-.34-12.79-.51-19.18-.15-5.6-.31-11.19-.45-16.78-.17-6.47-.34-12.95-.51-19.42-.15-5.52-.31-11.03-.45-16.55-.18-7.11-.37-14.23-.54-21.34-.07-2.8-.06-5.6-.14-8.4-.11-4.24-.27-8.47-.38-12.71-.02-.86-.19-1.76.28-2.55Zm49.56,198.03c0-1.14,0-1.77,0-2.39-.05-5.2-.09-10.39-.34-15.59-.33-7.03-.11-14.07-.46-21.11-.33-6.87-.34-13.75-.49-20.63-.16-7.2-.33-14.39-.49-21.59-.15-6.56-.31-13.11-.46-19.67-.17-7.2-.33-14.39-.5-21.59-.15-6.56-.32-13.11-.45-19.67-.22-10.24-.41-20.47-.62-30.71-.05-2.56-.07-5.12-.13-7.68-.12-5.12-.26-10.23-.37-15.35-.02-.7.09-1.4.13-1.94.88-.69,1.7-.58,2.49-.59,2-.02,4,0,6-.01.64,0,1.28-.02,1.91-.1.64-.08.98-.5,1-1.13.02-.65-.3-1.07-.93-1.18-.31-.05-.64-.08-.95-.08-5.52-.01-11.04-.02-16.55,0-.45,0-.9.21-1.29.3-.39,1.48-.37,1.48.26,2.72,1.43-.11,2.93-.24,4.44-.32.45-.02.9.09,1.4.15.09.51.19.9.21,1.28.14,3.12.28,6.23.39,9.35.17,5.04.31,10.07.46,15.11.18,6.08.35,12.15.53,18.23.13,4.32.28,8.63.41,12.95.18,6.08.35,12.15.53,18.23.14,4.8.3,9.59.44,14.39.17,5.68.34,11.35.51,17.03.15,4.8.3,9.59.44,14.39.17,5.6.33,11.19.5,16.79.16,5.28.34,10.55.48,15.83.22,8.15.27,16.32.67,24.46.32,6.39.37,12.79.51,19.18,0,.15.09.29.32.96Zm112.16,299.21c-.52.1-.83.22-1.13.2-2.39-.17-4.78-.38-7.16-.57-3.11-.24-6.21-.48-9.32-.68-.7-.05-1.45-.19-2.13.46-.68,1.37.22,3.11-.69,4.62-.55.06-1.1.19-1.64.17-1.36-.03-2.71-.12-4.07-.2-3.91-.22-7.81-.45-11.72-.66-.7-.04-1.45-.16-2.13.53-.27,1.7-.36,3.5.14,5.29,1.31.44,2.46-.09,3.6-.32,13.32-2.66,26.63-5.36,39.94-8.05,4.7-.95,9.4-1.89,14.1-2.84.56-.11,1.18-.14,1.72-.79-6.04-.5-11.85-.98-17.65-1.44-.45-.04-.91.13-1.48.23-.12,1.35-.24,2.6-.37,4.04Zm-102.49,21.62c1.1.52,1.87.21,2.64.06,7.83-1.58,15.66-3.17,23.49-4.75,3.45-.7,6.89-1.39,10.34-2.1.35-.07.83-.08.72-.83-1.68-.27-3.41-.54-5.13-.82-3.15-.52-6.3-1.05-9.46-1.55-.84-.13-1.71-.39-2.61.15-.52,1.78.54,3.68-.39,5.44-1.23.24-2.41-.04-3.58-.22-4.58-.68-9.16-1.39-13.75-2.07-.78-.12-1.58-.32-2.56.28-.26,2.06-.3,4.24.28,6.41ZM355.78,20.28c.14-.39.28-.61.3-.84.3-3.17-.28-3.12-2.69-3.12-11.01-.02-22.02-.04-33.03-.05-.56,0-1.12.02-1.67.1-.44.06-.68.38-.73.82-.06.51.25.99.75,1.05.63.08,1.27.1,1.91.11,1.36.02,2.71.01,4.07.03.75,0,1.43.14,1.81.91.33.67.94.8,1.61.79.88-.02,1.75-.04,2.63-.07,4.3-.18,8.61-.38,12.91-.53.43-.02,1.04.11,1.29.41.6.72,1.34.79,2.15.78,2.31-.03,4.63-.04,6.94-.11.61-.02,1.22-.2,1.76-.29Zm52.86,478.33c.01-.18.03-.36.04-.54-.44-.09-.87-.21-1.31-.26-1.35-.15-2.7-.27-4.05-.39-2.47-.22-4.93-.44-7.4-.62-.7-.05-1.44-.2-2.16.48-.15.87-.32,1.87-.51,2.96-.64.05-1.18.14-1.71.13-1.6-.03-3.19-.11-4.79-.16-4.07-.13-8.14-.25-12.21-.36-.47-.01-.97,0-1.41.12-.25.07-.59.39-.62.63-.21,1.65-.33,3.31.2,4.99.37.03.69.12.99.07,11.67-2.26,23.31-4.64,34.95-7.04ZM240.22,18.83c.08.36.19.67.21.98.13,2.23.28,4.47.34,6.7.18,6.47.33,12.94.49,19.41.16,6.63.12,13.26.45,19.89.33,6.54.14,13.1.49,19.65.35,6.54.22,13.1.48,19.65.43,10.7.46,21.41.66,32.11.02.96.02,1.92.04,2.88,0,.31.06.61.09.92.27-.78.31-1.57.3-2.35-.11-6.55-.04-13.1-.37-19.65-.39-7.66-.12-15.34-.49-23.01-.34-7.1-.15-14.22-.45-21.33-.38-8.94-.41-17.9-.57-26.84-.07-3.84-.09-7.67-.14-11.51-.01-.88-.06-1.76-.08-2.64-.11-4.79-.22-9.59-.3-14.38,0-.53.18-1.06.26-1.54.86-.47,1.67-.4,2.46-.4,2.48,0,4.95,0,7.43-.01.64,0,1.28-.02,1.9-.14.22-.04.44-.39.53-.64.04-.11-.25-.43-.43-.49-.37-.11-.78-.15-1.18-.15-5.35-.01-10.71-.02-16.06-.02-.4,0-.8.03-1.19.09-.54.08-.83.43-.87.98-.05.66.25,1.17.84,1.24.79.1,1.59.09,2.39.14.87.05,1.76-.12,2.78.47Zm358.63,434.86c-.81,2,.09,4.03-.84,5.94-.64,0-1.26.05-1.87,0-3.5-.35-6.99-.74-10.49-1.07-.6-.06-1.23.06-1.89.1-.41,1.55-.52,2.92.14,4.43.65-.06,1.28-.08,1.89-.19,2.75-.53,5.49-1.08,8.23-1.64,6.19-1.25,12.38-2.5,18.56-3.76.34-.07.85.03.87-.74-4.37-1.12-8.8-2.08-13.23-3.05-.37-.08-.77-.01-1.36-.01Zm-345.58,75.86c.69.46,1.38.14,2.07.01,10.15-1.84,16.6-3.27,17.83-3.95-.23-.12-.42-.3-.63-.33-6.23-.92-12.46-1.82-18.7-2.71-.21-.03-.44.11-.65.16-.51,1.91-.47,4.93.08,6.81Zm-86.51,17.54c.74,0,1.3.07,1.84-.01,4.57-.68,14.67-2.91,16.3-3.59-.23-.14-.42-.32-.62-.36-5.68-.86-11.36-1.71-17.04-2.54-.21-.03-.45.1-.76.18-.08.29-.26.59-.23.88.19,1.73-.03,3.5.52,5.44ZM413.56,19.59c.03-.91.13-1.55.03-2.15-.05-.32-.41-.64-.71-.84-.25-.16-.61-.16-.93-.16-4.46-.02-8.93-.02-13.39-.02-.16,0-.32.01-.48.03-.93.12-1.26.46-1.33,1.37-.02.32-.02.64,0,.95.08.95.4,1.3,1.29,1.41.39.05.8.06,1.19.06,3.67-.06,7.33-.09,11-.2,1.02-.03,2.03-.27,3.32-.45Zm14.7,474.79c-5.08-1.1-10.2-1.65-15.31-2.28-.28-.03-.59.14-.98.23-.36,1.77-.43,3.46.11,5.2.37.06.69.2.98.14,5.09-.9,10.14-1.97,15.2-3.3Zm-91.93,18.49c.37.05.7.18.98.13,4.91-.99,9.82-1.99,14.73-3.01.1-.02.16-.24.34-.51-5.08-.76-10.11-1.29-15.12-1.91-.3-.04-.61.08-1,.14-.48,1.75-.48,3.43.07,5.17Zm127.06-25.76c-.26-.13-.51-.31-.78-.37-3.81-.79-7.63-1.57-11.45-2.32-.52-.1-1.08-.01-1.7-.01-.5,2-.51,3.83.04,5.91,4.72-.75,9.25-1.84,13.9-3.21ZM546.57,16.9v-.03c-1.68,0-3.36,0-5.03,0-.56,0-1.13,0-1.67.12-.27.06-.59.3-.71.55-.58,1.2-.01,2.29,1.26,2.48.24.04.48.06.72.06,3.59,0,7.19,0,10.78,0,.4,0,.8-.05,1.19-.14.61-.14.94-.54,1.01-1.18.14-1.25-.27-1.81-1.56-1.84-2-.05-4-.01-5.99-.01Zm-324.49,1.46c2.39,0,4.77,0,7.16,0,.63,0,1.27-.02,1.9-.1.53-.06.82-.43.88-.97.06-.63-.25-1.17-.81-1.27-.47-.09-.95-.12-1.42-.12-5.17-.02-10.34-.03-15.51-.03-.4,0-.8.02-1.19.07-.64.09-.99.51-1,1.13-.01.63.32,1.1.93,1.18.63.09,1.27.11,1.9.11,2.39.01,4.77,0,7.16,0Zm172.06-1.66c-.43-.1-.88-.28-1.33-.29-4.46-.03-8.91-.03-13.37-.04-.16,0-.32.01-.48.03-.81.08-1.15.33-1.21.88-.06.62.34.96,1.31,1.03.71.05,1.43.04,2.15.04,1.51,0,3.02.01,4.54.02.84,0,1.58.19,1.94,1.08.25.61.81.73,1.38.74,1.27.02,2.55.04,3.82,0,.45-.02.89-.22,1.31-.33.44-1.11.49-2.09-.05-3.17Zm-38.71,492.32c2.12.01,7.37-.92,13.14-2.3.36-.09.7-.27,1.57-.61-4.85-.86-9.18-1.42-13.49-2.04-.37-.05-.77.09-1.21.14-.55,1.61-.46,3.14-.01,4.8Zm8.61-488.88c.23-.28.44-.44.52-.65.29-.79.87-1.09,1.66-1.11.64,0,1.28-.02,1.92-.02,1.68,0,3.36.02,5.03-.02.54-.01,1.09-.15,1.62-.31.16-.05.35-.38.33-.57-.02-.28-.15-.7-.35-.8-.41-.2-.91-.29-1.37-.29-4.39-.02-8.79-.03-13.18,0-.53,0-1.05.21-1.57.33-.34,1.29-.56,2.43.2,3.59.99,0,1.94.02,2.89,0,.79-.02,1.58-.08,2.31-.12Zm52.27-3.42c-.62,2.52-.34,2.91,1.91,2.92.24,0,.48,0,.72-.02,3.5-.39,7.01-.24,10.51-.28.48,0,.96-.03,1.43-.11.61-.1.93-.52.95-1.18.02-.67-.27-1.15-.85-1.26-.47-.09-.95-.12-1.42-.14-2.31-.08-4.62-.15-6.93-.2-1.51-.03-3.03-.03-4.55,0-.62.02-1.23.18-1.78.26Zm163.67,446.97c-.09-.12-.17-.31-.28-.33-3.83-.75-7.65-1.48-11.49-2.2-.21-.04-.45.1-.78.18-.34,1.63-.4,3.24.09,4.86.3.08.55.22.75.18,3.82-.76,7.64-1.54,11.46-2.34.1-.02.16-.23.24-.35Zm-96.11,19.41c.34.06.59.17.8.13,4.39-.86,8.77-1.73,13.16-2.6.29-.06.57-.2,1.2-.43-1.43-.41-2.53-.49-3.63-.58-2.39-.2-4.78-.36-7.17-.51-1.19-.07-2.39-.11-3.59-.1-.81,0-1.18.38-1.25,1.16-.09.96-.12,1.92.48,2.94Zm34.94-11.18c0,1.14-.04,2.17.02,3.18.02.34.33.66.5.99.52-.02.92,0,1.3-.07,4.05-.8,8.11-1.61,12.16-2.45.32-.07.8-.07.78-.62-7.16-.96-12.25-1.34-14.76-1.03Zm-3.99,4.72c-4.29-.44-8.57-.89-12.86-1.32-.36-.04-.74.13-1.06.2-.54,2.28-.51,2.77.22,4.19,2.1-.04,11.7-1.98,13.7-3.07Zm100.17-19.98c.45.03.83.13,1.2.08,3.03-.39,9.16-1.78,10.63-2.39-1.28-.71-4.82-1.66-10.21-2.7-.51-.1-1.05-.06-1.67-.09-.34,1.77-.39,3.39.05,5.1Zm41.64-8.4c-3.2-1.36-9.65-3.02-11.35-2.95-.59,1.26-.28,2.62-.28,3.95,0,.43.25.86.43,1.43,2.95-.28,5.71-1.03,8.5-1.55.82-.15,1.7-.2,2.7-.88ZM563.88,16.92v-.02c-1.67,0-3.34,0-5.02,0-.56,0-1.12.01-1.67.09-.63.08-.94.48-.99,1.15-.07,1.01.32,1.46,1.35,1.53.48.03.96.02,1.43,0,3.5-.18,6.99-.36,10.49-.55.32-.02.64-.06.94-.14.51-.13.83-.47.81-1.02-.02-.56-.4-.86-.91-.93-.55-.08-1.11-.09-1.67-.1-1.59-.01-3.19,0-4.78,0Zm-119.4,474.08c-.28-.1-.56-.27-.84-.29-4.21-.28-8.42-.54-12.63-.79-.28-.02-.58.17-.83.25q-.35,2.24.28,3.99c4.65-.77,9.28-1.81,14.02-3.16Zm31.64-472.43c.68,0,1.16-.01,1.63,0,2.15.07,4.29.16,6.44.21.55.01,1.12-.03,1.65-.16.43-.1.62-.53.51-.94-.07-.27-.29-.62-.52-.7-.44-.16-.93-.19-1.4-.19-4.06-.02-8.12-.03-12.18-.01-.53,0-1.06.17-1.47.24-.57.79-.48,1.51-.38,2.22.07.53.42.87.94.92,1.26.14,2.53.2,3.81-.11.31-.47.61-.93.96-1.47Zm20.09-1.74s0-.04,0-.05c-1.67,0-3.34,0-5.01,0-.56,0-1.12.01-1.67.07-.53.06-.85.37-.92.93-.08.64.22,1.15.8,1.26.47.09.95.14,1.42.15,3.5.06,7,.11,10.5.15.47,0,.96-.03,1.42-.11.53-.09.8-.47.87-.99.11-.83-.29-1.37-1.21-1.39-2.07-.05-4.14-.01-6.21-.01Zm40.43,2.57c.37-2.21.19-2.46-1.66-2.55-.16,0-.32,0-.48,0-3.02,0-6.03-.01-9.05-.01-.48,0-.95.01-1.43.08-.65.08-1,.5-1.01,1.11-.01.63.32,1.11.92,1.19.63.09,1.26.1,1.9.13,2.3.09,4.59.19,6.89.25,1.25.03,2.52.27,3.91-.19Zm-23.68-.13s0,.04,0,.07c1.68,0,3.35,0,5.03,0,.56,0,1.12-.03,1.67-.1.62-.09.96-.53.97-1.17,0-.64-.32-1.07-.96-1.15-.55-.07-1.11-.09-1.67-.09-3.27-.01-6.54-.02-9.81-.02-.48,0-.96.01-1.43.08-.71.1-1.04.64-.92,1.41.1.61.41.96,1.16.97,1.99.05,3.99.02,5.98.02Zm-206.33-3.02v-.03c-2.23,0-4.47-.01-6.7,0-.55,0-1.12.06-1.64.22-.23.07-.44.45-.5.72-.1.41.08.82.5.97.37.13.78.2,1.17.2,4.79.01,9.57.02,14.36,0,.47,0,.96-.09,1.38-.27.22-.1.4-.5.4-.77,0-.27-.19-.7-.4-.77-.51-.18-1.08-.26-1.63-.26-2.31-.03-4.63-.01-6.94-.01Zm-29.73.27c0,.18,0,.35,0,.53.44.1.87.27,1.31.29,1.28.04,2.56.02,3.84.03.72,0,1.4.06,2.01.59.32.28.86.4,1.31.4,2.72.03,5.44.01,8.15-.01.47,0,.96-.07,1.41-.21.43-.13.61-.55.51-.96-.06-.27-.27-.61-.5-.73-.34-.17-.77-.21-1.16-.21-5.2-.03-10.39-.05-15.59-.04-.43,0-.86.21-1.29.32Zm258.34,456.2c1.1.3,2.02-.03,2.95-.22.94-.19,1.88-.38,2.82-.57,1.02-.2,2.04-.38,3.05-.61.87-.2,1.79-.24,2.82-.82-1.46-.66-2.76-.54-4.01-.72-1.26-.18-2.53-.32-3.8-.47-1.24-.15-2.48-.56-3.69-.11q-.45,1.64-.15,3.52Zm-58.03,11.89c-.34-.18-.47-.3-.61-.32-3.14-.45-6.29-.91-9.44-1.32-.5-.06-1.04.14-1.54.22-.33,1.32-.46,2.47.09,3.58,1.79.05,8.48-1.19,11.5-2.16Zm87.2-18.03c-3.4-.41-6.8-.83-10.2-1.22-.21-.02-.44.12-.77.21-.36,1.21-.54,2.41.19,3.55,2.28-.07,9.15-1.47,10.78-2.54ZM452.93,16.83c2.76.8,5.56.17,8.29.82.25.84.47,1.57.69,2.31,1.76.47,3.43.26,5.08.22.37,0,.96-.19,1-.35.56-2.79.35-3.07-2.24-3.09-3.81-.03-7.63-.02-11.44-.01-.46,0-.91.06-1.37.1Zm-178.55.25c-.46-.5-.59-.76-.76-.8-.62-.14-1.25-.29-1.88-.29-4.55-.03-9.1-.03-13.65-.04-.32,0-.67,0-.94.13-.24.12-.44.4-.53.66-.04.1.25.41.43.46.38.11.78.14,1.18.14,4.71.01,9.42.02,14.13,0,.54,0,1.08-.14,2.02-.27Zm-210.34-1.69s0,0,0-.01c-1.51,0-3.01-.02-4.52.01-.47,0-.96.06-1.38.24-.21.09-.42.49-.41.75,0,.26.22.59.45.74.24.16.6.19.92.19,3.25.01,6.5.01,9.75.01.23,0,.47-.04.7-.1.44-.11.66-.42.64-.86-.02-.44-.25-.76-.69-.84-.46-.08-.94-.12-1.42-.12-1.35-.02-2.7,0-4.04,0Zm588.62,2.1c-.03.16-.05.32-.08.48.26.11.51.31.77.33,1.03.05,2.08.12,3.11.05,1.46-.1,2.67.23,3.3,1.67,1.07,0,2.02.03,2.97-.01.47-.02.95-.13,1.41-.25.64-.17.91-.56.9-1.22,0-.66-.32-1.05-.96-1.15-.31-.05-.63-.07-.95-.07-3.11,0-6.22-.02-9.33,0-.38,0-.76.13-1.14.19Zm-13.16,434.45c-.35-.28-.5-.49-.7-.54-2.3-.59-4.6-1.15-6.91-1.7-.2-.05-.44.09-.64.13q-.43,1.79.16,3.72c2.65-.31,5.29-.85,8.1-1.6Zm21.03-4.36c.5,0,.82.05,1.13,0,2.03-.39,4.06-.8,6.09-1.21.31-.06.6-.19.52-.61-2.54-.97-5.93-1.64-7.75-1.5-.4,1.01-.46,2.06.02,3.33ZM440.67,17.49c.84-.04,1.63-.11,2.42-.12,1.75-.02,3.5,0,5.25-.03.3,0,.6-.16.9-.24-.43-.32-.81-.39-1.19-.39-3.9-.02-7.79-.02-11.69-.03-.4,0-.8,0-1.19.05-.79.09-1.16.5-1.18,1.23-.02.74.35,1.24,1.08,1.31.79.07,1.59.01,2.38.09,1.5.15,2.65-.29,3.21-1.87Zm146.25.32c-.7-.83-1.37-.63-1.96-.65-3.34-.07-6.69-.11-10.03-.15-.24,0-.48.02-.71.07-.44.1-.74.38-.64.83.06.26.31.62.54.67.53.13,1.1.15,1.65.13,3.34-.18,6.68-.37,10.01-.58.3-.02.6-.16,1.14-.32Zm46.44.28c.03-.84-.54-.81-.98-.81-3.35-.03-6.69-.04-10.04-.02-.87,0-1.31.35-1.2.82.17.73.8.67,1.34.69.56.02,1.12,0,1.67-.03,2.7-.13,5.41-.25,8.11-.4.38-.02.75-.17,1.1-.25Zm2.77-.4c.68.78,1.34.67,1.94.67,3.27.01,6.54.01,9.81,0,.4,0,.81,0,1.19-.1.24-.06.42-.32.74-.57-.41-.19-.62-.37-.83-.37-3.99-.02-7.98-.03-11.97-.02-.21,0-.43.18-.89.38Zm-392.02,126.48c-.32,5.71-.32,11.32,0,16.94v-16.94Zm.47,22.08c-.37,2.1-.32,12.26,0,14.68v-14.68ZM616.65,17.19c-.43.06-.82.09-1.19.18-.43.11-.61.45-.6.88.01.43.2.83.64.84.84.02,1.69-.04,2.53-.17.18-.03.4-.49.4-.74,0-.26-.21-.64-.43-.73-.42-.18-.91-.18-1.34-.26ZM164.92,480.65c-.39,2.05-.34,9.94,0,12.3v-12.3Zm80.09-292.29s-.08,0-.11,0v11.59s.08,0,.11,0v-11.59Zm-79.59,310.19c-.06-.03-.12-.07-.18-.1v10.62c.06,0,.12,0,.18,0v-10.52Zm.3,25.45s.09,0,.13,0v-7.36s-.09,0-.13,0v7.36Zm36.91-293.42l.14.06v-7.21s-.1,0-.14,0v7.15Zm42.73-12.93s.07,0,.11-.01v-5.69s-.07,0-.11,0v5.7ZM593.42,17.48c-1.06-.24-2.15-.45-3.78.07,1.63.32,2.69.13,3.78-.07Z"/></svg>