<?xml version="1.0" encoding="UTF-8"?><svg id="Layer_2" xmlns="http://www.w3.org/2000/svg" viewBox="0 0 1920.88 414.34"><defs><style>.cls-1{fill:none;stroke:#fff;stroke-miterlimit:10;stroke-width:2px;}</style></defs><g id="Layer_2-2"><polyline class="cls-1" points=".46 190.56 600.81 413.34 1307.43 399.41 1920.46 119.2"/><line class="cls-1" x1="686.1" y1="411.66" x2=".46" y2="54.81"/><line class="cls-1" x1="776.6" y1="409.87" x2="240.54" y2=".85"/><line class="cls-1" x1="863.62" y1="408.16" x2="579.93" y2=".85"/><line class="cls-1" x1="950.64" y1="406.44" x2="912.35" y2=".85"/><line class="cls-1" x1="1034.18" y1="406.44" x2="1237.81" y2=".85"/><line class="cls-1" x1="1124.69" y1="403.01" x2="1556.31" y2=".85"/><line class="cls-1" x1="1209.97" y1="401.33" x2="1866.11" y2=".85"/><line class="cls-1" x1=".46" y1="95.25" x2="1920.46" y2="54.81"/><line class="cls-1" x1="1866.11" y1="144.05" x2=".46" y2="173.31"/><line class="cls-1" x1="115.45" y1="233.23" x2="1741.31" y2="201.09"/><line class="cls-1" x1="228.96" y1="275.35" x2="1643.11" y2="245.98"/><line class="cls-1" x1="308.95" y1="305.03" x2="1567.36" y2="280.6"/><line class="cls-1" x1="378.09" y1="330.69" x2="1504.84" y2="309.18"/><line class="cls-1" x1="433.29" y1="351.17" x2="1457.78" y2="330.69"/><line class="cls-1" x1="477.35" y1="367.52" x2="1412.97" y2="351.17"/><line class="cls-1" x1="1379.83" y1="366.32" x2="515.44" y2="381.65"/><line class="cls-1" x1="553.88" y1="395.92" x2="1353.59" y2="378.31"/><line class="cls-1" x1="1322.66" y1="392.45" x2="578.8" y2="405.17"/></g></svg>