<?xml version="1.0" encoding="UTF-8"?><svg id="Layer_2" xmlns="http://www.w3.org/2000/svg" viewBox="0 0 673.91 1523.43"><defs><style>.cls-1{fill:none;stroke:#fff;stroke-miterlimit:10;stroke-width:3px;}</style></defs><g id="Layer_1-2"><path class="cls-1" d="m1.52,22.78l592.16-11.65V3.97l2.47-2.47h11.54l2.55,2.55v6.68l62.16-.6-.4,141.62-8.37,1360.12v.91l-54.13-2.72s.3,5.14-4.43,5.44l-.81,6.45h-2.52l-.1-1.71-10.99.1v1.61h-2.02v-7.36l-3.83-.1s-2.62-1.92-2.72-4.13-.1-1.31-.1-1.31l-89.81-3.12-468.07-18.38L1.52,22.78Z"/><polyline class="cls-1" points="38.42 57.81 48.67 797.3 43.54 801.93 43.54 837.19 48.67 837.19 58.03 1456.86 362.99 1468.2 583.35 1476.01"/><path class="cls-1" d="m45.05,63.44l11.66,729.84,512.5,2.54s6.02,1.42,6.68-4.38.66-7.66.66-7.66c0,0-.44-4.49,4.65-4.65s14.5.05,14.5.05l2.05-677.99-3.2.24s-5.7-.95-6.23-6.23-1.01-46.44-1.01-46.44L38.42,57.81l6.63,5.63,542.25-9.05"/><line class="cls-1" x1="617.76" y1="53.78" x2="634.41" y2="53.78"/><line class="cls-1" x1="610.29" y1="1465.3" x2="627.56" y2="1465.3"/><path class="cls-1" d="m48.67,837.19l516.62,3.67h1.84v1.09h8.81l.87,10.06.31,1.8s-.25,2.48,3.48,2.55,15.02,0,15.02,0l-1.47,575.75,8.56.11,1.88-575.75s11.39,0,16.77-.09,5.51-7.42,5.51-7.42l.65-13.75h2.15l-2.15,642.16-17.23-1.35"/><path class="cls-1" d="m587.3,48.76l-.48-31.82s-1.07-4.03,3.56-4.27,19.46-.83,19.46-.83c0,0,2.49-.83,4.98,2.61s1.36,2.31,1.36,2.31c0,0,1.28,1.13,1.56,5.76s0,61,0,61v8.66s-.83,7.32-4.82,8.07-4.53,1.28-4.53,1.28l-3.18,678.09h16.97s3.63.31,3.89,3.89,1.29,12.92,1.29,12.92h3.01l4.02-748.69h-16.65"/><path class="cls-1" d="m594.16,1427.93h-3.07s-4.23.34-5.01,4.16-1.72,8.83-1.72,8.83l-1,23.37-516.92-18.95-8.6-608.15"/><line class="cls-1" x1="583.35" y1="1464.29" x2="581.99" y2="1509.03"/><path class="cls-1" d="m602.73,1427.3l5.58,1.25s3.6.63,3.6,7.51-2.41,73.97-2.41,73.97"/><line class="cls-1" x1="597.74" y1="101.2" x2="608.4" y2="101.53"/><line class="cls-1" x1="588.64" y1="1514.57" x2="605.07" y2="1515.48"/><path class="cls-1" d="m202.63,807.71h42.51l320.98,1.85s4.36-.69,4.47,1.87,0,5.96,0,5.96"/><line class="cls-1" x1="235.57" y1="833.32" x2="202.63" y2="833.32"/><path class="cls-1" d="m243.54,807.71l-5.87,3.22s-2.09,3.52-2.1,4.5v13.31s-2.21,8.42,7.97,7.64,153.11.81,153.11.81l168.58,1.09s5.03,1.37,5.26-5.26,0-12.92,0-12.92l.1-2.72s.33-3.33-4.47-3.33-330.09-.97-330.09-.97"/><polyline class="cls-1" points="569.21 795.82 566.13 805.12 43.54 801.93 202.63 804.82 202.63 838.28"/><line class="cls-1" x1="566.13" y1="805.12" x2="566.13" y2="809.56"/><line class="cls-1" x1="568.91" y1="798.51" x2="625.39" y2="798.51"/><polyline class="cls-1" points="575.94 841.94 615.87 840.39 627.39 838"/><line class="cls-1" x1="615.12" y1="803.23" x2="615.87" y2="840.39"/><path class="cls-1" d="m576.31,787.37s.55-4.81,7.05-4.66,36.67.15,36.67.15c0,0,3.93-.78,4.51,4.51s.96,13.16.96,13.16l-1.7,1-8.68,1.7h-48.2"/><line class="cls-1" x1="627.52" y1="835.2" x2="625.49" y2="800.53"/></g></svg>