<?xml version="1.0" encoding="UTF-8"?><svg id="Paloma_fence_on_black_PSD_Image" xmlns="http://www.w3.org/2000/svg" viewBox="0 0 919.95 862.21"><defs><style>.cls-1{fill:none;stroke:#fff;stroke-miterlimit:10;stroke-width:2px;}.cls-2{fill:#fff;stroke-width:0px;}</style></defs><path class="cls-1" d="m912.43,594.15c.09.41.33.91.27,1.37-.5,3.93-.16,7.95-1.91,11.74-1.32,2.88-1.58,5.98.63,8.8,1.23,1.57,1.31,3.51,1.29,5.44-.02,2.69.05,5.37.02,8.06-.03,2.7-.18,5.39-.17,8.09.01,3.19.21,6.38.21,9.57.03,27.69-.01,55.38.08,83.07.01,4.28.66,8.56.87,12.84.14,2.68.06,5.37,0,8.05-.03,1.39-.33,2.79-.29,4.18.14,4.39.4,8.78.57,13.17.06,1.67.79,2.72,2.28,3.53,3.12,1.7,2.95,2.43,2.18,5.77-.89,3.85-1.36,7.88-1.39,11.84-.15,17.89-.08,35.79-.08,53.68,0,2.1.03,4.2-.03,6.3-.14,4.48-1.5,6.23-5.85,7.53-1.34.4-2.72.79-4.1.87-4.69.26-9.38.39-14.08.55-3.35.12-6.35-1.04-8.89-3.07-3.16-2.53-6.8-2.75-10.5-2.57-2.68.13-5.33.74-7.99,1.1-.68.09-1.44.23-2.07.05-4.74-1.35-9.55-.56-14.32-.48-4.59.08-9.18.51-13.76.93-1.55.14-3.13.54-4.59,1.1-2.43.92-3.98.65-5.4-1.56-2.47-3.85-6.11-5.35-10.49-5.44-2.89-.06-5.73.08-8.61.73-2.57.58-5.35.23-8.04.29-13.88.27-27.77.53-41.65.82-3.8.08-7.59.37-11.38.34-20.79-.13-41.58-.34-62.37-.51-1.65-.01-3.17-.16-4.26-1.66-.72-1-1.82-1.04-2.61-.21-1.81,1.92-4.11,1.86-6.41,1.86-12.9.02-25.79-.05-38.69.05-17.99.14-35.98.43-53.97.62-6.9.07-13.8,0-20.69.08-6.49.08-12.98.34-19.48.38-3.09.02-6.19-.48-9.28-.4-6.79.18-13.57.59-20.35.89-1.5.07-3,.09-4.49.05-5.09-.15-10.18-.4-15.27-.49-11.79-.23-23.58-.38-35.37-.58-.9-.02-1.86.03-2.67-.26-3.2-1.15-6.5-.97-9.79-.97-10.5,0-20.99-.04-31.49.03-2.08.01-4.15.45-6.23.68-.89.1-1.78.21-2.67.21-5.39.03-10.77.1-16.16.03-2.69-.04-5.4-.21-8.06-.57-3.81-.5-7.56-.55-11.31.4-1.06.27-2.17.39-3.26.41-12.99.23-25.97.56-38.96.61-30.59.1-61.18.05-91.77.1-2.89,0-5.79.5-8.67.46-6.09-.08-12.18-.3-18.27-.6-1-.05-2.05-.65-2.92-1.22-1.04-.69-2.01-1.06-2.95-.07-1.42,1.5-3.22,1.4-5.02,1.4-11.6,0-23.19,0-34.79-.01-9.5,0-18.99-.1-28.49.02-7.97.1-15.94.47-23.92.67-2.06.05-3.53.62-4.61,2.62-1.46,2.72-2.82,2.89-5.73,1.88-1.66-.57-3.47-.88-5.23-.97-5.49-.26-10.99-.34-16.48-.55-.98-.04-2.13-.12-2.88-.64-3.07-2.14-6.57-1.34-9.89-1.57-1.02-.07-2.1.95-3.18,1.41-1.16.5-2.32,1.21-3.53,1.32-2.58.25-5.18.2-7.78.21-1.68,0-3.22.31-4.25,1.75-1.54,2.16-3.81,2.93-6.23,3.12-7.59.59-15.18.81-22.65-1.12-3.72-.96-4.58-2.02-4.59-5.86-.02-11.5.03-22.99-.03-34.49-.02-2.99-.38-5.97-.58-8.96-.18-2.59-.46-5.18-.51-7.77-.09-4.9-.06-9.8-.06-14.69,0-2.33-.32-4.54-1.41-6.67-1.1-2.15-.78-3.74,1.48-4.72,3.66-1.6,4.17-4.45,4.13-7.84-.06-4.5-.19-9.01.03-13.49.97-19.48.37-38.97.6-58.45.17-14.29.38-28.57.62-42.86.16-9.39.39-18.78.61-28.17.03-1.3.18-2.59.32-3.88.66-6.3.59-12.53-.91-18.76-.52-2.17-.27-4.54-.3-6.82-.07-4.59,0-9.18-.17-13.76-.1-2.78-.65-5.53-.75-8.31-.06-1.57.44-3.15.58-4.73.18-2.07.47-4.18.31-6.24-.37-4.67-1.15-9.31-1.44-13.98-.25-4.18-.05-8.39-.06-12.59,0-5.08-.01-10.15-.03-15.23,0-1-.04-2-.04-3,0-20.79-.02-41.59-.02-62.38,0-11.88.04-23.77-.02-35.65-.01-3.09-.46-6.18-.47-9.27-.04-9.58.2-19.16.01-28.74-.17-8.78-.79-17.56-1.11-26.34-.18-5.08-.15-10.16-.23-15.25-.04-2.5-.15-4.99-.21-7.48-.08-3.79-.24-7.59-.17-11.38.03-1.35.34-2.88,1.04-4,.99-1.6,1.05-2.97.59-4.77-.54-2.09-.59-4.35-.59-6.53-.04-19.99.05-39.99-.04-59.98-.06-12.19-.4-24.37-.55-36.56-.24-19.68-.39-39.37-.64-59.05-.1-7.89-.41-15.78-.54-23.67-.04-2.19.3-4.38.38-6.57.06-1.89.09-3.79-.03-5.68-.26-3.98-.75-7.94-.93-11.92-.1-2.31-.58-4.26-2.37-5.89-2.73-2.49-3.68-5.59-2.72-9.25,1.44-5.46,1.64-11.04,1.45-16.66-.09-2.7.06-5.4,0-8.1-.15-7.99-.5-15.97-.48-23.96.01-7.39.39-14.77.62-22.16.02-.5.18-.99.2-1.48.16-4.85,3.03-7.42,7.39-8.6,4.99-1.36,9.98-2,14.85.64,2.63,1.43,5.39,2.63,8.04,4.02,4.48,2.36,9.34,2.93,14.26,2.8,8.38-.22,16.77-.63,25.14-1.07,3.69-.19,7.36-.6,11.03-.99,1.08-.12,2.15-.46,3.17-.84,2.66-.99,4.52-.72,5.88,1.75,1.46,2.64,3.49,3.27,6.19,3.14,3.99-.19,7.99-.42,11.98-.37,6.69.08,13.38.36,20.07.58,2.09.07,4.18.35,6.28.36,7.2.04,14.4.06,21.59-.04,4.99-.07,9.98-.5,14.97-.47,12.38.06,24.77.44,37.15.41,23.69-.07,47.37-.36,71.06-.5,10.6-.06,21.19.07,31.79-.02,8.49-.07,16.98-.51,25.47-.49,14.19.04,28.38.34,42.56.48,6.78.06,13.59.31,20.35-.1,7.31-.44,14.57.17,21.86.07,18.19-.25,36.37-.48,54.56-.61,11.29-.08,22.59.13,33.88.06,22.99-.15,45.98-.38,68.96-.61,9.58-.1,19.17-.25,28.75-.46,7.69-.17,15.37-.66,23.06-.68,7.18-.02,14.36.38,21.55.59,2.81.08,5.56-.09,8.27-1.07,2.19-.79,4.47-.83,6.78-.15,1.42.41,2.95.58,4.43.6,5.59.07,11.19,0,16.79.05,4.5.05,8.99.27,13.49.3,3.69.02,7.38-.19,11.07-.18,4.39.01,8.78.22,13.18.22,4.09,0,8.18-.21,12.27-.24,9.99-.07,19.99.04,29.97-.2,4.36-.1,8.71-.91,13.07-1.34,2.09-.2,4.18-.32,6.28-.38,7.39-.24,14.78-.42,22.17-.66,1.29-.04,2.59-.23,3.87-.43,2.76-.43,5.04-1.61,6.84-3.89,2.38-3.02,3.12-3.03,6.61-1.45,3.28,1.49,6.82,1.24,10.3,1.36,5.56.18,11.07-.24,16.69.54,6.65.93,13.48,1.73,20.27.04,2.78-.69,5.74-.68,8.63-.88,1.92-.13,3.48-.84,4.72-2.27,2.93-3.38,6.68-4.22,10.88-3.39,2.33.46,4.72.94,6.89,1.87,2.6,1.11,3.99,3.2,3.49,6.27-.16.95.11,1.97.2,2.96.2,2.27.81,4.6.52,6.81-.44,3.43-.04,6.77.22,10.15.24,3.18.46,6.38.5,9.57.09,7.4,0,14.8.13,22.19.08,4.59.31,9.19.65,13.77.21,2.77.54,5.52,1.72,8.16,1.48,3.32.63,6.53-2.35,8.8-2.66,2.02-3.22,4.48-2.94,7.63.29,3.26.07,6.56.06,9.85,0,.6-.15,1.19-.17,1.79-.24,6.89-.66,13.78-.68,20.66-.07,26.59-.09,53.18.01,79.77.07,18.78.41,37.56.53,56.34.04,6.49-.25,12.98-.27,19.46,0,4.19.36,8.39.28,12.58-.05,2.46-.39,4.99-1.07,7.35-1.2,4.21-1.44,8.46-1.25,12.77.02.5.03,1.04.23,1.47,2.32,4.88,1.71,10.16,2.05,15.3.22,3.28-.02,6.6.06,9.89.29,12.18.68,24.36.93,36.54.07,3.39-.31,6.79-.26,10.18.08,5.49.48,10.98.49,16.47.06,26.09-.04,52.18.06,78.27.1,27.17.38,54.34.55,81.5.03,5.41-.22,10.78-2.4,15.88-.49,1.15-.61,2.53-.63,3.81-.06,3.37.17,3.62,3.28,4.79Zm-180.78-9c-2.65-1.94-5.37-3.8-7.94-5.84-3.09-2.46-3.41-2.57-6.43-.29-11.17,8.41-22.33,16.82-33.48,25.26-3.36,2.54-3.37,3.01-.61,6.31.19.23.37.47.57.7,2.11,2.48,3.25,5.06.97,8.09-.72.96-.49,1.92.41,2.64,1.32,1.06,2.66,2.12,4.05,3.07,6.18,4.23,12.42,8.36,18.55,12.66,5.31,3.72,10.49,7.65,15.76,11.43,3,2.15,3.73,2.07,6.55-.24,10.33-8.5,20.66-17,30.99-25.49,1.39-1.15,1.64-1.89.42-3.25-1.8-2.02-2.38-4.32-2.3-6.9.07-2.49-1.03-4.39-2.86-6-4.5-3.95-8.98-7.92-13.44-11.92-1.09-.98-2.06-2.1-3.08-3.16,1.04.09,1.66.61,2.37.93.38.17,1.06.15,1.35-.09.3-.25.51-.97.36-1.31-.34-.8-.77-1.7-1.44-2.2-3.18-2.39-6.44-4.68-9.72-6.95-.39-.27-1.04-.16-1.9-.27.34,1.18.59,2.02.83,2.86v-.02Zm-528.93,230.32c0,1.69-.09,2.89.02,4.08.25,2.84,1.27,3.63,4.09,3.49,3.49-.17,6.98-.35,10.48-.34,3.69.01,7.39.38,11.08.36,5.69-.03,11.39-.44,17.08-.38,26.58.28,53.17-.35,79.76.44,15.37.46,30.77-.29,46.16-.38,13.7-.08,27.39-.02,41.09,0,1,0,1.99.22,2.99.22,6.09.04,12.18.05,18.27.07,2.09,0,4.19-.12,6.27.05,2.43.19,4.74,0,7.1-.7,1.78-.53,3.72-.66,5.6-.71,4.58-.11,9.17-.03,13.76-.1,5.69-.09,11.39-.36,17.08-.35,7.19.02,14.39.38,21.58.35,23.69-.11,47.37-.37,71.06-.48,7.49-.03,14.98.33,22.47.36,15.79.07,31.59.04,47.39.07,1.9,0,3.79.23,5.69.23,5.88.02,11.77.05,17.65-.08,2.21-.05,3.3-1.35,3.25-3.49-.09-3.69-.27-7.39-.41-11.08-.07-1.96-.99-3.41-2.59-4.48-5.91-3.92-11.81-7.86-17.73-11.77-5.67-3.74-11.5-7.26-16.26-12.22-2.94-3.06-4.48-3.11-7.99-.47-5.58,4.21-11.05,8.61-16.83,12.54-6,4.07-11.38,9.1-18.38,11.69-3.23,1.19-6.08,1.56-9.12-.33-4.59-2.84-9.27-5.52-13.89-8.32-9.15-5.54-18.29-11.09-27.4-16.69-3.23-1.99-6.36-4.15-9.56-6.2-1.61-1.03-3.31-1.56-4.98-.15-3.04,2.58-6.13,5.12-9.04,7.84-2.62,2.45-4.93,5.23-7.56,7.66-7.35,6.76-14.81,13.41-22.22,20.12-3.24,2.93-5.67,3.01-9.02.32-1.95-1.56-3.92-3.1-5.9-4.62-10.71-8.2-21.43-16.4-32.16-24.57-1.83-1.39-3.68-2.76-5.62-3.98-4.45-2.79-4.49-2.78-8.54.61-4.51,3.79-8.98,7.62-13.45,11.46-1.89,1.63-3.77,3.28-5.57,5.01-5.7,5.46-11.33,10.99-17.08,16.4-1.36,1.28-2.94,2.49-4.64,3.21-3.24,1.37-6.49,1.15-9.22-1.35-5.46-4.98-11.05-9.84-16.25-15.08-6.63-6.69-13.67-12.88-20.86-18.93-2.08-1.75-2.89-1.86-4.98-.18-1.87,1.5-3.56,3.21-5.36,4.8-9.32,8.17-18.65,16.32-27.97,24.48-6.21,5.44-13.18,6.61-20.59,3.1-6.04-2.86-12.01-5.97-17.67-9.52-7.78-4.87-16.09-8.92-23.26-14.78-1.83-1.5-2.69-1.31-4.47.31-1.56,1.41-2.93,3.03-4.57,4.33-7.83,6.2-15.63,12.44-23.64,18.4-3.57,2.66-6.19,5.42-5.08,9.73ZM267.5,49.52c-19.76,0-35.26,0-50.75,0-.9,0-1.8-.02-2.7.02-2.9.13-3.56.72-3.66,3.55-.07,1.9.1,3.8.04,5.7-.08,2.66,1.18,4.42,3.27,6,4.38,3.31,8.59,6.83,12.83,10.32.83.69,1.53,1.59,2.14,2.49,3.1,4.62,7.29,8.19,11.28,11.96,1.18,1.11,2.46,1.23,3.84.4,1.54-.92,3.08-1.86,4.62-2.79,3.76-2.28,7.52-4.56,11.28-6.83,5.04-3.04,10.07-6.1,15.14-9.11,3.43-2.04,6.88-4.07,10.4-5.95,2.51-1.34,5.07-1.36,7.76-.08,2.93,1.39,5.13,3.58,6.92,6.06,4.94,6.84,11.81,11.59,18.01,17.05,1.76,1.55,2.64,1.29,3.63-.92,1.08-2.4,2.8-4.09,4.93-5.49,6.67-4.4,13.33-8.83,20.02-13.2,8.27-5.41,17.03-10.05,24.97-16,4.65-3.48,8.81-3.08,13,.88,3.85,3.63,7.5,7.48,11.16,11.3,5.73,5.99,11.35,12.09,17.12,18.04,3.32,3.42,4.75,3.24,7.83-.5.25-.31.42-.69.69-.98,1.01-1.09,1.89-2.38,3.09-3.18,6.66-4.41,13.17-9.04,20.27-12.76,5.83-3.05,11.69-6.09,16.74-10.43,2.53-2.17,5.57-1.8,8.07.53.58.54,1.2,1.05,1.85,1.51,2.76,1.97,5.61,3.84,8.3,5.9,7.76,5.97,15.45,12.03,23.19,18.03,1.26.98,2.57,1.92,3.93,2.75,2.72,1.67,5.57,1.43,8.04-.61,1.85-1.53,3.61-3.17,5.52-4.62,9.15-6.95,18.35-13.84,27.52-20.77,1.11-.84,2.15-1.78,3.21-2.69,3.83-3.3,8.11-5.44,13.32-4.93,1.05.1,2.08.61,3.05,1.08,1.25.6,2.45,1.31,3.62,2.05.66.42,1.26.95,1.83,1.49,1.93,1.85,3.84,3.74,5.76,5.6,2,1.94,4.03,3.86,6.02,5.82,2.56,2.52,5.06,5.09,7.65,7.58,3.16,3.04,6.42,5.99,9.58,9.04,1.43,1.39,2.66,2.99,4.07,4.39,3.59,3.56,6.48,3.76,10.66.94,1.4-.94,2.84-1.89,4.39-2.53,4.52-1.86,8.46-4.45,11.65-8.2,4.82-5.66,10.52-10.29,16.53-14.66,4.02-2.92,7.5-6.58,11.22-9.91.15-.13.28-.29.37-.47.93-1.69,1.07-3.48.17-5.16-.8-1.49-2.37-1.18-3.77-1.14-6.39.19-12.78.37-19.18.52-15.38.37-30.76.77-46.15,1.07-13.89.26-27.78.41-41.67.58-2.6.03-5.19-.09-7.79-.14-4.69-.09-9.39-.26-14.08-.24-4.09.02-8.18.35-12.28.39-30.18.34-60.37-.45-90.55.55-9.08.3-18.19-.13-27.28-.21-.8,0-1.62-.03-2.39.15-5.5,1.28-10.91.54-16.36-.41-2.02-.35-4.14-.11-6.22-.07-.79.02-1.58.32-2.37.34-4.89.12-9.77.26-14.66.28-17.98.08-35.97.08-53.95.2-12.99.08-25.99.3-34.71.41ZM44.76,194.13s0-.04,0-.06c-.9,0-1.8,0-2.7,0-.9.01-1.8-.02-2.7.07-2.59.26-3.49,1.31-3.4,3.94.02.6.14,1.19.2,1.79.46,4.37,1.39,8.75,1.26,13.1-.14,4.9.07,9.77.1,14.65.14,26.98.12,53.97.08,80.95,0,1.75-.61,3.5-.87,5.26-.11.75-.36,1.8,0,2.23,1.69,1.98,1.48,4.29,1.44,6.56-.16,8.89-.52,17.77-.53,26.66-.07,44.67-.03,89.34-.08,134.01,0,4.39-.35,8.78-.46,13.17-.05,1.99.05,3.99.13,5.98.08,1.99.36,3.99.32,5.98-.12,6.09-.48,12.18-.5,18.27-.08,15.89.02,31.78-.04,47.67-.04,9.79-.22,19.58-.34,29.37-.03,2.22.6,3.25,2.81,3.48,5.56.58,11.14,1.02,16.72,1.39,2.08.14,2.65-.51,2.87-2.58.07-.69.04-1.4.01-2.1-.16-4.79-.46-9.58-.44-14.37.01-3.85-.38-7.45-2.33-10.94-2.23-4-2.45-8.19.67-12.06,1.32-1.65,1.58-3.61,1.57-5.66,0-22.19.04-44.37-.05-66.56,0-1.71-.76-3.45-1.34-5.11-.75-2.16-1.77-4.23-2.5-6.4-.67-2.01-.47-4.16.95-5.68,2.3-2.45,2.42-5.3,2.42-8.36-.05-21.09-.07-42.17-.02-63.26,0-3.09-.54-5.78-2.34-8.44-2.86-4.22-3.44-8.73.2-12.98,1.66-1.94,2.1-4.18,2.09-6.68-.04-15.99,0-31.98-.03-47.97,0-4.79-.02-9.58-.25-14.36-.13-2.65.15-5.56-1.97-7.66-3.94-3.88-4.08-12.81-.59-17,1.82-2.19,2.3-4.74,2.29-7.55-.06-21.89-.1-43.77-.02-65.66.01-4.06-.89-7.64-3.22-10.99-.91-1.31-1.26-3.1-1.54-4.72-.22-1.25.04-2.58.15-3.88.23-2.93-.55-3.77-3.54-3.7-1.5.03-2.99.13-4.49.19Zm821.34,383.56c-.09,0-.18,0-.27,0,.3,8.88.6,17.77.91,26.65.01.3.01.6.05.9.27,1.92.88,2.42,2.81,2.17,3.56-.47,7.13-.97,10.68-1.53,2.91-.46,3.93-1.85,3.58-4.8-.11-.89-.54-1.75-.57-2.63-.05-1.56.05-3.13.19-4.69.14-1.57.6-3.13.58-4.69-.12-7.37-1.87-14.68-.71-22.1.07-.47-.12-.99-.16-1.48-.13-1.69-.36-3.38-.35-5.08.09-16.29.28-32.58.33-48.87.02-6.49-.25-12.97-.34-19.46-.18-13.58-.38-27.15-.49-40.73-.1-11.39-.11-22.77-.12-34.16-.01-19.59-.02-39.19.03-58.78.01-4.19.33-8.38.42-12.57.04-1.99-.06-3.99-.18-5.98-.34-5.68-.82-11.36-1.03-17.05-.07-1.74.07-3.81.97-5.18,1.31-1.99,1.5-4.06,1.8-6.22.32-2.3-.24-4.18-2.34-5.38-1.41-.8-1.82-1.97-1.68-3.52.14-1.59.18-3.19.18-4.79.02-13.1.01-26.19.03-39.29,0-1.6.07-3.2.19-4.79.71-9.08.55-18.16.31-27.25-.16-6.18-.26-12.37-.31-18.56-.02-2.13-.24-2.47-2.36-2.38-4.69.21-9.37.43-14.06.65-3.24.16-4.56,1.51-4.48,4.69.08,3.1.29,6.19.37,9.28.05,1.95.85,3.36,2.34,4.62,4.26,3.59,4.62,7.23.79,11.28-2.41,2.55-3.3,5.33-3.16,8.69.22,5.19.45,10.38.52,15.57.1,7.1-.08,14.2.1,21.29.18,7.19.66,14.36.99,21.55.04.8.18,1.65-.04,2.38-.83,2.77-.4,5.54-.27,8.33.09,1.78.69,3.08,2.44,3.72,2.53.92,3.09,2.95,2.85,5.32-.24,2.34-1.05,4.47-2.76,6.17-1.26,1.25-2.06,2.68-2.06,4.51.04,9.2-.04,18.39.15,27.59.19,8.79.73,17.56.99,26.35.3,10.19.49,20.38.67,30.56.03,1.92.62,3.41,2.07,4.75,1.7,1.57,1.73,2.79.54,4.81-.35.6-.92,1.1-1.18,1.73-.56,1.35-1.37,2.76-1.39,4.15-.1,8.9-.13,17.8.06,26.69.23,10.88.7,21.76,1.04,32.64.21,6.69.49,13.38.53,20.07.02,3.18.67,5.8,3.33,7.89,1.81,1.43,1.77,3.19.43,5.06-.46.65-.99,1.27-1.6,1.78-2.02,1.67-2.78,3.82-2.65,6.38.19,3.79.42,7.58.52,11.37.28,10.79.51,21.58.76,32.36ZM69.04,782.3c-.23.12-.47.25-.7.37-.07.67-.19,1.34-.19,2,.02,8.3.06,16.59.08,24.89,0,1-.02,2-.13,2.99-.17,1.45-1.03,2.38-2.45,2.66-.87.17-1.79.28-2.67.22-2.54-.18-3.46-1.32-3.39-3.91.09-3.3.2-6.59.2-9.89.02-8-.12-15.99,0-23.99.07-4.68-.93-8.91-3.94-12.57-1.64-1.99-1.72-4.2-.81-6.49.4-1.01.83-2.13,1.58-2.87,2.36-2.34,2.62-5.19,2.61-8.29-.07-20.29-.09-40.58-.02-60.87.01-4.35-.27-8.42-2.67-12.34-2.07-3.38-2.3-7.14.56-10.63.87-1.07,1.39-2.73,1.42-4.14.09-4.09-.12-8.18-.26-12.27-.25-7.29-.69-14.56.36-21.84.28-1.94.15-3.98-.07-5.95-.22-1.98-1.07-2.67-2.97-2.66-5,.02-9.99.09-14.98.24-3.12.09-4.1,1.13-4.1,4.26,0,1.38.28,2.77.47,4.15.17,1.18.51,2.35.59,3.54.44,7.38,1.18,14.76,1.15,22.13-.06,14.37,1.05,28.78-.71,43.12-.07.59,0,1.2-.05,1.8-.18,1.87-.37,3.74-.59,5.61-.3,2.47-.97,5.08.61,7.26,1.22,1.69,1.42,3.43,1.46,5.35.18,9.69.37,19.37.58,29.06.19,8.69.51,17.38.56,26.07.02,3.29.82,5.75,3.79,7.53,2.22,1.34,2.46,2.51,1.27,4.82-1.09,2.14-1.36,4.34-1.38,6.67-.07,6.09.12,12.2-.38,18.26-.47,5.68,2.92,8.99,7.84,10.45,1.14.34,2.26.82,3.42,1.06,1.64.34,3.3.64,4.97.72,1.28.06,2.58-.31,3.87-.35,7.99-.23,15.98-.37,23.96-.68,1.95-.08,3.93-.56,5.79-1.15,2.54-.81,3.57-.68,4.95,1.75,1.04,1.83,2.48,2.46,4.42,2.45,3.1,0,6.2-.02,9.3.04,2.29.05,4.59.17,6.88.36,8.94.77,17.83,1.79,26.88,1.52,13.78-.42,27.59-.1,41.38-.1,1.2,0,2.4.03,3.6-.07,2.31-.2,2.94-.86,3.02-3.23.06-2-.17-4.01-.02-5.99.23-3.08-1.11-5.03-3.7-6.57-9.96-5.92-19.87-11.94-29.78-17.97-4.27-2.6-8.52-5.22-11.9-9.02-1.94-2.18-2.42-2.13-4.68-.31-4.36,3.51-8.7,7.04-13.16,10.41-4.46,3.37-9.14,6.44-13.55,9.87-4.96,3.86-9.73,7.96-14.59,11.96-.31.25-.62.51-.95.72-2.81,1.84-5.87,1.2-7.34-1.79-1.76-3.57-4.4-6.4-7.08-9.23-5.43-5.73-10.87-11.44-16.31-17.15-.65-.69-1.34-1.35-2.01-2.02ZM36.39,147.71h.03c0,7.2,0,14.39,0,21.59,0,.8-.01,1.6.02,2.4.13,2.95.53,3.3,3.48,3.81,4.04.7,8.05,1.5,12.08,2.25.98.18,1.96.4,2.95.48,1.32.1,2.09-.55,2.13-1.92.04-1.4.06-2.8.07-4.2.05-9.78.09-19.57.13-29.35,0-2,.05-4-.02-5.99-.11-3.69-.35-7.38-.43-11.07-.08-3.6-.05-7.2-.01-10.8.03-2.27-.58-4.33-1.7-6.28-1.2-2.08-2.36-4.18-3.55-6.26-1.29-2.25-1.33-2.49.68-4.31,2.46-2.22,3.58-4.99,3.75-8.22.46-8.37.91-16.75,1.38-25.13.19-3.43,2.04-4.59,5.2-3.35,1.52.6,2.53,1.63,2.81,3.24.22,1.27.37,2.58.35,3.87-.08,4.79-.3,9.58-.37,14.38-.05,3.49,1.51,4.42,4.47,2.66,2.66-1.59,5.26-3.27,7.85-4.98,9.41-6.24,18.79-12.53,28.2-18.77,3.29-2.18,5.48-2.01,8.36.57.59.53,1.17,1.09,1.69,1.7,2.74,3.16,5.43,6.38,8.2,9.51,6.02,6.81,12.08,13.59,18.11,20.38.73.82,1.45,1.65,2.14,2.51,1.69,2.1,2.31,2.22,4.45.69,2.76-1.96,5.37-4.17,8.28-5.89,5.68-3.36,11.13-6.95,16.28-11.15,4.62-3.77,10-6.59,14.99-9.9,2.91-1.93,5.72-4.03,8.61-5.99,1.48-1,2.98-2.05,4.61-2.73,1.95-.81,2.82-2.08,2.74-4.13-.03-.7.01-1.4.01-2.1,0-5.4-.21-5.63-5.53-5.58-18.79.16-37.58.31-56.37.52-8.48.09-16.95.25-25.43.46-5.49.13-10.97.44-16.46.6-2.2.07-3.74.72-4.63,3-.83,2.14-2.17,2.85-3.98,2.21-3.12-1.1-6.31-.81-9.49-.94-6.08-.24-12.16-.33-18.18-1.5-4.22-.82-8.34-.13-12.21,1.92-1.21.64-2.55,1.14-3.89,1.44-4.43,1-7,3.68-7.6,8.13-1.03,7.61-.13,15.15.75,22.7.11.98.43,1.96.79,2.89,1.46,3.7.75,7.11-1.5,10.2-1.24,1.71-1.72,3.51-1.86,5.57-.2,2.88-.7,5.74-1.03,8.61-.48,4.26-1.18,8.51-1.33,12.78-.23,6.49-.06,12.99-.06,19.49Zm811.09,668.73c-.39-1.02-.45-1.33-.61-1.56-5.33-7.73-10.7-15.44-16-23.19-4.51-6.6-8.91-13.27-13.44-19.86-1.89-2.75-3.09-2.8-5.6-.77-4.19,3.39-8.43,6.74-12.63,10.12-8.1,6.51-16.21,13-24.27,19.57-3.88,3.17-9.53,3.17-13.39-.06-5.05-4.23-10.1-8.47-15.26-12.56-7.9-6.27-15.89-12.44-23.85-18.64-1.68-1.31-2.32-1.34-4.17.3-5.9,5.23-11.76,10.51-17.6,15.82-4.66,4.23-9.3,8.47-13.87,12.8-1.81,1.71-3.57,3.52-5.02,5.53-.88,1.22-1.47,2.88-1.57,4.39-.24,3.38-.17,6.79-.09,10.19.07,3.1.9,3.74,4.09,3.68,12.98-.24,25.97-.54,38.95-.66,12.89-.12,25.79-.26,38.67-.02,11.68.22,23.35-1.03,35.03-.09,2.51.2,5.1-.63,7.65-.99.88-.13,1.76-.35,2.65-.39,3.99-.17,7.98-.3,11.97-.43,2.54-.08,4.59-.85,6.02-3.21,1.27-2.09,2.7-2.57,4.85-1.6,3.61,1.62,7.42,1.38,11.18,1.62,1.95.12,3.91.02,6.3.02Zm-415.63-140.04c-.97.39-1.77.58-2.41,1.01-1.16.77-2.26,1.64-3.33,2.54-4.82,4.04-9.55,8.19-14.44,12.13-6.84,5.52-13.81,10.88-20.7,16.33-2.35,1.86-2.34,2.04-.57,4.17,1.4,1.68,1.46,2.86-.08,4.46-1.45,1.51-3.06,2.86-4.62,4.27-2.56,2.31-2.58,2.74-.08,5.19.71.7,1.44,1.4,2.26,1.96,3.12,2.15,6.23,4.32,9.44,6.35,7.42,4.71,14.89,9.34,22.34,13.99,1.86,1.16,3.76,2.28,5.62,3.44,1.68,1.04,3.29,1.23,5.02.03,2.12-1.48,4.35-2.8,6.47-4.27,7.55-5.23,15.09-10.48,22.62-15.75,5.57-3.89,11.11-7.81,16.65-11.75,2.18-1.55,2.38-2.23,1.77-4.84-.52-2.21-1.54-4.1-3.3-5.56-1.31-1.08-2.61-2.17-3.93-3.24-8.77-7.1-17.56-14.18-26.32-21.28-2.79-2.26-5.48-4.66-8.32-6.86-1.23-.95-2.72-1.57-4.06-2.32Zm129.27-539.9c1.19-.66,2.31-1.11,3.23-1.81,10.61-8.01,21.18-16.06,31.77-24.1,2.94-2.24,5.97-4.37,8.8-6.74,2.9-2.43,2.88-3.7.33-6.4-.55-.58-1.12-1.14-1.69-1.7-8.72-8.52-17.33-17.15-26.2-25.52-3.9-3.68-7.7-7.54-12.48-10.23-2.49-1.4-4.63-1.43-6.92.3-8.92,6.75-17.88,13.45-26.83,20.17-2.08,1.56-4.07,3.27-6.31,4.56-2.49,1.44-4.44,3.32-6.23,5.52-1.27,1.57-1.76,2.99-.64,4.88,1.06,1.78.5,3.48-.84,4.93-.41.44-.92.78-1.32,1.22-1.3,1.42-1.3,2.58.09,3.88.65.61,1.43,1.08,2.17,1.6,5.82,4.06,11.64,8.11,17.46,12.18,7.29,5.1,14.55,10.24,21.86,15.31,1.12.78,2.43,1.27,3.76,1.96Zm290.35-86.16c-1.52-1.14-3.05-.81-4.49-.76-4.49.16-8.99.3-13.47.65-2.27.17-4.58.54-6.74,1.23-3.12.99-4.08.88-5.43-2.14-.86-1.92-2.06-2.73-4.11-2.78-6.59-.14-13.18-.54-19.77-.56-21.08-.09-42.17-.05-63.25-.06-17.5,0-34.99,0-52.49,0-2,0-4-.05-6,.06-3.62.18-4.96,2.45-3.3,5.7.52,1.02,1.45,1.89,2.32,2.68,1.34,1.2,2.8,2.25,4.2,3.38,6.92,5.58,13.88,11.12,20.74,16.78,2.91,2.4,5.66,5,8.41,7.59,1.59,1.5,4.5,1.78,6.32.4,1.27-.97,2.42-2.12,3.76-2.96,6.52-4.08,13.09-8.08,19.65-12.11,4.42-2.72,8.81-5.5,13.27-8.15,1.71-1.02,3.53-1.91,5.4-2.6,2.78-1.02,5.47-.79,7.93,1.11,3.79,2.94,7.63,5.8,11.46,8.69,5.27,3.97,10.54,7.93,15.82,11.88,2,1.49,4.04,2.94,6.06,4.41,3.03,2.2,4.24,2.23,7.28.13.74-.51,1.47-1.04,2.21-1.55,14.31-9.88,28.62-19.76,42.92-29.65.45-.31.76-.81,1.26-1.35Zm-185.27,377.61c.21-2.21-.56-3.86-2.39-5.17-9.27-6.61-18.51-13.26-27.73-19.95-3.07-2.23-5.99-4.64-9.01-6.93-1.99-1.51-4.03-2.95-6.03-4.45-1.32-.99-2.52-.92-3.79.13-1.7,1.39-3.46,2.7-5.23,4.01-11.41,8.42-22.84,16.82-34.25,25.23-.8.59-1.64,1.15-2.4,1.8-1.96,1.66-2.04,2.64-.29,4.45.9.93,1.94,1.72,2.92,2.57,1.33,1.16,1.83,2.49,1.23,4.27-.99,2.93-.85,3.28,1.48,5.01,11.25,8.32,22.5,16.62,33.76,24.92,1.13.83,2.27,1.64,3.44,2.41,2.31,1.52,3.28,1.44,5.32-.35.82-.73,1.59-1.52,2.45-2.2,8.82-7.04,17.66-14.06,26.49-21.1,3.83-3.05,7.63-6.13,11.42-9.24,1.7-1.39,2.83-3.11,2.62-5.39Zm-279.81,105.87c-.07,2.2,1.21,3.01,2.47,3.87,10.15,6.92,20.3,13.85,30.44,20.79,2.31,1.58,4.55,3.25,6.89,4.78,2.18,1.42,2.75,1.3,4.73-.44.82-.72,1.62-1.49,2.52-2.11,8.97-6.17,17.97-12.3,26.93-18.49,3.94-2.73,7.83-5.54,11.69-8.38,1.89-1.39,1.95-1.86,1.3-4.09-.5-1.72-1.2-3.44-1.36-5.19-.23-2.59-1.32-4.43-3.33-6.06-12.43-10.05-24.78-20.19-37.17-30.28-2.28-1.85-2.91-1.8-5.17.12-9.21,7.83-18.41,15.66-27.62,23.48-3.66,3.1-7.33,6.18-11,9.27-1.27,1.07-2.35,2.28-1.88,4.1.76,2.98,2.19,5.91.56,8.62ZM235.34,96.8c-.57-.85-1.19-2.11-2.1-3.08-2.61-2.76-5.38-5.36-8.01-8.09-5.27-5.46-10.49-10.97-15.72-16.47-1.46-1.53-2-1.64-3.52-.54-2.74,1.98-5.44,4.01-8.25,5.89-9.3,6.22-18.65,12.36-27.95,18.58-5.23,3.5-10.42,7.07-15.6,10.63-1.58,1.09-1.72,1.56-.63,3.18,1.11,1.64,2.35,3.21,3.68,4.68.92,1.02,1.86,2.09,1.37,3.42-.93,2.54.36,3.93,2.19,5.23,3.08,2.21,6.21,4.37,9.18,6.71,8.86,6.98,17.65,14.06,26.5,21.06,2.06,1.63,2.7,1.54,4.65-.24,2.36-2.16,4.69-4.34,7.05-6.5,4.2-3.84,8.4-7.68,12.61-11.52,4.87-4.44,9.77-8.84,14.61-13.32,2.8-2.59,2.81-3.19,1.1-6.44-1.87-3.54-2.89-7.23-1.59-11.24.15-.47.22-.97.44-1.96Zm427.26,237.34c.17-2.39-.77-4.1-2.64-5.45-3.16-2.28-6.24-4.66-9.34-7.02-4.69-3.57-9.14-7.52-14.11-10.64-6.39-3.99-12.26-8.59-18.07-13.32-1.66-1.36-2.22-1.43-3.95-.19-.73.52-1.39,1.14-2.08,1.72-3.21,2.71-6.4,5.43-9.63,8.12-8.37,6.96-16.76,13.91-25.15,20.86-1.35,1.12-2.05,2.51-1.63,4.23.78,3.14-.49,5.37-2.83,7.33-2.06,1.73-1.85,3.03.33,4.43,8.42,5.38,16.79,10.83,25.22,16.19,5.56,3.54,11.22,6.93,16.78,10.47,2.3,1.47,4.31,1.21,6.31-.45.62-.51,1.25-.99,1.88-1.49,6.85-5.51,13.7-11.03,20.56-16.54,4.91-3.94,9.81-7.89,14.75-11.81,2.13-1.69,3.76-3.6,3.59-6.44Zm-139.13,331.76c1.14-3.48-.35-4.96-2.69-6.35-4.38-2.6-8.69-5.33-12.82-8.29-9.66-6.91-19.21-13.98-28.79-21-1.31-.96-2.55-1.01-3.84-.03-.64.48-1.3.94-1.93,1.43-9.32,7.22-18.64,14.44-27.96,21.66-2.84,2.2-5.73,4.36-8.49,6.65-2.11,1.75-2.12,2.01-.41,4.11,1.16,1.43,1.79,2.97,1.25,4.71-.72,2.36.37,3.78,2.09,5.09,5.01,3.81,10.01,7.62,14.98,11.49,7.48,5.83,14.95,11.68,22.38,17.58,2.59,2.06,3,2.14,5.72.24,3.85-2.69,7.72-5.33,11.6-7.98,4.62-3.15,9.29-6.21,13.85-9.45,4.07-2.89,8.02-5.95,12.02-8.93.96-.72,1.97-1.37,2.91-2.11,2.23-1.76,2.23-2.14,1.2-4.79-.56-1.44-.81-3.01-1.07-4.02Zm89.53-378.37c-.72-1.1-1.25-2.47-2.23-3.3-1.9-1.6-4.06-2.89-6.1-4.33-9.2-6.54-18.4-13.08-27.59-19.62-3.66-2.61-7.31-5.24-10.99-7.82-2.3-1.61-3.17-1.58-5.37.07-1.04.78-2.05,1.59-3.03,2.45-7.67,6.7-15.35,13.41-23,20.14-2.62,2.31-5.24,4.63-7.75,7.07-1.53,1.49-1.48,2.08-.41,3.94,1.73,2.99,1.53,4.23-1.16,6.37-1.01.8-2.17,1.43-3.23,2.17-2.35,1.62-2.37,2.82-.07,4.61.71.55,1.47,1.03,2.24,1.5,9.11,5.57,18.22,11.15,27.34,16.71,4.27,2.6,8.57,5.14,12.8,7.79,1.76,1.1,3.32,1.21,4.91-.22.52-.47,1.09-.87,1.64-1.31,8.8-7.06,17.62-14.09,26.38-21.2,4.27-3.46,8.43-7.05,12.62-10.6.61-.51,1.22-1.07,1.66-1.72.49-.72.79-1.57,1.34-2.7Zm56.89,330.36c-.9-2.98-1.88-6.33-2.95-9.65-.17-.52-.71-.97-1.17-1.34-5.04-4.08-9.9-8.42-15.2-12.12-7.12-4.98-14.36-9.77-20.96-15.46-2.18-1.88-2.43-1.74-4.54.07-8.25,7.1-16.5,14.19-24.79,21.24-4.41,3.75-8.89,7.43-13.38,11.09-1.55,1.26-2.36,2.67-1.6,4.69.73,1.93.36,3.63-.8,5.37-1.29,1.93-1.08,3.21.62,4.78,1.39,1.29,2.95,2.39,4.44,3.55,7.33,5.7,15.66,9.94,22.86,15.86,3.99,3.28,8.54,5.88,12.78,8.86,2.31,1.62,2.75,1.68,4.88-.23,3.79-3.4,7.59-6.8,11.39-10.18,5.29-4.71,10.56-9.46,15.9-14.12,3.46-3.02,7.05-5.89,10.56-8.86.99-.83,2.05-1.66,1.96-3.56Zm-231.61,146.38c-.99,2.46.32,3.35,1.68,4.34,7.44,5.38,14.87,10.77,22.26,16.22,5.71,4.21,11.28,8.59,17.04,12.71,3.56,2.55,5.85,2.27,9.11-.7,5.46-4.97,10.85-10.02,16.29-15.01,6.17-5.67,12.41-11.27,18.5-17.03,1.33-1.26,2.47-2.9,3.22-4.58,1.46-3.25.68-5.37-2.24-7.48-12.78-9.24-25.56-18.48-38.34-27.72-2.06-1.49-2.35-1.45-4.47.06-9.33,6.69-18.67,13.37-28.01,20.04-5.12,3.66-10.25,7.3-15.37,10.94-2.55,1.82-2.61,2.45-.96,5.07.65,1.03.95,2.29,1.28,3.13Zm235.83-46.64c-.45-1.04-.75-1.77-1.09-2.48-.51-1.08-1.2-2.1-1.55-3.23-.78-2.5-2.28-4.35-4.36-5.9-12.02-8.94-24-17.93-36-26.91-3.18-2.38-3.65-2.41-6.76.06-6.02,4.79-12.05,9.56-18.01,14.42-5.5,4.48-10.92,9.05-16.39,13.57-1.04.86-1.96,1.76-1.81,3.24.28,2.7-.88,4.8-2.55,6.79-1.52,1.81-1.44,2.49.37,3.95,1.7,1.38,3.52,2.63,5.26,3.97,11.88,9.13,23.75,18.27,35.64,27.39,2.33,1.79,2.72,1.77,4.68.21,10.7-8.53,21.4-17.06,32.1-25.59,2.81-2.24,5.65-4.46,8.38-6.79.85-.73,1.41-1.81,2.09-2.7Zm-7.09-576.71c1.45.8,2.3,1.28,3.15,1.74,3.54,1.92,4.33,4.88,2.19,8.24-1.79,2.81-1.77,2.95,1.04,4.93,4.65,3.29,9.31,6.56,13.99,9.82,7.87,5.49,15.74,10.98,23.64,16.43,2.46,1.7,2.96,1.63,4.94-.21,10.91-10.13,21.82-20.26,32.72-30.4.88-.82,1.85-1.59,2.49-2.58.56-.85,1.13-2.06.95-2.96-.45-2.25-.29-4.38.4-6.5.68-2.09.13-3.65-1.7-4.91-2.22-1.52-4.35-3.19-6.53-4.78-9.04-6.6-18.08-13.19-27.1-19.81-1.45-1.06-2.74-2.34-4.17-3.43-2.01-1.53-2.52-1.5-4.44.07-11.99,9.81-23.98,19.62-35.95,29.45-1.75,1.43-3.41,2.97-5.6,4.88Zm-338.3-30.65c1.53,1.38,2.5,2.36,3.57,3.2,8.18,6.41,16.28,12.9,23.78,20.11,1.87,1.8,3.84,3.49,5.78,5.22,3.04,2.7,3.78,2.57,6.01-.74.94-1.39,1.98-2.77,3.22-3.89,3.77-3.42,7.67-6.7,11.5-10.06,7.96-6.98,15.89-13.99,23.88-20.94,2.1-1.82,3.47-4.03,4.54-6.57,1.08-2.58.64-4.49-1.32-6.46-4.16-4.17-8.16-8.5-12.19-12.79-3.75-4-7.42-8.07-11.18-12.06-2.07-2.2-4.47-3.95-7.39-4.97-1.65-.58-3.14-.49-4.55.51-1.22.86-2.62,1.6-3.57,2.71-2.67,3.12-6.19,4.97-9.61,7.03-5.55,3.35-10.86,7.06-16.08,10.91-5.38,3.96-11.08,7.49-16.61,11.24-.68.46-1.23,1.13-2.09,1.94,1.1.86,1.78,1.61,2.64,2.03,1.79.87,3.66,1.58,5.5,2.32,1.38.55,2.47,1.36,2.66,2.94.2,1.68-.61,2.88-1.94,3.78-.66.44-1.41.76-2.06,1.22-1.36.96-2.68,1.98-4.49,3.33Zm233.74,120.38c1.06-.71,2.24-1.39,3.29-2.23,2.71-2.19,5.23-4.65,8.07-6.65,10.19-7.21,20.49-14.27,30.74-21.4,1.47-1.03,2.96-2.05,4.34-3.19,2.48-2.05,2.44-3.29-.08-5.18-15.4-11.58-30.81-23.16-46.21-34.74-2.21-1.66-3.09-1.67-5.32-.02-.48.35-.93.76-1.38,1.15-9.25,8.07-18.51,16.14-27.75,24.22-2.03,1.77-4.09,3.52-6.01,5.41-1.59,1.57-1.56,2.24-.61,4.25.55,1.17,1.13,2.35,1.47,3.59.71,2.6.19,3.74-2.12,5.25-2.09,1.36-2.18,2.28-.36,3.87.37.33.79.61,1.21.88,12.46,7.76,24.92,15.53,37.4,23.27.92.57,1.97.91,3.33,1.52Zm99.55,8.98c-.54-.96-.79-1.77-1.32-2.28-1.15-1.1-2.39-2.13-3.69-3.04-8.75-6.14-17.55-12.2-26.27-18.37-4.97-3.51-9.84-7.17-14.72-10.8-1.64-1.22-2.29-1.32-4.28.04-5.11,3.49-10.17,7.07-15.3,10.54-8.02,5.42-16.06,10.8-24.13,16.14-3.25,2.15-3.51,3.59-.85,6.28.14.14.29.27.43.42,1.92,2.05,2.08,3.05.86,5.63-1.3,2.77-1.1,3.49,1.38,5.21,8.28,5.75,16.55,11.53,24.85,17.27,4.76,3.3,9.53,6.59,14.37,9.77,2.53,1.66,3.67,1.47,5.91-.43,2.97-2.51,5.92-5.04,8.9-7.54,6.11-5.14,12.21-10.29,18.37-15.38,4.39-3.62,8.89-7.11,13.28-10.73.87-.72,1.46-1.77,2.23-2.73Zm52.37,137.3c.23-1.41-.61-2.16-1.68-2.87-5.66-3.75-11.29-7.56-16.95-11.32-8.48-5.65-17-11.25-25.45-16.93-3-2.02-2.94-2.1-5.81.18-9.16,7.27-18.32,14.54-27.47,21.82-2.42,1.93-4.82,3.9-7.23,5.85-1.59,1.29-2.38,2.81-2.02,4.98.19,1.12-.04,2.41-.42,3.51-1.2,3.56-1.23,4.02,1.63,6.38,5.02,4.12,10.01,8.29,15.23,12.15,7.56,5.57,15.31,10.88,22.98,16.29,3.12,2.2,3.84,2.23,6.85-.24,12.36-10.14,24.71-20.3,37.01-30.51.95-.79,1.83-1.95,2.19-3.11.61-1.99.78-4.11,1.14-6.17Zm-293.65,10.67c-1.03-2.94-1.07-5.69-3.6-7.51-10.06-7.21-20.02-14.56-30.02-21.84-2.5-1.82-5.07-3.56-7.52-5.44-3.28-2.52-4.87-2.64-8.37-.34-.67.44-1.3.93-1.91,1.44-3.99,3.31-8.12,6.48-11.93,9.99-6.68,6.15-13.2,12.47-19.71,18.81-2.31,2.24-2.16,3.24.26,5.38,3.58,3.18,3.48,4.51-.56,7.11-1.26.81-1.45,1.58-.44,2.66.89.94,1.91,1.76,2.91,2.58,8.88,7.28,17.76,14.55,26.67,21.8,2.01,1.64,4.06,3.25,6.2,4.71,1.66,1.14,2.61,1.03,4.08-.17,1.62-1.32,3.21-2.7,4.78-4.08,7.35-6.45,14.68-12.92,22.04-19.36,4.96-4.34,9.98-8.61,14.91-12.98.92-.81,1.57-1.92,2.22-2.74Zm236.41-239.12c.02-3.16-1.2-5.96-4.12-7.92-1.33-.89-2.64-1.8-3.95-2.72-9.33-6.53-18.68-13.03-27.97-19.63-2.35-1.67-4.47-3.67-6.7-5.52-2.69-2.23-3.86-2.29-6.59-.28-2.26,1.65-4.49,3.34-6.75,4.99-10.46,7.67-20.92,15.36-31.41,23-1.15.84-1.77,1.79-.86,2.99,1.7,2.24,1.14,3.95-.75,5.74-1.28,1.21-1.15,2.04.18,3.28,1.03.94,2.14,1.81,3.27,2.62,10.7,7.71,21.39,15.42,32.12,23.09,2.6,1.86,5.27,3.61,7.98,5.3,2.03,1.27,2.99,1.1,4.85-.47.92-.77,1.78-1.61,2.73-2.33,7.72-5.86,15.46-11.69,23.19-17.54,3.98-3.02,7.95-6.05,11.91-9.09,1.72-1.32,3.13-2.84,2.87-5.51Zm-182.43,468.93c.26-2.24-.57-3.32-1.95-4.23-11.3-7.37-22.59-14.74-33.85-22.17-3.25-2.15-6.42-4.42-9.56-6.73-1.79-1.33-3.43-1.41-5.17-.02-1.09.87-2.24,1.67-3.34,2.53-5.35,4.2-10.67,8.42-16.03,12.6-6.23,4.85-12.49,9.66-18.72,14.51-1.02.8-2.03,1.64-2.91,2.59-1.1,1.18-.79,2.25.78,2.63,1.16.28,2.4.21,3.55.5,2.84.71,3.9,2.92,2.72,5.47-1.26,2.72-1.27,2.73,1.08,4.56,3.63,2.82,7.27,5.63,10.92,8.42,7.86,6.01,15.71,12.03,23.6,18.01,2.11,1.6,3.01,1.48,4.97-.32,1.1-1.01,2.15-2.1,3.34-3,12.07-9.23,24.09-18.53,36.3-27.56,3-2.22,4.24-4.85,4.26-7.79Zm148.11,52.44c-.64-3.69-.4-7.1-3.32-9.3-3.83-2.89-7.69-5.74-11.58-8.54-3.81-2.74-7.72-5.35-11.51-8.12-6.45-4.72-12.85-9.51-19.26-14.29-1.02-.76-2-.84-3.03-.13-.58.4-1.13.82-1.68,1.25-8.54,6.77-17.07,13.55-25.6,20.32-3.29,2.61-6.61,5.18-9.86,7.84-1.96,1.61-1.88,2.05-.14,3.77.99.98,1.97,1.99,2.78,3.12,1.05,1.46,1.28,3.06.48,4.81-1.52,3.34-1.51,3.46,1.45,5.62,11.77,8.62,23.55,17.22,35.36,25.78,3.68,2.66,3.89,2.6,7.66.09.42-.28.82-.57,1.21-.88,9.26-7.62,18.51-15.25,27.78-22.87,2.47-2.03,5.01-3.98,7.42-6.08.83-.73,1.38-1.79,1.83-2.4Zm-107.28-288.63c.61-3.03-.75-5.01-3.26-6.7-13.09-8.8-26.11-17.71-39.16-26.58-2.25-1.53-3.21-1.54-5.4.11-12.74,9.65-25.46,19.31-38.18,28.97-1.68,1.27-1.65,2.34.21,3.4,1.02.58,2.26.77,3.34,1.26,2.36,1.07,2.75,3.17.99,5.05-.34.36-.76.65-1.12.99-.94.87-.79,1.77.02,2.6.56.57,1.19,1.06,1.82,1.55,3.63,2.81,7.28,5.61,10.92,8.41,8.54,6.58,17.07,13.19,25.64,19.74,2.99,2.29,4.32,2.29,6.86.03,11.13-9.87,22.2-19.8,33.37-29.63,2.84-2.5,4.41-5.36,3.96-9.21Zm-226.52,421.33c2.93-.19,4.72-1.37,6.43-2.84,8.31-7.19,16.63-14.36,24.99-21.48,3.12-2.65,6.35-5.18,9.54-7.74,2.95-2.37,3.13-2.87,1.23-6.25-.77-1.36-1.79-2.65-2.96-3.69-2.46-2.2-5.07-4.21-7.63-6.29-10.09-8.18-20.21-16.32-30.26-24.55-3.76-3.08-3.83-3.16-7.3.25-4.27,4.21-8.52,8.44-12.84,12.59-6.56,6.29-13.16,12.53-19.77,18.77-1.12,1.06-1.32,1.96-.41,3.36,1.62,2.48,1.35,3.37-.86,5.37-1.48,1.34-2.96,2.69-4.31,4.16-1.67,1.83-1.46,2.96.6,4.39.25.17.51.32.77.47,12.49,7.13,24.97,14.3,37.5,21.37,1.8,1.01,3.85,1.57,5.28,2.13Zm-133.71-310.76c-.07.32-.14.65-.21.97,1,.89,1.93,1.9,3.02,2.67,11.18,7.89,22.39,15.74,33.6,23.6,4.26,2.99,4.4,2.95,8.54-.3,8.72-6.85,17.1-14.1,25.27-21.6,2.28-2.09,4.72-4,7.1-5.99,1.37-1.15,2.05-2.47,2.03-4.41-.02-1.51.59-3.1,1.24-4.51.62-1.34,1.65-2.49,2.52-3.71.83-1.15.79-2.23-.25-3.21-1.16-1.1-2.29-2.23-3.53-3.24-7.26-5.96-14.55-11.87-21.81-17.83-3.63-2.98-7.18-6.05-10.84-8.99-2.15-1.73-2.93-1.65-4.94.14-1.34,1.2-2.6,2.49-3.95,3.67-10.37,9.07-20.76,18.13-31.13,27.2-1.2,1.05-2.31,2.21-3.43,3.35-.93.93-.96,1.91-.07,2.91.73.82,1.5,1.62,2.13,2.51,1.91,2.7,1.34,4.32-1.79,5.4-1.18.41-2.33.91-3.49,1.38Zm517.08,21.05c1.04-.66,2.03-1.14,2.85-1.83,3.46-2.87,6.88-5.78,10.3-8.7,8.59-7.32,17.16-14.64,25.75-21.96,1.35-1.15,2.15-2.51,2.35-4.34.19-1.75.63-3.51,1.18-5.19.47-1.45.24-2.54-.96-3.43-.72-.54-1.47-1.04-2.21-1.55-5.35-3.68-10.7-7.35-16.05-11.03-7.49-5.15-14.97-10.3-22.48-15.43-2.75-1.88-3.57-1.81-6.09.26-1.62,1.33-3.2,2.71-4.84,4.01-10.88,8.62-21.77,17.22-32.65,25.84-1.92,1.52-1.94,1.83-.44,3.83.98,1.31,1.82,2.6,1,4.37-1.27,2.74-1.18,2.69,1.43,4.31,3.13,1.95,6.33,3.84,9.22,6.12,7.06,5.56,13.94,11.35,20.92,17,2.64,2.14,5.34,4.19,8.06,6.23.77.58,1.7.95,2.66,1.47ZM464.69,63.64c-2.54.47-4.58,1.5-6.56,2.71-7.83,4.79-15.64,9.63-23.51,14.36-3.29,1.98-6.19,4.34-8.68,7.26-1.63,1.91-2.39,3.92-1.47,6.33,1.12,2.92.41,5.29-2,7.18-1.79,1.41-2.12,3.21-1.79,5.35.39,2.54,1.58,4.37,3.72,5.84,7.64,5.28,15.19,10.68,22.79,16.02,3.43,2.41,6.86,4.83,10.35,7.15,2.1,1.39,2.87,1.25,4.81-.36,1.38-1.15,2.75-2.31,4.12-3.48,10.04-8.53,20.12-17.02,30.11-25.61,2.8-2.4,5.4-5.04,7.97-7.69,1.68-1.74,1.47-2.55-.45-4.11-.76-.61-1.36-1.42-2.05-2.11-1.05-1.04-2.04-2.16-3.19-3.08-3.79-3.07-7.73-5.98-11.45-9.13-6.01-5.09-11.52-10.79-18.43-14.75-1.34-.77-2.85-1.27-4.28-1.89Zm206.86,636.34c1.3-.84,2.62-1.51,3.71-2.44,2.27-1.93,4.32-4.12,6.63-6,7.9-6.43,15.77-12.91,23.86-19.11,5.2-3.98,10.07-8.15,13.5-13.84,1.51-2.5,1.58-3.18-.73-4.95-.55-.43-1.15-.8-1.72-1.2-8.67-6.09-17.34-12.18-26-18.27-3.68-2.59-7.38-5.15-11-7.81-2.07-1.52-3.99-1.6-6,0-1.48,1.18-3.07,2.25-4.5,3.49-7.76,6.75-15.49,13.55-23.24,20.31-3.61,3.16-7.27,6.26-10.86,9.43-1.72,1.52-1.92,2.01-.85,3.51,1.44,2.02,1.21,3.82.05,5.83-1.44,2.5-1.2,3.59,1.08,5.38,1.73,1.35,3.58,2.55,5.36,3.84,2.27,1.64,4.52,3.29,6.77,4.96,6.58,4.88,13.14,9.8,19.76,14.63,1.18.86,2.59,1.39,4.19,2.22Zm35.38-605.06c-.01-2.35-1.47-3.59-2.96-4.8-6.42-5.23-12.88-10.42-19.28-15.69-5.24-4.31-10.43-8.69-15.62-13.06-.77-.65-1.49-1.51-2.61-.98-2.86,1.37-5.91,2.37-8.26,4.69-2.56,2.52-5.23,4.92-7.92,7.31-8.57,7.62-16.77,15.7-26.8,21.51-.43.25-.82.57-1.22.87-.88.67-1.34,1.57-.93,2.62,1.05,2.69-.08,4.82-1.53,6.96-1.38,2.03-1.29,2.37.77,3.84,3.57,2.56,7.21,5.03,10.77,7.6,3.64,2.62,7.2,5.37,10.86,7.97,3.66,2.6,7.39,5.1,11.11,7.61,1.74,1.17,3.52,2.28,5.28,3.41,1.47.93,2.75.73,4.06-.44,2.6-2.32,5.29-4.55,7.97-6.79,8.26-6.92,16.54-13.83,24.81-20.76,3.14-2.63,6.27-5.26,9.36-7.95,1.23-1.07,2.2-2.34,2.14-3.93ZM194.14,341.06c.49-1.88-.96-2.63-2.15-3.5-13.77-10.1-27.55-20.2-41.34-30.28-2.24-1.64-2.96-1.68-5.05-.02-11.8,9.4-23.58,18.84-35.36,28.26-.39.31-.77.64-1.11,1-.95.99-.92,1.99.18,2.81,1.36,1.01,2.8,1.92,4.19,2.9,2.77,1.95,3,3.05,1.26,5.96-1.13,1.89-1.16,1.92.45,3.53,1.06,1.06,2.18,2.06,3.33,3.02,4.07,3.39,8.16,6.75,12.26,10.11,6.42,5.26,12.84,10.5,19.28,15.74,2.1,1.71,2.6,1.72,4.69.1,2.05-1.59,4.11-3.18,6.08-4.88,4.24-3.65,8.41-7.38,12.64-11.04,5.9-5.09,11.86-10.11,17.72-15.25.93-.81,1.74-1.99,2.1-3.16.52-1.69.58-3.53.84-5.31Zm665.15,368.17c-.58-1.09-.93-2.42-1.78-3.23-1.87-1.78-3.95-3.36-6.01-4.92-11.45-8.69-22.91-17.37-34.4-26.02-3.28-2.46-3.69-2.38-6.96.27-5.28,4.27-10.52,8.57-15.84,12.79-6.5,5.15-13.07,10.2-19.58,15.32-2.42,1.9-2.36,2.69.17,4.35,2.42,1.59,2.83,3.28,1.41,5.83-1.5,2.7-1.42,3.34.89,5.34,10.81,9.32,21.63,18.64,32.46,27.94,3.24,2.78,3.41,2.79,6.8.02,6.11-4.99,12.17-10.05,18.26-15.05,7.18-5.89,14.35-11.79,21.57-17.63,1.58-1.27,2.61-2.73,3.01-5Zm-239.3-137.7c.05-2.21-.83-3.97-2.44-5.31-1.92-1.59-3.89-3.14-5.93-4.57-11.53-8.08-23.09-16.13-34.64-24.18-4.27-2.98-4.04-3.85-9.69.13-3.1,2.18-5.93,4.73-8.87,7.13-7.5,6.13-15.02,12.24-22.49,18.41-2.8,2.31-2.76,3.87-.19,6.36,2.07,2,3.1,4.4,2.06,7.27-.66,1.81-.35,3.36.95,4.69,1.53,1.57,3.03,3.21,4.74,4.57,6.49,5.15,13.11,10.13,20.27,14.34,1.79,1.06,3.58,1.74,5.67,1.33,3.28-.64,6.43-.15,9.22,1.63,3.15,2.01,5.66,1.37,8.34-.97,8.13-7.08,16.39-14.03,24.61-21,1.98-1.68,4.04-3.26,6.03-4.93,1.51-1.28,2.53-2.84,2.34-4.88Zm47.31-49.53c.17-1.64-.31-3.03-1.48-4.11-1.53-1.43-3.07-2.86-4.7-4.17-7.5-5.98-15.05-11.89-22.54-17.89-4.61-3.69-9.34-7.14-14.79-9.57-1.85-.83-3.12-.69-4.6.55-8.41,7.07-16.87,14.08-25.3,21.13-2.91,2.43-5.78,4.92-8.66,7.39-1.52,1.31-2.44,2.85-2.13,4.99.28,1.92-.45,3.52-1.79,4.88-.63.64-1.28,1.27-1.84,1.97-1.32,1.65-1.24,2.39.4,3.75.61.51,1.28.96,1.94,1.41,5.38,3.63,10.76,7.27,16.17,10.87,7.15,4.76,14.31,9.51,21.52,14.2,2.41,1.57,2.71,1.37,4.9-.58,3.36-2.98,6.66-6.06,10.26-8.72,7.8-5.75,15.76-11.27,23.67-16.87,1.96-1.38,4-2.65,5.95-4.03,1.79-1.27,3-2.92,3.02-5.2Zm-432.94,145.66c.25-1.82-.99-2.6-2.06-3.49-11.22-9.33-22.44-18.65-33.65-27.98-1.9-1.58-2.13-1.62-4.11-.12-3.11,2.35-6.23,4.69-9.26,7.13-8.32,6.71-16.6,13.47-24.89,20.23-2.64,2.15-2.63,2.21-.85,5.11,2.24,3.65,1.7,6.03-1.87,8.26-3.47,2.17-3.52,3.45-.21,5.94.08.06.16.12.24.18,12.66,8.93,25.31,17.87,37.98,26.79,3.18,2.24,3.59,2.21,6.48-.28,10.98-9.45,21.94-18.92,32.9-28.39,2.09-1.81,2.15-2.12.45-4.41-1.73-2.33-2.3-4.83-1.5-7.63.14-.48.25-.97.35-1.33Zm440.65,129.38c1.83-.13,3.1-1.03,4.34-2.12,5.94-5.2,11.91-10.36,17.87-15.53,5.73-4.98,11.46-9.97,17.21-14.92,1.23-1.06,1.81-2.18,1.57-3.92-.17-1.19.17-2.58.66-3.71.55-1.25,1.51-2.33,2.32-3.46,1.32-1.85,1.25-2.87-.39-4.44-.43-.41-.92-.77-1.4-1.13-9.61-7.17-19.22-14.35-28.84-21.51-1.68-1.25-3.44-2.41-5.15-3.63-1.22-.87-2.2-.85-3.45.21-4.79,4.08-9.66,8.07-14.58,12-8.98,7.17-18.03,14.26-27.04,21.4-2.37,1.88-2.42,2.11-.44,4.48,1.6,1.91,1.59,3.86.31,5.79-1.67,2.53-1.74,3.5,1.37,5.96.55.43,1.14.81,1.71,1.22,7.72,5.69,15.42,11.41,23.16,17.08,2.34,1.71,4.73,3.35,7.2,4.86,1.07.66,2.38.93,3.58,1.38Zm-299.64-83.23c.2-1.53-.95-2.29-1.95-3.08-4.62-3.65-9.28-7.27-13.9-10.92-7.36-5.82-14.7-11.68-22.06-17.5-3.46-2.74-3.53-2.74-6.89-.12-2.84,2.21-5.64,4.45-8.47,6.68-9.88,7.79-19.76,15.57-29.63,23.37-1.66,1.31-1.61,2.11.03,3.59.29.27.65.47.94.74,1.6,1.54,1.66,2.53.28,4.39-1.4,1.89-1.4,2.15.22,3.71.43.41.91.78,1.38,1.15,12.03,9.58,24.05,19.16,36.09,28.73,3.01,2.39,3.46,2.45,6.38-.13,4.93-4.37,9.73-8.88,14.6-13.32,6.12-5.58,12.1-11.33,18.43-16.67,3.45-2.91,4.15-6.6,4.55-10.62Zm197.38-201.92c3.21-.09,5.17-.95,6.93-2.4,6.85-5.67,13.71-11.33,20.57-16.98,4.86-4,9.73-7.99,14.57-12.02,2.44-2.04,2.68-4.24.7-6.76-.73-.93-1.66-1.74-2.61-2.46-13.09-9.85-26.2-19.69-39.32-29.51-2.22-1.66-2.79-1.59-5.08-.09-7.44,4.87-14.89,9.72-22.35,14.56-5.95,3.87-11.94,7.66-17.85,11.59-2.73,1.81-2.65,3.19.1,4.89,1.61.99,3.4,1.72,4.95,2.8,2.12,1.48,2.3,2.88.95,5.08-1.5,2.43-1.29,3.25,1.04,4.93,6.24,4.49,12.48,9,18.69,13.53,4.92,3.59,9.77,7.29,14.74,10.82,1.42,1.01,3.13,1.6,3.98,2.02Zm-149.5-30.27c-.49-2.21-.98-3.84-1.18-5.51-.25-2.17-1.26-3.56-3.16-4.71-13.06-7.92-26.07-15.93-39.07-23.95-3.21-1.98-3.58-2.07-6.54.42-9.47,7.98-18.88,16.02-28.37,23.97-1.62,1.36-2.51,2.72-1.81,4.88.68,2.08.03,3.97-1.32,5.58-.95,1.14-2.04,2.17-3.1,3.22-1.67,1.65-1.65,2.24.18,3.82,2.41,2.09,4.78,4.24,7.22,6.29,9.16,7.72,18.33,15.43,27.54,23.09,2.76,2.3,3.44,2.29,6.18,0,7.05-5.89,14.05-11.84,21.07-17.76,7.02-5.92,14.06-11.82,21.07-17.76.63-.53,1.06-1.31,1.28-1.59Zm2.25,188.74c-.5-1.63-1.05-2.94-1.28-4.31-.37-2.24-1.56-3.77-3.36-5.06-2.76-1.98-5.38-4.14-8.07-6.21-9.18-7.06-18.35-14.13-27.56-21.15-3.3-2.52-3.66-2.49-6.89.28-6.6,5.65-13.17,11.33-19.73,17.01-4.15,3.6-8.25,7.25-12.41,10.83-1.31,1.13-2.12,2.36-1.74,4.16.67,3.18-.48,5.57-2.98,7.6-2.13,1.71-2,2.49.17,4.17,11.2,8.68,22.4,17.37,33.62,26.03,4.92,3.79,5.16,3.75,10-.07,12.08-9.51,24.16-19.01,36.23-28.54,1.01-.8,2.01-1.66,2.86-2.62.56-.63.83-1.52,1.14-2.12Zm-95.99-2.24c.19-1.55-.38-2.71-1.78-3.47-.88-.47-1.76-.96-2.57-1.53-13.21-9.17-26.41-18.36-39.61-27.55-1.72-1.19-2.59-1.25-4.38-.1-.67.43-1.29.95-1.9,1.47-10.41,8.89-20.81,17.78-31.2,26.67-.38.32-.73.68-1.06,1.06-.88,1-.86,1.97.15,2.88.89.8,1.86,1.53,2.66,2.42,1.98,2.19,1.91,4.49-.1,6.65-2.25,2.42-2.27,3.17.22,5.3,2.58,2.21,5.24,4.33,7.9,6.43,7.91,6.26,15.86,12.48,23.76,18.76,3.15,2.51,4.06,2.54,7.27-.05,6.06-4.89,12.15-9.76,18.21-14.64,6.3-5.08,12.6-10.16,18.89-15.25,1.32-1.07,2.69-2.15,2.96-3.99.24-1.68.39-3.37.58-5.06Zm140.51-236.69c.41-2.56-.66-4.45-2.73-5.87-.49-.34-.94-.74-1.41-1.11-12.35-9.67-24.71-19.34-37.06-29.01-2.23-1.75-2.98-1.71-5.18.19-6.81,5.87-13.65,11.72-20.44,17.6-5.29,4.58-10.52,9.22-15.81,13.8-1.83,1.59-2.61,3.38-1.83,5.85.7,2.23.16,4.32-1.34,6.16-1.73,2.11-1.6,3,.76,4.45,1.53.94,3.21,1.63,4.76,2.54,10.2,5.92,20.39,11.85,30.58,17.79,4.77,2.78,4.75,2.76,9.23-.37,12.46-8.69,24.92-17.38,37.44-25.98,2.21-1.52,3.35-3.35,3.03-6.03Zm-140.69,142.52c-.52-.56-1.11-1.47-1.94-2.07-8.32-6.06-16.69-12.03-25-18.1-5.88-4.3-11.75-8.63-17.51-13.08-3.04-2.35-3.55-2.43-6.7-.03-7.78,5.94-15.6,11.82-23.41,17.71-3.67,2.77-7.39,5.47-11.01,8.29-2.13,1.66-2.15,2.65.03,4.17,1.95,1.36,4.09,2.46,6.22,3.53,2.4,1.21,3.05,3.09,1.69,5.37-1.39,2.32-1.38,2.43.49,4.21.51.48,1.07.9,1.6,1.36,7.94,6.84,15.89,13.68,23.83,20.52,2.65,2.28,5.2,4.67,7.98,6.78,2.07,1.57,3.04,1.42,5.12-.16,2.22-1.69,4.41-3.44,6.55-5.23,5.05-4.22,10.04-8.51,15.09-12.72,1.68-1.4,3.5-2.64,5.26-3.94,2.96-2.2,5.96-4.36,8.87-6.62.66-.52,1.57-1.49,1.47-2.08-.45-2.49-.15-4.74,1.19-6.87.1-.16.07-.39.18-1.03Zm47.54-322.28c1.52,1.12,2.5,1.9,3.55,2.59,1,.66,2.12,1.13,3.08,1.83,6.56,4.74,13.08,9.53,19.62,14.28,4.6,3.35,9.19,6.73,13.85,9.99,2.61,1.82,3.34,1.73,5.86-.26,4.3-3.42,8.56-6.89,12.83-10.34,7.61-6.16,15.05-12.54,22.87-18.41,4.83-3.63,5.2-9.94-.36-13.29-2.12-1.28-3.93-3.07-5.89-4.62-10.18-8.06-20.36-16.12-30.54-24.18-2.13-1.69-2.77-1.77-4.98-.05-13.21,10.35-26.4,20.73-39.57,31.12-.55.43-.91,1.12-1.58,1.98,2.73.69,5.76.3,6.19,3.66.39,3.11-1.99,4.26-4.94,5.7Zm290.46,71.56c1.92-.18,3.39-.98,4.76-2.05,3.62-2.83,7.29-5.59,10.83-8.52,3.07-2.54,5.91-5.35,8.99-7.88,3.17-2.59,6.52-4.95,9.75-7.47,2.75-2.15,5.45-4.38,8.16-6.59,1.14-.93,2.01-2.04,1.39-3.62-1.58-4.05-3.6-7.5-7.63-9.94-12.46-7.56-24.68-15.52-36.99-23.35-2.91-1.85-4.65-1.83-7.35.23-4.12,3.16-8.26,6.3-12.38,9.47-5.63,4.32-11.23,8.66-16.87,12.97-2.99,2.29-4.47,5.23-4.36,9.04.04,1.25-.33,2.55-.68,3.77-.36,1.25-.41,2.38.52,3.36.62.65,1.32,1.22,2.01,1.78,6.19,5.04,12.99,9.32,18.53,15.15.54.57,1.25.99,1.91,1.44,5.29,3.59,10.55,7.2,15.89,10.72,1.04.69,2.33,1.01,3.51,1.49Zm-41.29,443.2c-.01-3.54-.68-5.09-3.17-7.11-3.64-2.96-7.35-5.83-11.01-8.77-10.35-8.32-20.7-16.64-31.04-24.99-2.19-1.77-2.73-1.91-4.92-.17-1.95,1.55-3.7,3.36-5.65,4.91-6.4,5.11-12.84,10.17-19.27,15.24-2.74,2.17-5.48,4.34-8.23,6.49-1.13.89-1.74,1.9-1.13,3.37.92,2.21,0,3.85-1.64,5.29-1.05.92-2.13,1.82-3.11,2.82-1.18,1.21-1.08,1.89.28,2.9.4.3.86.51,1.29.76,14.91,8.91,30.45,16.78,44.76,26.7,2.99,2.08,5.83,2.13,8.83-.09,3.69-2.74,7.5-5.3,11.27-7.93,6.55-4.57,13.09-9.17,19.69-13.69,2.2-1.51,3.22-3.47,3.06-5.74Zm229.96-242.54c.58-2.66-.75-4.29-2.86-5.69-5.16-3.42-10.34-6.82-15.34-10.48-9.49-6.94-19.96-12.54-28.62-20.65-1.55-1.45-2.58-1.39-4.22,0-1.37,1.16-2.55,2.57-4,3.61-7.09,5.11-12.8,11.74-19.42,17.35-1.68,1.42-3.29,2.91-4.92,4.38-.95.85-1.52,1.7-.78,3.12,1.43,2.75,1.15,4.21-1,6.37-1.12,1.13-2.36,2.15-3.56,3.21-1.72,1.51-1.84,2.07-.15,3.57,1.93,1.71,4.06,3.21,6.1,4.8,11.17,8.73,22.34,17.47,33.5,26.21,2.09,1.64,2.08,1.62,4.26-.11,2.59-2.04,5.2-4.05,7.8-6.07,10.03-7.76,20.04-15.55,30.12-23.25,2.17-1.66,3.43-3.58,3.08-6.36Zm-367.35,193.41c-.18,1.97,1.12,2.68,2.26,3.48,11.37,7.99,22.74,15.97,34.1,23.96,1.8,1.27,3.58,2.55,5.32,3.9,1.76,1.36,3.46,1.35,5.2.02,1.19-.91,2.44-1.75,3.6-2.69,10.23-8.33,20.41-16.72,30.7-24.97,2.53-2.03,4.57-4.13,4.64-7.6.01-.76.44-1.53.77-2.25.55-1.19.2-2.15-.7-2.96-.59-.53-1.24-1-1.9-1.46-7.99-5.66-16.01-11.29-23.98-16.98-4.56-3.25-9.05-6.59-13.57-9.9-3.09-2.26-3.35-2.27-6.57-.02-.25.17-.49.35-.73.52-9.81,7.07-19.63,14.14-29.44,21.22-3.08,2.22-6.15,4.46-9.2,6.72-.99.73-2.09,1.6-1.33,2.96,1.14,2.04,1.6,4.07.81,6.07ZM155.36,301.27c-.12.31-.25.61-.37.92.59.61,1.11,1.31,1.78,1.82,3.25,2.49,6.49,4.99,9.82,7.37,10.32,7.37,20.68,14.68,31.03,22.01,1.8,1.28,2.39,1.28,4.3-.02,1.57-1.07,3.09-2.21,4.66-3.27,10.74-7.29,21.51-14.55,32.24-21.87,3.57-2.43,3.51-2.68.88-5.96-1.56-1.94-2.9-4.06-4.38-6.06-1.36-1.83-2.61-3.79-4.21-5.37-2.69-2.66-5.66-5.05-8.47-7.6-7.75-7.06-16.1-13.45-23.19-21.22-1.84-2.01-2.6-2.05-4.87-.39-3.87,2.83-7.68,5.74-11.5,8.63-8.29,6.25-16.6,12.49-24.86,18.78-2.37,1.8-2.3,2.14-.58,4.6.97,1.38,1.97,2.8,2.56,4.36.69,1.81-.36,3.12-2.3,3.27-.84.07-1.69.01-2.53.01Zm459.73,80.2c.05-1.65-.87-2.77-2.23-3.58-2.06-1.23-4.18-2.34-6.21-3.63-8.94-5.67-17.9-11.31-26.76-17.1-4.92-3.22-9.69-6.67-14.45-10.12-1.21-.88-2.12-.82-3.2.04-2.1,1.69-4.19,3.39-6.35,5.01-8.85,6.67-17.72,13.32-26.58,19.98-1.02.76-2.42,1.37-2.21,2.92.19,1.45,1.66,1.54,2.72,2.02.18.08.37.15.54.25,2.1,1.16,2.64,3.02,1.33,5-.6.9-1.38,1.7-2.17,2.46-2.46,2.35-2.46,2.89.18,5.14.61.52,1.23,1.02,1.86,1.52,7.54,6.08,15.08,12.16,22.63,18.23,3.58,2.88,7.19,5.73,10.8,8.57,1.98,1.56,3.45,1.76,4.72.13,2.21-2.85,5.27-4.55,8.06-6.62,6.5-4.82,12.99-9.64,19.48-14.47,5.05-3.76,10.09-7.52,15.13-11.29,1.48-1.11,2.76-2.34,2.71-4.45Zm242.05,231.58c-.23-.42-.57-1.49-1.28-2.23-.95-1-2.15-1.78-3.28-2.59-4.95-3.56-9.9-7.11-14.86-10.66-7.97-5.69-15.96-11.35-23.9-17.07-1.71-1.23-3.27-1.25-4.95-.05-1.46,1.05-2.98,2.02-4.43,3.09-10.79,7.94-21.56,15.9-32.34,23.85-.4.3-.84.56-1.19.91-1.04,1.05-.91,1.99.48,2.52,1.01.39,2.13.49,3.2.72,2.46.53,3.58,2.19,2.84,4.62-.33,1.1-1.09,2.1-1.8,3.04-1.4,1.86-1.46,2.56.27,4.03,2.05,1.75,4.18,3.42,6.33,5.04,5.89,4.47,11.82,8.89,17.71,13.34,4.31,3.25,8.56,6.58,12.9,9.79,2.28,1.69,3.1,1.59,5.35-.1.88-.66,1.73-1.36,2.56-2.08,7.24-6.29,14.49-12.57,21.72-18.87,3.84-3.35,7.64-6.75,11.49-10.08,2.02-1.75,3.01-3.94,3.18-7.22Zm-147.76-419.32c.11-2.08-.77-3.73-2.57-4.98-2.71-1.88-5.39-3.8-8.02-5.8-10.49-7.98-21.74-14.93-31.83-23.47-2.28-1.94-3.09-1.81-5.55.01-10.53,7.78-21.04,15.57-31.57,23.35-1.85,1.37-3.72,2.7-5.56,4.08-1.33.99-1.97,2.29-1.33,3.93.9,2.32.84,4.44-.77,6.48-.97,1.23-.65,2.45.53,3.41.54.44,1.13.82,1.7,1.23,9.27,6.61,18.54,13.23,27.83,19.83,3.26,2.31,6.55,4.58,9.85,6.83,1.87,1.27,3.62,1.21,5.48-.26,5.49-4.33,11.08-8.53,16.62-12.81,7.83-6.05,15.62-12.14,23.47-18.15,1.25-.96,1.8-2.07,1.71-3.68Zm57.1,125.66c1.69,2.01,1.69,2.05,4.23,1.91,1.39-.08,2.62.09,3.39,1.38.84,1.41.77,2.88-.05,4.27-.35.6-.87,1.09-1.3,1.64-1.42,1.79-1.46,2.47.15,4.11,1.4,1.42,3,2.64,4.45,4.01,8.84,8.39,17.67,16.79,26.5,25.19,4.53,4.31,5.06,4.22,9.79-.02,7.66-6.87,15.41-13.64,23.16-20.41,4.29-3.74,8.69-7.36,12.98-11.11.95-.83,1.97-1.85,2.36-2.99,1.16-3.38-.37-7.39-3.34-9.5-1.47-1.04-2.95-2.05-4.42-3.09-1.01-.72-1.28-1.53-.87-2.83.77-2.45.11-3.15-2.91-3.46-.18.8-.37,1.62-.55,2.4-1.68.45-2.91-.29-4.07-1.04-8.9-5.74-17.79-11.48-26.65-17.29-3.09-2.03-3.64-2.21-6.68-.02-11.35,8.19-22.65,16.43-33.95,24.68-.84.62-1.51,1.46-2.24,2.18Zm-1.08,381.62c1.04-.6,2.04-1.03,2.86-1.68,5.63-4.46,11.24-8.95,16.83-13.47,6.68-5.39,13.38-10.76,19.96-16.26,1.32-1.1,2.31-2.69,3.2-4.2.74-1.26,1.03-2.79,1.68-4.12.62-1.26.5-2.3-.46-3.26-.49-.49-1.02-.96-1.58-1.38-12.51-9.45-25.01-18.89-37.54-28.31-2.29-1.72-2.76-1.66-4.94.13-4.09,3.35-8.2,6.69-12.27,10.06-6.07,5.03-12.11,10.1-18.18,15.13-1.46,1.21-2.53,2.49-2.2,4.58.28,1.76-.61,3.07-2,4.07-2.19,1.56-4.41,3.08-6.54,4.71-2.09,1.59-2.15,2.51-.19,4.31,1.91,1.75,3.88,3.45,5.97,4.99,4.18,3.08,8.45,6.02,12.67,9.04,6.49,4.65,12.96,9.33,19.47,13.95.95.67,2.07,1.1,3.26,1.72Zm-244.35-130.17c.28-2.35-.71-3.96-2.63-5.31-3.52-2.46-6.87-5.14-10.36-7.65-5.75-4.13-11.82-7.8-17.09-12.6-1.46-1.33-3.39-2.11-4.95-3.35-4.58-3.63-7.47-3.81-12.11-.37-3.13,2.32-6.1,4.85-9.23,7.16-5.86,4.34-11.8,8.56-17.68,12.88-2.41,1.77-4.79,3.59-7.08,5.5-1.46,1.21-2.13,2.85-1.89,4.81.27,2.16-.34,3.85-2.36,5.05-1.37.82-1.42,1.82-.32,2.97.82.85,1.84,1.52,2.84,2.17,6.5,4.29,13.22,8.28,19.48,12.9,6.81,5.02,14.2,8.9,21.73,12.6,1.9.93,3.54.74,5.25-.66,3.32-2.72,6.78-5.25,10.17-7.88,7.81-6.07,15.62-12.12,23.37-18.26.88-.69,1.72-1.8,1.95-2.86.51-2.32.63-4.74.91-7.11Zm199.43-202.84c.8-.5,2.18-1.1,3.23-2.06,3.63-3.28,7.17-6.66,10.69-10.05,7.85-7.54,15.67-15.11,23.5-22.67,1.77-1.71,1.83-2.53.33-4.66-1.15-1.63-2.51-3.14-3.47-4.87-1.2-2.16-2.81-3.82-4.79-5.24-6.08-4.37-12.18-8.71-18.13-13.23-3-2.28-5.86-4.8-8.52-7.49-3.38-3.42-5.95-3.66-9.48-.44-1.69,1.55-3.46,3.02-5.13,4.6-2.09,1.99-3.91,4.26-6.89,5.1-.81.23-1.49.98-2.17,1.56-3.55,3.07-7.05,6.19-10.63,9.23-2.97,2.52-6.02,4.93-9.03,7.41-1.67,1.38-2.45,3.09-2.01,5.3.43,2.18-.19,3.76-2.27,4.99-2.03,1.2-2.01,3.66.06,4.53,2.8,1.17,4.88,2.95,6.62,5.33.4.55,1.04.93,1.61,1.33,5.51,3.8,11.01,7.6,16.55,11.35,1.23.84,2.54,1.69,3.94,2.13,3.32,1.05,6.05,2.99,8.74,5.1,1.91,1.49,4.11,2.45,7.22,2.74Zm-245.08,73.76c-1.12.51-2.16.86-3.06,1.43-1.77,1.12-3.46,2.37-5.18,3.57-10.06,7.04-20.15,14.05-30.18,21.14-2.95,2.08-2.94,2.45-1.23,5.61,1.02,1.9,1.65,3.82.86,6.01-1.28,3.54-1.21,3.73,1.66,6.02,4.37,3.49,8.77,6.94,13.15,10.42,6.8,5.4,13.57,10.85,20.4,16.21,3.07,2.41,4.13,2.34,7.16.12,7.65-5.6,15.35-11.15,22.97-16.79,5.22-3.86,10.37-7.81,15.52-11.76,2.4-1.84,2.48-2.57,1.02-5.31-.47-.88-1.01-1.75-1.28-2.7-.65-2.24-2.12-3.78-3.93-5.12-2.89-2.14-5.75-4.32-8.58-6.54-8.73-6.83-17.42-13.7-26.16-20.52-.92-.71-2.03-1.17-3.14-1.8Zm-.23-289.28c-.55,2.58.64,4.55,2.8,6.25,7.91,6.26,15.76,12.6,23.64,18.89,2.34,1.87,4.74,3.66,7.11,5.5,1.55,1.2,3.1,1.24,4.67.05,1.19-.91,2.41-1.78,3.56-2.75,8.92-7.54,17.83-15.1,26.74-22.67,3.42-2.91,6.91-5.75,10.18-8.83,2.66-2.5,2.41-4.14-.58-6.27-1.38-.98-2.92-1.75-4.29-2.74-11.46-8.33-22.92-16.68-34.34-25.08-1.34-.98-2.56-2.19-3.62-3.48-2.15-2.61-3.36-2.76-5.92-.56-6.36,5.46-12.72,10.94-19.14,16.34-5.42,4.56-10.94,9-16.36,13.58-.67.57-1.27,1.63-1.25,2.44.01.51,1.17,1.18,1.93,1.47,3.22,1.21,5.14,4.14,4.88,7.85Zm-236.05,56.44c-.71-1.24-1.19-2.22-1.79-3.12-1.39-2.1-2.79-4.22-2.89-6.81-.09-2.45-1.27-4.04-3.15-5.45-7.27-5.45-14.51-10.96-21.71-16.5-3.08-2.37-6.14-4.78-9.07-7.34-3.01-2.64-3.65-2.78-6.99-.52-.17.11-.33.23-.49.34-10.08,7.2-20.16,14.4-30.24,21.59-2.85,2.03-5.74,4-8.56,6.06-1.56,1.14-1.57,1.72-.27,3.12.34.37.7.73,1.11,1.01,2.73,1.88,4.15,4.59,4.66,7.74.39,2.44,1.56,4.19,3.52,5.64,10.93,8.07,21.82,16.2,32.72,24.31.24.18.5.33.74.51,1.38,1.03,2.73,1.1,4.1-.04.61-.51,1.26-.98,1.89-1.47,6.56-5.07,13.12-10.14,19.67-15.22,4.82-3.73,9.64-7.45,14.42-11.24.88-.7,1.53-1.69,2.34-2.6Zm332.75,409.87c-.04-3.76-.28-4.3-3.3-6.35-3.96-2.7-8.01-5.28-11.96-8-8.89-6.11-17.72-12.31-26.61-18.41-3.02-2.07-3.17-2.02-6.03.17-7.62,5.83-15.2,11.71-22.8,17.55-3.88,2.98-7.79,5.94-11.67,8.92-1.12.86-2.47,1.77-2.3,3.3.3,2.74-.72,4.77-2.48,6.75-1.41,1.58-1.13,2.77.6,4.03,1.12.82,2.4,1.43,3.55,2.23,5.22,3.68,10.36,7.49,15.65,11.06,5.62,3.79,11.58,7.08,16.76,11.51,1.21,1.04,2.49,2.01,3.78,2.95,2.42,1.77,2.9,1.75,5.22-.09,2.66-2.11,5.3-4.25,7.97-6.35,10.51-8.29,21.02-16.59,31.58-24.82,1.6-1.25,2.33-2.66,2.05-4.45Zm-191.73-274.13c.7.65,1.2,1.26,1.82,1.7,8.07,5.72,16.16,11.42,24.23,17.13,4.16,2.94,8.28,5.95,12.47,8.85,2.86,1.97,4.21,1.71,6.46-.76,1-1.1,2.09-2.15,3.27-3.05,10.84-8.36,21.71-16.67,32.56-25.02,1.1-.85,2.19-1.77,3.09-2.82,2.03-2.37,1.83-5.33-.43-7.51-.79-.76-1.69-1.4-2.56-2.07-3.33-2.55-6.65-5.12-10.01-7.63-5.77-4.3-11.43-8.76-17.4-12.75-3.34-2.23-6.55-4.5-9.39-7.35-2.8-2.81-3.74-2.76-6.9-.32-.24.18-.47.37-.7.56-7.8,6.24-15.59,12.5-23.41,18.71-4.06,3.22-8.2,6.35-12.3,9.53-2.63,2.04-2.76,3.16-.64,5.29,3.38,3.39,3.39,3.79-.14,7.53Zm-38.88,238.02c-.1,2.63,1.06,3.8,2.4,4.95,6.74,5.79,13.44,11.62,20.17,17.42,2.87,2.48,5.74,4.97,8.67,7.37,2.18,1.77,3.17,1.64,5.12-.37.49-.5.93-1.06,1.49-1.47,7.44-5.54,14.97-10.93,22.05-16.96,6.07-5.18,12.57-9.87,18.9-14.73,2.02-1.55,3.12-3.6,3.61-6.02.4-1.96-.17-3.52-1.92-4.63-1.93-1.23-3.82-2.54-5.72-3.82-8.78-5.92-17.56-11.83-26.32-17.77-2.81-1.91-5.56-3.9-8.36-5.82-3.27-2.25-4.52-2.15-7.36.48-.22.2-.43.42-.65.62-5.76,5.38-11.53,10.76-17.29,16.15-3.86,3.62-7.7,7.27-11.57,10.87-1.54,1.43-2.19,2.99-1.43,5.09.8,2.2.44,4.29-.83,6.29-.57.89-.8,2-.94,2.37Zm32.18-52.76c.12-1.65-.56-2.92-1.81-3.92-1.95-1.56-3.93-3.09-5.84-4.69-10.2-8.52-20.37-17.06-30.57-25.58-4.23-3.53-4.35-3.53-8.58-.08-7.2,5.88-14.35,11.81-21.53,17.69-2.63,2.15-5.33,4.21-7.96,6.36-1.52,1.25-2.17,2.62-1.13,4.7,1.18,2.36.64,3.56-1.59,5.01-1.42.93-2.88,1.8-4.29,2.74-2.51,1.69-2.54,2.68-.11,4.45,5.09,3.7,10.2,7.37,15.31,11.05,1.86,1.35,3.71,2.72,5.57,4.06,6.17,4.41,12.34,8.82,18.52,13.22.65.46,1.34.88,2.02,1.3,2.77,1.71,3.54,1.69,6.17-.38,1.1-.86,2.09-1.85,3.12-2.81,5.34-4.96,10.7-9.9,16.01-14.89,4.88-4.58,9.7-9.22,14.54-13.84,1.26-1.2,2.29-2.53,2.18-4.4Zm480.9-103.51c.05-2.29-1.37-3.45-2.79-4.56-4.73-3.68-9.47-7.34-14.23-10.98-8.49-6.49-16.97-12.98-25.5-19.42-4.18-3.16-4.47-3.12-8.55,0-5.95,4.54-11.9,9.1-17.85,13.64-4.76,3.64-9.55,7.24-14.27,10.93-2.54,1.99-2.29,3.44.68,4.71,3.82,1.63,4.66,3.66,2.88,7.55-.65,1.42-.5,2.47.59,3.47.52.47,1.04.94,1.57,1.39,10.7,8.98,21.42,17.95,32.11,26.96,4.64,3.91,5.03,3.95,9.53.08,5-4.29,9.99-8.59,14.98-12.89,6.13-5.27,12.25-10.55,18.4-15.81,1.64-1.4,2.34-3.18,2.43-5.06Zm-43.87,334.96c-.61-2.32-.86-5.08-2.97-7.08-1.45-1.37-2.88-2.76-4.38-4.09-4.26-3.78-8.54-7.53-12.82-11.28-6.61-5.79-13.21-11.59-19.86-17.34-2.33-2.02-3.02-1.88-5.35.17-7.19,6.34-14.42,12.64-21.63,18.96-2.86,2.5-5.71,5.01-8.57,7.5-1.07.93-1.83,1.93-.81,3.33,1.39,1.91.75,3.66-.56,5.19-1.36,1.58-2.89,3.03-4.44,4.44-2.32,2.11-2.38,3-.11,5.02.45.4.93.76,1.41,1.12,5.12,3.83,10.23,7.68,15.37,11.48,6.83,5.04,13.68,10.05,20.52,15.07,1.64,1.21,3.33,1.33,4.99.11,4.9-3.62,9.84-7.18,14.65-10.93,4.88-3.81,9.61-7.81,14.43-11.7,2.8-2.26,5.63-4.47,8.45-6.7.97-.76,1.82-1.58,1.69-3.25Zm-619.56-233.35c.31-1.57-.82-2.3-1.88-3.05-6.43-4.57-12.88-9.11-19.32-13.67-6.19-4.39-12.41-8.73-18.51-13.23-3.09-2.27-3.35-2.43-6.5-.2-6.03,4.27-12.06,8.54-18.08,12.83-5.12,3.65-10.24,7.31-15.31,11.03-2.62,1.93-2.4,3.93.52,5.43.88.45,1.91.61,2.79,1.06,2.24,1.14,2.43,3.6.42,5.06-.4.29-.88.46-1.31.72-2.25,1.33-2.36,2.02-.36,3.74,3.34,2.86,6.71,5.67,10.13,8.43,8.54,6.9,17.17,13.7,25.66,20.66,4.47,3.66,4.55,3.79,8.94,0,6.04-5.22,12.06-10.47,18.1-15.7,4.15-3.6,8.3-7.19,12.46-10.77,1.15-.99,2.25-2.01,2.26-3.7,0-2.87,0-5.75,0-8.62Zm376.39-7.9c.29-2.12-.87-3.92-3.11-5.42-8.22-5.51-16.35-11.14-24.5-16.75-3.78-2.6-7.6-5.16-11.28-7.9-2.87-2.13-3.26-2.2-6.22.03-6.62,4.99-13.31,9.89-19.91,14.92-6.04,4.61-11.99,9.33-17.95,14.03-1.28,1.01-1.31,1.7-.17,3,.79.9,1.77,1.62,2.57,2.51,1.68,1.85,2.16,4,1.3,6.38-.89,2.47-.87,2.63,1.23,4.19,2.48,1.85,4.98,3.68,7.48,5.5,7.91,5.78,15.82,11.55,23.74,17.31.73.53,1.5.99,2.25,1.49,1.4.94,2.81.92,4.21.02.76-.48,1.57-.9,2.26-1.47,7.24-5.97,14.49-11.94,21.69-17.96,3.83-3.2,7.4-6.76,11.46-9.64,3.51-2.5,4.8-5.69,4.93-10.26Zm242.24-143.03c-1.34-.63-2.08-.88-2.7-1.3-.78-.54-1.56-1.15-2.17-1.87-.95-1.13-1.63-2.5-2.66-3.54-1.75-1.77-3.69-3.36-5.53-5.04-9.44-8.62-18.86-17.25-28.3-25.87-2.66-2.43-3.78-2.45-6.36-.01-4.79,4.53-9.54,9.1-14.32,13.64-2.89,2.75-5.83,5.46-8.7,8.24-3.73,3.61-7.44,7.25-11.11,10.93-1.63,1.63-1.59,1.89-.35,3.49,2,2.58,1.83,4.49-.59,6.74-2.22,2.07-2.24,2.54.06,4.38,2.73,2.18,5.49,4.32,8.27,6.45,8.32,6.38,16.64,12.77,24.99,19.12,2.4,1.83,2.78,1.74,5.09-.36,2.21-2.02,4.34-4.15,6.71-5.96,11.67-8.92,23.4-17.74,35.1-26.62.76-.58,1.4-1.3,2.58-2.41Zm-88.52,86.21c1.29-.85,2.67-1.61,3.87-2.59,10.3-8.4,20.56-16.84,30.83-25.27,1.39-1.14,2.74-2.32,4.15-3.45,1.28-1.03,1.58-2.18.77-3.67-.62-1.14-1.31-2.33-1.51-3.57-.56-3.47-2.8-5.62-5.39-7.61-8.63-6.64-17.23-13.31-25.87-19.95-2.46-1.89-4.96-3.72-7.49-5.5-2.06-1.45-2.81-1.42-4.81.15-1.18.92-2.25,1.98-3.41,2.93-10.41,8.58-20.81,17.16-31.24,25.7-1.52,1.25-2.53,2.46-1.66,4.57.62,1.51.04,2.89-.88,4.2-2.1,2.99-1.99,3.59,1.04,5.7,12.79,8.91,25.58,17.81,38.39,26.69.88.61,1.92,1,3.21,1.66ZM68.2,763.45h0c0,1.3.09,2.61-.02,3.9-.28,3.25,1.04,5.67,3.31,7.96,4.84,4.9,9.39,10.09,14.16,15.07,4.14,4.32,8.36,8.56,12.64,12.74,2.06,2.01,2.45,1.98,4.84.21,2.65-1.97,5.19-4.06,7.78-6.1,9.51-7.47,18.98-14.98,28.54-22.38,2.18-1.69,3.29-3.61,3.04-6.39-.18-1.95.48-3.7,1.7-5.29,2.11-2.77,2.06-3.13-.68-5.31-4.92-3.92-9.89-7.78-14.85-11.65-5.98-4.68-11.96-9.37-17.98-14-3.6-2.77-3.98-2.74-7.64-.29-7.48,5-14.95,10-22.43,14.99-3.24,2.16-6.46,4.37-9.75,6.45-1.88,1.19-2.76,2.77-2.68,4.98.06,1.7.01,3.4.01,5.1Zm213.85-42.64c-.11-3.12-.77-5.04-2.7-6.57-6.18-4.9-12.27-9.93-18.4-14.9-5.51-4.46-11.02-8.93-16.55-13.37-2.36-1.89-3.1-1.86-5.48.04-.31.25-.6.53-.9.79-6.96,6-13.93,11.98-20.87,17.99-3.55,3.07-7.06,6.18-10.6,9.27-1.3,1.13-2.01,2.4-1.41,4.22.55,1.68-.06,3.17-1.27,4.37-1.35,1.33-2.76,2.59-4.16,3.87-1.75,1.6-1.73,2.26.15,3.76.39.31.81.59,1.22.87,12.26,8.61,24.51,17.24,36.77,25.84,4.73,3.31,5.19,3.23,9.34-.85,7.98-7.83,16-15.63,23.98-23.45,3.07-3.01,6.15-6,9.11-9.11.9-.95,1.43-2.25,1.76-2.78Zm525.89-250.22c-.02-1.77-1.29-2.53-2.35-3.41-11.71-9.82-23.43-19.63-35.15-29.44-2.84-2.38-3.32-2.39-6.12-.06-4.37,3.65-8.74,7.3-13.12,10.94-6.92,5.74-13.85,11.46-20.77,17.21-1.94,1.61-1.98,1.66-.71,3.87.98,1.71.82,3.28-.45,4.68-1.14,1.25-2.42,2.38-3.62,3.58-1.43,1.43-1.41,2.04.1,3.43.51.47,1.09.88,1.65,1.29,2.98,2.19,5.94,4.4,8.94,6.56,9.15,6.62,18.29,13.23,27.46,19.81,2.65,1.91,3.67,1.82,6.07-.29,3.6-3.17,7.19-6.35,10.76-9.54,7-6.26,14-12.51,20.97-18.8.95-.86,1.9-1.8,2.58-2.88,1.23-1.93,2.26-3.98,3.36-5.98.19-.34.31-.73.41-.98ZM415.44,185.33c1.11-.74,2.11-1.32,3-2.04,1.16-.93,2.15-2.09,3.37-2.94,3.53-2.45,7.15-4.75,10.69-7.17,7.75-5.29,15.49-10.61,23.21-15.95.97-.67,1.94-1.45,2.67-2.37,1.21-1.52,1.03-3.29-.39-4.57-2.29-2.07-4.62-4.11-7-6.07-8.64-7.11-17.35-14.14-25.96-21.27-3.54-2.93-6.9-6.07-10.37-9.08-2.53-2.2-4.32-2.14-6.85.09-1.2,1.06-2.4,2.11-3.62,3.14-9.72,8.15-19.47,16.27-29.17,24.44-3.29,2.77-3.21,4.32.29,6.73,2.83,1.95,4.41,4.63,4.72,7.97.22,2.4,1.29,4.08,3.17,5.49,4.88,3.64,9.72,7.35,14.56,11.05,4.44,3.4,8.82,6.88,13.31,10.22,1.24.92,2.76,1.47,4.38,2.31Zm93.86,10.83c-.67-1.09-1.1-2.26-1.92-3-2.67-2.39-5.43-4.69-8.24-6.91-8.93-7.06-17.9-14.08-26.87-21.1-1.49-1.17-3.04-2.27-4.6-3.36-1.77-1.23-3.47-1.13-5.24.17-8.77,6.45-17.57,12.87-26.39,19.26-2.34,1.7-4.77,3.27-7.19,4.86-1.33.88-2.74,1.64-4.07,2.54-2.15,1.45-2.14,2.73.02,4.05.85.52,1.8.86,2.68,1.33,2.29,1.22,2.89,3.28,1.58,5.5-.3.51-.76.93-1.1,1.42-1.07,1.53-1.04,2.36.2,3.71.47.51,1.01.97,1.56,1.4,10.97,8.35,21.92,16.72,32.93,25.03,3.26,2.46,4.53,2.27,7.65-.33,11.12-9.28,22.26-18.53,33.38-27.81,1.3-1.09,2.6-2.21,3.71-3.48.75-.86,1.18-2.01,1.89-3.28Zm-396.79,45.7c.56.62.87.98,1.21,1.33,3.07,3.17,2.41,5.58-1.75,6.95-1.58.52-3.17,1.29-4.5,2.28-2.03,1.51-1.98,2.72-.07,4.34,1.06.9,2.24,1.67,3.37,2.49,11.39,8.29,22.79,16.58,34.18,24.86.81.59,1.61,1.2,2.47,1.7,1.76,1.02,2.48.96,4.06-.34.85-.7,1.57-1.55,2.45-2.2,4.09-3.04,8.25-5.98,12.32-9.04,8.47-6.36,16.92-12.75,25.33-19.19,4.01-3.06,3.89-8-.13-10.95-11.52-8.45-23.04-16.92-34.55-25.38-3.43-2.52-3.62-2.59-7.17-.39-11.98,7.43-23.93,14.89-35.88,22.36-.4.25-.73.63-1.35,1.18Zm642.79-8.52c.29-3.16-1.02-4.32-2.61-5.33-5.98-3.8-11.95-7.64-17.94-11.43-5.48-3.48-10.97-6.94-16.47-10.38-3.73-2.33-5.17-2.19-8.63.44-5.96,4.53-11.95,9.03-17.95,13.52-5.36,4-10.74,7.97-16.12,11.93-1.04.77-1.69,1.48-1.09,2.99,1.67,4.2,1.39,5.03-2.09,7.92-3.46,2.87-3.38,3.69.35,6.02,10.17,6.34,20.3,12.73,30.48,19.05,2.71,1.68,5.51,3.24,8.3,4.78,1.88,1.03,3.63.73,5.23-.71,1.41-1.27,2.89-2.46,4.34-3.68,3.58-3.03,7.15-6.07,10.76-9.07,6.13-5.11,12.35-10.11,18.42-15.3,3.56-3.04,4.58-7.35,5.02-10.75Zm-243.7,56.67c.15-2.39-.71-4.39-3.19-5.94-10.35-6.44-20.63-13-30.85-19.65-2.75-1.79-5.28-3.95-7.72-6.16-2.89-2.62-3.49-2.78-6.63-.52-.57.41-1.13.83-1.68,1.26-8.06,6.41-16.12,12.81-24.17,19.23-2.11,1.68-4.2,3.39-6.25,5.15-1.56,1.35-1.85,2.33-1.08,3.61.8,1.34,2.28,2.34,2.13,4.15-.16,1.99-1.96,2.63-3.17,3.76-1.27,1.19-1.29,2.36-.07,3.64.48.5,1.08.88,1.64,1.3,4.18,3.09,8.36,6.18,12.55,9.25,8.14,5.97,16.26,11.95,24.44,17.88,2.5,1.81,3.58,1.64,5.82-.34,9.59-8.46,19.2-16.9,28.79-25.37,2.62-2.31,5.2-4.67,7.79-7.03,1.16-1.05,1.99-2.26,1.64-4.24Zm-445.16,101.58c.07,1.12.18,2.51.22,3.91.08,2.56,1.05,4.64,3.12,6.19.8.6,1.53,1.29,2.3,1.92,6.55,5.25,13.11,10.5,19.65,15.75,3.12,2.5,6.2,5.05,9.34,7.53,1.99,1.57,2.48,1.54,4.51.14.49-.34.96-.72,1.43-1.09,10.77-8.45,21.47-17,32.35-25.32,3.54-2.7,6.26-5.5,7.11-10.16.46-2.52.32-4.05-1.7-5.67-7.48-6.01-14.85-12.15-22.26-18.26-3.86-3.18-7.68-6.4-11.55-9.56-2.91-2.38-3.32-2.37-6.24-.26-.4.29-.8.6-1.2.9-11.04,8.28-22.01,16.64-33.15,24.78-2.89,2.11-4.47,4.44-3.96,8.02.04.29,0,.6,0,1.18Zm178.88,98.07c1.67,1.26,2.81,2.21,4.04,3.02,9.91,6.57,19.84,13.11,29.76,19.66,2.17,1.43,4.3,2.91,6.51,4.28,1.87,1.16,2.37,1.04,4.01-.27,6.54-5.26,13.11-10.46,19.62-15.75,4.88-3.97,9.67-8.04,14.51-12.07,1.11-.92,2.11-1.96,1.89-3.53-.4-2.8.56-5.01,2.44-7.07,1.88-2.06,1.66-3.26-.56-4.93-3.67-2.77-7.37-5.49-11.06-8.24-8.33-6.21-16.63-12.45-24.99-18.63-2.81-2.08-3.02-1.98-5.64.25-7.38,6.29-14.78,12.54-22.13,18.85-2.8,2.4-5.53,4.9-8.27,7.39-.99.9-1.89,1.98-1.38,3.4.98,2.75-.04,4.89-1.86,6.81-1.16,1.23-2.45,2.34-3.65,3.52-.97.96-1.91,1.95-3.23,3.3Zm-136.12-43.87c1.48,1.3,2.39,2.21,3.41,2.97,6.83,5.02,13.7,10.01,20.54,15.02,5.08,3.72,10.11,7.49,15.21,11.18,2.19,1.58,2.7,1.51,4.73-.15,1.32-1.07,2.6-2.19,3.87-3.31,6.28-5.55,12.57-11.1,18.83-16.67,5.59-4.98,11.14-10,16.73-14.98,1.31-1.16,1.41-2.39.88-4.03-.86-2.66-3.02-3.76-5.15-5.1-8.77-5.56-17.45-11.27-26.2-16.86-4.45-2.85-9.15-5.35-12.77-9.34-.96-1.06-2.04-1.13-3.17-.22-.54.44-1.13.83-1.68,1.26-8.34,6.52-16.68,13.04-25.01,19.56-2.44,1.91-4.91,3.78-7.28,5.76-1.79,1.49-1.79,2.32-.18,3.93.63.63,1.39,1.13,2.08,1.71,2.5,2.11,2.38,3.83-.29,5.68-1.44,1-2.77,2.17-4.56,3.6Zm407.27-166.53c.94-.52,1.97-.92,2.79-1.58,1.55-1.25,2.96-2.68,4.46-4,7.06-6.18,14.12-12.38,21.21-18.52,3.92-3.4,7.8-6.87,11.93-9.99,2.36-1.79,2.79-3.48.84-6.06-.87-1.16-2.2-2.02-3.42-2.86-13.05-9.05-27.02-16.72-39.56-26.53-1.88-1.47-2.91-1.42-4.85.09-3.55,2.75-7.05,5.58-10.55,8.4-7.33,5.88-14.67,11.72-21.95,17.66-3.55,2.9-3.62,4.19-.82,7.61,2.12,2.59,2.11,4.53-.05,7.23-1.9,2.37-1.52,3.66,1.22,5.06,2.48,1.27,4.92,2.63,7.27,4.12,2.19,1.39,4.14,3.15,6.34,4.51,7.47,4.63,15,9.16,22.52,13.71.75.45,1.61.72,2.62,1.17ZM67.62,670.03c.1,6.83-.85,5.89,5.45,10.9,4.93,3.91,9.67,8.06,14.51,12.08,5.3,4.41,10.59,8.83,15.94,13.18,2.66,2.16,3.32,2.15,6,.02,4.54-3.6,9.03-7.27,13.54-10.91,5.83-4.71,11.62-9.48,17.5-14.13,1.82-1.44,2.81-2.98,2.23-5.39-.59-2.48.17-4.71,1.55-6.81,2.07-3.14,1.93-3.83-.85-6.28-3.29-2.91-6.56-5.86-9.85-8.77-6.51-5.76-12.99-11.56-19.56-17.24-3.17-2.75-3.79-2.68-7.31-.23-11.32,7.88-22.63,15.79-33.95,23.66-5.49,3.82-5.18,2.74-5.19,9.92Zm348.22-377.01c-.05-.26-.13-.75-.23-1.24-.46-2.13-2.08-3.32-3.66-4.56-11.87-9.31-23.74-18.61-35.58-27.96-4.88-3.85-5.67-3.91-10.35.41-10.72,9.88-21.42,19.79-32.12,29.69-.44.41-.89.82-1.24,1.29-.98,1.32-.84,2.41.55,3.28.74.47,1.64.71,2.48,1.02,4.02,1.51,5.06,3.57,3.66,7.53-.53,1.49-.31,2.79.7,3.9,1.01,1.1,2.09,2.15,3.26,3.07,5.1,4.01,10.26,7.93,15.35,11.95,3.21,2.54,6.31,5.22,9.5,7.79,2.41,1.94,3.59,1.78,5.56-.48.78-.9,1.61-1.78,2.54-2.52,6.49-5.16,13.01-10.28,19.52-15.43,5.96-4.71,11.9-9.43,17.85-14.15,1.1-.87,2.23-1.74,2.22-3.6Zm299.49,276.92c-1.05-2.34-1.76-4.94-3.25-6.96-1.56-2.13-3.72-3.91-5.87-5.5-10.39-7.62-20.88-15.12-31.32-22.67-3.98-2.88-3.35-4.15-8.98-.12-9.02,6.45-18,12.97-27,19.44-2.68,1.92-5.45,3.72-8.05,5.73-2.16,1.67-2.14,2.34-.29,4.27,1.5,1.57,2.78,3.31,2.49,5.55-.28,2.22.66,3.54,2.29,4.8,4.58,3.54,9.11,7.15,13.62,10.79,2.02,1.63,3.84,3.52,5.92,5.05,4.75,3.48,9.61,6.82,14.43,10.2,2.8,1.96,3.33,2,6.12,0,8.75-6.3,17.48-12.64,26.21-18.98,3.8-2.76,7.56-5.57,11.33-8.36,1.05-.78,2.11-1.57,2.35-3.22Zm-515.81,232.36c.8-.41,2.23-.89,3.37-1.75,5.24-4,10.41-8.08,15.58-12.17,3.84-3.03,7.62-6.14,11.47-9.16,1.99-1.57,3.4-3.27,2.94-6.08-.35-2.1.79-3.86,1.92-5.53,2.09-3.09,2.08-3.26-.82-5.49-.63-.49-1.28-.96-1.93-1.43-12.09-8.67-24.18-17.35-36.28-26-3.05-2.18-3.97-2.15-6.87.17-9.36,7.48-18.71,14.98-28.05,22.48-2.96,2.38-2.94,2.4-1.23,5.71.23.44.42.91.56,1.38.81,2.59.42,3.69-1.85,5.32-1.46,1.04-2.92,2.07-4.39,3.1-1.3.92-1.44,1.58-.34,2.61,1.67,1.57,3.27,3.28,5.19,4.49,10.29,6.52,20.64,12.94,31.02,19.32,2.75,1.69,5.79,2.66,9.72,3Zm319.27-337.63c.98-.48,1.8-.8,2.55-1.26,1.02-.62,1.97-1.36,2.98-2.01,12.74-8.25,25.48-16.51,38.25-24.73,1.86-1.2,2.39-2.73,2.01-4.85-.62-3.43-2.34-6.07-5.12-8.15-3.36-2.51-6.71-5.05-9.93-7.73-8.45-7.02-16.8-14.15-25.23-21.19-3.05-2.55-3.46-2.42-6.55.29-5.1,4.48-10.28,8.88-15.4,13.35-6.09,5.32-12.17,10.66-18.2,16.06-2.2,1.97-2.35,3.03-.98,5.49.89,1.6,1.29,3.11.37,4.81-.84,1.57-.3,2.91.82,4.08.62.64,1.31,1.23,2.02,1.78,6.63,5.14,13.27,10.27,19.91,15.39,3.01,2.32,6,4.66,9.06,6.89,1.02.74,2.25,1.18,3.43,1.78Zm-373.89-169.4c.29-2.1-.95-3.45-2.58-4.62-5.18-3.74-10.39-7.44-15.5-11.28-7.09-5.33-14.71-9.99-20.88-16.5-1.14-1.21-2.73-2-4.11-2.97-.96-.67-1.9-.52-2.76.17-1.01.81-2.02,1.63-2.97,2.51-2.26,2.11-4.47,4.28-6.74,6.38-6.87,6.39-13.74,12.78-20.65,19.12-1.68,1.54-2.36,3.37-2.32,5.59.06,3.39.13,6.79.02,10.18-.08,2.65.96,4.64,2.98,6.2,2.44,1.9,4.89,3.79,7.37,5.64,6.89,5.13,13.83,10.18,20.67,15.36,3.14,2.38,3.71,2.51,6.72.14,8.23-6.49,16.46-12.97,24.67-19.49,4.3-3.41,8.55-6.89,12.82-10.34,1.92-1.55,3.58-3.25,3.27-6.1Zm620.85-53c1.85.97,3.63,1.66,5.13,2.74,4.13,2.98,8.15,6.11,12.21,9.19,6.77,5.14,13.51,10.3,20.3,15.41,2.7,2.03,3.48,1.99,6.06-.09,3.89-3.14,7.72-6.34,11.61-9.48,9.09-7.35,18.18-14.71,27.33-21.99,1.8-1.44,2.56-3.1,2.64-5.38.12-3.23-1.05-5.42-3.82-7.19-10.61-6.78-21.12-13.72-31.65-20.62-1.76-1.15-3.47-2.35-5.2-3.54-2.11-1.45-4.12-1.26-6.03.4-1.59,1.37-3.15,2.77-4.76,4.11-8.22,6.84-16.44,13.68-24.69,20.48-1.43,1.18-2.19,2.49-1.9,4.4.5,3.31-.8,5.79-3.55,7.67-1.35.93-2.9,1.79-3.68,3.88ZM154.01,585.51c-.04.32-.09.64-.13.96,1.37,1.09,2.7,2.24,4.12,3.27,6.71,4.87,13.45,9.72,20.18,14.57,4.87,3.51,9.75,6.99,14.6,10.52,1.41,1.03,2.81,1.57,4.38.39,4.32-3.23,8.69-6.39,12.92-9.74,4.22-3.35,8.24-6.96,12.42-10.36,4.97-4.03,10.04-7.93,15.02-11.94,1.81-1.46,1.8-1.89.64-3.74-1.48-2.36-2.83-4.81-4.38-7.13-.7-1.05-1.62-2.04-2.63-2.8-5.82-4.4-11.71-8.71-17.56-13.06-5.21-3.88-10.41-7.78-15.63-11.65-2-1.48-2.57-1.45-4.46.1-.31.25-.59.54-.89.81-10.16,8.87-20.32,17.75-30.5,26.61-2.52,2.19-2.56,2.14-.79,5.1,1.58,2.63.91,4.5-2.03,5.6-.56.21-1.18.29-1.71.56-1.21.6-2.39,1.29-3.58,1.94ZM65.81,103.65c-.06,6.75-.2,6.91,4.26,10.94,7.47,6.77,15.15,13.33,22.73,19.98,2.55,2.24,5.07,4.51,7.61,6.77,1.3,1.15,2.68,1.73,4.34.68,2.62-1.65,5.34-3.15,7.88-4.91,4.92-3.41,9.75-6.96,14.62-10.45,4.3-3.08,8.65-6.1,12.9-9.26,1.08-.8,2.43-1.94,2.63-3.1.67-3.77.59-7.52-2.21-10.7-4.68-5.32-9.25-10.74-13.89-16.09-4.77-5.51-9.55-11.01-14.38-16.46-1.58-1.78-2.54-1.91-4.45-.78-2.67,1.57-5.33,3.16-7.91,4.86-9.35,6.13-18.58,12.46-28.05,18.41-4.21,2.64-7.01,5.6-6.07,10.13Zm136.17,526.99c2.13,1.93,3.73,3.54,5.49,4.94,9.71,7.7,19.45,15.36,29.19,23.02,3.11,2.45,3.9,2.35,6.97-.24,5.65-4.77,11.32-9.52,17.05-14.19,2.63-2.14,5.53-3.96,8.11-6.16,2.34-2,4.27-4.49,6.65-6.43,2.57-2.1,4.72-4.27,4.92-7.81.04-.67.44-1.32.72-1.96.99-2.31.57-4.28-1.36-5.93-4.17-3.57-8.31-7.18-12.51-10.73-6.17-5.23-12.45-10.34-18.55-15.65-3.77-3.28-3.84-3.39-7.72-.33-10.67,8.42-21.36,16.82-32.03,25.24-1.73,1.36-3.46,2.72-5.1,4.19-1.74,1.55-1.72,2.26-.14,3.96.81.88,1.76,1.67,2.42,2.65,1.6,2.39.42,4.74-2.45,5.09-.28.03-.56.11-1.65.34Zm-50.94-508.42c-1.39.53-2.74.78-3.77,1.48-4.12,2.8-8.17,5.71-12.21,8.64-2.82,2.05-5.41,4.48-8.4,6.25-4.38,2.59-8.91,4.89-12.79,8.26-2.8,2.43-2.83,2.39-.07,5.04.14.14.29.27.43.42,1.04,1.08,1.6,2.31,1.12,3.81-.46,1.43-1.65,1.81-2.99,2.13-1.43.34-2.88.82-4.14,1.55-1.95,1.13-1.83,1.93.09,3.21,2.49,1.66,5.08,3.21,7.35,5.13,8.07,6.85,16.02,13.85,24.03,20.77,1.81,1.57,3.69,3.06,5.57,4.55,1.03.81,2.09.8,2.83-.38,2.58-4.14,6.75-6.48,10.51-9.24,10.54-7.76,21.19-15.38,31.79-23.06.89-.64,1.79-1.29,2.6-2.02,1.88-1.7,1.88-3.09.05-4.76-.59-.54-1.23-1.03-1.86-1.51-5.15-3.96-10.3-7.92-15.45-11.88-7.22-5.54-14.43-11.08-21.67-16.58-.93-.71-2.01-1.21-3.03-1.81Zm566.98,433.73c.65-.23,1.16-.31,1.57-.57,2.28-1.43,4.67-2.73,6.78-4.39,4.94-3.88,10.02-7.61,14.34-12.24.94-1.01,2.18-1.75,3.3-2.59,4.17-3.1,8.34-6.2,12.54-9.27,1.53-1.12,2.5-2.43,2.7-4.42.12-1.24.66-2.51,1.26-3.63,1.36-2.54,1.42-2.51-.93-4.3-.48-.36-.97-.7-1.45-1.06-12.45-9.22-24.9-18.43-37.33-27.67-2.3-1.71-2.68-1.75-4.95,0-.4.31-.78.63-1.15.96-10.04,8.85-20.07,17.72-30.14,26.54-1.89,1.65-2.94,3.39-2.21,6.02.62,2.21-.22,4.13-1.88,5.67-.51.48-1.03.95-1.53,1.43-1.06,1.03-1.07,2.16-.05,3.15,1.07,1.04,2.21,2.03,3.45,2.86,4.82,3.22,9.71,6.33,14.53,9.55,6.15,4.11,12.24,8.3,18.38,12.42.9.6,1.9,1.05,2.79,1.53Zm-421.76,66.74c-.52.73-1.16,1.81-1.99,2.72-.44.49-1.21.67-1.82,1-3.78,2.07-3.84,3.22-.35,5.55,11.12,7.43,22.23,14.88,33.35,22.32,2.24,1.5,4.51,2.95,6.73,4.48,1.9,1.32,3.71,1.24,5.52-.15.63-.49,1.28-.96,1.89-1.47,4.8-4.06,9.58-8.14,14.39-12.19,6.41-5.4,12.85-10.76,19.26-16.16,2.73-2.3,2.81-3.53.52-6.24-.32-.38-.67-.74-1.05-1.06-6.92-5.88-13.86-11.73-20.77-17.63-4.93-4.21-9.88-8.39-14.68-12.74-3.52-3.2-3.77-3.35-7.51-.51-.4.3-.79.61-1.18.92-4.33,3.37-8.65,6.75-12.99,10.12-6.07,4.71-12.13,9.44-18.23,14.12-1.61,1.24-2.39,2.61-1.54,4.64.23.54.24,1.16.46,2.28Zm86.03,179.69c.71-.25,1.2-.37,1.63-.59,2.86-1.45,5.49-3.19,7.86-5.4,5.91-5.52,11.95-10.9,17.95-16.32,4.74-4.28,9.5-8.55,14.27-12.8.87-.78,1.62-1.64,1.14-2.84-.99-2.48-1.78-5.02-4.29-6.64-9.98-6.46-19.89-13.02-29.8-19.57-1.25-.82-2.64-1.59-3.56-2.71-1.87-2.31-3.54-4.72-6.92-4.79-.26,0-.51-.3-.77-.45-2.36-1.37-2.61-1.38-4.74.34-1.01.81-1.95,1.71-2.89,2.61-2.44,2.36-4.78,4.84-7.3,7.1-6.54,5.86-13.16,11.64-19.76,17.42-1.15,1.01-1.58,2.08-.58,3.37,1.18,1.52,1.27,3.08.37,4.75-.84,1.56-.36,2.89.81,4.06.5.49.99.99,1.51,1.46,6.55,6,13.1,12.01,19.67,17.99,4.14,3.76,8.29,7.51,12.49,11.2.87.76,1.98,1.26,2.9,1.82Zm-144.54-406.11c-1.11-2.79-2.33-5.12-2.95-7.59-.72-2.89-2.23-5.02-4.44-6.88-10.31-8.7-20.57-17.45-30.86-26.16-1.94-1.64-2.1-1.62-4.06,0-5.31,4.4-10.63,8.78-15.89,13.23-6.25,5.3-12.46,10.63-18.64,16.02-2.56,2.23-2.54,2.64-.85,5.55,1.66,2.86.97,4.88-2.1,6.16-1.01.42-2.09.74-3.01,1.3-2.01,1.23-1.99,2.3-.05,3.53,6.58,4.18,13.16,8.34,19.75,12.51,5.74,3.63,11.46,7.3,17.23,10.88,2.08,1.29,2.33,1.12,4.18-.45,2.36-2,4.64-4.15,7.22-5.83,10.72-6.98,21.53-13.8,32.3-20.7.74-.47,1.42-1.04,2.16-1.58ZM66.34,200.74h.06c0,.9.04,1.8,0,2.7-.21,3.69,1.16,6.37,4.28,8.61,10.3,7.4,20.47,14.98,30.61,22.61,2.51,1.89,4.67,2.13,7.35.4,5.7-3.69,11.52-7.2,17.29-10.77,6.37-3.94,12.75-7.86,19.12-11.81,2.26-1.4,2.41-1.96,1.47-4.4-.5-1.3-.87-2.67-1.48-3.91-.6-1.22-1.23-2.54-2.21-3.43-3.17-2.89-6.52-5.59-9.78-8.38-9.04-7.71-18.07-15.44-27.11-23.14-.91-.77-1.91-1.44-2.9-2.11-1.43-.97-2.8-.83-4.12.28-1.84,1.54-3.7,3.05-5.56,4.56-7.6,6.17-15.18,12.36-22.82,18.48-3.07,2.46-5.33,5.15-4.2,9.43.07.28,0,.6,0,.9Zm39.41,339.94c-1.08.58-2.1,1-2.98,1.62-3.27,2.29-6.49,4.67-9.75,6.97-7.6,5.36-15.19,10.72-22.83,16-1.73,1.2-2.6,2.63-2.55,4.74.07,2.8.17,5.61-.03,8.39-.21,3.09,1,5.31,3.26,7.31,5.08,4.51,9.99,9.2,15.04,13.75,4.01,3.61,8.07,7.15,12.18,10.65,2.04,1.74,2.14,1.68,4.42.16,4.07-2.71,8.06-5.54,12.18-8.19,8.49-5.45,17.06-10.79,25.55-16.25,1.13-.73,2.29-1.76,2.87-2.93,1.11-2.25,2.17-4.44,3.93-6.31,1.32-1.4,1.15-2.13-.42-3.51-1.88-1.65-3.82-3.22-5.76-4.79-4.97-4.02-9.98-8-14.95-12.02-5.59-4.53-11.13-9.12-16.74-13.62-.99-.79-2.21-1.29-3.41-1.97ZM412.37,199.07c-.21-1.91-.99-4.19-2.85-5.86-2.3-2.06-4.72-3.99-7.16-5.89-9.76-7.61-19.58-15.15-29.29-22.82-2.83-2.24-3.32-2.44-6.13-.16-5.9,4.77-11.81,9.53-17.68,14.34-5.02,4.12-10.01,8.27-14.95,12.48-2.39,2.04-2.24,4.01.29,5.87.72.53,1.59.84,2.32,1.36,2.66,1.91,2.71,4.51.16,6.59-1.88,1.53-1.95,2.4-.25,4.11.49.49,1.06.91,1.59,1.36,5.87,4.97,11.73,9.94,17.61,14.9,3.28,2.76,6.57,5.53,9.92,8.21,2.92,2.34,4.36,2.24,7.03-.27,1.02-.96,1.98-1.99,3.09-2.83,7.29-5.59,14.63-11.11,21.9-16.73,3.95-3.05,7.81-6.22,11.67-9.39,1.48-1.21,2.84-2.57,2.74-5.28Zm314.86,373.24c.96,1.05,1.63,1.88,2.4,2.6,4.82,4.49,9.69,8.92,14.49,13.44,5.47,5.15,11.52,9.53,17.76,13.67,1.74,1.15,3.25,1.05,4.94-.16,6.99-4.99,14.05-9.87,21.04-14.86,5.28-3.77,10.55-7.57,15.72-11.5,4.31-3.27,4.37-8.55.24-11.86-4.83-3.88-9.69-7.71-14.55-11.55-7.52-5.95-15.06-11.87-22.56-17.84-3.1-2.47-3.57-2.56-6.72-.17-10.58,8.03-21.15,16.07-31.72,24.12-.75.57-1.37,1.29-2.41,2.28,1.43.81,2.43,1.39,3.43,1.96,3.49,1.99,3.78,5.19.69,7.71-.82.67-1.67,1.3-2.78,2.17Zm-578.9,111.56c-.92.58-1.88,1.07-2.72,1.73-8.05,6.41-16.09,12.84-24.12,19.28-2.03,1.63-4.07,3.24-6.02,4.95-2.2,1.92-2.19,2.58-.2,4.54,2.4,2.36,2.62,3.93.95,6.92-.39.7-.83,1.37-1.27,2.03-1.62,2.42-1.61,2.76.7,4.67,2.77,2.29,5.61,4.5,8.42,6.76,8.1,6.51,16.19,13.04,24.3,19.54,1.96,1.58,2.62,1.58,4.77.03,1.62-1.17,3.19-2.41,4.77-3.63,9.25-7.16,18.48-14.33,27.74-21.47,1.54-1.18,2.42-2.58,2.41-4.56-.01-2.12.89-3.83,2.42-5.29,3.22-3.09,3.2-3.11-.52-5.79-.16-.12-.33-.23-.49-.35-13.06-9.4-26.11-18.81-39.17-28.2-.55-.4-1.17-.71-1.96-1.17Zm611.46,25.5c.77-2.69-.54-3.98-2.18-5.15-6.42-4.59-12.82-9.21-19.25-13.78-6.1-4.34-12.42-8.38-17.65-13.85-3.57-3.73-3.75-3.64-7.83-.36-9.02,7.27-18.05,14.53-27.08,21.78-2.1,1.69-4.26,3.31-6.35,5.01-1.49,1.22-1.6,1.98-.12,3.09,1.65,1.24,3.45,2.35,5.32,3.2,2.44,1.1,3.62,2.52,2.9,5.12-.63,2.29.17,3.56,1.88,4.8,8.01,5.81,15.97,11.67,23.96,17.5,3.39,2.47,6.76,4.97,10.2,7.38,2.62,1.83,3.31,1.7,5.74-.44,8.09-7.14,16.19-14.25,24.28-21.38,2.1-1.85,4.19-3.71,6.27-5.57,1.26-1.13,1.59-2.38.84-4.02-.53-1.14-.7-2.45-.93-3.33Zm-643.67-81.49c-.1,2.13,1.19,3.03,2.31,4.01,6.29,5.55,12.59,11.1,18.9,16.63,3.83,3.36,7.65,6.74,11.57,9.99,2.17,1.8,3.06,1.72,5.37.18.58-.39,1.13-.82,1.69-1.24,6.99-5.34,13.99-10.67,20.95-16.04,3.88-2.99,7.71-6.05,11.54-9.09,2.3-1.83,2.26-2.05,1.45-4.77-.36-1.19-.63-2.65-.26-3.77.76-2.31-.23-3.54-1.93-4.76-4.87-3.5-9.52-7.32-14.54-10.58-7.88-5.13-15.55-10.54-23.02-16.23-3.11-2.37-3.31-2.38-6.56-.28-10.91,7.05-21.83,14.1-32.74,21.15-1.09.71-2.19,1.4-3.21,2.21-1.39,1.1-1.49,1.78-.23,2.9,1.79,1.59,3.56,3.33,5.64,4.42,2.48,1.3,4.52,2.4,3.08,5.28Zm177.05-385.42c1.24.98,1.96,1.49,2.61,2.07,1.68,1.5,1.86,3.35.32,4.98-.88.93-2.01,1.63-3.08,2.34-1.16.77-2.43,1.39-3.59,2.16-2.55,1.7-2.84,3.69-.8,5.98.92,1.03,2.03,1.92,3.14,2.76,9.59,7.18,19.19,14.34,28.8,21.5,2.85,2.12,4.53,2.08,7.16-.3,4.81-4.35,9.57-8.75,14.37-13.12,3.83-3.49,7.7-6.96,11.53-10.46,3.24-2.96,6.52-5.89,9.64-8.97,2.76-2.73,2.82-6.12.38-9.14-.5-.62-1.08-1.18-1.68-1.7-7.24-6.28-14.48-12.55-21.74-18.81-2.8-2.41-5.61-4.81-8.44-7.18-2.63-2.21-4.17-2.21-6.91-.09-.39.31-.76.64-1.14.97-3.7,3.2-7.4,6.4-11.11,9.59-4.69,4.04-9.42,8.04-14.06,12.12-1.77,1.56-3.37,3.31-5.39,5.31Zm478.96-102.75c-.12,2.54-.88,3.8-2.55,4.53-1.09.48-2.21.98-3.13,1.71-1.66,1.34-1.57,2.22.15,3.53,2.39,1.81,4.79,3.61,7.18,5.41,5.34,4.03,10.13,8.77,15.93,12.2.93.55,1.69,1.39,2.51,2.13,2.38,2.13,4.73,4.31,7.13,6.42,1.98,1.74,2.99,1.58,4.65-.6.9-1.19,1.69-2.53,2.8-3.49,3.63-3.14,7.27-6.27,11.1-9.15,9.04-6.77,18.19-13.39,27.29-20.08.81-.59,1.63-1.17,2.37-1.84,1.99-1.82,1.97-3.91-.06-5.63-.76-.64-1.63-1.16-2.45-1.72-13.79-9.38-28.36-17.6-41.67-27.71-1.04-.79-2-.79-2.99,0-.47.38-.9.79-1.35,1.19-7.16,6.38-14.32,12.76-21.47,19.15-2.38,2.13-4.75,4.27-7.11,6.43-1.21,1.11-1.35,2.22-.31,3.67.96,1.34,1.54,2.95,1.98,3.83Zm-443.46,241.09c1.12-.73,2.31-1.27,3.21-2.12,8.29-7.8,16.53-15.65,24.79-23.48,1.88-1.78,3.82-3.52,5.7-5.3,1.95-1.86,3.92-3.7,5.79-5.64,1.73-1.8,1.82-3.37.32-5.34-.72-.94-1.62-1.77-2.54-2.53-1.46-1.21-3.02-2.29-4.49-3.49-8.97-7.33-17.92-14.69-26.9-22-2.88-2.35-3.96-2.34-6.79,0-2.61,2.16-5.08,4.51-7.74,6.61-7.92,6.25-15.91,12.41-23.86,18.61-.39.31-.76.65-1.11,1-1.94,1.94-1.95,2.68-.12,4.78,2.72,3.12,2.16,5.22-1.73,6.23-1.69.44-3.4.82-3.91,2.77-.54,2.08,1.04,3.08,2.39,4.09,4.71,3.55,9.39,7.13,14.18,10.56,6.42,4.59,12.91,9.07,19.41,13.55.96.66,2.09,1.07,3.4,1.73Zm7.19,88.61c1.11-.6,2.24-1.01,3.12-1.72,4.18-3.41,8.33-6.85,12.41-10.38,6.58-5.68,13.1-11.42,19.62-17.17,1.86-1.64,1.96-3.25.43-5.24-.48-.62-1.09-1.18-1.7-1.68-12.65-10.27-25.3-20.53-37.97-30.77-2.66-2.15-3.19-2.15-6.11-.29-7.25,4.61-14.49,9.25-21.72,13.89-3.13,2-6.4,3.65-9.98,4.73-2.28.69-4.47,1.75-6.61,2.8-1.69.83-1.81,1.67-.31,2.92,2.45,2.04,5,3.97,7.62,5.79,2.49,1.73,2.99,2.8,1.63,5.43-.62,1.2-.56,1.92.42,2.85,5.52,5.24,11.49,9.9,17.74,14.24,5.25,3.64,10.28,7.59,15.5,11.28,1.77,1.25,3.8,2.14,5.92,3.32Zm-268.85,9.9c0,2.69.03,5.38,0,8.07-.03,2.06.82,3.6,2.4,4.9,9.93,8.19,19.82,16.44,29.75,24.64,2.71,2.24,3.3,2.21,6.28.11,11.59-8.16,23.17-16.34,34.79-24.47,2.28-1.6,4.37-3.19,4.26-6.36-.01-.37.22-.76.35-1.14,1.19-3.5,1.2-3.51-1.69-5.72-12.14-9.27-24.28-18.54-36.43-27.8-2.54-1.94-2.9-1.98-5.52-.11-4.71,3.36-9.37,6.81-14.06,10.2-5.98,4.34-11.96,8.67-17.97,12.98-1.64,1.17-2.88,2.49-2.16,4.7Zm495.61-144.83c-.35-.54-.62-1.22-1.1-1.66-.73-.67-1.58-1.22-2.42-1.75-14.32-8.93-28.64-17.84-42.97-26.76-2.96-1.84-3.46-1.77-5.96.53-1.54,1.41-3.13,2.77-4.74,4.1-1.46,1.2-3.05,2.24-4.48,3.47-3.24,2.81-6.43,5.69-9.62,8.57-3.11,2.81-6.29,5.55-9.28,8.49-2.28,2.25-2.23,2.9-.76,5.68.92,1.75.66,2.92-.96,4.14-.4.3-.88.48-1.28.78-1.47,1.11-1.46,1.92.07,3.01,2.19,1.56,4.41,3.1,6.64,4.6,9.53,6.4,19.18,12.64,28.57,19.25,4.51,3.17,4.85,3.75,10.36-.46.16-.12.3-.26.46-.38,6.55-4.91,13.12-9.8,19.65-14.74,4.7-3.55,9.35-7.17,14.02-10.76,1.98-1.53,3.02-3.64,3.79-6.11Zm-361.78,204.1c3.36,2.58,6.12,4.69,8.88,6.8,6.43,4.91,12.85,9.83,19.29,14.73,1.11.85,2.28,1.62,3.47,2.36,2.99,1.84,3.6,1.79,6.4-.39,3.39-2.64,6.74-5.32,10.16-7.92,9.24-7,18.52-13.93,27.74-20.96.99-.75,1.79-1.86,2.4-2.96.86-1.56,1.41-3.29,2.18-4.91,1.15-2.4,1.13-2.65-1.07-4.12-12.69-8.51-25.39-17.03-38.09-25.53-2.27-1.52-2.6-1.49-4.69.29-3.58,3.04-7.15,6.09-10.73,9.13-6.86,5.82-13.76,11.59-20.57,17.46-3.32,2.86-3.3,3.04-.42,6.27,2.18,2.45,1.92,6.58-1.72,7.85-.97.34-1.8,1.04-3.24,1.9Zm123.37-235.42c-.16-.81-.18-1.22-.33-1.58-1.29-3.04-2.58-6.05-5.31-8.2-3.61-2.84-7.12-5.81-10.71-8.68-8.97-7.17-17.96-14.31-26.91-21.5-1.29-1.03-2.48-1.16-3.8-.2-.4.29-.8.59-1.2.89-10.03,7.59-20.07,15.18-30.1,22.78-.87.66-1.75,1.35-2.46,2.18-1.17,1.36-1.23,2.6.1,3.67,3.15,2.55,5.92,5.63,10.14,6.69,3.06.77,3.91,2.8,2.58,5.73-.85,1.89-.48,3.24.93,4.54.66.61,1.27,1.28,1.95,1.86,7.84,6.65,15.69,13.3,23.55,19.94,2.55,2.16,3.95,2.21,6.69.32.49-.34.95-.73,1.42-1.1,8.35-6.5,16.72-12.99,25.06-19.51,2.28-1.78,4.55-3.59,6.72-5.51.76-.67,1.22-1.7,1.67-2.34Zm-124.37,126.77c1.45.63,2.34.99,3.21,1.39,1.17.54,2.43.97,3.48,1.7,1.94,1.35,2.32,3.03,1.44,5.25-1.06,2.68-1.01,2.98,1.18,4.82,2.37,1.99,4.78,3.93,7.18,5.9,6.26,5.13,12.51,10.26,18.78,15.38,2.16,1.76,4.28,3.61,6.6,5.15,3.1,2.06,3.72,1.96,6.57-.49,5.91-5.08,11.71-10.28,17.65-15.31,4.57-3.87,9.3-7.55,13.95-11.32,2.45-1.99,2.52-2.57.68-5.16-1.42-1.99-2.42-4.14-2.66-6.59-.19-2.01-1.11-3.54-2.74-4.77-9.71-7.36-19.38-14.79-29.1-22.14-2.79-2.11-2.85-2.03-5.8-.14-12.87,8.25-25.74,16.5-38.6,24.76-.47.3-.86.75-1.82,1.6Zm120.77-225.04c-.14-.42-.51-1.44-.85-2.46-.47-1.41-1.24-2.8-1.32-4.24-.23-3.91-2.14-6.7-5.04-9.13-5.42-4.56-10.74-9.24-16.11-13.87-3.02-2.61-6.04-5.23-9.09-7.8-3.14-2.64-5.2-2.67-8.59-.19-.97.71-1.9,1.45-2.84,2.21-5.83,4.7-11.65,9.41-17.48,14.11-3.88,3.13-7.78,6.25-11.65,9.4-1.98,1.61-1.96,2.8.15,4.22,1.14.77,2.48,1.26,3.74,1.85,1.27.58,2.66.96,3.8,1.72,2.3,1.52,2.38,4.29.3,6.07-.53.45-1.15.8-1.71,1.21-1.99,1.46-2,2.13-.12,3.59,8.44,6.55,16.86,13.1,25.31,19.65,1.66,1.28,3.32,2.57,5.05,3.75,1.94,1.33,3.95,1.27,5.86-.11.81-.58,1.56-1.25,2.3-1.91,3.19-2.86,6.36-5.76,9.57-8.61,5.52-4.9,11.07-9.78,16.61-14.67,1.24-1.09,2.17-2.35,2.11-4.78Zm4.46-17.39c1.38-.95,2.74-1.75,3.95-2.74,7.88-6.46,15.73-12.95,23.59-19.44,3.31-2.73,6.65-5.44,9.92-8.22,1.89-1.6,2.11-2.86,1-5.01-.41-.79-.93-1.55-1.55-2.19-1.67-1.71-3.37-3.41-5.16-5.01-6.69-5.99-13.41-11.96-20.15-17.91-3.97-3.5-7.94-7-12-10.39-1.84-1.54-2.25-1.44-4.23-.08-.41.28-.81.59-1.2.89-9.34,7.2-18.67,14.39-28,21.59-.55.43-1.1.87-1.59,1.36-1.01,1.02-1.14,2.14-.02,3.12,1.42,1.24,2.92,2.4,4.42,3.56,1.03.79,2.21,1.4,3.14,2.28,2.85,2.67,2.13,5.62-1.57,6.73-.38.11-.78.17-1.16.29-1.22.38-2.94.55-2.98,2.02-.03.9,1.11,1.99,1.96,2.73,6.24,5.46,12.53,10.85,18.82,16.25,3.33,2.86,6.68,5.71,10.07,8.51.74.61,1.66,1.01,2.74,1.65Zm544.37,612.74c.06,0,.12,0,.18,0,0,4.1-.07,8.2.02,12.29.07,2.88,1.06,3.5,3.83,2.69,3.18-.93,6.02-4.29,6.34-7.59.16-1.69.31-3.39.29-5.08-.06-5.19-.26-10.37-.31-15.56-.03-3.22-.18-6.36-1.66-9.35-.9-1.82-.5-2.92,1.07-4.22.77-.63,1.77-1.01,2.46-1.7.81-.81,1.85-1.77,2.01-2.79.73-4.63,1.5-9.29.22-13.98-.4-1.44-.67-2.92-.9-4.4-.42-2.75,0-5.3,1.46-7.77.77-1.3,1.29-3,1.26-4.5-.23-10.27.98-20.59-.95-30.81-.26-1.36-.18-2.79-.15-4.19.17-6.89.43-13.78.55-20.67.1-5.68.04-11.37.06-17.06,0-.6.04-1.2.06-1.8.17-4.19.38-8.38.48-12.57.13-4.99.13-9.99.24-14.99.08-3.89.33-7.79.33-11.68,0-3.12-.82-3.82-3.95-3.98-3.89-.2-7.78-.38-11.66-.61-3.82-.22-4.12.04-4.12,3.86,0,.5,0,1,.03,1.5.18,4.69.43,9.37.52,14.06.24,12.09.38,24.17.62,36.26.16,7.99.45,15.98.61,23.97.04,2.22.61,3.98,2.44,5.48,2.37,1.94,2.48,4.5.21,6.42-2.17,1.83-2.74,3.97-2.68,6.62.24,11.39.45,22.77.59,34.16.2,15.99.34,31.97.5,47.96Zm-148.47-521c1.02.59,1.55.84,2.02,1.17,2.28,1.57,3.85,4.7,3.03,6.95-.68,1.88.09,2.78,1.37,3.76,3.89,2.96,7.72,6.02,11.65,8.94,5.85,4.35,11.71,8.67,17.65,12.89,2.8,2,3.42,1.91,6.12-.13,3.11-2.34,6.12-4.81,9.25-7.13,8.66-6.42,17.36-12.79,26.03-19.19.8-.59,1.57-1.25,2.23-1.99,2.06-2.31,1.86-5.08-.5-7.09-1.22-1.03-2.5-1.99-3.77-2.95-11.12-8.46-21.89-17.39-33.69-24.94-3.64-2.33-3.84-2.39-7.27.47-10.5,8.76-20.98,17.56-31.45,26.37-.88.74-1.59,1.69-2.68,2.87Zm-441.04-36.12c-.84-1-1.64-2.24-2.72-3.17-2.79-2.42-5.67-4.74-8.56-7.05-7.02-5.61-14.07-11.19-21.11-16.77-1.17-.93-2.39-.9-3.59-.05-.65.46-1.29.94-1.92,1.44-7.46,5.87-14.94,11.72-22.36,17.65-3.35,2.68-6.58,5.52-9.82,8.33-1.19,1.03-1.94,2.34-1.5,3.99.77,2.88-.26,4.99-2.49,6.84-2.29,1.89-2.27,3.36-.11,5.49,1.2,1.19,2.56,2.22,3.84,3.34,8.2,7.17,16.39,14.34,24.59,21.51.23.2.45.39.7.56,1.69,1.16,2.87,1.14,4.24-.37,1.07-1.18,1.85-2.61,2.86-3.84,1.14-1.38,2.23-2.87,3.63-3.93,8.98-6.84,18.04-13.59,27.1-20.33,1.92-1.43,3.21-3.18,3.95-5.47.64-1.98,1.63-3.86,2.44-5.79.27-.63.46-1.3.84-2.38Zm444.36-53.24c.31,1.97.96,3.95.84,5.9-.18,3.08,1.39,4.78,3.65,6.36,3.6,2.51,7.1,5.17,10.64,7.76.4.3.78.64,1.21.88,6.74,3.71,13.47,7.42,20.23,11.09,2.47,1.34,4.84,1,6.97-.81,3.19-2.72,6.38-5.46,9.51-8.24,6.13-5.44,12.18-10.95,18.34-16.35,3.76-3.3,4.09-5.69,1.03-9.74-.54-.72-1.08-1.46-1.74-2.06-4.81-4.36-9.58-8.77-14.51-12.98-3.57-3.04-7.4-5.78-11.07-8.7-2.58-2.05-5.1-4.18-7.64-6.28-1.77-1.46-3.45-1.42-5.49-.26-2.61,1.49-4.27,3.88-6.4,5.81-7.18,6.51-14.39,12.98-21.54,19.51-2.35,2.15-4.07,4.69-4.03,8.11Zm-448.97-46c.06-1.62-1.05-2.53-2.15-3.39-8.28-6.43-16.55-12.88-24.89-19.25-3.31-2.53-4.15-2.39-7.19.46-9.98,9.35-19.96,18.71-29.96,28.05-.8.75-1.69,1.39-2.59,2.02-2.19,1.52-2.29,1.58-1.54,4.16.6,2.05.34,3.65-1.49,5-2.45,1.81-2.39,2.53.14,4.38,3.38,2.49,6.77,4.96,10.17,7.41,6.81,4.9,13.66,9.74,20.45,14.67,2.44,1.77,3.13,1.9,5.46-.05,1.68-1.41,3.2-3.02,4.91-4.4,7.52-6.11,15.08-12.16,22.61-18.26,2.25-1.82,4.47-3.68,6.64-5.6,1.53-1.35,1.74-2.15.78-3.95-1.82-3.41-2.62-6.89-1.41-10.67.06-.19.05-.4.07-.59Zm443.2-42.44c1.62,1.28,2.89,2.36,4.24,3.33,10.92,7.73,21.85,15.44,32.79,23.15,3.45,2.43,4.83,2.41,7.91-.32,9.05-8,18.08-16.02,27.11-24.05,2.01-1.79,4.1-3.51,5.99-5.43,2.27-2.3,2.01-4.67-.52-6.61-.24-.18-.49-.34-.74-.51-7.91-5.58-15.8-11.21-23.76-16.72-3.52-2.44-7.2-4.63-10.78-6.98-3.28-2.15-6.13-1.24-9.08.87-4.39,3.13-8.92,6.06-13.45,8.98-5.71,3.68-11.49,7.24-17.22,10.87-2.92,1.85-2.93,2.77-1.54,5.04,1.68,2.75,1.78,5.46-.95,8.37Zm-470.59,210.12c-1.1.64-1.99,1.08-2.78,1.64-2.61,1.85-5.12,3.83-7.78,5.61-7.14,4.78-14.34,9.48-21.51,14.22-1.83,1.21-3.65,2.46-5.45,3.71-1.31.91-2.19,2.04-1.9,3.77.25,1.49-.28,2.76-1.19,3.89-.94,1.17-1.9,2.31-2.88,3.45-1.64,1.9-1.58,2.47.42,4.11,4.33,3.54,8.67,7.08,12.98,10.64,5.86,4.83,11.68,9.71,17.56,14.52,2.23,1.83,2.95,1.73,5.25-.02,6.91-5.27,13.83-10.53,20.76-15.78,4.46-3.38,8.93-6.75,13.44-10.06,1.64-1.2,2.53-2.64,2.78-4.71.21-1.75.85-3.48,1.47-5.15,1.14-3.05,1.22-3.06-1.16-5.1-4.86-4.16-9.74-8.29-14.61-12.44-3.96-3.36-7.9-6.76-11.9-10.07-1.04-.86-2.29-1.47-3.5-2.23Zm75.57,76.11c-.23-.44-.62-1.44-1.24-2.26-.46-.62-1.21-1.03-1.86-1.49-8.63-6.12-17.32-12.17-25.88-18.38-3.38-2.45-6.55-5.2-9.71-7.94-2.41-2.09-2.81-2.24-5.37-.36-4.67,3.42-9.33,6.86-13.97,10.32-6.24,4.65-12.49,9.3-18.69,14.01-2.65,2.01-2.62,3.18.18,4.93,1.66,1.04,3.51,1.86,5.36,2.53,1.63.6,2.92,1.34,3.06,3.22.14,1.79-.92,2.74-2.44,3.34-.19.07-.38.14-.55.23-2.25,1.14-2.43,2.09-.39,3.68,8.83,6.85,17.73,13.63,26.58,20.45,1.29.99,2.39,1.04,3.77.05,1.61-1.15,3.42-2.04,5.17-2.99,2.02-1.09,4.16-1.98,6.09-3.21,8.81-5.67,17.52-11.5,26.38-17.11,2.36-1.49,3.87-3.01,3.23-5.99-.16-.74.14-1.58.29-3.03Zm535.46-226.17h-.34c.27,8.4.51,16.79.81,25.18.11,3.22.73,3.6,3.9,2.83,4.85-1.18,9.71-2.3,14.56-3.46,2.29-.55,3.01-1.47,2.89-3.82-.08-1.59-.38-3.18-.4-4.78-.22-17.58-.42-35.16-.59-52.74-.07-7.09-.03-14.18-.04-21.27,0-3.24-.95-6.07-3.4-8.34-2.65-2.46-3.12-5.41-1.85-8.76.49-1.29.95-2.67,1.03-4.03.45-7.58.85-15.16,1.11-22.74.1-2.99-1.25-5.64-3.86-7-3.35-1.75-6.95-3.03-10.52-4.3-2.43-.87-3.47.13-2.8,2.64.61,2.27.36,4.12-1.54,5.64-.91.73-1.25,1.66-1.13,2.9.34,3.46.7,6.94.75,10.41.27,18.39.44,36.77.67,55.16.01,1.1,0,2.25.34,3.27.35,1.09.9,2.25,1.7,3.03,4.03,3.88,4.11,5.4,0,9.25-1.35,1.27-1.98,2.61-1.89,4.47.26,5.49.4,10.98.59,16.47ZM288.22,74.21c-.62.18-1.82.38-2.88.88-1.62.76-3.17,1.69-4.7,2.62-8.1,4.93-16.18,9.89-24.28,14.82-1.88,1.14-3.85,2.11-5.73,3.25-2.32,1.41-2.37,2.31-.15,3.97.93.7,2.03,1.3,3.14,1.63,3.63,1.08,4.59,3.81,2.15,6.71-1.09,1.3-2.39,2.41-3.55,3.65-1.57,1.67-1.55,2.45.29,3.9,1.65,1.29,3.45,2.38,5.11,3.66,6.66,5.1,13.27,10.26,19.93,15.35,2.71,2.07,3.47,2.05,6.07.04,8.3-6.41,16.57-12.85,24.87-19.27,2.21-1.71,4.42-3.43,6.67-5.08,1.8-1.32,2.55-2.9,1.97-5.18-.41-1.63-.59-3.35-.63-5.03-.05-1.93-.74-3.38-2.19-4.69-4.22-3.82-8.33-7.76-12.49-11.64-2.41-2.25-4.8-4.51-7.26-6.7-1.65-1.47-3.42-2.78-6.36-2.88Zm530.78,679.85c.57.7.72.97.95,1.15,3.19,2.58,3.47,3.56,1.25,6.97-1.16,1.78-.4,2.93.53,4.3,9.58,14.01,19.11,28.05,28.74,42.02,1.73,2.51,3.87,4.76,5.88,7.08,1.3,1.5,3.46,1.16,4.01-.79.54-1.89.81-3.93.79-5.89-.07-7.08-.38-14.16-.49-21.25-.24-16.46-.43-32.93-.62-49.39-.05-4.39,0-8.79-.07-13.18-.02-1-.36-1.99-.68-3.68-13.99,10.85-26.91,21.88-40.29,32.66Zm34.63-339.78c.17-1.72.38-2.84.38-3.96,0-8.39-.02-16.78-.05-25.18-.02-4-.03-7.99-.12-11.99-.23-10.27-.49-20.54-.74-30.81,0-.4.03-.8-.03-1.2-.29-1.92-1.29-2.41-2.88-1.3-1.14.8-2.2,1.73-3.26,2.64-6.89,5.92-13.78,11.86-20.66,17.79-3.18,2.74-6.36,5.47-9.5,8.25-.82.73-2.03,1.38-1.47,3.04.94-.07,1.81-.22,2.68-.18,2.61.11,4.24,2.29,3.43,4.77-.32.99-1.01,1.95-1.76,2.7-1.27,1.26-2.73,2.33-4.1,3.49-1.35,1.15-1.42,1.68-.1,2.87,1.19,1.07,2.49,2.01,3.76,2.97,4.23,3.19,8.48,6.34,12.7,9.54,7,5.31,13.97,10.65,21.72,16.56Zm-4.48-265.37c-1.02.66-2.03,1.22-2.94,1.92-9.94,7.71-19.85,15.45-29.79,23.16-2.36,1.83-4.86,3.5-7.18,5.38-1.99,1.61-1.95,2.89.19,4.24,1.23.78,2.71,1.19,4.13,1.61,3.54,1.04,4.53,3.5,2.55,6.54-.22.33-.47.65-.7.97-.7.98-.56,1.88.32,2.65.45.4.93.76,1.42,1.09,10.14,6.75,20.27,13.5,30.43,20.23.78.52,1.69.83,2.56,1.25,1.38-3.35.48-65.31-.99-69.04Zm5.27,291.46c-.29-.11-.58-.21-.87-.32-.77.57-1.59,1.09-2.32,1.72-8.84,7.63-17.61,15.35-26.53,22.88-2.46,2.08-4,3.76-2.22,7.23,1.23,2.4-.57,4.66-3.37,4.48-2.55-.16-3.81,1.41-5.22,2.93-1.01,1.08-.86,2.17.23,3.12.45.39.93.75,1.42,1.09,9.78,6.73,19.58,13.44,29.35,20.18,2.71,1.87,5.34,3.87,8.03,5.77.75.53,1.61.92,2.88,1.63,0-3.4.04-6.17,0-8.94-.2-11.08-.18-22.17-.74-33.22-.4-7.99-.61-15.95-.2-23.93.08-1.53-.29-3.09-.45-4.63Zm2.96,186.81c-.96.71-1.84,1.28-2.63,1.96-5.74,4.96-11.48,9.91-17.18,14.91-4.5,3.95-8.95,7.95-13.43,11.92-1.01.89-1.89,1.88-1.7,3.31.31,2.33-.55,4.27-1.66,6.22-1.54,2.7-1.36,3.19,1.3,5.12,8.42,6.07,16.83,12.14,25.25,18.21,2.75,1.98,5.46,4.04,8.28,5.92,2.04,1.36,2.95.99,3.16-1.42.32-3.67.48-7.36.47-11.04-.01-4.18-.38-8.37-.42-12.55-.08-7.58-.03-15.17-.04-22.76,0-4.79,0-9.58-.06-14.37-.02-1.76.01-3.58-1.35-5.44Zm-8.45-501.5c.17-1.36.33-2.03.33-2.69-.21-18.57-.42-37.15-.66-55.72-.01-1.03-.28-2.05-.49-3.56-1.32.73-2.2,1.13-2.99,1.67-4.82,3.22-9.62,6.46-14.42,9.7-5.54,3.75-11.09,7.5-16.61,11.28-2.58,1.77-2.58,1.92-.84,4.37,1.25,1.76,1.17,3.24-.38,4.8-.7.7-1.58,1.22-2.36,1.83-1.89,1.49-1.97,2.25-.03,3.69,2.16,1.6,4.47,3.02,6.72,4.49,9.21,6,18.41,12,27.64,17.97,1.14.74,2.4,1.28,4.11,2.17Zm7.27,412.52c-.27-.12-.55-.25-.82-.37-.79.54-1.62,1.04-2.38,1.63-6.41,4.94-12.8,9.9-19.21,14.85-3.48,2.69-6.98,5.35-10.47,8.02-1.07.82-1.88,1.57-1.23,3.24,1.11,2.87.65,3.93-1.83,5.9-2.95,2.35-2.94,2.66.15,4.96.16.12.32.24.48.35,10.84,7.68,21.69,15.37,32.54,23.05.57.4,1.15.82,1.78,1.09,1.23.53,1.95.18,2.19-1.12.18-.97.17-1.99.16-2.99-.19-13.88-.4-27.77-.6-41.65-.04-2.6.07-5.2-.05-7.79-.14-3.06-.46-6.12-.71-9.17Zm-3.41-227.87c-.45-1.21-.81-1.97-1.01-2.76-.21-.82-.4-1.7-.34-2.53.18-2.48.72-4.95.7-7.42-.12-12.48-.37-24.95-.57-37.43,0-.6-.09-1.2-.1-1.79-.04-2.48,0-4.97-.13-7.45-.06-1.13-.1-2.7-.8-3.24-1.12-.88-2.14.49-3.03,1.22-4.32,3.55-8.54,7.22-12.92,10.7-6.41,5.09-12.93,10.04-19.39,15.08-.88.69-1.66,1.51-2.51,2.29.46.54.61.85.85.96.53.25,1.11.43,1.68.6,3.46,1.06,4.36,3.79,2.2,6.62-1.79,2.34-1.78,2.95.64,4.43,8.17,5,16.41,9.91,24.59,14.91,1.6.98,3.08,2.18,4.52,3.38,1.45,1.2,2.76,2.56,5.62,2.45ZM67.58,592.11c-.21,1.66-.44,2.7-.46,3.74-.06,3.9.01,7.79-.07,11.69-.05,2.19-.44,4.37-.43,6.56.02,3.29.36,6.57.38,9.86.07,9.09,0,18.18.08,27.27.03,3.01.93,3.44,3.42,1.92.6-.36,1.18-.76,1.75-1.16,6.13-4.31,12.25-8.63,18.39-12.93,4.01-2.81,8.06-5.56,12.04-8.4,1.85-1.32,1.82-1.81.56-3.66-1.46-2.13-2.79-4.35-4.26-6.48-.61-.89-1.36-1.72-2.16-2.45-3.08-2.84-6.22-5.63-9.33-8.45-5.7-5.16-11.4-10.33-17.11-15.47-.7-.63-1.52-1.11-2.8-2.04Zm-.58,109.42c.21,11.03.42,21.62.61,32.2.05,2.6,0,5.2.04,7.79,0,.8.05,1.61.22,2.38.27,1.22,1.09,1.62,2.25,1.15.55-.23,1.08-.53,1.58-.85,8.97-5.8,17.95-11.59,26.9-17.43,2.08-1.36,2.09-1.66,1.22-4.24-.68-2.03-1.19-4.17-.28-6.15,1.29-2.82,0-4.48-2.02-6.14-8.88-7.29-17.72-14.63-26.58-21.95-.54-.44-1.08-.9-1.68-1.25-1.01-.59-1.78-.26-2.02.87-.19.87-.21,1.78-.22,2.68-.02,3.8,0,7.6,0,10.95Zm.03-326.88c2.52-.5,4.1-1.89,5.75-3.13,7.58-5.7,15.14-11.43,22.7-17.14,1.67-1.26,3.4-2.46,5.02-3.78,1.6-1.31,1.56-1.75.46-3.51-.89-1.42-2.01-2.85-2.39-4.42-.56-2.34-1.87-3.84-3.71-5.19-8.7-6.36-17.36-12.78-26.04-19.17-.62-.45-1.31-.8-2.39-1.46-.2,1.39-.46,2.41-.49,3.45-.08,2.49-.1,4.99-.06,7.49.16,12.47.36,24.94.53,37.42.03,2.1-.05,4.2.05,6.29.04,1.02.36,2.03.57,3.17Zm-.63-192.07c1.32-.93,2.4-1.6,3.37-2.39,8.44-6.88,16.85-13.8,25.3-20.67.93-.76,1.32-1.57,1.48-2.76.26-1.95.69-3.91,1.29-5.78.76-2.38.78-2.75-1.11-4.42-9.28-8.2-18.57-16.4-27.88-24.57-.7-.61-1.35-1.57-2.54-1.06-.66,2.57-.71,58.04.08,61.65Zm.36,225.32c-.17,1.97-.36,3.12-.36,4.28,0,16.67.02,33.33.04,50,0,.6,0,1.2.04,1.8.21,2.53.87,2.89,2.95,1.59.59-.37,1.15-.79,1.72-1.19,2.84-2.03,5.68-4.06,8.52-6.1,5.67-4.07,11.32-8.19,17.03-12.21,1.86-1.31,2.66-2.72,1.92-5.06-.4-1.26-.48-2.88-.05-4.1.91-2.6-.14-4.06-2.07-5.58-8.94-7.04-17.79-14.18-26.69-21.27-.75-.6-1.57-1.12-3.04-2.15Zm.12,91.63c-.15,1.37-.44,2.7-.41,4.03.14,7.28.44,14.56.52,21.84.1,9.18.02,18.36.08,27.55,0,1.33-.53,3.28.99,3.74,1.01.31,2.6-.63,3.68-1.36,5.11-3.49,10.12-7.12,15.19-10.67,3.51-2.46,7.06-4.88,10.58-7.33,1.27-.88,2.35-1.84,1.96-3.67-.43-2.05-.76-4.12-1.05-6.19-.3-2.09-1.3-3.65-2.92-5.02-8.06-6.84-16.05-13.78-24.09-20.65-1.18-1.01-2.33-2.19-4.53-2.24Zm.31-221.3c.97-.79,1.83-1.42,2.61-2.14,1.68-1.56,3.3-3.2,4.99-4.75,6.32-5.8,12.62-11.64,19.02-17.35,2.53-2.26,3.86-4.93,4.33-8.26.56-3.98.42-4.49-2.94-6.6-8.73-5.46-16.91-11.67-24.91-18.14-.62-.5-1.19-1.09-1.87-1.49-1.24-.72-2.09-.32-2.42,1.11-.16.67-.16,1.39-.17,2.08-.02,1.8,0,3.59,0,5.39.02,15.18.03,30.36.08,45.54,0,1.44-.36,3.02,1.29,4.61Zm-26.17-96.65c-3.81-.09-5.04,1.25-4.2,3.8.49,1.49,1.62,1.83,3.02,1.92,2.66.17,5.32.52,7.98.63,2.27.09,4.56.02,6.82-.19.59-.06,1.49-.89,1.55-1.44.06-.52-.69-1.36-1.29-1.67-.86-.45-1.89-.58-2.86-.8-2.62-.59-5.23-1.18-7.86-1.72-1.26-.26-2.54-.42-3.16-.53Zm819,16.1c.07.34.14.68.21,1.01,1.01.23,2.03.66,3.04.65,3.28-.03,6.57-.13,9.84-.4,1.97-.16,3.96-.5,5.85-1.08,1.62-.49,2.24-1.92,1.8-3.3-.46-1.43-1.64-1.73-2.89-1.5-5,.92-9.99,1.86-14.95,2.94-1.04.23-1.93,1.09-2.89,1.67ZM243.97,107.67c1.37-.04,2.4-1.74,1.51-2.76-.88-1.01-2.1-1.77-3.28-2.43-.26-.15-1.31.47-1.47.92-.55,1.54,1.65,4.31,3.24,4.27Zm37.39,40.33c-.38,1.91.47,3.18,1.88,4,.51.3,1.5.04,2.13-.25.26-.12.43-1.21.2-1.49-1.04-1.25-2.17-2.51-4.21-2.26Zm590.9,465.31c3.67.67,9.81.08,11.2-.93-2.02-.71-7.36-.34-11.2.93Zm-630.05,61.28c.19-.28.79-.76.79-1.26.01-.95-2.51-2.62-3.39-2.25-.41.17-.87.83-.88,1.28-.02,1.07,1.8,2.33,3.47,2.23Zm591.3-84.87c-1.65-1.06-3.3-2.13-5.16-3.32.48,2.91,2.17,4.15,5.16,3.32ZM108.84,719.28c-.85-.6-1.38-1.22-1.67-1.13-.64.21-1.16.78-1.72,1.2.37.36.78,1.04,1.1,1,.65-.08,1.26-.56,2.3-1.07Zm43.42-47.83c-2.36-.08-2.63.15-2.83,2.43,1.38-.36,2.58-.74,2.83-2.43Zm380.31-3.23c-.5-1.39-1.16-2.2-2.77-1.93q.49,2.23,2.77,1.93ZM322.53,103.69c.26.15.52.3.78.45.11-.39.39-.84.29-1.17-.15-.47-.55-.89-.92-1.24-.05-.05-.84.44-.81.56.12.49.43.93.67,1.39Zm-218.51,425.83c-.54,1.28-.35,2.03.76,2.12.19.02.4-.31.8-.65-.58-.54-1.07-1.01-1.56-1.47Zm47.99,236.13c-1.21-.49-1.98-.32-2.3,1.5,1.08-.7,1.69-1.1,2.3-1.5Zm44.48-235.16c.59,1.57,1.13,1.83,2.55.92-.98-.35-1.54-.56-2.55-.92Zm571.09,85.43c-.07-.05-.14-.1-.2-.15-.03.12-.07.24-.1.36.08,0,.18.04.24,0,.05-.03.04-.14.06-.22Z"/><path class="cls-2" d="m917.17,241.25c.12.13.32.27.32.4,0,.13-.22.26-.34.39-.12-.13-.33-.27-.33-.4,0-.13.22-.26.34-.39Z"/></svg>