<?xml version="1.0" encoding="UTF-8"?><svg id="Layer_2" xmlns="http://www.w3.org/2000/svg" viewBox="0 0 899.76 587.11"><defs><style>.cls-1{fill:none;stroke:#fff;stroke-miterlimit:10;stroke-width:3px;}</style></defs><g id="Layer_1-2"><line class="cls-1" x1="212.01" y1="432.45" x2="197.2" y2="445.13"/><path class="cls-1" d="m211.63,433.11c.7-7.19-3.36-15.77-9.74-23.88s-16.35-12.06-19.36-12.64-12.64,1.97-17.39,4.52-6.96-1.51-6.96-1.51l-4.17-5.8s-3.25-7.3-11.82-.58-2.49,11.19.93,17.62,6.96,3.94,6.96,3.94c0,0,6.96-1.62,13.68-3.83s12.06,0,12.06,0c0,0,16.35,11.13,20.61,24.46,1.53,4.79,1.61,7.67,1.07,9.38-.1.33-.23.62-.37.87-1.17,2.07-3.47,1.58-3.47,1.58,0,0-141.58,122.39-153.62,132.97s-20.63,2.32-20.63,2.32l-7.57-6.88-6.53-7.65s-10.23-12.47,2.84-20.46l159.02-136.58"/><path class="cls-1" d="m719.56,46.1s11.77,3.67,16.29.25c0,0,13.44-6.86,11.41-23.73s-18.55-14.52-18.55-14.52c0,0-8.36-.79-45.1-4.41s-51.4,8.99-51.4,8.99l-14.48,10.68L183.5,396.83"/><path class="cls-1" d="m734.92,8.41h12.56s13.3,2.37,13.19,19.14c0,0-.06,8.55-3.46,13.41s-6.88,8.01-9.06,8.41-12.28.21-14.31-2.04"/><path class="cls-1" d="m750.03,48.55l135.79,10.85s12.78-1.55,12.43-16.92-5.86-18.4-12.43-18.99l-131.81-11.87"/><path class="cls-1" d="m719.56,46.1s-41.86-2.77-51.62-3.5-17.33,5.93-17.33,5.93l-12.84,10.8L212.01,430.93"/><path class="cls-1" d="m715.81,6.85c1.26.12,1.14-4.52-6.73-5.28-6.99-.68-5.87,4.05-5.87,4.05"/><path class="cls-1" d="m703.14,45.01l-.53,10.73s-.38,5.58,5.96,5.96,7.41-1.65,7.83-4.57,0-11.24,0-11.24"/></g></svg>