<?xml version="1.0" encoding="UTF-8"?><svg id="Layer_1" xmlns="http://www.w3.org/2000/svg" viewBox="0 0 161.87 337.01"><defs><style>.cls-1{fill:#fff;stroke-width:0px;}</style></defs><path class="cls-1" d="M161.85,73.18c0,1.87.05,3.74-.02,5.61-.06,1.55-.18,3.12-.43,4.65-.41,2.5-2.54,4.59-5.16,4.34-1.17-.11-2.18.41-3.05,1.32-2.43,2.53-4.87,5.07-7.47,7.43-.96.87-2.3,1.43-3.57,1.82-2.03.63-3.75,1.46-5.12,3.23-.9,1.16-2.35,1.89-3.59,2.78-.44.32-.95.53-1.43.79-2.91,1.59-3.37,3.42-3.05,6.86.21,2.3.06,4.63.05,6.95,0,.47-.11.94-.14,1.42-.14,2.1-.21,4.21-.44,6.29-.2,1.79-1.5,3.02-2.98,3.62-2.81,1.15-3.78,3.28-3.96,6.03-.1,1.49-.16,2.99-.2,4.48-.15,5.17-.28,10.35-.42,15.52-.12,4.29-4.2,7.16-7.39,7.1-1.55-.03-3.12.14-4.65.39-2.17.35-2.72.7-2.52,3.43.2,2.74.29,5.49.42,8.24.03.65-.04,1.3.01,1.95.22,2.78-.48,5.45-.86,8.17-.36,2.55-.74,5.11-.78,7.67-.1,6.69.03,13.39-.03,20.08-.04,4.05-.27,8.09-.39,12.14-.15,4.83-.26,9.67-.43,14.5-.03.83-.08,1.75-.42,2.48-.97,2.06-.44,4.14-.34,6.22.02.47.15.94.15,1.41.02,2.7.03,5.4,0,8.1-.05,4.74-.14,9.48-.2,14.22-.08,6.86-.16,13.71-.19,20.57-.01,2.66.12,5.31.19,7.97.06,1.9.2,3.81.19,5.71-.02,3.58-.1,7.16-.2,10.73-.07,2.62-1.56,4.5-3.45,6.09-1.68,1.41-3.3,2.84-4.47,4.73-.44.71-1.11,1.29-1.73,1.87-1.83,1.73-3.73,3.39-5.53,5.15-1.24,1.22-2.64,1.85-4.38,1.77-1.16-.06-2.32.02-3.47-.11-2.4-.28-4.17-1.78-5.46-3.61-2.74-3.89-6.26-7.02-9.5-10.42-3.79-3.98-7.54-7.98-11.34-11.95-1.34-1.4-1.84-3.1-2.1-4.95-.32-2.31-.57-4.64-1.13-6.89-.29-1.16-1.09-2.25-1.85-3.21-2.18-2.76-3.03-5.88-2.26-9.26.31-1.35,1.36-2.54,2.15-3.76.5-.77,1.09-1.49,1.73-2.15,1.77-1.79,1.94-6.67.56-8.73-.71-1.07-1.26-2.25-1.92-3.35-.93-1.53-1.26-3.16-1.2-4.96.04-1.2.38-2.18,1.13-3.07,1.47-1.75,2.97-3.47,4.43-5.23,1.04-1.25,1.38-2.72,1.48-4.34.2-3.26-.5-6.18-2.57-8.77-1.47-1.83-1.24-4.04-1.08-6.17.04-.57.57-1.14.96-1.64,1.28-1.64,2.57-3.27,3.9-4.87,1.19-1.43,1.68-3.05,1.65-4.89-.02-1.05.08-2.1.19-3.15.2-1.91-.93-3.19-2.03-4.5-.79-.94-1.53-1.91-2.32-2.85-1.52-1.83-1.98-4.01-1.53-6.22.24-1.18,1.19-2.22,1.84-3.32.72-1.21,1.86-2.34,2.1-3.64.4-2.13.36-4.41-.66-6.44-.79-1.57-1.77-3.05-2.63-4.58-1.42-2.51-2.9-4.99-4.18-7.57-1.02-2.05-.65-4.34-.6-6.53.04-2.1.29-4.2.37-6.3.07-1.86.02-3.72,0-5.58,0-1.05-.49-1.7-1.6-1.84-.83-.11-1.66-.3-2.49-.45-3.49-.62-5.1-3.09-5.91-6.22-.32-1.23-.4-2.54-.42-3.82-.06-3.28-.07-6.56,0-9.84.05-2.44.32-4.88.36-7.33.03-1.78-.29-3.37-2.02-4.56-2.81-1.94-4.8-4.57-4.91-8.16-.1-3.29.02-6.59-.05-9.88-.05-2.15.45-4.33-.18-6.46-.1-.33-.28-.75-.55-.9-2.53-1.46-4.33-3.65-5.89-6.01-1.25-1.89-2.72-3.05-5.05-3.22-2.61-.2-4.31-1.94-5.81-3.91-.97-1.27-2.07-2.45-2.98-3.77-1.02-1.48-2.54-1.74-4.08-1.88-3.65-.33-5.46-2.69-6.53-5.83-.31-.91-.4-1.92-.41-2.89-.04-4.54-.03-9.09,0-13.63,0-.81.11-1.62.26-2.42.48-2.49,2.52-4.33,5.2-4.41,1.41-.04,2.81-.4,4.21-.55.76-.08,1.07-.52,1.38-1.15,1.77-3.52,4.62-5.8,8.33-6.99.92-.3,1.93-.3,2.87-.53.88-.21,1.5-.77,2.04-1.54,1.53-2.16,3.13-4.27,4.81-6.32.4-.49,1.21-.86,1.84-.88,1.3-.04,2.64.09,3.92.37.98.22,1.8.13,2.6-.38,1.31-.84,2.63-1.69,3.91-2.57.26-.18.42-.53.59-.82,5.64-9.58,11.28-19.16,16.89-28.76,2.13-3.65,5.48-5.42,9.4-6.4.29-.07.61-.03.92-.03,5.05,0,10.11-.05,15.16.02,3.98.05,7.96.24,11.93.4,1.18.05,2.36.23,3.54.29,2.6.14,4.08,1.83,5.25,3.85,3.04,5.23,6.03,10.49,9.03,15.75,2.56,4.49,5.17,8.95,7.65,13.48.89,1.62,2.3,2.43,3.82,3.2.24.12.59.09.88.07,1.44-.11,2.88-.31,4.33-.35.92-.02,1.92,1.48,1.96,2.75.02.75-.06,1.51.04,2.25.23,1.61,1.08,2.89,2.23,4.01,1.79,1.74,3.5,3.55,5.3,5.27.55.52,1.24.98,1.95,1.22,3.49,1.15,6.14,3.32,8.02,6.44.99,1.64,2.52,2.4,4.28,2.84,2.07.52,3.97,1.3,5.44,2.97.8.91,1.33,1.91,1.39,3.08.08,1.87.02,3.74.02,5.61h.41ZM159.51,74.27s-.08,0-.12,0c0-1.87.07-3.74-.02-5.61-.07-1.48-.66-2.81-2.03-3.55-1-.54-2.07-1.04-3.16-1.31-2.57-.63-4.65-1.89-5.99-4.21-1.47-2.56-3.71-4.06-6.4-5.1-1.1-.43-2.17-1.12-3.05-1.93-1.81-1.65-3.48-3.47-5.22-5.19-1.27-1.26-2.45-2.58-2.71-4.44-.11-.8-.05-1.63-.09-2.45-.06-1.48-.38-1.8-1.82-1.7-.56.04-1.1.35-1.66.4-.79.08-1.69.27-2.36,0-2.23-.92-4.02-2.33-5.27-4.56-5.38-9.61-10.92-19.13-16.32-28.73-1.13-2-2.67-3.08-4.92-3.2-3.97-.21-7.94-.4-11.91-.62-2.2-.12-4.41-.21-6.61-.43-4.01-.39-7.97-.39-11.87.84-3.18,1-5.91,2.52-7.45,5.69-.62,1.28-1.44,2.46-2.17,3.7-4.65,7.91-9.32,15.82-13.93,23.76-.76,1.3-1.53,2.47-3.03,3-.46.16-.81.62-1.26.86-1.15.62-2.26,1.49-3.49,1.72-1.14.21-2.43-.21-3.63-.46-1.35-.28-2.35-.01-3.14,1.08-1.27,1.77-2.54,3.53-3.73,5.35-.9,1.37-2.11,2.14-3.69,2.46-1.28.26-2.7.3-3.8.91-2.48,1.36-4.84,2.96-5.79,5.9-.29.9-1,1.45-1.95,1.58-1.54.22-3.08.4-4.62.62-2.2.32-3.38.57-3.84,3.11-.16.89-.33,1.79-.37,2.7-.06,1.53.13,3.09-.05,4.61-.36,3.07-.27,6.13.29,9.13.59,3.13,2.19,5.29,5.59,5.47,2.02.11,3.7.87,4.92,2.61,1,1.42,2.21,2.68,3.25,4.08,1.1,1.49,2.42,2.59,4.32,2.74,2.93.23,4.98,1.74,6.4,4.23.05.09.11.17.17.26,1.46,1.98,2.92,3.93,5.2,5.11.48.25.97.87,1.08,1.39.3,1.38.53,2.8.53,4.2,0,1.93-.32,3.86-.35,5.79-.03,2.31.02,4.63.2,6.94.23,2.97,1.55,5.43,4.09,7.04,2.07,1.31,2.93,3.14,2.84,5.47-.09,2.31-.37,4.61-.37,6.92-.01,4.29-.16,8.62.26,12.87.39,3.89,1.73,5.8,5.02,6.32.57.09,1.14.16,1.7.28,1.54.32,3.13.6,3.39,2.6.11.81.26,1.62.25,2.42-.03,2.72-.11,5.45-.2,8.17-.04,1.08-.23,2.17-.23,3.25,0,1.44-.24,3.03.27,4.29,1.1,2.68,2.48,5.28,4.01,7.75,1.43,2.31,3.09,4.48,3.62,7.21.2,1.02,0,2.12.19,3.15.4,2.25.02,4.24-1.5,5.99-.52.59-1,1.21-1.48,1.83-1.52,1.98-1.69,3.21-.33,5.29,1.19,1.81,2.61,3.47,3.94,5.2.88,1.14,1.39,2.42,1.32,3.86-.08,1.59-.33,3.17-.35,4.76-.02,1.84-.47,3.46-1.65,4.89-1.35,1.62-2.62,3.32-3.99,4.93-.98,1.15-1.25,2.42-.71,3.78.39.97.99,1.84,1.47,2.77.54,1.05,1.16,2.07,1.56,3.17.75,2.05.48,4.19.47,6.32,0,2.21-.71,4.04-2.13,5.66-1.26,1.43-2.49,2.9-3.75,4.34-1.28,1.47-1.51,3.05-.56,4.78.81,1.48,1.66,2.95,2.41,4.47.41.84.8,1.75.89,2.65.15,1.47.02,2.96.04,4.45.03,1.47-.52,2.69-1.4,3.83-1.17,1.5-2.36,3-3.37,4.61-.44.7-.71,1.67-.65,2.49.17,2.24,1.01,4.24,2.46,6.02.77.95,1.55,2.06,1.84,3.22.56,2.25.79,4.59,1.11,6.89.26,1.85.79,3.54,2.13,4.94,3.94,4.11,7.82,8.28,11.77,12.39,2.93,3.05,6.16,5.81,8.53,9.37.32.48.74.9,1.14,1.31,2.31,2.32,7.58,3.1,10.14-.38,1.09-1.48,2.72-2.56,4.09-3.83.57-.53,1.26-1.01,1.65-1.65,1.38-2.26,3.35-3.93,5.34-5.6,1.57-1.31,2.47-3.03,2.5-5.04.08-4.83.05-9.67.02-14.5-.02-2.66-.19-5.31-.18-7.97.03-7.54.12-15.08.19-22.62.06-5.53.18-11.05.18-16.58,0-2.48-.24-4.95-.38-7.43-.12-2.03-.27-4.04.59-5.99.33-.74.38-1.65.41-2.48.17-4.8.28-9.6.42-14.4.13-4.63.34-9.26.39-13.89.07-6.47-.02-12.95.04-19.42.02-1.69.28-3.37.53-5.05.31-2.14.98-4.25,1.03-6.39.09-4.21.29-8.42-.47-12.63-.49-2.71.31-4.87,3.61-5.38,1.67-.26,3.37-.31,5.06-.42,2.33-.14,5.14-1.46,5.71-4.33.15-.76.25-1.54.28-2.31.09-2.83.15-5.65.21-8.48.07-3.1.12-6.2.22-9.3.03-.91.12-1.83.3-2.72.52-2.7,1.9-4.75,4.58-5.76,1.26-.48,2.14-1.38,2.26-2.76.26-2.94.53-5.89.61-8.83.07-2.62-.11-5.24-.18-7.86-.04-1.47.39-2.81,1.51-3.74,1.3-1.07,2.76-1.96,4.13-2.94,1.06-.77,2.33-1.4,3.1-2.4,1.31-1.71,2.89-2.76,4.92-3.39,1.43-.45,2.98-.97,4.08-1.93,2.41-2.1,4.66-4.4,6.8-6.78,1.29-1.44,2.69-2.1,4.6-2.13,2.08-.03,2.81-.82,3.07-2.23.36-1.95.59-3.94.73-5.92.07-1.07-.16-2.16-.26-3.24Z"/></svg>