<?xml version="1.0" encoding="UTF-8"?><svg id="Layer_1" xmlns="http://www.w3.org/2000/svg" viewBox="0 0 127.3 601.06"><defs><style>.cls-1,.cls-2{fill:none;stroke:#fff;stroke-width:2px;}.cls-2{stroke-miterlimit:10;}</style></defs><path class="cls-1" d="m1.04,39.58l3.31-5.03c.04-.07.11-.11.18-.14l52.55-15.25c.13-.04.23-.15.24-.29.05-.61.3-2.27,1.67-2.66,1.68-.48,3.36-.12,3.36-.12l.84-.48s2.52-1.44,1.8-2.4c-.1-.13-.2-.28-.32-.44-.94-1.36-.39-3.24,1.14-3.86,4.33-1.75,12.82-5.05,20.28-7.09,10.41-2.84,22.21,2.6,22.54,2.76t.02.01l9.22,5.51s11.87,6.96,7.44,8.64c-4.44,1.68-28.79,11.15-33.22,10.44-3.95-.64-7.81-2.99-8.61-3.5-.09-.06-.2-.07-.3-.02-.33.15-1.14.47-1.89.28-.75-.19-1.58-1.04-1.9-1.4-.09-.1-.22-.13-.34-.09-1.29.45-8.31,2.9-9.51,3.77s-2.38-.71-2.6-1.03c-.03-.04-.06-.07-.1-.09l-1.49-.85c-.08-.05-.18-.06-.27-.03-1.18.39-9.44,3.15-10.77,4.15-1.11.83-2.36-.33-2.87-.91-.13-.15-.36-.15-.49,0-.55.64-1.91,2.1-2.75,2.1-1.08,0-5.64-2.04-6.6-2.04-.84,0-3.06,2.49-3.6,3.1-.08.09-.19.12-.3.1l-5.82-1.01c-.14-.02-.28.04-.34.16-.52.91-2.67,4.59-3.72,4.59-.92,0-2.25-1.19-2.83-1.75-.15-.15-.4-.12-.51.06l-2.3,3.67c-.07.11-.2.17-.33.15l-5.61-.77c-.16-.02-.32.08-.36.24-.18.68-.72,2.39-1.49,2.48-.84.1-10.58-.35-13.07-.47-.26,0-.4-.3-.26-.51l-.02.02Z"/><path class="cls-2" d="m1.33,39.68l13.51,557.59s8.42,3.79,9.68,2.53,2.1-2.95,2.1-2.95c0,0,3.99-1.04,4.68-1.47s1.47-3.12,1.47-3.12c0,0,3.21.09,4.25,0s2.34-2.77,2.34-2.77c0,0,2.95-.52,4.51-.69s2.25-2.6,2.25-2.6c0,0,5.2.09,6.07.09s2.17-1.82,2.17-1.82c0,0,3.12.17,3.81.09s8.41-3.81,8.41-3.81c0,0,2.86.87,4.25.78s6.24-2.69,6.24-2.69c0,0,4.59,2.86,7.8,2.86s7.97.17,10.31-.61c0,0,18.96-6.18,20.34-11.02S126.27,17.69,126.27,17.69"/><line class="cls-2" x1="1.19" y1="38.99" x2="72.21" y2="17.71"/><line class="cls-2" x1="43.93" y1="29.83" x2="71.04" y2="22.11"/><path class="cls-2" d="m104.17,8.28c.21-.06,3.16-.92,5.57.9.68.52,1.44,1.09,1.35,1.71-.19,1.34-4.2,2.12-7.45,1.35-.84-.2-2.47-.59-2.6-1.44-.15-.97,1.75-2.09,3.14-2.51h-.01Z"/><line class="cls-2" x1="14.36" y1="40.56" x2="26.62" y2="596.85"/><line class="cls-2" x1="21.83" y1="38.61" x2="32.77" y2="592.25"/><line class="cls-2" x1="27.8" y1="36.48" x2="39.36" y2="589.48"/><line class="cls-2" x1="37.99" y1="32.63" x2="46.12" y2="586.19"/><line class="cls-2" x1="54.35" y1="584.45" x2="48.19" y2="31.56"/><line class="cls-2" x1="66.94" y1="27.18" x2="66.58" y2="580.73"/><line class="cls-2" x1="81.29" y1="25.93" x2="77.06" y2="578.82"/></svg>