<?xml version="1.0" encoding="UTF-8"?><svg id="Layer_1" xmlns="http://www.w3.org/2000/svg" viewBox="0 0 210.79 622.59"><defs><style>.cls-1{stroke:#fff;stroke-miterlimit:10;}</style></defs><path class="cls-1" d="m24.02.5c.44.25.86.58,1.33.72,1.6.49,3.22.93,4.84,1.37.77.21,1.2.6,1.28,1.48.84,8.34,1.73,16.68,2.58,25.02.76,7.43,1.47,14.86,2.23,22.28.75,7.35,1.55,14.69,2.32,22.03.29,2.74.55,5.48.78,8.23.1,1.15.37,1.85,1.79,1.97,5.25.44,10.48,1.04,15.72,1.58,5.12.53,10.23,1.08,15.35,1.6,4.92.51,9.84.99,14.76,1.5,6.03.62,12.06,1.24,18.09,1.86,4.8.49,9.6.99,14.41,1.47,1.19.12,1.47-.2,1.3-1.48-.89-6.49-1.78-12.98-2.67-19.47-1.17-8.55-2.34-17.1-3.51-25.64-.77-5.66-1.54-11.32-2.33-16.98-.28-2-.29-1.95,1.64-2.56,6.64-2.07,13.28-4.11,19.87-6.3,1.43-.48,2.53.03,3.79.33,1.78.43,2.51,1.39,2.72,3.27,1.21,10.79,2.55,21.57,3.86,32.35,1.08,8.88,2.19,17.75,3.27,26.63,1.16,9.59,2.28,19.19,3.45,28.78,1.31,10.78,2.67,21.56,3.98,32.34,1.09,8.96,2.13,17.92,3.21,26.88.99,8.13,2.02,16.25,3.01,24.37.92,7.57,1.81,15.15,2.73,22.72.92,7.53,1.86,15.06,2.78,22.59.92,7.57,1.81,15.15,2.73,22.72.84,6.9,1.7,13.79,2.54,20.69.83,6.86,1.65,13.72,2.48,20.58.92,7.61,1.87,15.22,2.79,22.83.83,6.86,1.65,13.72,2.48,20.58.92,7.61,1.87,15.22,2.79,22.83.84,6.9,1.65,13.8,2.49,20.69.92,7.57,1.86,15.14,2.78,22.71.84,6.9,1.66,13.8,2.49,20.69.92,7.57,1.86,15.14,2.78,22.71.77,6.34,1.51,12.69,2.28,19.03.66,5.43,1.34,10.86,2,16.29.78,6.38,1.53,12.77,2.31,19.15.66,5.43,1.34,10.86,2,16.29.77,6.34,1.53,12.69,2.3,19.03.92,7.57,1.86,15.14,2.78,22.71.85,6.98,1.66,13.96,2.52,20.93.35,2.89.77,5.77,1.16,8.65v1.2c-1.6.63-3.23,1.17-4.78,1.9-2.42,1.14-5.05,1.1-7.6,1.44-5.1.68-10.22,1.23-15.33,1.86-1.65.2-1.85.06-2.05-1.58-.75-6.18-1.54-12.36-2.3-18.54-.92-7.49-1.81-14.98-2.73-22.47-1-8.16-2.02-16.33-3.02-24.49-.84-6.9-1.67-13.79-2.5-20.69-.56-4.64-1.14-9.27-1.69-13.91-.09-.77-.47-1-1.21-.91-3.25.38-6.5.72-9.75,1.09-6.03.68-12.05,1.37-18.07,2.06-5.19.59-10.38,1.2-15.57,1.8-5.87.68-11.73,1.35-17.6,2.02-5.07.58-10.15,1.15-15.22,1.7-.96.1-1.2.63-1.08,1.48.43,3.21.87,6.41,1.28,9.62.93,7.21,1.84,14.42,2.76,21.63.91,7.09,1.83,14.18,2.74,21.27.93,7.25,1.84,14.5,2.78,21.75.82,6.42,1.66,12.83,2.49,19.25.37,2.89.7,5.79,1.12,8.67.15,1-.21,1.39-1.11,1.74-4.98,1.99-10.21,2.82-15.49,3.51-4.83.63-9.64,1.36-14.46,2.05-1.54.22-1.69.08-1.86-1.46-.67-5.95-1.37-11.9-2.05-17.85-.68-5.99-1.34-11.98-2.02-17.97-.75-6.54-1.52-13.09-2.28-19.63-.69-5.99-1.35-11.98-2.03-17.97-.59-5.2-1.2-10.39-1.8-15.59-.68-5.99-1.35-11.98-2.04-17.97-.59-5.2-1.2-10.39-1.79-15.59-.68-5.99-1.36-11.98-2.04-17.97-.59-5.2-1.2-10.39-1.79-15.59-.68-5.99-1.36-11.98-2.04-17.97-.59-5.2-1.19-10.39-1.79-15.59-.69-6.03-1.37-12.06-2.05-18.09-.59-5.16-1.19-10.31-1.78-15.47-.69-6.03-1.37-12.06-2.06-18.09-.59-5.2-1.2-10.39-1.79-15.59-.68-5.99-1.36-11.98-2.04-17.97-.59-5.2-1.2-10.39-1.79-15.59-.68-5.99-1.36-11.98-2.04-17.97-.59-5.2-1.19-10.39-1.79-15.59-.69-6.03-1.37-12.06-2.05-18.09-.58-5.12-1.17-10.23-1.76-15.35-.69-5.99-1.38-11.98-2.07-17.97-.77-6.7-1.55-13.4-2.32-20.11-.76-6.66-1.49-13.33-2.25-20-.75-6.55-1.52-13.09-2.27-19.63-.69-5.99-1.36-11.98-2.04-17.97-.59-5.2-1.2-10.39-1.79-15.59-.68-5.99-1.36-11.98-2.05-17.97-.59-5.2-1.19-10.39-1.79-15.59-.69-6.03-1.37-12.06-2.05-18.09-.59-5.16-1.19-10.31-1.78-15.47-.69-6.03-1.37-12.06-2.06-18.09-.59-5.2-1.2-10.39-1.79-15.59-.68-5.99-1.36-11.98-2.04-17.97-.59-5.2-1.19-10.39-1.79-15.59-.18-1.59-.36-3.17-.58-4.76-.14-1.02.22-1.63,1.18-2.06C8.41,7.67,15.1,4.62,21.78,1.57c.69-.31,1.33-.71,2-1.07.08,0,.16,0,.24,0Zm69.96,616.21c-.04-.24-.08-.47-.11-.71-.44-3.81-.88-7.62-1.31-11.43-.61-5.36-1.22-10.71-1.84-16.07-.58-5.08-1.18-10.16-1.76-15.23-.61-5.32-1.22-10.63-1.83-15.95-.59-5.08-1.18-10.16-1.76-15.23-.61-5.32-1.22-10.63-1.83-15.95-.59-5.08-1.18-10.16-1.76-15.23-.61-5.32-1.22-10.63-1.83-15.95-.59-5.08-1.18-10.15-1.77-15.23-.61-5.32-1.22-10.63-1.83-15.95-.59-5.08-1.18-10.15-1.77-15.23-.61-5.32-1.22-10.63-1.83-15.95-.59-5.08-1.18-10.15-1.77-15.23-.61-5.32-1.22-10.63-1.83-15.95-.59-5.08-1.18-10.15-1.77-15.23-.61-5.32-1.21-10.63-1.83-15.95-.59-5.08-1.18-10.15-1.77-15.23-.61-5.32-1.21-10.63-1.83-15.95-.59-5.08-1.18-10.15-1.77-15.23-.61-5.32-1.21-10.63-1.83-15.95-.59-5.08-1.18-10.15-1.77-15.23-.62-5.36-1.23-10.71-1.84-16.07-.58-5.04-1.17-10.08-1.75-15.11-.62-5.36-1.23-10.71-1.84-16.07-.58-5.04-1.17-10.08-1.75-15.11-.62-5.36-1.23-10.71-1.84-16.07-.58-5.04-1.17-10.08-1.75-15.11-.62-5.36-1.22-10.71-1.84-16.07-.58-5.04-1.17-10.08-1.75-15.11-.62-5.36-1.22-10.71-1.84-16.07-.58-5.04-1.18-10.08-1.75-15.11-.6-5.28-1.19-10.56-1.8-15.83-.66-5.71-1.36-11.42-2.02-17.13-.77-6.7-1.5-13.41-2.27-20.12-.58-5.04-1.22-10.07-1.8-15.11-.85-7.42-1.65-14.84-2.5-22.26-.66-5.75-1.38-11.5-2.05-17.25-.99-8.57-1.95-17.14-2.91-25.71-.08-.71-.37-.94-1.01-.66-.99.43-1.97.87-2.95,1.31-5.52,2.52-11.05,5.04-16.57,7.55-.71.32-1.03.75-.92,1.58.33,2.57.6,5.16.89,7.73,1.13,10.04,2.26,20.08,3.4,30.12.95,8.37,1.9,16.74,2.87,25.11,1.01,8.81,2.05,17.61,3.06,26.42.62,5.36,1.2,10.72,1.81,16.07.74,6.47,1.52,12.93,2.26,19.4.77,6.74,1.49,13.49,2.26,20.24.74,6.47,1.54,12.93,2.28,19.39.85,7.5,1.65,15.01,2.5,22.5.74,6.47,1.55,12.93,2.29,19.39,1.09,9.56,2.13,19.13,3.21,28.69.94,8.37,1.9,16.74,2.87,25.11,1.02,8.85,2.06,17.69,3.07,26.54,1.23,10.75,2.42,21.51,3.64,32.26,1.19,10.47,2.38,20.95,3.6,31.42,1.07,9.28,2.2,18.56,3.26,27.84,1.18,10.32,2.29,20.64,3.46,30.96,1.18,10.48,2.39,20.95,3.59,31.42,1.02,8.85,2.05,17.69,3.07,26.54.65,5.59,1.28,11.19,1.92,16.78.55,4.8,1.11,9.6,1.66,14.4.7,6.15,1.38,12.3,2.08,18.45.5,4.4,1.02,8.81,1.52,13.21.69,6.03,1.36,12.06,2.05,18.09.58,5.08,1.19,10.15,1.77,15.23.7,6.15,1.39,12.3,2.08,18.45.6,5.28,1.19,10.56,1.79,15.83.34,2.98.67,5.95,1.01,8.93.1.87.44,1.26,1.43,1.05,1.32-.28,2.68-.39,4.03-.58,5.45-.78,10.9-1.58,16.36-2.35.68-.1,1.19-.25,1.08-1.08Zm109.89-15.72c1.72-.7,3.18-1.24,4.58-1.89.25-.12.43-.72.39-1.07-.29-2.78-.63-5.55-.96-8.33-.83-6.98-1.65-13.96-2.49-20.94-.59-4.88-1.23-9.75-1.82-14.62-.85-6.98-1.66-13.96-2.5-20.94-.59-4.88-1.23-9.75-1.82-14.63-.84-6.94-1.65-13.88-2.49-20.82-.59-4.88-1.23-9.75-1.82-14.62-.77-6.34-1.5-12.69-2.26-19.04-.59-4.88-1.23-9.75-1.82-14.63-.84-6.94-1.64-13.88-2.49-20.82-.92-7.53-1.87-15.06-2.79-22.59-.84-6.94-1.64-13.88-2.49-20.82-.92-7.57-1.88-15.14-2.8-22.71-.84-6.9-1.64-13.8-2.48-20.7-.59-4.88-1.23-9.75-1.83-14.62-.85-6.98-1.65-13.96-2.5-20.94-.91-7.53-1.87-15.06-2.78-22.59-.84-6.94-1.65-13.88-2.49-20.82-.92-7.53-1.87-15.06-2.78-22.59-.84-6.94-1.64-13.88-2.49-20.82-.92-7.53-1.87-15.06-2.79-22.59-.84-6.94-1.64-13.88-2.49-20.82-.92-7.53-1.87-15.06-2.79-22.59-.92-7.57-1.8-15.15-2.72-22.72-.91-7.45-1.87-14.9-2.77-22.35-1.17-9.63-2.29-19.27-3.45-28.91-1.02-8.49-2.05-16.97-3.09-25.45-1.27-10.39-2.55-20.77-3.82-31.16-.21-1.71-.95-2.26-2.99-2.16.1,1.22.19,2.43.3,3.65.43,4.53.88,9.06,1.3,13.59.44,4.69.86,9.38,1.3,14.07.52,5.49,1.05,10.97,1.58,16.45.45,4.69.9,9.38,1.35,14.07.35,3.74.69,7.47,1.06,11.21.1,1.03-.1,1.52-1.35,1.38-5.03-.57-10.08-1.02-15.12-1.53-9.01-.93-18.02-1.88-27.03-2.8-9.76-1-19.53-1.96-29.3-2.95-10.08-1.02-20.16-2.07-30.25-3.09-1.01-.1-1.44-.53-1.54-1.57-.54-5.64-1.13-11.28-1.72-16.92-.6-5.8-1.23-11.59-1.82-17.39-.6-5.88-1.17-11.76-1.77-17.64-.6-5.88-1.23-11.75-1.84-17.63-.28-2.7-.49-5.41-.8-8.11-.06-.56-.26-1.43-.62-1.57-1.72-.65-3.51-1.1-5.47-1.67,23.66,205.18,47.28,410.04,70.92,615.12,2.17-.74,4.04-1.31,5.85-2.03.3-.12.55-.86.51-1.28-.46-4.01-.98-8.01-1.5-12.01-.66-5.07-1.34-10.14-1.98-15.21-.85-6.7-1.68-13.39-2.53-20.09-.83-6.46-1.69-12.91-2.53-19.37-.94-7.29-1.86-14.58-2.79-21.87-.6-4.68-1.17-9.35-1.8-14.02-.13-.97.14-1.36,1.14-1.47,5-.52,10-1.09,14.99-1.66,9.51-1.09,19.03-2.21,28.54-3.3,5.35-.62,10.71-1.2,16.06-1.81,5.07-.58,10.15-1.2,15.22-1.78,6.18-.71,12.37-1.4,18.56-2.1,2.42-.27,4.84-.54,7.26-.82.64-.07,1.06.03,1.15.81.54,4.56,1.12,9.12,1.68,13.68.86,7.02,1.7,14.04,2.56,21.05.56,4.56,1.17,9.11,1.72,13.67.93,7.65,1.83,15.31,2.77,22.96.99,8.05,2.01,16.09,3.01,24.14.25,1.97.48,3.94.76,6.17Zm-34.4-97.71c.45,3.69.87,7.14,1.29,10.59.83,6.86,1.65,13.72,2.49,20.58.83,6.78,1.7,13.55,2.53,20.33.85,6.9,1.66,13.8,2.5,20.7.83,6.78,1.69,13.55,2.53,20.33.28,2.26.51,4.52.79,6.78.08.64.19,1.3,1.14,1.18,6.14-.76,12.28-1.49,18.42-2.25,1.48-.18,1.57-.36,1.38-1.85-1.28-10.39-2.55-20.77-3.83-31.16-1.36-11.06-2.72-22.12-4.09-33.18-1.41-11.38-2.83-22.75-4.24-34.12-.18-1.45-.28-1.5-1.73-1.33-5.94.69-11.89,1.39-17.84,2.02-1.13.12-1.68.43-1.34,1.39ZM134.71,20.36c-.42.06-.7.06-.95.14-6.4,2.02-12.79,4.06-19.2,6.06-.91.28-1.17.8-1.05,1.7.88,6.21,1.74,12.42,2.59,18.63,1.12,8.15,2.21,16.3,3.33,24.46.86,6.33,1.75,12.66,2.59,19,.06.48-.13.99-.21,1.49,2.92.31,5.98.64,9.03.96,3.17.33,6.35.65,9.53.98.96.1,1.46-.17,1.27-1.25-.13-.78-.14-1.59-.22-2.38-.69-7.11-1.4-14.22-2.08-21.34-.68-7.19-1.32-14.39-2-21.59-.7-7.47-1.41-14.94-2.13-22.42-.14-1.46-.33-2.91-.51-4.44Z"/><path class="cls-1" d="m115.91,297.98c16.7,0,33.39,0,50.09,0,1.52,0,1.97-.27,2.22,1.9,1.27,10.71,2.65,21.4,4.01,32.1,1.06,8.4,2.16,16.79,3.22,25.19.93,7.37,1.83,14.74,2.74,22.12.37,2.97.74,5.94,1.12,8.91.19,1.43.04,1.63-1.35,1.7-6.89.32-13.79.64-20.68.97-6.81.32-13.63.64-20.44.96-5.1.24-10.2.48-15.3.72-6.77.32-13.55.64-20.32.96-5.18.24-10.36.48-15.54.73-3.19.15-6.38.29-9.56.47-1.04.06-1.49-.27-1.6-1.37-.75-6.99-1.55-13.97-2.35-20.95-.58-5.08-1.2-10.15-1.78-15.23-.7-6.11-1.36-12.22-2.06-18.33-.58-5.08-1.19-10.15-1.77-15.23-.7-6.11-1.37-12.22-2.06-18.33-.2-1.79-.47-3.56-.66-5.35-.19-1.78-.03-1.94,1.74-1.94,16.78,0,33.55,0,50.33,0Zm-37.88,95.47s0,.03,0,.05c.95-.09,1.9-.21,2.86-.26,5.1-.25,10.2-.48,15.3-.73,5.02-.24,10.04-.48,15.06-.72,6.81-.32,13.62-.66,20.44-.96,6.14-.27,12.28-.5,18.41-.76,1.35-.06,2.71-.17,4.06-.22.72-.03.99-.32.9-1.06-.26-2.14-.48-4.28-.72-6.43-.69-6.11-1.39-12.22-2.06-18.33-.68-6.11-1.32-12.22-2-18.33-.76-6.82-1.55-13.64-2.31-20.47-.74-6.67-1.47-13.33-2.18-20-.08-.71-.42-1.01-1.09-.97-.84.05-1.67.18-2.5.19-5.95.09-11.9.17-17.84.25-5.63.08-11.26.16-16.89.24-6.23.08-12.46.17-18.68.24-7.23.09-14.45.17-21.68.25-1.3.02-1.39.17-1.22,1.52.3,2.38.56,4.76.83,7.14.68,5.99,1.36,11.98,2.04,17.97.59,5.2,1.2,10.39,1.79,15.59.68,5.99,1.36,11.98,2.04,17.97.6,5.32,1.21,10.63,1.82,15.95.41,3.57.82,7.14,1.22,10.71.09.81.48,1.23,1.33,1.18.36-.02.72,0,1.08,0Zm80.63-3.85c4.41-.18,8.39-.33,12.38-.51,2.03-.09,4.06-.26,6.09-.38.76-.05,1-.37.9-1.17-.96-7.61-1.86-15.22-2.82-22.83-.98-7.8-2.02-15.6-3-23.4-1.7-13.55-3.39-27.1-5.04-40.66-.14-1.16-.58-1.26-1.56-1.03-5.62,1.38-11.26,2.71-16.89,4.06-1.86.45-1.87.46-1.66,2.37.64,5.79,1.28,11.59,1.93,17.38,1.25,11.15,2.51,22.29,3.76,33.44,1.12,10.04,2.28,20.07,3.32,30.12.33,3.22.56,2.55,2.6,2.6Zm2.95-90.19c0-.07-.02-.14-.03-.21-.39,0-.77,0-1.16,0-31.15,0-62.3,0-93.45,0-.32,0-.64.01-.96,0-.72-.01-1.03.33-.93,1.04.14,1.03.31,2.06.38,3.09.05.76.39.91,1.07.88,2.79-.1,5.58-.19,8.37-.23,5.87-.1,11.73-.17,17.6-.25,5.83-.08,11.65-.17,17.48-.24,8.34-.1,16.68-.25,25.03-.24,6.32,0,12.6-.07,18.73-1.94,2.58-.79,5.24-1.29,7.87-1.92Z"/><path class="cls-1" d="m163.65,290.34c-9.7,0-19.41-.03-29.11,0-8.71.04-17.41.15-26.12.23-9.1.08-18.21.15-27.31.24-5.63.06-11.26.15-16.89.22-1.52.02-1.67-.16-1.84-1.69-.78-7.02-1.58-14.05-2.37-21.07-1.07-9.56-2.12-19.13-3.2-28.69-.91-8.09-1.87-16.18-2.78-24.28-.79-7.02-1.53-14.05-2.33-21.08-.11-.94.31-1.13,1.07-1.09,3.71.19,7.41.37,11.12.57,1.95.11,3.9.26,5.85.35,5.5.26,11,.49,16.5.76,7.85.39,15.7.8,23.55,1.21,4.5.23,9,.46,13.5.71,6.73.37,13.46.77,20.19,1.14,3.67.2,7.33.36,11,.52,1.52.07,1.7.23,1.88,1.7,1.08,8.64,2.19,17.28,3.27,25.92.93,7.45,1.82,14.91,2.75,22.36.99,7.89,2,15.77,3,23.65.72,5.63,1.44,11.25,2.17,16.88.11.84-.21,1.2-1.04,1.19-.96-.01-1.92,0-2.88,0,0,.08,0,.16,0,.25Zm-25.36-.99c0-.08,0-.17,0-.25,1.36,0,2.72-.04,4.07.01,1.02.04,1.36-.4,1.24-1.38-.28-2.22-.52-4.44-.79-6.66-.68-5.67-1.38-11.33-2.05-17-.84-7.1-1.65-14.2-2.49-21.29-.77-6.5-1.55-13-2.33-19.5-.55-4.56-1.11-9.11-1.64-13.67-.08-.72-.34-1.06-1.1-1.09-3.31-.14-6.61-.31-9.92-.48-3.19-.17-6.37-.33-9.56-.51-5.29-.3-10.59-.62-15.88-.91-3.46-.19-6.93-.33-10.4-.52-6.45-.37-12.89-.78-19.34-1.14-3.82-.21-7.65-.32-11.47-.54-2.7-.15-2.65-.2-2.34,2.43.8,6.74,1.56,13.48,2.32,20.22.76,6.7,1.49,13.41,2.25,20.11.76,6.74,1.54,13.48,2.31,20.23.79,6.98,1.61,13.96,2.33,20.95.13,1.22.58,1.52,1.72,1.49,5.51-.12,11.02-.19,16.52-.25,8.74-.09,17.49-.2,26.23-.23,10.1-.04,20.2,0,30.3,0Zm6.67-.34c.32.04.55.09.79.09,6.51-.07,13.01-.16,19.52-.22.81,0,1.03-.3.93-1.09-.55-4.28-1.05-8.56-1.59-12.84-.99-7.89-2-15.77-2.99-23.65-1-7.92-1.98-15.85-2.98-23.78-.92-7.29-1.85-14.58-2.78-21.87-.24-1.84-.49-3.68-.76-5.66-.77.3-1.33.51-1.87.74-5.14,2.19-10.29,4.38-15.42,6.59-2.4,1.04-2.52.66-2.08,3.44.11.67.12,1.35.2,2.03.74,6.11,1.49,12.21,2.21,18.32.78,6.58,1.51,13.17,2.28,19.75.67,5.67,1.38,11.34,2.06,17.01.84,7.01,1.65,14.03,2.49,21.15Zm7.25-89.13c-.01-.13-.03-.26-.04-.39-.5-.03-.99-.07-1.49-.09-3.91-.18-7.81-.33-11.72-.53-5.82-.29-11.63-.62-17.45-.92-3.47-.18-6.93-.34-10.4-.52-5.66-.3-11.31-.62-16.97-.91-3.59-.19-7.17-.33-10.76-.52-5.9-.3-11.79-.61-17.69-.93-3.74-.2-7.48-.44-11.23-.66-.46-.03-.93,0-1.55,0,.31,2.78.59,5.39.94,7.99.03.23.57.53.9.55,4.1.27,8.2.51,12.3.74,3.43.19,6.85.34,10.28.52,5.66.3,11.31.62,16.97.93,3.23.18,6.45.34,9.68.51,5.54.3,11.07.61,16.61.93,3.58.21,7.16.47,10.75.64,1.62.08,3.22.27,4.82-.45,3.38-1.54,6.83-2.92,10.25-4.38,1.94-.83,3.86-1.67,5.79-2.51Z"/><path class="cls-1" d="m154.68,192.26c-6.91-.33-14.32-.68-21.73-1.05-6.1-.3-12.19-.63-18.28-.95-7.81-.4-15.61-.8-23.42-1.21-6.09-.32-12.19-.63-18.28-.95-7.09-.38-14.18-.79-21.27-1.17-.83-.04-1.23-.37-1.32-1.2-.55-5.28-1.12-10.56-1.69-15.84-.6-5.56-1.21-11.11-1.8-16.67-.6-5.64-1.19-11.28-1.8-16.91-.59-5.52-1.19-11.04-1.78-16.55-.54-5.08-1.06-10.17-1.59-15.25-.39-3.69-.78-7.39-1.22-11.07-.12-1,.15-1.23,1.16-1.13,8.53.84,17.07,1.64,25.61,2.44,8.94.83,17.88,1.63,26.81,2.47,8.86.83,17.71,1.72,26.56,2.56,7.19.68,14.38,1.28,21.57,2.01,2.45.25,2.42-.13,2.75,2.56,1.27,10.59,2.66,21.16,4.02,31.73,1.07,8.28,2.18,16.55,3.24,24.83,1.29,10.06,2.56,20.12,3.84,30.18.09.67.16,1.35-1.38,1.18Zm-25.65-2.5c2.02.02,2.06.02,1.89-1.83-.48-5.33-.98-10.65-1.49-15.98-.43-4.49-.92-8.97-1.35-13.46-.44-4.61-.83-9.22-1.27-13.83-.43-4.53-.92-9.05-1.36-13.58-.36-3.73-.68-7.47-1.03-11.21-.27-2.82-.58-5.64-.84-8.46-.08-.85-.41-1.24-1.33-1.29-1.67-.09-3.33-.34-5-.53-6.23-.69-12.45-1.39-18.68-2.07-5.43-.6-10.87-1.17-16.3-1.77-6.19-.68-12.37-1.38-18.56-2.06-6.3-.7-12.61-1.37-18.91-2.08-1.71-.19-2.22.27-2.02,1.97.23,2.02.45,4.05.67,6.07.59,5.56,1.17,11.12,1.77,16.67.6,5.6,1.22,11.19,1.82,16.79.6,5.6,1.18,11.2,1.77,16.79.52,4.88,1.06,9.76,1.59,14.65.35,3.22.68,6.43,1.02,9.65.1.93.36,1.56,1.51,1.55,1.59-.01,3.19.13,4.78.22,5.73.31,11.47.62,17.2.92,3.47.18,6.93.34,10.4.52,5.58.3,11.15.62,16.73.91,3.67.19,7.33.33,11,.52,5.38.29,10.75.61,15.99.91Zm23.09,1.2q2.74.03,2.48-1.98c-.88-6.97-1.76-13.94-2.65-20.91-1.19-9.35-2.39-18.69-3.59-28.04-1.51-11.72-3.02-23.44-4.53-35.16-.17-1.33-.33-1.45-1.58-1.01-4.97,1.75-9.93,3.54-14.9,5.28-2.54.89-2.61.87-2.38,3.49.46,5.41.99,10.81,1.51,16.21.6,6.28,1.23,12.55,1.84,18.83.51,5.32,1.01,10.65,1.52,15.97.53,5.56,1.07,11.12,1.61,16.68.26,2.74.54,5.48.77,8.23.09,1.08.57,1.57,1.68,1.47.75-.06,1.52,0,2.27.04,5.45.3,10.91.62,15.96.9Zm-11.51-87.81c-.01-.08-.03-.17-.04-.25-.15-.05-.29-.13-.44-.14-4.61-.42-9.22-.83-13.82-1.26-4.61-.43-9.21-.88-13.82-1.31-5.44-.52-10.88-1.04-16.32-1.55-4.73-.45-9.45-.89-14.18-1.34-4.65-.44-9.29-.87-13.94-1.31-4.65-.43-9.29-.86-13.94-1.31-3.65-.35-7.3-.73-10.96-1.07-1.23-.11-1.44.14-1.29,1.33.13,1.07.25,2.14.36,3.21.16,1.63.37,1.92,1.99,2.12,3.52.43,7.05.81,10.58,1.2,6.86.75,13.72,1.5,20.58,2.25,7.65.84,15.31,1.69,22.96,2.54,6.9.77,13.8,1.49,20.69,2.33,2.96.36,5.81.5,8.66-.76,2.48-1.09,5.1-1.85,7.66-2.77,1.76-.63,3.51-1.28,5.26-1.92Z"/><path class="cls-1" d="m191.94,489.94c.28.9-.34,1.11-1.44,1.22-4.45.45-8.88,1.01-13.32,1.52-6.66.77-13.32,1.53-19.98,2.29-5.15.59-10.31,1.19-15.46,1.78-6.66.77-13.32,1.53-19.98,2.3-5.91.68-11.81,1.36-17.72,2.04-5.07.58-10.15,1.16-15.22,1.75-.96.11-1.15-.5-1.24-1.22-.34-2.69-.66-5.39-1-8.09-.92-7.41-1.85-14.82-2.78-22.23-.99-7.89-1.98-15.77-2.97-23.66-1-8.01-2-16.01-3-24.02-.81-6.5-1.63-13-2.45-19.5-.11-.87.24-1.26,1.11-1.29,3.43-.15,6.86-.31,10.28-.49,5.5-.29,10.99-.61,16.49-.91,3.39-.18,6.77-.34,10.16-.51,5.98-.31,11.95-.63,17.93-.93,3.63-.18,7.25-.33,10.88-.52,5.7-.29,11.39-.61,17.09-.92,3.31-.18,6.61-.34,9.92-.51,3.31-.17,6.62-.29,9.92-.51,1.21-.08,1.72.34,1.86,1.55.72,6.39,1.47,12.78,2.24,19.16.81,6.7,1.66,13.4,2.47,20.1.95,7.85,1.86,15.71,2.8,23.56.73,6.07,1.5,12.13,2.24,18.2.39,3.17.76,6.34,1.18,9.86Zm-115.2-85.12c.87,7.06,1.7,13.92,2.55,20.78.91,7.37,1.85,14.74,2.77,22.11.91,7.33,1.82,14.66,2.74,21.99.92,7.41,1.85,14.82,2.78,22.23.35,2.77.67,5.55,1.04,8.32.08.6,0,1.39,1.13,1.25,5.47-.66,10.94-1.24,16.41-1.87,6.54-.75,13.08-1.53,19.62-2.28,6.62-.76,13.24-1.5,19.86-2.26,6.66-.76,13.31-1.56,19.98-2.3.99-.11,1.29-.4,1.14-1.43-.56-3.83-1.04-7.68-1.55-11.52-1.38-10.33-2.75-20.66-4.14-31-1.16-8.63-2.34-17.25-3.51-25.88-.98-7.24-1.95-14.49-2.9-21.73-.1-.77-.36-1.14-1.21-1.07-1.63.13-3.27.17-4.9.26-6.29.32-12.59.64-18.88.97-6.17.32-12.35.64-18.52.95-6.29.32-12.59.65-18.88.97-4.86.25-9.72.5-14.58.72-.73.03-1.06.26-.94.8Zm92.49,87.56c6.72-.77,13.18-1.51,19.64-2.25,1.74-.2,1.86-.4,1.64-2.13-.77-6.18-1.53-12.36-2.27-18.55-.93-7.77-1.82-15.54-2.76-23.31-.74-6.14-1.53-12.28-2.28-18.42-1.12-9.15-2.21-18.31-3.33-27.47-.18-1.51-.29-1.56-1.79-1.46-2.15.15-4.3.31-6.44.43-4.54.25-9.08.45-13.62.71-2.41.14-2.41.17-2.02,2.61,0,.04.02.08.02.12.67,4.83,1.34,9.65,1.99,14.48,1.04,7.76,2.06,15.51,3.1,23.27.64,4.75,1.3,9.49,1.94,14.24.95,7.12,1.89,14.25,2.83,21.37.67,5.03,1.36,10.05,1.99,15.08.13,1.07.49,1.58,1.35,1.27Z"/></svg>