<?xml version="1.0" encoding="UTF-8"?><svg id="Layer_1" xmlns="http://www.w3.org/2000/svg" viewBox="0 0 700.8 600"><defs><style>.cls-1{fill:#fff;}</style></defs><path class="cls-1" d="m562.08,0c.76.24,1.5.52,2.27.71,4.91,1.21,8.17,4.25,9.79,8.99.59,1.73,1.11,3.55,1.25,5.35.54,6.92-.01,13.72-2.6,20.28-10.62,26.94-21.18,53.9-31.75,80.86-.37.95-.92,1.87-.91,2.91.43.83,1.24,1.05,1.94,1.4,2.65,1.33,5.2,2.83,7.62,4.55,5.06,3.61,9.44,7.91,12.83,13.15,2.72,4.21,4.66,8.75,5.48,13.72.43,2.6.77,5.22.51,7.88-.08.81-.04,1.55.5,2.26.57.74.4,1.69.4,2.56.01,4.48,0,8.96,0,13.44,0,4.3-.1,3.64,2.55,6.29,15.37,15.4,30.75,30.79,46.13,46.18,1.66,1.66,1.54,1.81,3.94.95,2.64-.94,5.3-1.82,7.91-2.82,1.3-.5,2.32-.34,3.21.73.15.18.34.34.51.5,7.86,7.64,15.71,15.28,23.57,22.92,11.65,11.31,23.31,22.62,34.97,33.92,2.41,2.34,4.84,4.66,7.27,6.98.4.38.87.68,1.31,1.02v.96c-.18.52-.46,1.02-.52,1.55-.51,4.93-.97,9.86-1.45,14.8-.41,4.14-.84,8.27-1.24,12.41-.39,4.06-.76,8.12-1.15,12.18-.4,4.14-.81,8.27-1.21,12.41-.39,3.98-.78,7.96-1.16,11.93-.39,4.06-.76,8.12-1.15,12.18-.41,4.22-.83,8.43-1.24,12.65-.43,4.38-.88,8.75-1.27,13.13-.16,1.83-.26,3.67-.26,5.51-.03,8,0,16-.02,23.99,0,2.95.18,2.8-2.44,4.35-12.46,7.37-24.91,14.76-37.36,22.14-30.55,18.1-61.09,36.21-91.64,54.31-15.48,9.17-30.96,18.34-46.45,27.51-1.02.61-2.07,1.18-3.23,1.84-.24-.49-.39-.83-.58-1.16-.39-.68-.71-1.43-1.22-2.02-5.02-5.91-10.08-11.79-15.13-17.68-1.4-1.64-2.79-3.29-4.2-4.93-.52-.6-1.07-1.17-1.51-1.65-1.06-.15-1.71.38-2.4.75-5.44,2.89-10.87,5.8-16.29,8.7-7.33,3.93-14.66,7.86-21.99,11.79-.42.22-.87.39-1.42.63-.41-.37-.86-.68-1.2-1.09-1.43-1.72-2.83-3.47-4.25-5.2-.4-.48-.85-.92-1.38-1.48-.77.38-1.49.71-2.17,1.08-10.4,5.66-20.62,11.63-30.6,18.01-7.28,4.65-14.45,9.47-21.64,14.25-6.07,4.03-12.26,7.84-18.79,11.08-7.99,3.95-16.31,7.01-24.93,9.21-1.92.49-3.53,1.33-5.06,2.55-3.63,2.88-7.28,5.75-11.03,8.48-5.42,3.94-11.32,6.93-17.9,8.41-2.26.51-4.56.82-6.84,1.25-.62.12-1.22.31-1.84.47h-17.28c-.53-.15-1.06-.34-1.6-.43-3.07-.52-6.18-.87-9.22-1.54-10.85-2.38-20.79-6.81-29.63-13.59-7.31-5.6-13.44-12.31-18.52-19.96-1.35-2.03-2.92-3.74-4.8-5.28-4.3-3.51-8.04-7.55-11.16-12.15-3.15-4.62-5.2-9.72-6.58-15.1-.75-2.94-1.32-5.93-2-8.89-.12-.51-.38-1-.55-1.41-.33-.05-.5-.12-.64-.08-.69.19-1.39.38-2.07.61-11.01,3.7-22.23,6.57-33.7,8.48-6.08,1.01-12.19,1.77-18.34,2.09-5.67.29-11.34.35-17.02.11-4.4-.18-8.78-.58-13.12-1.26-4.11-.64-8.19-1.47-12.38-.83-.31.05-.64.01-.96.02-8.57.13-17.1-.24-25.61-1.29-8.29-1.02-16.38-2.83-24.19-5.82-9.39-3.6-17.74-8.83-24.85-15.96-5.11-5.13-9.37-10.92-12.84-17.27-4.53-8.29-7.77-17.01-8.69-26.49-.08-.82-.31-1.57-.88-2.18v-6.24c.76-.72.83-1.68.95-2.64.89-7.08,3.5-13.44,8.06-18.95,3.24-3.92,7.11-7.11,11.46-9.75,5.93-3.6,12.35-6.04,19-7.89,7.57-2.1,15.31-3.32,23.13-4.03,6.86-.62,13.72-.97,20.6-.83,1.81.04,3.45-.33,5.11-1.04,7.75-3.31,15.75-5.84,24.03-7.39,5.59-1.05,11.22-1.69,16.92-1.75,5.76-.05,11.52.06,17.26.6,6.47.61,12.85,1.7,18.88,4.27,5.47,2.33,10.18,5.68,13.89,10.36,1.96,2.47,3.39,5.22,4.42,8.2,1.39,4.02,2.2,8.18,3,12.35,2.08,10.84,4.01,21.71,6.26,32.51,2.91,13.93,6.06,27.82,9.14,41.71.25,1.15.36,2.38,1.06,3.35.83.36,1.47-.07,2.11-.34,5.22-2.23,10.49-4.37,15.63-6.77,15.18-7.09,29.65-15.42,43.51-24.84,2.1-1.43,3.8-3.12,5.18-5.23,2.86-4.36,5.37-8.91,7.65-13.58,4.57-9.35,8.48-18.98,12.17-28.71,4.39-11.6,8.48-23.3,12.19-35.13,3.4-10.84,6.46-21.78,9.11-32.82.13-.52.18-1.06.29-1.75-.95.4-1.15,1.15-1.49,1.73-3.02,5.09-6,10.2-9,15.31-6.93,11.79-13.84,23.6-20.8,35.37-2.98,5.05-6.53,9.67-10.77,13.75-2.2,2.11-4.58,4-7.22,5.53-2.74,1.58-5.64,2.55-8.86,2.68-5.55.22-10.68-3.83-12.23-8.73-.78-2.46-1.05-5-.89-7.58.28-4.34,1.27-8.54,2.64-12.65,1.65-4.94,3.69-9.72,6.09-14.34.74-1.42,1.58-2.78,2.46-4.12,12.68-19.33,25.38-38.64,38.07-57.97,13.83-21.06,27.66-42.12,41.49-63.19,8.87-13.51,17.73-27.02,26.59-40.53.13-.2.24-.42.4-.6,1.14-1.32,1.11-2.59.28-4.14-2.77-5.16-4.08-10.76-4.34-16.58-.18-3.93.32-7.82,1.52-11.6.32-.99.57-2.01,1-2.95.57-1.26.43-2.42-.01-3.69-2.7-7.73-3.69-15.71-3.1-23.87.42-5.93,1.79-11.69,3.7-17.32,3.28-9.64,8.08-18.45,14.64-26.25,6.66-7.91,14.6-14.1,24.43-17.62,6.8-2.43,13.8-3.32,21.01-2.57,9.73,1.02,18.37,4.74,26.25,10.38,6.69,4.79,12.48,10.49,17.22,17.23.23.33.48.64.74.94.1.11.27.15.56.3.37-.27.85-.54,1.22-.91,9.59-9.69,21.39-14.94,34.65-17.23,2.52-.43,5.07-.71,7.62-.89,1.33-.09,2-.63,2.41-1.86,1.42-4.16,2.92-8.3,4.38-12.45,5.68-16.15,11.35-32.3,17.02-48.45,3.93-11.17,7.85-22.34,11.79-33.5,1.51-4.27,3.67-8.15,6.9-11.4,2.43-2.44,5.23-4.19,8.58-5.03.61-.15,1.19-.43,1.78-.65,1.44,0,2.88,0,4.32,0ZM226.1,508.8c.31-.17.63-.33.94-.5.77-.18,1.57-.27,2.3-.55,8.92-3.41,17.2-7.97,24.68-13.94.28-.23.53-.5.8-.74-.5-.11-.84.03-1.15.23-8.09,4.96-16.38,9.57-24.85,13.85-.63.32-1.17.79-1.76,1.19-.32.16-.63.32-.95.49-.07.03-.14.07-.21.1.06-.04.13-.08.19-.13Zm225.68-37.81c-.55.14-1.02.24-1.48.38-2.29.71-4.57,1.46-6.87,2.15-2.44.73-4.03.18-5.29-2.01-.71-1.23-1.28-2.59-1.66-3.96-1.11-4.05-1.42-8.21-.92-12.37.43-3.59.43-3.06-1.69-5.58-4.74-5.63-9.55-11.2-14.33-16.79-1.09-1.28-2.2-2.54-3.29-3.82-.58-.68-1.27-.94-2.13-.66-.53.17-1.07.32-1.61.49-1.98.64-3.95,1.3-5.94,1.91-2.19.67-3.71.19-4.98-1.73-.65-.99-1.24-2.09-1.55-3.23-.52-1.92-.9-3.89-1.17-5.87-.4-3.02-.3-6.08.11-9.09.18-1.34-.16-2.32-1.03-3.26-.92-1-1.78-2.05-2.66-3.09-7.74-9.06-15.47-18.13-23.22-27.18-.35-.41-.79-.75-1.21-1.15-1.03.6-1.5,1.56-2.11,2.37-7.25,9.76-14.69,19.38-22.55,28.66-6.98,8.24-14.02,16.42-21.13,24.54-8.28,9.44-16.93,18.54-26.12,27.12-8.02,7.49-16.42,14.51-25.29,20.96-2.46,1.79-4.72,3.73-6.76,6.04-7.32,8.3-16,14.92-25.83,20.03-7.7,4-15.81,6.93-24.19,9.15-3.4.9-6.84,1.64-10.26,2.47-.83.2-1.75.21-2.4.91-.17.95.18,1.78.44,2.6,1.49,4.73,2.9,9.49,4.56,14.16,2.63,7.4,5.85,14.54,9.74,21.37,1.1,1.93,2.48,3.45,4.38,4.62,4.71,2.92,9.65,5.37,14.89,7.16,13.8,4.71,27.93,8.18,42.33,10.47,7.19,1.14,14.45,1.68,21.75,1.6,4.08-.04,8.15-.1,12.22-.44,6.31-.52,12.54-1.45,18.73-2.76,1.29-.27,2.39-.8,3.41-1.63,10.21-8.37,20.7-16.38,31.42-24.07,8.51-6.11,17.17-12.01,26-17.65,12.88-8.21,25.77-16.41,38.65-24.62,1.96-1.25,3.89-2.52,5.81-3.83.43-.29.74-.75,1.16-1.17-.46-.64-.8-1.17-1.2-1.66-1.45-1.81-2.92-3.6-4.36-5.42-.38-.48-.94-.91-.76-1.78.32-.22.69-.52,1.1-.75,1.46-.83,2.93-1.64,4.4-2.46,6.22-3.46,12.45-6.91,18.66-10.38.75-.42,1.63-.7,2.05-1.56-.85-1.68-5.89-7.62-7.85-9.2Zm234.79-164.8c-1.1.54-1.9.89-2.66,1.3-4.16,2.23-8.31,4.47-12.46,6.71-10.84,5.84-21.69,11.68-32.53,17.52-14.08,7.59-28.16,15.18-42.24,22.77-8.52,4.59-17.04,9.18-25.55,13.77-13.87,7.48-27.73,14.95-41.6,22.43-6.9,3.72-13.8,7.43-20.69,11.17-2.6,1.41-2.53,1.12-2.44,4.28.17,5.59.39,11.19.59,16.78,0,.08,0,.16.01.24.27,5.91.56,11.82.79,17.73.24,6.07.42,12.15.63,18.22,0,.24.03.48.04.72.25,5.43.54,10.86.75,16.29.25,6.31.43,12.63.65,18.94,0,.24.02.48.04.72.26,5.75.55,11.5.78,17.25.24,5.99.41,11.99.62,17.98.02.48.06.96.15,1.43.04.21.26.38.42.59,1.17-.17,2.06-.9,3.01-1.45,4.28-2.51,8.54-5.04,12.8-7.57,26.01-15.41,52.01-30.82,78.02-46.24,17.82-10.56,35.64-21.12,53.46-31.68,8.6-5.1,17.19-10.22,25.81-15.27,1.39-.82,2.22-1.76,2.01-3.43-.06-.47,0-.96,0-1.44,0-38.63,0-77.26,0-115.89,0-.8.01-1.6-.04-2.4-.02-.37-.17-.73-.36-1.47Zm-162.38-12.11c.07-2.88-.55-9.21-1.37-13.74-2.56-14.17-8.31-26.82-17.75-37.74-6.7-7.75-14.69-13.74-24.14-17.75-9.02-3.82-18.43-5.24-28.16-4.43-7.09.59-13.81,2.63-20.23,5.65-11.13,5.24-20.01,13.1-26.92,23.23-9,13.21-13.16,27.96-13.86,43.79-.14,3.03.04,6.07.29,9.1.73,9.01,2.81,17.68,6.38,25.98,4.83,11.22,11.79,20.88,21.4,28.49,12.61,9.99,26.89,14.82,43.09,13.5,7.93-.64,15.39-2.84,22.43-6.5,12.21-6.35,21.45-15.78,28.22-27.66,7.17-12.58,10.5-26.19,10.62-41.92Zm-432.99,120.58c-.96,0-1.92.05-2.88-.01-1.48-.1-2.84.23-4.16.89-2.86,1.43-5.81,2.7-8.62,4.22-8.44,4.57-16.84,9.21-25.24,13.86-4.62,2.56-9.12,5.32-13.45,8.35-2.95,2.08-5.72,4.38-8.12,7.08-3.8,4.28-5.56,9.29-5.15,15,.18,2.48.76,4.9,1.59,7.24,1.1,3.1,2.6,6.02,4.35,8.8,2.39,3.8,5.19,7.3,8.25,10.58,4.88,5.22,10.25,9.87,16,14.1,14.42,10.61,30.22,18.25,47.76,22.13,1.98.44,3.93.64,5.94.35,1.18-.17,2.39-.13,3.59-.21,2.95-.21,5.9-.38,8.85-.66,3.98-.37,7.96-.78,11.93-1.23,6.04-.69,12.07-1.38,18.1-2.16,7.85-1.01,15.69-2.07,23.53-3.17,5.94-.83,11.87-1.71,17.8-2.62,3.45-.53,3.29-.47,2.55-3.78-1.74-7.74-4.02-15.32-7.07-22.65-2.27-5.46-4.76-10.84-7.22-16.22-2.83-6.19-6-12.2-9.61-17.97-4.22-6.74-9.14-12.91-14.97-18.35-8.98-8.38-19.36-14.37-30.97-18.24-10.64-3.55-21.64-4.92-32.8-5.33Zm594.62-111.92c-.82-.86-1.4-1.5-2.01-2.12-5.54-5.55-11.07-11.1-16.62-16.64-30.93-30.94-61.87-61.88-92.8-92.82-1.13-1.13-2.25-2.27-3.39-3.39-.27-.27-.55-.61-1.13-.38-.41.84-.23,1.81-.24,2.74-.01,18.8,0,37.59,0,56.39,0,.4.03.8,0,1.2-.13,1.4.47,2.44,1.49,3.35,1.44,1.27,2.82,2.6,4.21,3.93,2.55,2.42,5.09,4.86,7.64,7.29,4.98,4.75,9.96,9.49,14.92,14.25.39.37.67.85.83,1.06-.38,1.31-.82,2.35-.97,3.42-.58,4.28-1.06,8.57-1.6,12.85-.61,4.84-1.28,9.67-1.81,14.52-.16,1.42-.74,2.2-2.1,2.5-.55.12-1.07.33-1.6.49-7.96,2.41-15.92,4.83-23.88,7.23-15.39,4.65-30.77,9.32-46.17,13.93-1.33.4-2.2,1.07-2.84,2.31-1.92,3.79-4.17,7.39-6.73,10.77-5.66,7.47-12.34,13.83-20.4,18.68-3.92,2.36-8.03,4.3-12.36,5.8-.64.22-1.46.23-1.81,1.24.54.58,1.12,1.23,1.73,1.85,5,5.07,10.02,10.12,15.01,15.19,3.31,3.36,6.59,6.76,9.9,10.12.6.61,1.11,1.39,2.19,1.61.55-.26,1.21-.55,1.84-.88,1.91-1.01,3.8-2.05,5.7-3.07,11.13-5.99,22.26-11.98,33.38-17.97,13.73-7.4,27.45-14.81,41.18-22.21,8.8-4.74,17.61-9.48,26.41-14.22,13.87-7.48,27.74-14.95,41.6-22.44,9.5-5.13,19-10.26,28.5-15.39.55-.3,1.07-.66,1.95-1.2Zm-244.66-115.23c.1.49.28,1.02.3,1.56.05,1.2,0,2.4.02,3.6.03,1.16-.3,2.2-.86,3.2-1.78,3.14-3.78,6.14-6.24,8.78-1.19,1.28-2.54,2.43-3.93,3.49-1.89,1.45-4.07,2.16-6.49,2.11-2.96-.06-5.92-.03-8.88-.08-5.92-.1-11.83-.28-17.58-1.95-.08-.02-.16-.03-.23-.06-1.19-.45-2.14-.11-3.02.8-3.77,3.91-7.59,7.79-11.37,11.69-.26.27-.43.64-.7,1.05.4.39.69.77,1.07,1.02,1.52,1.03,3.02,2.1,4.61,3.03,7.96,4.65,16.45,7.38,25.78,7.08,1.75-.06,3.18-.5,4.6-1.62,8.22-6.51,17.44-10.95,27.78-12.94,1.58-.3,2.78-1.02,3.86-2.18,4.84-5.19,8.85-10.94,11.78-17.4,5.62-12.41,7.42-25.42,5.71-38.89-1.58-12.43-6.11-23.62-14.67-33-6.5-7.12-13.95-12.91-22.85-16.73-8.23-3.53-16.8-4.5-25.61-3.07-9.44,1.54-17.46,6-24.54,12.3-.52.46-.95,1.03-1.46,1.6.53,1.04,1.01,1.95,1.46,2.88,1.75,3.66,2.02,7.43.35,11.14-2.94,6.49-8.01,10.2-15.13,11.01-.71.08-1.44.08-2.16.06-1.03-.03-1.65.47-1.98,1.4-.14.38-.31.74-.43,1.12-1,3.29-2.13,6.54-2.96,9.87-2.24,8.93-2.19,17.87.02,26.82,2.14,8.68,6.08,16.47,11.46,23.56,2.71,3.57,5.68,6.92,9.16,9.78.41.34.92.56,1.44.87.49-.44.92-.79,1.31-1.18,3.76-3.81,7.54-7.62,11.27-11.46,2.14-2.2,4.38-4.22,7.34-5.24.15-.05.28-.15.43-.21,1.11-.43,1.55-1.24,1.53-2.43-.04-1.92-.02-3.84,0-5.76,0-.79-.13-1.61.44-2.36.98-.51,2.11-.54,3.22-.63,1.04-.08,2.08-.1,3.11-.2,4.54-.41,9.07-.84,13.61-1.25,5.33-.47,10.67-.94,16-1.38,1.1-.09,2.22-.35,3.42.19Zm66.97,343.57c0-1.52.03-2.63,0-3.74-.04-1.2-.17-2.39-.21-3.59-.22-6.31-.43-12.63-.64-18.94,0-.24-.02-.48-.04-.72-.26-5.51-.54-11.02-.76-16.53-.25-6.39-.44-12.79-.65-19.18,0-.24-.02-.48-.04-.72-.27-5.91-.56-11.82-.79-17.73-.23-5.91-.41-11.83-.62-17.74,0-.16-.02-.32-.02-.48-.28-6.47-.55-12.94-.84-19.41-.1-2.32-.32-4.63-.31-6.95,0-1.73-.64-2.99-1.85-4.2-6.72-6.74-13.36-13.56-20.03-20.35-2.07-2.11-4.17-4.2-6.24-6.32-.43-.44-.78-.96-1.11-1.39.3-.63.52-1.1.87-1.83-.88.19-1.49.3-2.1.45-8.11,1.99-16.3,2.35-24.52,1.02-13.52-2.19-25.1-8.29-34.98-17.71-5.43-5.17-9.95-11.03-13.66-17.54-.35-.61-.58-1.33-1.39-1.67-.84.36-1.15,1.23-1.6,1.95-5.25,8.32-10.62,16.56-16.25,24.63-2.06,2.95-4.15,5.88-6.21,8.83-.45.64-1.07,1.21-1.06,2.23.8,1.35,1.98,2.55,3.07,3.82,5.4,6.33,10.81,12.64,16.21,18.96,2.13,2.49,4.25,5,6.4,7.47.39.45.71,1.1,1.61,1,.19-.27.45-.57.63-.92.86-1.66,2.18-2.71,3.99-3.19.77-.2,1.49-.56,2.24-.87,4.44-1.81,8.88-3.63,13.33-5.43.57-.23,1.19-.34,1.74-.5,1.35,1.3,2.1,2.82,2.93,4.26,2.4,4.19,4.29,8.6,5.1,13.38.57,3.34.58,6.68-.54,9.96-.53,1.56-1.41,2.58-3.08,3.01-2.01.52-3.98,1.2-5.96,1.85-.58.19-1.28.27-1.47,1.03.92,1.57,12.52,15.45,16.46,19.67.31.33.69.6,1.16,1.01.38-.59.69-1.03.96-1.49.82-1.45,1.96-2.49,3.6-2.96.92-.26,1.8-.66,2.69-1.02,4.3-1.75,8.59-3.5,12.89-5.25.66-.27,1.29-.67,2.22-.43.31.39.75.85,1.07,1.39.96,1.57,1.95,3.13,2.77,4.77,2.02,4.02,3.64,8.18,4.22,12.69.39,3.07.16,6.05-.93,8.97-.48,1.3-1.27,2.12-2.64,2.51-2.31.65-4.58,1.43-6.86,2.19-.4.13-.74.46-1.11.69,1.58,2.55,5.72,7.27,7.41,8.43.58-.27,1.24-.55,1.86-.89,7.62-4.24,15.23-8.48,22.85-12.73,2.31-1.28,4.63-2.53,6.92-3.84.97-.55,1.94-.69,2.99-.32.53.19,1.08.31,1.6.51,3.88,1.55,5.9,4.74,5.46,8.88-.16,1.49-.57,2.99-1.08,4.41-1.28,3.57-1.65,3.89-5.03,5.69-7.27,3.88-14.53,7.76-21.79,11.66-.54.29-1.03.68-1.52,1.02,1,1.91,1.21,2,2.72,1.22.21-.11.42-.23.63-.35,3.28-1.83,6.56-3.67,9.84-5.5,2.03-1.13,4.06-2.24,6.09-3.37.79-.44,1.61-.68,2.53-.5,6.15,1.24,8.37,5.75,7.47,10.39-.33,1.71-.99,3.37-1.56,5.03-.6,1.75-1.81,2.91-3.49,3.74-3.01,1.49-5.94,3.13-8.9,4.72-.54.29-1.22.47-1.34,1.23.78,1.2,16.12,19.4,17.62,20.89.21.21.49.34,1.07.72Zm58.29-358.91c-.17-.04-.35-.08-.52-.13-.33.61-.64,1.24-1,1.84-1.32,2.19-2.51,4.48-4.02,6.52-4.55,6.13-10.36,10.85-17.07,14.45-9.84,5.28-20.39,7.85-31.52,8.18-1.28.04-2.56.05-3.84.03-1.02-.02-1.66.43-2,1.38-.05.15-.13.29-.18.44-1.75,4.47-3.5,8.94-5.27,13.4-.39.97-.44,1.8.39,2.62,3.13,3.1,5.1,6.93,6.74,10.96,1.72,4.24,2.96,8.62,3.89,13.09.27,1.28.73,2.42,1.45,3.51,2.56,3.88,4.82,7.92,6.65,12.2,4.35,10.19,6.87,20.78,7.02,31.88.03,2-.02,4,.01,6,0,.52.17,1.04.27,1.62,1.22.05,2.16-.44,3.12-.78,16.65-5.92,33.29-11.86,49.94-17.8,3.62-1.29,7.23-2.58,10.84-3.89.64-.23,1.43-.29,1.78-1.27-.44-.46-.91-.99-1.42-1.47-7.58-7.23-15.17-14.45-22.73-21.7-2.92-2.8-2.52-1.94-2.52-6.01-.01-24.07,0-48.14,0-72.22v-2.85Zm-207.74,111.82c-.96.93-1.37,1.8-1.84,2.61-7.54,12.82-15.07,25.65-22.61,38.48-5.47,9.31-10.93,18.63-16.41,27.93-.66,1.12-1.12,2.29-1.41,3.55-.6,2.65-1.23,5.3-1.85,7.94-5.02,21.11-11.29,41.84-18.76,62.22-5.78,15.78-11.73,31.48-19.85,46.26-.13.24-.13.56-.23,1.01,1.3-.2,1.98-1.03,2.76-1.64,8.29-6.42,16.1-13.41,23.61-20.72,7.05-6.87,13.73-14.09,20.27-21.44,8.93-10.04,17.69-20.23,26.18-30.64,6.42-7.87,12.65-15.9,18.64-24.1.46-.63.88-1.3,1.35-2-.38-.55-.66-1.03-1.01-1.45-1.86-2.2-3.77-4.35-5.6-6.58-3.53-4.29-2.95-2.51-2.96-7.88-.03-23.44,0-46.87-.02-70.31,0-.94.12-1.9-.28-3.24Zm3.73-55.99c-.46.79-.8,1.42-1.19,2.01-1.7,2.62-3.4,5.23-5.11,7.84-10.09,15.38-20.19,30.76-30.28,46.13-14.09,21.46-28.18,42.92-42.27,64.38-9.48,14.44-18.98,28.87-28.46,43.31-1.27,1.94-2.54,3.89-3.65,5.91-1.93,3.51-3.53,7.17-4.94,10.92-1.52,4.05-2.81,8.17-3.39,12.47-.4,2.95-.5,5.9.39,8.8,1.55,5.07,6.56,7.93,11.69,6.62,1.31-.33,2.59-.84,3.81-1.41,3-1.41,5.56-3.47,7.92-5.76,4.29-4.14,7.76-8.91,10.78-14.04,7.53-12.83,15.07-25.65,22.6-38.48,4.01-6.83,8.02-13.65,12.06-20.46,1.03-1.74,1.8-3.54,2.22-5.53,1-4.69,2.1-9.36,3.18-14.04,1.85-8.03,3.89-16.01,6.37-23.87,7.79-24.63,19.53-47.24,34.72-68.09,5.09-6.99,10.49-13.73,16.23-20.19.68-.77,1.46-1.48,1.88-2.57-.39-.41-.73-.83-1.14-1.19-3.38-2.96-6.4-6.26-9.15-9.81-2.75-3.55-5.16-7.32-7.19-11.33-.27-.53-.38-1.26-1.16-1.39-1.03,1.86-1.51,4.29-1.7,7.63-.46,7.93,1.55,15.21,5.79,22.1Zm175.31-112.37c.86-1.38,1.24-2.6,1.7-3.77,10.14-25.83,20.26-51.67,30.43-77.48,2.15-5.46,2.87-11.13,2.69-16.92-.09-2.88-.62-5.72-1.99-8.33-1.16-2.2-2.76-3.94-5.13-4.81-4.01-1.47-7.98-1.45-11.85.54-2.32,1.2-4.15,2.97-5.75,5-2.21,2.8-3.64,6-4.81,9.34-3.26,9.28-6.52,18.56-9.78,27.84-3.93,11.16-7.86,22.33-11.79,33.49-2.31,6.56-4.62,13.13-6.91,19.69-.28.81-.75,1.6-.55,2.59.78.59,1.76.64,2.68.86,4.84,1.16,9.55,2.65,13.84,5.28,2.41,1.47,4.59,3.19,6.2,5.56.21.32.52.58,1.02,1.13Zm-167.25,254.75c1.01-.66,1.48-1.51,2.03-2.28,7.85-11.01,15.36-22.25,22.5-33.73,1.84-2.96,1.62-2.46.44-5.25-3.62-8.55-5.83-17.45-6.52-26.69-.63-8.41-.16-16.78,1.6-25.06,1.83-8.59,4.81-16.75,9.1-24.41.34-.61.62-1.25.97-1.96-1-.33-1.75.06-2.5.24-4.75,1.18-9.49,1.26-14.23-.12-1-.29-2.01-.53-3.02-.77-2.27-.55-2.41-.5-3.65,1.57-1.8,3.02-3.56,6.07-5.34,9.11-2.99,5.11-5.98,10.22-9,15.31-.63,1.07-1.02,2.15-.94,3.4.04.56,0,1.12,0,1.68,0,25.2,0,50.4,0,75.59,0,.64.04,1.28,0,1.92-.08,1.19.34,2.15,1.13,3.04,2.22,2.52,4.37,5.1,6.56,7.65.2.24.47.42.84.75Zm-292.9,44.77c-.04-.16-.09-.31-.13-.47-.71-.02-1.42-.1-2.13-.07-3.27.14-6.55.31-9.82.48-5.36.29-10.66,1.03-15.93,2.02-7.81,1.48-15.43,3.56-22.61,7.04-5.22,2.53-10.01,5.68-14.01,9.94-5.4,5.76-8.42,12.59-9.09,20.43-.51,5.94.04,11.82,1.6,17.6,2.79,10.35,7.63,19.65,14.34,27.99,5.95,7.4,13.15,13.28,21.62,17.57,6.32,3.2,12.98,5.41,19.88,6.95,4.77,1.06,9.59,1.79,14.45,2.26,4.3.42,8.61.74,12.93.66.41,0,.96.25,1.28-.48-.51-.21-1-.44-1.51-.61-7.75-2.62-15.18-5.97-22.29-10.03-11.53-6.59-22.07-14.46-31.12-24.23-3.05-3.29-5.8-6.82-8.2-10.63-2.84-4.51-5.04-9.29-5.92-14.58-1.29-7.82.53-14.76,6.07-20.59,2.27-2.38,4.68-4.61,7.41-6.45,2.91-1.97,5.81-3.98,8.84-5.77,10.67-6.32,21.54-12.29,32.53-18.02.62-.32,1.21-.69,1.81-1.03Zm431.08-215.51c.93.63,1.91.45,2.83.38,4.07-.28,8.13-.53,12.15-1.32,8.83-1.73,17.03-4.95,24.4-10.15,5.56-3.93,10.22-8.73,13.41-14.8,5.64-10.75,5.5-21.53-.45-32.09-4.83-8.59-12.24-14.43-20.96-18.74-.34-.17-.74-.2-1.14-.3-.77.77-1,1.71-1.35,2.59-5.73,14.59-11.45,29.18-17.17,43.77-3.68,9.38-7.37,18.75-11.04,28.14-.31.8-.77,1.57-.68,2.52ZM94.77,411.57c.2.08.39.22.6.24,1.75.16,3.5.31,5.26.45,8.98.7,17.74,2.44,26.22,5.48,15.18,5.43,27.99,14.27,38.22,26.79,5.09,6.22,9.35,12.98,12.98,20.12,2.43,4.77,4.72,9.62,7.02,14.46,5.16,10.88,9.18,22.15,11.81,33.92.16.7.31,1.41.52,2.09.21.7.72.93,1.52.75.65-.14.92-.53.82-1.23-.07-.47-.18-.94-.29-1.41-3.79-15.71-7.15-31.51-10.36-47.34-1.86-9.17-3.47-18.39-5.27-27.57-.74-3.76-1.57-7.52-2.57-11.22-1.5-5.6-4.74-10.08-9.3-13.63-5.11-3.97-11-6.12-17.26-7.39-7.01-1.42-14.14-1.6-21.24-1.83-7.06-.23-14.05.51-20.99,1.84-5.59,1.07-11.04,2.63-16.4,4.55-.47.17-1.16.12-1.3.93Zm284.93-187.45c-6.21,6.72-11.79,13.61-17.07,20.74-11.53,15.56-21.13,32.22-28.64,50.08-6.35,15.1-10.65,30.82-14.18,46.78-.06.27.02.58.04.87,2.01-2.45,3.52-5.15,5.09-7.79,1.6-2.68,3.17-5.38,4.74-8.07,1.54-2.62,3.07-5.25,4.6-7.87,1.58-2.69,3.16-5.38,4.74-8.07,1.58-2.69,3.16-5.38,4.74-8.07,1.58-2.69,3.16-5.38,4.74-8.07,1.58-2.69,3.16-5.38,4.74-8.07,1.58-2.69,3.16-5.38,4.74-8.07,1.54-2.62,3.08-5.24,4.62-7.86,1.58-2.69,3.16-5.38,4.74-8.07,1.58-2.69,3.14-5.39,4.75-8.07,1.6-2.66,3.03-5.42,4.86-8.07,1.13.19,2.15.32,3.15.55,2.03.47,4.04,1,6.05,1.5,5.72,1.42,11.1.23,16.33-2.11,1.33-.6,2.42-1.52,3.36-2.65,1.79-2.15,3.66-4.23,5.48-6.35.24-.28.37-.64.6-1.04-1.04-.48-2.01-.51-2.95-.55-4.11-.2-8.07-1.1-11.96-2.4-5.43-1.82-10.42-4.48-15.1-7.76-.65-.45-1.31-.89-2.22-1.5Zm214.52,56.05c-.53.14-1.15.25-1.73.45-2.72.95-5.43,1.93-8.14,2.89-15.07,5.37-30.14,10.73-45.21,16.1-3.54,1.26-7.07,2.57-10.62,3.8-1.2.42-1.82,1.11-1.93,2.41-.16,1.75-.44,3.49-.75,5.22-.97,5.45-2.45,10.76-4.48,15.91-.24.62-.75,1.24-.36,2.11.74-.18,1.44-.32,2.12-.51,1.84-.54,3.68-1.11,5.51-1.66,20.06-6.07,40.11-12.15,60.17-18.2,2.87-.86,2.43-.98,2.74-3.23.6-4.36,1.13-8.72,1.68-13.09.43-3.41.85-6.82,1.26-10.24.08-.62.33-1.26-.26-1.97Zm-115.98-87.68c.86-.71,1-1.44,1.23-2.1.95-2.63,1.88-5.27,2.81-7.91,3.55-10.1,7.08-20.21,10.63-30.31,2.23-6.33,4.5-12.65,6.73-18.99,1.65-4.67,3.27-9.36,4.88-14.04.25-.73.73-1.45.35-2.32-.21-.08-.43-.23-.65-.23-1.04.02-2.08.01-3.11.14-6.38.8-12.57,2.35-18.48,4.89-6.68,2.87-12.7,6.73-17.79,11.97-2.16,2.23-1.73,2.24-.7,4.33,3.88,7.84,6.13,16.14,6.67,24.85.46,7.35.35,14.71-1.29,21.95-.14.61-.12,1.25-.18,1.95,2.76,2.29,5.7,4.16,8.91,5.81Zm-3.16,18.44c-2.01-1.68-2.28-1.79-4.84-1.94-.24-.01-.48-.04-.72-.02-3.11.26-6.21.54-9.32.79-.86.07-1.48.46-2,1.15-1.25,1.66-2.55,3.28-3.81,4.94-.17.23-.23.54-.37.88.87.46,1.68.32,2.45.29,3.21-.13,6.4.15,9.57.58,11.27,1.51,21.38,5.83,30.45,12.66,3.27,2.46,6.25,5.23,9.09,8.17.41.43.71,1.09,1.54,1.04.02-.24.11-.48.05-.68-1.19-4.17-2.73-8.2-5.04-11.89-1.06-1.7-2.23-3.34-3.9-4.5-1.67-1.15-1.59-1.49-.96-3.18.14-.37.29-.74.44-1.12,3.44-8.79,6.89-17.57,10.33-26.36.2-.52.43-1.04.59-1.57.28-.95.11-1.46-.73-2.07-.45-.33-.94-.61-1.44-.85-1.6-.77-3.32-1.22-5.07-1.38-5.47-.48-10.86.08-16.19,1.35-.95.23-1.54.74-1.86,1.66-.6,1.74-1.25,3.46-1.86,5.2-1.76,4.98-3.52,9.95-5.28,14.93-.23.66-.32,1.41-1.13,1.93Zm-248.86,355.69c-.06.21-.12.3-.09.35.23.41.43.85.72,1.22,4.66,5.84,9.91,11.07,16.04,15.38,12.48,8.77,26.53,12.76,41.61,13.5,5.36.26,10.71-.05,16.01-.92,4.6-.76,9.03-2.01,13.23-4.11,5.33-2.66,10.06-6.2,14.67-9.91.15-.12.18-.39.34-.78-.77.08-1.4.12-2.01.22-7.9,1.37-15.87,1.78-23.86,1.96-2.07.05-4.15-.19-6.23-.23-7.29-.14-14.5-1.03-21.67-2.3-8.27-1.47-16.39-3.57-24.51-5.69-8.06-2.1-15.95-4.69-23.41-8.45-.25-.13-.55-.15-.83-.23Zm215.66-59.59c-.97.59-1.79,1.07-2.59,1.59-7.8,5.03-15.57,10.09-23.39,15.08-7.55,4.82-15.16,9.54-22.7,14.38-9.7,6.22-19.17,12.77-28.43,19.63-6.81,5.05-13.48,10.28-20.2,15.45-.31.24-.93.39-.63,1.15.45-.11.91-.2,1.36-.35,5.57-1.77,11-3.91,16.28-6.42,8.34-3.97,16.05-8.96,23.65-14.17,10.63-7.28,21.49-14.19,32.61-20.69,5.25-3.06,10.56-6.03,15.83-9.05.53-.3,1.22-.48,1.36-1.21-.2-1.23-1.64-1.79-1.67-3.21.51-.34,1.01-.72,1.56-1.03,7.19-4.01,14.39-8.02,21.59-12.02,4.89-2.72,9.79-5.43,14.67-8.17.81-.46,1.75-.78,2.29-1.58-.57-1.15-.57-1.15-1.73-1.77-1.6.84-3.3,1.72-4.99,2.62-6.84,3.66-13.68,7.32-20.53,10.97-.68.36-1.31.96-2.23.75-.62-.58-1.26-1.17-2.11-1.95Zm254.35-212.02c-.57-.61-1.03-1.15-1.54-1.64-.69-.67-1.42-1.29-2.11-1.96-10.51-10.18-21.01-20.35-31.51-30.54-9.23-8.96-18.45-17.95-27.67-26.92-.46-.45-.93-.88-1.38-1.33-.69-.7-1.46-.87-2.4-.52-1.95.72-3.92,1.37-5.87,2.09-.34.12-.61.43-.95.69.69,1.26,1.71,2.06,2.6,2.95,20.39,20.41,40.8,40.81,61.2,61.22.28.28.55.59.85.84.42.34.87.64,1.25.93,1.83-.98,6-4.17,7.52-5.8Zm-210.85-111.36c.73,0,1.12.05,1.49,0,1.03-.15,2.05-.36,3.07-.5,2.77-.37,5.54-.77,8.35-.67,3.95.15,7.8.71,11.27,2.8.18.11.45.09.75.15.18-.27.4-.51.51-.79,2.11-5.35,4.22-10.7,6.3-16.06.16-.42.16-.91.25-1.45-.28-.23-.52-.45-.78-.62-5.05-3.39-10.25-6.52-15.86-8.9-1.39-.59-2.89-.89-4.35-1.29-.37-.1-.81-.11-1.01.39.18.42.35.85.55,1.33-.26.13-.46.31-.66.33-.93.09-1.41.65-1.7,1.47-.08.23-.16.45-.24.68-2.52,7.16-5.04,14.31-7.55,21.48-.15.44-.21.9-.38,1.67Zm-40.22,345.39c.85-.41,1.64-.77,2.41-1.18,9.37-5.01,18.75-10.02,28.12-15.04,2.18-1.17,4.37-2.33,6.55-3.52.54-.29,1.21-.5,1.29-1.52-1.13-1.33-2.35-2.8-3.59-4.24-1.29-1.5-2.44-3.14-4.07-4.47-.81.4-1.53.73-2.22,1.11-7.83,4.34-15.65,8.69-23.47,13.04-3.63,2.02-7.26,4.05-10.88,6.09-.46.26-1.09.39-1.12,1.1q1.44,1.12,2.18,2.7c.82,1.76,2.92,4.39,4.81,5.92Zm-45.43-323.82c1.92.84,5.13,1.57,7.13,1.62,5.59.13,11.17.24,16.76.35,1.55.03,3.05-.28,4.34-1.15,1.18-.8,2.36-1.66,3.37-2.66,2.49-2.5,4.5-5.38,6.23-8.46.16-.28.32-.56.42-.86.37-1.08.46-2.16-.08-3.24-1.08-.36-2.11-.2-3.13-.11-2.54.23-5.08.52-7.62.74-6.52.55-13.04,1.07-19.56,1.61-.95.08-1.9.14-2.87.81-.05.82-.13,1.68-.15,2.54-.03,1.6-.03,3.19-.03,4.79,0,.89-.35,1.53-1.19,1.89-.51.22-1.02.46-1.51.72-.68.37-1.51.53-2.09,1.41Zm118.99-41.18c.38-.7.64-1.09.81-1.52,2.35-5.94,4.68-11.89,7.03-17.84.8-2.02.79-2.77-1.77-3.38-2.58-.61-5.22-.72-7.86-.48-1.11.1-2.24.15-3.34.32-4.26.68-8.51,1.4-12.76,2.11-1.03.17-1.71.73-2.05,1.76-.74,2.2-1.55,4.36-2.3,6.56-.14.41-.09.89-.13,1.32.37.15.58.27.81.32,3.07.66,5.96,1.83,8.7,3.33,3.29,1.8,6.51,3.73,9.76,5.61.96.56,1.89,1.16,3.09,1.89Zm-45.9,326.3c.75-.31,1.28-.48,1.76-.74,4.52-2.4,9.03-4.82,13.53-7.24,3.31-1.78,6.62-3.56,9.93-5.34.78-.42,1.56-.83,1.98-1.67.97-1.95,1.66-3.96,1.7-6.18.04-2.38-1.09-3.91-3.16-4.9-1.17-.56-2.24-.61-3.4.09-1.92,1.15-3.89,2.21-5.85,3.3-7.48,4.16-14.95,8.31-22.42,12.48-.53.3-1,.7-1.58,1.11.28.48.43.85.68,1.14,2.23,2.61,4.47,5.21,6.83,7.96Zm37.35-376.61c.17.13.33.34.53.42,1.83.73,3.33,1.92,4.59,3.38,1.56,1.81,3.11,3.65,4.51,5.59,2.89,4.03,5.35,8.34,7.73,12.69.37.67.56,1.49,1.43,1.98.21-.28.45-.49.55-.76,1.97-4.98,3.92-9.96,5.88-14.94.43-1.1.34-2.19-.02-3.28-.64-1.96-1.79-3.6-3.37-4.86-1.49-1.19-3.08-2.29-4.76-3.2-4.18-2.27-8.72-3.55-13.37-4.45-.38-.07-.78,0-1.13,0-1.12,1.74-2.4,5.45-2.58,7.45Zm-64.72,331.9c.62,1.79,1.29,3.41,1.74,5.1.78,2.95.91,5.99.87,9.02-.01,1.02.16,1.88.84,2.65,1.05,1.2,2.08,2.42,3.1,3.65.69.84,1.46,1.11,2.53.76,2.43-.8,4.87-1.55,7.31-2.28,1.1-.33,1.78-1.01,2.02-2.13.13-.62.3-1.25.35-1.88.2-2.56.1-5.1-.56-7.6-1.05-3.97-2.71-7.67-4.81-11.18-.27-.46-.69-.83-.99-1.18-2.33.57-10.54,3.94-12.39,5.08Zm-24.45-48.11c-4,1.63-7.87,3.1-11.65,4.81-.26.12-.43.43-.63.65.13.38.21.69.34.98,1.03,2.28,1.69,4.65,1.93,7.14.17,1.74.36,3.5.32,5.25-.03,1.55.44,2.78,1.5,3.88.88.92,1.65,1.95,2.51,2.9.36.4.82.73,1.28,1.14,3.06-.78,5.99-1.81,8.95-2.76.86-.28,1.25-.94,1.49-1.73.64-2.1.75-4.22.46-6.4-.72-5.33-2.87-10.11-5.55-14.68-.2-.33-.49-.61-.93-1.16Zm23.93,107.8c.7-.3,1.15-.46,1.57-.69,4.8-2.56,9.59-5.14,14.38-7.71,2.54-1.36,5.08-2.71,7.6-4.1.45-.25.79-.67,1.17-1-1.7-2.63-6.05-7.61-7.62-8.74-1.6.6-19.75,10.52-23.12,12.65-.32.2-.59.5-.94.8.28.49.45.94.75,1.29,2.07,2.43,3.91,5.04,6.21,7.48Zm79.8-367.59c-.08-.31-.1-.63-.24-.88-2.88-5.25-5.91-10.41-9.63-15.12-.89-1.12-1.91-2.14-2.95-3.13-.51-.49-1.15-.86-1.78-1.18-.65-.33-1.27-.11-1.64.53-.28.48-.49,1-.68,1.52-.47,1.27-.92,2.55-1.37,3.83-1.72,4.89-3.45,9.78-5.15,14.68-.19.55-.63,1.15-.07,1.88,1.23.01,2.45-.37,3.7-.58,1.34-.22,2.68-.44,4.02-.64,1.26-.18,2.53-.35,3.8-.49,1.35-.15,2.7-.29,4.05-.37,1.27-.07,2.55-.04,3.83-.05,1.34,0,2.68,0,4.14,0Zm-37.79,368.78c.25-.03.34-.01.41-.05,3.81-2.02,7.64-4.02,11.42-6.08.52-.29,1.01-.83,1.27-1.37.57-1.22,1.14-2.49,1.42-3.8.25-1.15.2-2.38.14-3.57-.15-2.63-4.2-4.88-6.6-3.41-4.83,2.96-9.89,5.56-14.84,8.34-.38.21-.65.62-.94.91,1.11,1.84,6.21,7.8,7.73,9.04Zm203.38-141.31c.1,0,.2,0,.31,0,2.06-21.76,4.13-43.53,6.18-65.29.01-.11-.18-.23-.37-.47-.31.15-.68.27-.98.48-.91.65-1.78,1.35-2.68,2.02-2.94,2.23-2.62,1.82-2.62,5.35-.01,16.78,0,33.56,0,50.33,0,2,0,3.99.03,5.99,0,.52.08,1.04.13,1.57Zm-213-169.33c-.2-.23-.28-.38-.41-.46-2.56-1.61-5.13-3.21-7.7-4.8-.24-.15-.57-.14-1-.24-.5,1.43-.96,2.78-1.45,4.12-.47,1.27-.95,2.54-1.49,3.78-.57,1.32-1.23,2.59-1.82,3.9-.58,1.28-1.49,2.42-1.78,3.78.79.62,1.52.4,2.2.3,2.86-.41,5.72-.37,8.59-.24.46.02.92-.04,1.3-.06,1.12-2.12,3.1-7.75,3.57-10.09Zm-101.5-72.16c-.28.09-.45.11-.58.19-.2.13-.39.29-.54.46-4.6,5.24-8.42,11-11.37,17.33-.12.26-.1.59-.15.97.4.09.71.24,1,.21,6.07-.57,10.51-3.58,12.96-9.16,1.35-3.07,1.06-6.24-.59-9.21-.18-.32-.51-.56-.73-.8Zm-253.19,406.03c.61.06.92.12,1.24.12,5.91.07,11.8.17,17.71-.27,6.78-.5,13.5-1.35,20.18-2.56,6.21-1.12,12.35-2.57,18.42-4.29.59-.17,1.35-.1,1.76-.94-19.62,2.65-39.13,5.48-58.74,7.42-.12.01-.22.19-.58.51Zm78.37-10.07c-.47-.02-.63-.05-.79-.03-.16.02-.32.06-.46.13-.91.41-1.09.7-1.03,1.65.02.32.06.64.13.95.8,3.51,1.5,7.04,2.44,10.51,1.86,6.92,5.39,12.95,10.23,18.22.33.36.59.94,1.42.78-1.22-2.72-2.44-5.31-3.55-7.95-1.08-2.58-2.1-5.19-3.05-7.82-.98-2.7-1.84-5.45-2.77-8.17-.93-2.71-1.51-5.53-2.56-8.27Zm203.88-91.92c.87-.11,1.15-.81,1.47-1.44.92-1.8,1.27-3.76,1.57-5.73.13-.86-.21-1.54-.76-2.17-1.46-1.69-2.89-3.4-4.35-5.08-.17-.19-.5-.25-.87-.43-.32,2.33-.26,4.48-.05,6.61.21,2.14.57,4.27,1.43,6.27.34.79.6,1.67,1.56,1.97Zm34.06,28.03c-.17.72-.3,1.02-.3,1.32.03,2.15-.04,4.31.2,6.44.18,1.64.72,3.26,1.21,4.85.2.66.66,1.26,1.07,1.83.29.41.96.42,1.26.04.34-.43.71-.89.89-1.4.45-1.27.93-2.56,1.15-3.88.47-2.79.54-2.36-1.1-4.31-1.03-1.22-2.06-2.43-3.1-3.63-.3-.35-.65-.65-1.27-1.26Zm5.76,1.25c.27-2.82-.62-7.08-1.8-8.96-.08-.13-.18-.26-.27-.39-.56-.73-1.27-.78-1.75-.04-.39.59-.69,1.25-.99,1.89-.48,1.04-.37,1.97.43,2.85,1.23,1.36,2.39,2.77,3.59,4.15.14.16.38.24.8.5Zm-37.03-43.05c.2-.52.35-.73.35-.94-.05-2.48-.54-4.88-1.54-7.16-.16-.36-.37-.7-.6-1.02-.53-.73-1.3-.78-1.74-.04-.48.81-.86,1.69-1.22,2.56-.23.55-.06,1.11.32,1.56,1.36,1.64,2.67,3.32,4.43,5.03Zm3.25,9.23c-.56,1-.86,1.82-.63,2.84.98,0,1.78-.09,2.31-.9-.29-.83-.73-1.43-1.68-1.94Zm36.71,42.89c-.48.9-.89,1.69-.46,2.64,1.22-.02,1.22-.03,2.14-.74-.34-.76-.77-1.44-1.68-1.89Z"/><path class="cls-1" d="m488.17,273.75c-.19,5.15-2.62,10.75-8.07,14.83-7.26,5.43-16.88,4.37-23.06-1.55-8.42-8.07-8.57-22.84,1.21-30.83,7.81-6.38,18.54-5.09,24.95,2.34,3.38,3.91,4.97,8.49,4.96,15.21Zm-34.19-1.04c-.17,4.36,2.14,9.31,5.61,12.43,5.52,4.96,13.75,5.13,19.33.42,7.66-6.46,8.25-18.3,1.45-25.52-6.02-6.39-15.45-6.22-21.25-.46-3.49,3.46-5.13,7.64-5.15,13.13Z"/><path class="cls-1" d="m461.85,404.07c.01,1.96-.41,3.8-1.44,5.49-.55.9-1.23,1.66-2.17,2.18-1.77.99-3.83.87-5.36-.46-.7-.62-1.36-1.38-1.78-2.21-1.62-3.26-1.7-6.62-.12-9.91.43-.91,1.11-1.78,1.87-2.43,1.96-1.67,4.39-1.54,6.29.19,1.49,1.35,2.24,3.08,2.54,5.02.11.71.11,1.43.16,2.14Zm-8.78-.15c-.04,1.57.24,3.04,1.2,4.31.98,1.3,2.16,1.31,3.18.06,1.75-2.15,1.79-6.38.07-8.56-1.04-1.33-2.38-1.3-3.35.1-.85,1.23-1.13,2.63-1.09,4.1Z"/><path class="cls-1" d="m478.13,419.89c.04,1.35-.18,2.76-.73,4.11-.52,1.29-1.32,2.37-2.43,3.2-1.77,1.33-4.03,1.28-5.76-.1-.89-.71-1.54-1.62-2-2.65-1.44-3.26-1.36-6.5.13-9.72.13-.29.3-.57.48-.83,2.2-3.27,5.94-3.45,8.41-.39,1.48,1.83,1.94,3.98,1.89,6.38Zm-3-.24c-.14-1.65-.44-3.28-1.68-4.55-.79-.81-1.71-.81-2.51-.02-.28.27-.55.59-.71.94-1.21,2.52-1.21,5.04.05,7.55.11.21.25.41.41.59.95,1.12,2.08,1.13,3.01-.02,1.05-1.29,1.36-2.83,1.44-4.49Z"/></svg>