<?xml version="1.0" encoding="UTF-8"?><svg id="Layer_1" xmlns="http://www.w3.org/2000/svg" viewBox="0 0 320.95 952"><defs><style>.cls-1,.cls-2{fill:none;stroke:#fff;stroke-miterlimit:10;}.cls-2{stroke-width:1.75px;}</style></defs><path class="cls-1" d="m10.95,205.38c.46,0,.79.17.84.65.05.45.06.9.06,1.35.04,10.15.06,20.3.11,30.45.09,20.1.19,40.2.3,60.29.08,15.75.18,31.5.26,47.24.12,22.45.22,44.9.34,67.34.08,16.45.18,32.9.27,49.34.11,21.75.22,43.5.33,65.24.09,16.7.18,33.4.27,50.09.11,21.5.22,43,.33,64.49.09,16.65.18,33.3.27,49.94.11,21.65.22,43.3.33,64.94.09,16.4.18,32.8.27,49.19.11,21.3.22,42.6.34,63.89,0,.52.09,1.04.16,1.77.54-.39.85-.63,1.16-.85.9-.63,1.76-1.32,2.7-1.88,2.1-1.26,4.79-.11,5.43,2.27.32,1.18-.07,2.07-1.15,2.63-.18.09-.36.17-.55.23-4.81,1.71-6.58,5.64-7.47,10.22-.02.13.07.27.17.59,1.54-.17,3.09-.34,4.78-.52.05.85.11,1.48.13,2.12.02.85-.02,1.7.02,2.55.05,1.2.14,1.27,1.74,1.56.11-1.02.22-2.04.34-3.05.58-5.12,2.42-9.65,6.12-13.36,1.06-1.06,2.24-1.4,3.66-1.25.99.11,1.74.55,2.03,1.52.27.9.17,1.76-.56,2.49-2.87,2.84-4.28,6.46-5.4,10.23-.08.27-.05.57-.08,1.07h6.6c.06.77.13,1.35.14,1.93.02,1.3,0,2.6.01,3.9.02,1.33.09,1.38,1.78,1.61-.09-.36-.09-.81-.26-.89-.81-.36-.92-.96-.77-1.71.84-4.16,1.64-8.33,2.56-12.47.29-1.3.84-2.57,1.47-3.76.38-.71,1.04-1.37,1.74-1.77,1.3-.76,2.57-.21,2.86,1.27.19.95.17,2-.03,2.95-.92,4.25-1.94,8.48-2.91,12.72-.19.83-.3,1.67-.45,2.5-.06.44-.17.88-.17,1.32-.02,1.25.1,1.42,1.3,1.81,1.32.44,2.65.85,3.99,1.24.35.1.74.09,1.16.13.21-1.21.31-2.27-.09-3.42-1.89.16-3.75.31-5.56.46-.27-.65-.46-1.11-.64-1.57,2.65-.41,5.31-.73,8.21-.96,0,1.37.02,2.55.02,3.74,0,3.04-.1,2.52,2.51,3.32,1.61.49,3.24.94,4.96,1.44.15-.46.3-.76.35-1.08.28-1.63.53-3.26.79-4.88.02-.15.08-.31.03-.45-.51-1.52.24-2.83.74-4.16,1.01-2.67,2.26-5.23,3.91-7.57,1.05-1.48,2.28-2.76,3.89-3.67,1.61-.91,3.19-.69,4.74.03,1.32.61,1.47,1.96.19,2.68-3.03,1.7-4.6,4.51-6.02,7.45-.91,1.88-1.66,3.83-2.54,5.89,2.44.48,4.71-.4,7.11-.04.31,2.68.09,5.35.12,8.05-.82.2-1.48.36-2.14.52,3.04,1.16,6.14,1.89,9.43,2.64.05-.72.11-1.21.11-1.69.01-1.65-.13-3.31.03-4.95.31-3.22.65-6.45,1.23-9.63.48-2.63,1.79-4.87,4.21-6.29.87-.51,1.79-1.08,2.78-.38,1.05.75.82,1.88.54,2.88-.22.8-.68,1.55-1.08,2.29-1.91,3.49-2.69,7.17-1.9,11.28,2.31.47,4.72-.07,7.12.34.06.48.15.86.15,1.25.01,1.95-.02,3.9.02,5.85.02.8-.17,1.37-1.08,1.62,3.78,1.01,7.55,1.73,11.4,2.37.5-1.53.59-2.92.51-4.3-.02-.43-.55-.84-.98-1.44.01-.15.01-.55.09-.94.76-4.05,1.94-7.97,3.93-11.59.52-.95,1.23-1.84,2.01-2.58,1.19-1.12,2.88-1.32,3.86-.65.96.66,1.33,2.54.76,4.01-.18.46-.49.87-.69,1.33-1.23,2.78-2.47,5.57-3.66,8.36-.23.54-.28,1.15-.45,1.86,2.02.25,3.8-.73,5.81-.61.03.57.09,1.1.09,1.64.01,1.85-.01,3.7.01,5.55.02,1.12.11,1.25,1.13,1.38,4.96.62,9.91,1.21,14.87,1.79.58.07,1.18,0,1.96,0,.17-1.03.34-2,.49-2.97.12-.79.2-1.59.33-2.38.1-.6.19-1.14-.4-1.62-.23-.19-.31-.73-.25-1.08.65-4.15,1.27-8.3,2.03-12.43.4-2.2,2.45-3.32,4.54-2.69,1.66.5,2.41,1.61,2.2,3.41-.31,2.63-.66,5.25-1.01,7.88-.18,1.39-.4,2.77-.6,4.15-.12.87-.37,1.66-1.28,2.19,1.05.05,2.11.09,3.36.15-.32,2.03-.61,3.92-.93,5.99.5.1.91.25,1.33.25,6.34.11,12.69.21,19.03.29,1.44.02,1.5-.09,1.57-1.53.08-1.65.16-3.29.22-4.94.02-.6,0-1.15-.49-1.66-.27-.27-.34-.81-.36-1.24-.2-3.84-.37-7.69-.53-11.53-.11-2.66,2.37-4.76,4.97-4.22.99.21,1.79.75,2.17,1.68.35.86.71,1.82.7,2.72-.06,3.39-.24,6.79-.45,10.18-.06.92-.41,1.81-.66,2.86,1.25.42,1.22,1.59,1.18,2.81-.05,1.53,0,3.07,0,4.53,2.28.68,20.11.06,23.31-.78.05-2.74-.35-5.5-.5-8.35.28-.16.57-.33.87-.49.3-.16.61-.32,1.03-.54-.14-.65-.25-1.27-.42-1.89-.96-3.57-1.93-7.14-2.89-10.71-.47-1.77.22-2.88,2.01-3.27,2.34-.5,3.73.12,4.84,2.24,1.17,2.24,1.72,4.69,2.26,7.13.31,1.41.5,2.85.76,4.28.18.99.37,1.97-.28,2.89-.1.15-.1.39-.09.58.09,2.39.2,4.78.31,7.32.57.04,1,.14,1.41.08,5.78-.83,11.57-1.66,17.35-2.53,1.64-.25,1.62-.31,1.69-2.03.09-2.14.18-4.28.28-6.63h4.18c-.39-2.65-.74-5.09-1.13-7.53-.33-2.12-.73-4.23-1.06-6.35-.12-.78-.18-1.59-.13-2.38.06-1.09.61-1.9,1.68-2.26,1.04-.36,2.04-.17,2.76.62.59.65,1.09,1.44,1.44,2.25,1.04,2.41,1.42,4.99,1.79,7.56.56,3.88.5,7.77.12,11.67-.08.88-.01,1.77-.01,2.81.56-.06,1-.07,1.41-.16,4.34-.95,8.69-1.89,13.03-2.87,1.37-.31,1.39-.37,1.43-1.83.04-1.6.04-3.2.09-4.8.03-.84.14-1.67.23-2.71,1.47.32,2.8.6,4.17.9.53-1.1.33-2.15.18-3.16-.44-2.94-1.71-5.51-3.57-7.82-.31-.38-.66-.79-.79-1.24-.46-1.65.68-2.96,2.47-2.85,1.67.1,3.15.73,4.18,2.06.8,1.01,1.62,2.09,2.06,3.28.87,2.33,1.55,4.74,2.16,7.16.3,1.2.14,2.4-.49,3.61-.66,1.26-.26,2.7-.1,4.19.54-.06.93-.06,1.3-.16,3.66-1.01,7.32-2.02,10.97-3.06,1.36-.39,1.37-.5,1.3-1.9-.11-1.98-.17-3.97-.25-6.01,2.06-.57,4.05.07,6.04-.47,0-.53.06-1.02-.01-1.5-.44-2.88-1.18-5.68-2.53-8.28-.89-1.72-1.97-3.26-3.98-3.83-.22-.06-.48-.24-.57-.43-.45-1.02-.42-2.07.19-3.01.54-.85,1.42-1.13,2.36-.92.77.17,1.54.45,2.24.81,2.2,1.13,3.8,2.89,5.03,5.01,1.65,2.82,2.36,5.92,2.62,9.15.02.3.09.65-.04.89-1.17,2.19.09,4.24.14,6.6,2.65-.67,4.99-1.55,7.36-2.31-.01-.14-.02-.28-.03-.42-.51-.05-1.02-.09-1.54-.13-.49-.04-.93-.19-.94-.76-.02-2.74,0-5.47,0-8.3,2.1-.31,3.97.52,5.93.4.58-1.1.38-2.18.11-3.23-.47-1.87-1.38-3.56-2.61-5.02-1.28-1.52-2.66-2.98-4.12-4.34-.7-.66-1-1.02-.46-2.06.43-.82,1.27-1.11,2.19-.62,1.18.64,2.35,1.35,3.39,2.19,3.35,2.69,5.56,6.15,6.4,10.37.38,1.9.49,3.86.73,5.79.02.18.08.36.34.54v-5.16c2.53-.33,4.97,0,7.43-.22.42-1.18.22-2.33,0-3.42-.8-4.02-2.99-6.94-7.02-8.21-.82-.26-1.12-.72-1.2-1.48-.23-2.29,1.54-3.81,3.7-3.04,1.01.36,1.98.98,2.79,1.69,1.12.98,2.08,2.15,3.1,3.24.36.38.71.77,1.13,1.25.41-.83.26-1.34-.21-1.81-.61-.6-1.23-1.17-1.81-1.8-.34-.36-.69-.75-.88-1.19-.8-1.84.15-3.05,2.15-2.79.24.03.48.05.83.09.07-.44.16-.82.18-1.2.03-.6.01-1.2.01-1.8,0-218.69,0-437.38,0-656.06,0-.8-.01-1.6-.02-2.4.6,0,1.2,0,1.8,0,0,.7-.03,1.4-.03,2.1,0,219.34,0,438.69-.04,658.03,0,1.85.48,2.99,2.05,4.04,1.68,1.12,3.15,2.61,4.58,4.07,2.3,2.35,3.33,5.26,3.57,8.53.23,3.24.62,6.46.96,9.69.04.39.2.76.31,1.14v1.2c-1.31,1.39-2.88.93-4.39.78-.25-.62-.45-1.11-.66-1.63-1.65.75-3.18,1.47-4.74,2.13-1.62.69-1.63.67-1.64,2.37-.01,4.9-.08,9.8,0,14.69.07,5.09-1.78,9.24-5.72,12.45-.77.63-1.54,1.28-2.34,1.87-3.52,2.59-7.38,4.58-11.37,6.33-8.77,3.84-17.94,6.46-27.24,8.64-13.19,3.09-26.55,5.26-40.02,6.64-8.74.9-17.49,1.66-26.26,2.28-6.12.43-12.27.51-18.41.77-.69.03-1.37.18-2.06.27h-27.89c-.54-.09-1.07-.25-1.61-.26-9.89-.19-19.76-.7-29.61-1.55-5.67-.49-11.34-.98-16.99-1.62-9.67-1.1-19.3-2.53-28.86-4.42-10.54-2.08-20.97-4.6-31.09-8.3-5.78-2.11-11.41-4.57-16.53-8.04-2.41-1.63-4.65-3.46-6.44-5.78-1.83-2.36-2.88-4.98-2.85-8.03.03-4.2-.02-8.4-.05-12.59-.01-2.1-.02-2.09-2.03-2.31-.14-.01-.27-.11-.61-.27,0-.75-.02-1.59,0-2.42.03-.73-.28-1.19-.89-1.59-1.33-.88-2.6-1.85-3.9-2.77-.11-.08-.27-.08-.42-.13-.19.41-.37.8-.57,1.23-1.33-.08-2.62.2-4-.21-.04-.57-.1-1.11-.11-1.64-.05-2.4-.05-4.8-.16-7.19-.04-.87-.34-1.73-.53-2.6,0-1.2,0-2.4,0-3.6.22-.81.5-1.62.65-2.44.63-3.53,1.85-6.78,4.6-9.21,1.11-.97,2.43-1.75,3.76-2.41,1.3-.65,2.26.03,2.33,1.49.03.54-.09,1.09-.15,1.63-.09.78-.48,1.25-1.27,1.46-1.09.29-2.01.91-2.7,1.8-1.96,2.54-2.39,5.51-2.48,8.7.35-.05.54-.06.71-.12,1.55-.54,3.07-1.16,4.64-1.62,1.43-.42,2.78-1.85,2.9-3.35.03-.4,0-.8,0-1.2-.05-15.7-.08-31.4-.15-47.1-.08-19.35-.2-38.7-.3-58.04-.09-16.65-.18-33.3-.27-49.94-.11-21.65-.22-43.3-.33-64.94-.09-16.3-.18-32.6-.26-48.89-.11-21.9-.22-43.8-.34-65.69-.09-16.65-.18-33.3-.27-49.94-.11-21.55-.22-43.1-.33-64.64-.09-16.7-.18-33.4-.27-50.09-.11-21.5-.22-43-.33-64.49-.09-16.8-.18-33.6-.27-50.39-.09-16.85-.18-33.7-.27-50.54m6.52,690.01c-.17.45-.19.86-.39.98-.94.54-.78,1.42-.78,2.25,0,4,.1,8,.02,12-.07,3.63,1.29,6.61,3.75,9.17,1.99,2.07,4.29,3.75,6.73,5.22,4.9,2.96,10.14,5.19,15.52,7.07,15.49,5.42,31.52,8.55,47.72,10.78,8.26,1.13,16.56,1.99,24.86,2.77,6.71.63,13.45,1.03,20.18,1.4,5.49.3,10.98.5,16.48.54,7.94.06,15.89-.03,23.83-.1,9.19-.08,18.37-.54,27.54-1.25,5.18-.4,10.36-.75,15.52-1.33,6.75-.75,13.49-1.61,20.21-2.59,12.37-1.8,24.61-4.27,36.6-7.87,6.76-2.03,13.38-4.41,19.63-7.73,3.05-1.63,5.96-3.47,8.52-5.83,1.78-1.64,3.41-3.44,3.98-5.87.39-1.64.63-3.35.67-5.04.09-4.6.05-9.2.04-13.8,0-.42-.11-.83-.21-1.49-2.93,1.15-5.67,2.22-8.39,3.3-.45.18-.87.46-1.33.61-1.38.43-2.79.77-4.16,1.22-4.83,1.58-9.59,3.35-14.47,4.78-6.9,2.02-13.81,4.04-20.72,6.03-2.07.6-2.08.56-2.52,2.6-1.44.22-3,.43-4.36-.07-.89-.32-1.56-.33-2.38-.13-16.46,4.04-33.07,7.3-49.93,9.17-9.74,1.08-19.5,1.69-29.31,1.69-3.9,0-7.8-.01-11.69,0-6.95.03-13.89.06-20.82-.53-6.72-.57-13.44-1.11-20.13-1.94-10.61-1.32-21.12-3.28-31.57-5.58-16.88-3.72-33.52-8.35-49.92-13.81-1.94-.65-3.88-1.31-5.82-1.96-.75-.25-1.5-.49-2.16-.7-.46.42-.79.98-1.16,1.01-1.37.12-2.77.2-4.24-.08,0-.74-.03-1.38,0-2.01.03-.57-.16-.96-.71-1.16-1.5-.55-2.98-1.11-4.64-1.73Zm178.04,25.43c-.07-1.36-.1-2.46-.18-3.55-.1-1.33-.27-1.43-1.56-1.33-3.18.26-6.36.6-9.55.71-5.33.2-10.67.25-16.01.36-.45,0-.9.01-1.35.02-.6,0-.94.3-.94.91,0,1.29,0,2.58,0,4.13,9.89.13,19.72-.25,29.58-1.25Zm-60.86.32c2.68.83,24.39,1.32,26.43.66.44-1.73.49-3.24.12-4.65-.39-.04-.82-.11-1.26-.12-.85-.02-1.7,0-2.55,0-4.94-.08-9.88-.14-14.82-.26-1.94-.04-3.89-.21-5.83-.29-1.3-.06-1.45.07-1.65,1.35-.16,1.08-.29,2.16-.44,3.32Zm89.74-9.4c-.86.12-1.54.22-2.23.32-4.83.76-9.67,1.54-14.5,2.28-2.27.34-4.55.6-6.83.89-.56.07-1.21.12-1.18.86.06,1.37.03,2.77.33,4.12.5,0,.85.04,1.18,0,4.8-.65,9.6-1.29,14.39-1.99,2.57-.38,5.12-.89,7.67-1.34.55-.1,1.15-.16,1.16-.91.02-1.33,0-2.67,0-4.22Zm-117.78,2.23c-.1.86-.2,1.5-.26,2.14-.14,1.7-.11,1.82,1.55,2.05,7.02.95,14.05,1.86,21.08,2.77.38.05.77-.05,1.24-.08.35-1.57.62-3.06.59-4.69-.7-.12-1.28-.24-1.87-.3-2.58-.29-5.16-.53-7.74-.84-4.31-.52-8.61-1.21-12.97-1.05-.49.02-.98,0-1.63,0Zm122.63,1.66c.79-.12,1.28-.16,1.76-.27,4-.87,8-1.72,11.99-2.62,2.48-.56,4.95-1.19,7.42-1.8.52-.13,1.19-.17,1.26-.87.13-1.37.29-2.76,0-4.29-.61.12-1.14.19-1.66.31-4.23.98-8.46,1.97-12.69,2.93-2.19.5-4.39.93-6.59,1.4-.49.1-1.06.18-1.13.8-.15,1.37-.23,2.75-.36,4.41Zm27.27-6.43c.52-.05.72-.04.91-.09,6.29-1.8,12.58-3.59,18.86-5.42.95-.27,1.02-.51.89-1.57-.15-1.23-.29-1.45-1.23-1.53-1.04-.09-2.1-.02-3.14-.14-1.33-.16-2.57.1-3.83.48-2.29.69-4.61,1.33-6.92,1.97-1.54.43-3.09.83-4.63,1.25-.48.13-1.03.25-1.03.9.01,1.33.07,2.67.11,4.14Zm-173.29-.7c0,1.22,0,2.21,0,3.2,0,1.61,0,1.65,1.56,1.97,4.98,1.04,9.96,2.06,14.94,3.07.56.11,1.14.13,1.73.19.12-.46.23-.74.26-1.04.07-.69.12-1.39.15-2.09.07-1.63.06-1.63-1.52-1.95-5.18-1.06-10.35-2.12-15.53-3.17-.43-.09-.87-.1-1.59-.19Zm-21.58-.88c1.78.93,15.22,4.36,16.65,4.29.05-.13.15-.26.16-.4.02-.9.04-1.8.04-2.7-.01-1.55-.04-1.58-1.47-1.94-4.4-1.12-8.8-2.25-13.2-3.36-.42-.11-.85-.17-1.47-.29-.24,1.53-.47,2.94-.7,4.4Zm-3.99-5.81c-3.08-.91-5.95-1.76-8.81-2.59-.23-.07-.5-.1-.74-.06-1.77.28-3.54.57-5.31.87-.49.08-.83.33-.85.88-.01.52.02,1.01.61,1.23.23.09.47.18.7.25,4.15,1.26,8.3,2.53,12.45,3.78.36.11.75.11,1.28.18.22-1.53.43-2.94.66-4.54Zm236.86-8.88c-.85.24-1.42.37-1.98.55-2.98.99-5.96,1.98-8.94,2.98-.47.16-.99.25-1.4.5-.29.17-.65.58-.63.85.1,1.28.32,2.54.53,4.05,4.52-1.4,8.78-2.84,13.11-4.4-.23-1.54-.44-2.9-.68-4.53Zm-128.07,5.89c0-1.46.03-2.71-.01-3.96-.02-.59-.06-1.21-.26-1.76-.48-1.32-1.79-1.67-2.91-.82-.67.51-1.04,1.17-1,2.06.08,1.6.08,3.2.14,4.79.07,1.8.19,3.59.25,5.39.03.8.35,1.21,1.16,1.21.25,0,.5.04.75.04,1.2.02,1.37-.09,1.48-1.34.17-1.94.27-3.88.39-5.62Zm31.28,5.05c.04-.41.12-.65.09-.89-.51-3.66-1.19-7.28-2.68-10.69-.14-.32-.31-.63-.51-.91-.57-.78-1.87-1.08-2.68-.63-.89.5-.39,1.24-.23,1.86.87,3.32,1.77,6.64,2.68,9.96.13.47.31.93.49,1.45,1-.05,1.91-.1,2.84-.15Zm-61.25,2.52c.19-.55.34-.82.38-1.11.5-3.7.98-7.41,1.46-11.12.09-.67-.11-1.18-.77-1.45-.74-.31-1.58-.17-2.02.48-.29.44-.47.99-.56,1.51-.5,2.95-.97,5.9-1.44,8.86-.11.67-.17,1.36-.27,2.21,1.12.22,2.12.41,3.21.62Zm-98.51-5.88c0-1.35-.03-2.49.01-3.62.03-.84-.34-1.27-1.12-1.5-1.24-.37-2.46-.79-3.68-1.22-1.37-.49-2.76-.22-4.14-.14-.19.01-.5.11-.53.21-.19.81-.37,1.62-.44,2.45-.06.62.49.8.97.96,2.59.89,5.17,1.78,7.77,2.65.27.09.57.1,1.16.21Zm190.37-.06c.03-.56.11-1.05.08-1.53-.09-1.39-.12-2.8-.36-4.16-.42-2.35-.94-4.68-1.52-6.99-.17-.7-.62-1.36-1.06-1.94-.18-.24-.72-.37-1.04-.3-.23.05-.48.49-.53.79-.08.43-.03.89.04,1.33.56,3.64,1.16,7.27,1.72,10.91.27,1.78.54,2,2.68,1.9Zm-145.47,5.93c2.29-.17,4.27-.29,6.23-.48.24-.02.63-.42.64-.66.09-1.42.22-2.85-.14-4.42-2.02,0-3.95,0-5.88,0-.53,0-.85.28-.85.82-.01,1.48,0,2.95,0,4.74Zm164.94-22.24c.15.33.21.53.32.68,2.52,3.16,4.16,6.67,4.22,10.8.01.99.8,1.19,2.05,1.12.8-.04,1.04-.37.89-1.36-.48-2.97-1.23-5.87-2.76-8.49-.49-.84-1.2-1.59-1.93-2.25-.72-.64-1.63-.9-2.79-.5Zm-144.46,19.24c1.85.75,2,.67,2.47-.83.3-.95.56-1.93.97-2.83,1.05-2.32,2.15-4.61,3.27-6.9.38-.78.72-1.53.27-2.41-.81-.3-1.42.07-1.88.59-.59.67-1.21,1.37-1.56,2.18-.95,2.2-1.79,4.44-2.6,6.69-.4,1.12-.62,2.3-.94,3.52Zm-77.85-17.45c1.56.38,1.65.33,2.07-1.03.06-.19.12-.38.18-.57,1.2-3.88,2.69-7.61,5.6-10.59.18-.18.21-.5.31-.75-1.28-.54-1.63-.52-2.48.27-3.53,3.28-5.16,7.48-5.78,12.14-.02.18.08.37.11.54Zm14.82,5.22c.16-.55.31-1.01.42-1.49.72-3.05,1.43-6.11,2.14-9.16.32-1.41.65-2.81.94-4.23.11-.56.26-1.17-.48-1.71-.35.44-.76.81-.99,1.27-.38.75-.7,1.54-.96,2.34-1.22,3.75-1.88,7.63-2.51,11.52-.19,1.14-.07,1.23,1.45,1.47Zm237.08-3.21c.72-.16,1.23-.27,1.82-.4-.21-3.01-.95-5.72-2.44-8.2-1.04-1.74-2.41-3.18-4.22-4.15-.51-.28-1.11-.41-1.69-.53-.16-.03-.49.18-.55.35-.06.17.09.44.21.63.07.11.25.16.38.23,1.64.88,2.88,2.21,3.62,3.87.91,2.04,1.6,4.18,2.36,6.29.2.55.31,1.14.51,1.91Zm-216.65,3.81c1.61,1.04,1.75,1,2.35-.45.19-.46.37-.93.57-1.38,1.63-3.77,3.4-7.45,6.72-10.09.03-.02.03-.09.05-.19-.45-.43-.99-.43-1.5-.16-.7.37-1.44.73-2,1.27-3.16,3.03-4.73,6.95-6.18,11.01Zm2.84,9.41c1.7-.14,3.36-.26,5.02-.44.21-.02.53-.37.55-.59.09-1.36.18-2.74-.06-4.2-1.61.08-3.05.15-4.48.24-.51.03-1.03.16-1.08.81-.1,1.32-.29,2.65.05,4.18Zm229.19-10.1c.21-1.91.24-3.51,0-5.16-1.65-.37-3.19-.67-4.89-.61-.22,1.83-.24,3.53.02,5.35,1.63.14,3.15.27,4.86.42Zm12.54.09c-1.69-.07-3.47-.17-5.24-.21-.38,0-.8.14-1.12.34-.24.16-.51.54-.49.79.12,1.27.18,2.56.75,3.86.48-.13.9-.22,1.31-.37,1.17-.42,2.33-.85,3.49-1.28,1.74-.65,1.92-1.05,1.3-3.13Zm-282.39,4.15c.11-1.36.23-2.6.27-3.83,0-.29-.19-.69-.42-.87-1.27-.98-4.12-1.13-5.43-.31-.16.1-.32.25-.39.42-.49,1.15.11,2.55,1.31,3.03,1.11.44,2.24.86,3.37,1.27.36.13.75.18,1.28.3Zm291.95-14.01c-.17-1.64-.05-3.03-.96-4.27-1.48-2.02-2.93-3.57-3.92-3.96-.32,2.46.04,4.87.45,7.36,1.42.28,2.83.55,4.43.87Zm-4.96,10.34c.64-.16,1.08-.2,1.46-.37.96-.41,1.92-.84,2.84-1.33,1.93-1.02,2.06-1.35,1.56-3.44-.06-.23-.16-.46-.28-.82-1.71.52-3.37.99-5,1.56-.27.09-.53.6-.55.93-.07,1.04-.03,2.08-.03,3.47Zm-62.33,13.06c.78-.16,1.31-.24,1.83-.37,2.88-.71,2.95-.81,2.64-3.83-.01-.1.02-.22-.03-.29-.19-.26-.36-.66-.62-.74-1.12-.35-2.26-.61-3.53-.93-.45,2.09-.34,4-.29,6.16Zm-165.28-6.36c-.04-.59-.08-1.07-.09-1.56-.01-.8-.05-1.6.02-2.39.27-2.98,1.19-5.75,2.74-8.32.31-.52.46-1.14.79-2-.6.22-.88.28-1.11.42-1.23.77-2.06,1.88-2.59,3.21-1.23,3.08-1.4,6.31-1.31,9.58.03.84.52,1.11,1.55,1.05Zm29.02,7.6c-3.98-.06-4.4.37-4.15,4.06.01.2-.02.42.06.59.12.25.3.61.51.65,1.14.2,2.28.71,3.57.29v-5.58Zm-87.45-35.89c-.96-2.12-1.71-2.42-3.27-1.33-1.26.88-2.46,1.86-3.59,2.91-.96.89-1.08,2.92-.37,4.27,1.63-2.89,3.99-4.85,7.23-5.85Zm-12.43,20.33c.14-.06.29-.12.43-.19,0-.63,0-1.25,0-1.88-.04-2.91.35-2.15-2.18-3.86-.89-.6-1.57-.47-2.37.33-.64.65-.7,1.21-.05,2.13,1.08,1.54,2.6,2.53,4.16,3.46Zm298.68-22.04c-.48,1.02-.03,1.66.56,2.34,1.79,2.06,3.55,4.15,5.29,6.26.51.62,1,.72,1.65.32-.15-2.59-4.06-7.27-7.5-8.92Zm-275.99,23.42c.23-1.3.33-2.46-.11-3.78-1.5,0-2.98,0-4.46,0-.54,0-.84.34-.86.84-.04.66-.44,1.57.33,1.91,1.56.7,3.14,1.57,5.11,1.02Zm237.67,6.23c3.63-.33,4.19-.96,3.92-4.08,0-.1-.01-.2-.02-.3-.04-.54-.35-.81-.88-.82-.8-.01-1.6-.01-2.4,0-.61,0-.93.33-.9.94.08,1.39.17,2.77.26,4.26Zm28.1-13.84c-.31,1.56-.2,3.21.35,4.66,1.11-.41,2.24-.78,3.33-1.27.29-.13.59-.57.62-.9.09-.83.03-1.67.03-2.47-1.42-.48-3.05-.47-4.32-.03Zm-77.82,19.92c-.35,2.1-.44,4.04-.28,5.97,2.64.16,2.9-.06,3.05-2.33.04-.64.14-1.28.18-1.93.03-.53,0-1.06,0-1.72h-2.95Zm-210.19-27.4c-1.44-.09-3.47.53-4.25,1.32-.26.26-.51.68-.5,1.02.02,1.81,2.56,3.18,4.06,2.21.18-.12.38-.37.4-.58.12-1.32.2-2.65.29-3.98Zm304.67,2.92c.14.92.27,1.76.41,2.59.12.77.26,1.55.38,2.32.28,1.88.55,3.75.84,5.63.06.39.14.85.69.82.59-.04.52-.5.48-.9-.35-3.23-.69-6.46-1.08-9.68-.13-1.05-.3-1.11-1.71-.77Zm-9.07-.05c.14-.03.28-.06.43-.1.33-.69.27-1.42.08-2.13-1.02-3.95-3.49-6.88-6.66-9.27-.38-.28-.9-.47-1.37-.5-.29-.02-.6.35-.9.54.19.25.32.59.57.75.5.31,1.09.5,1.6.79,3.29,1.88,5.09,4.8,5.87,8.44.11.5.26.99.39,1.48Zm-303.82-.78l.44-.02c.06-.37.16-.74.18-1.11.04-.85,0-1.7.08-2.54.42-4.5,1.29-8.75,6.03-10.87.37-.17.6-.52.19-1.08-.47.26-.96.48-1.4.78-1.86,1.27-3.24,2.94-4.14,5-1.2,2.74-1.63,5.63-1.59,8.61,0,.41.14.82.22,1.23Zm190.82,27.73q-1.48.39-1.39,1.58c.05.7.08,1.39.13,2.09.09,1.09.16,2.19.33,3.27.04.24.41.54.67.6.44.11.77-.15.81-.64.02-.25.03-.5.02-.75-.1-1.74-.2-3.48-.33-5.22-.02-.28-.14-.56-.24-.94Zm120.32-22.88c-1.46-.93-3.04-1.13-4.78-1.23-.13,1.02-.32,1.91.17,2.92,1.63-.33,3.18-.75,4.61-1.69Zm-19.81-.62c.67-2.66-2.23-8.39-5.2-10.29,0,.09-.06.21-.02.26,2.28,2.78,4.2,5.73,4.36,9.49.02.46.36.7.86.54Zm-156.61,27.77c-1.4-.5-1.98-.46-2.17.23-.31,1.13-.59,2.29-.4,3.46,1.75.44,1.9.36,2.2-1.22.15-.78.24-1.57.37-2.46Zm88.33-1.66c.76.29,1.18,0,1.24-.66.15-1.73.25-3.47.34-5.21.03-.47-.28-.81-.73-.72-.24.05-.51.41-.6.69-.12.37-.09.79-.12,1.18-.07,1.24-.15,2.48-.2,3.73-.01.33.05.67.08,1Zm-207.16-21.75v-3.02c-.84.1-1.53.13-2.19.28-.33.08-.78.32-.88.59-.17.49.04.99.58,1.21.76.31,1.54.59,2.48.94Zm5.53,4.28c-.11,1.3-.26,2.48-.3,3.67-.03.9.18,1.01,1.41.99.12-1.12.28-2.25.34-3.39.05-.96-.02-.97-1.46-1.27Zm35.62,2.7c-.2,1.18-.41,2.44-.61,3.69-.1.64-.22,1.28-.22,1.92,0,.19.3.45.52.56.08.04.46-.24.49-.42.29-1.71.55-3.43.77-5.15.06-.46-.21-.75-.94-.6Zm217.18-4.45c-.27,1.57.15,5.06.71,6.09.77-.38.8-.38.71-1.14-.17-1.43-.38-2.85-.58-4.28-.06-.4-.15-.81-.85-.68Zm-80.73,16.13c-.16.03-.33.05-.49.08-.32.84-.13,1.73-.11,2.59.02.85.09,1.7.21,2.54.12.81-.27,1.76.75,2.7.29-2.42-.13-4.57-.09-6.71,0-.39-.18-.79-.29-1.19Zm-33.11,1.64c-.43.88-.85,5.44-.69,6.76.03.25.23.47.43.84.2-.29.38-.44.39-.59.1-2.13.18-4.26.24-6.39,0-.15-.18-.31-.37-.63Zm63.58,3.68c-.61-.2-1.03-.07-1.11.48-.13.88-.21,1.78-.22,2.67,0,.56.4.75,1.05.55.18-1.21.5-2.45.28-3.71Zm-146.94-11.06c-.64,1.12-.63,4.47.01,5.41.52-1.16.51-4.28-.01-5.41Zm52.7,14.17c.6-.96,1.22-3.98,1.22-5.75,0-.2-.16-.4-.28-.66-.75,1.13-1.28,4.71-.95,6.41Zm-73.69-11.87c-.35.62-.91,2.96-.78,3.56.05.24.31.43.48.64.2-.18.53-.34.58-.56.2-.98.35-1.96.45-2.95.05-.47-.22-.74-.73-.7Zm194.47,2.74c-.6.95-.79,3.21-.36,4.75.29-.19.66-.29.78-.52.33-.63,0-3.4-.43-4.23Zm26.02-3.6c-.2-1.35-.37-2.54-.55-3.76q-1.13.35-.93,2.24c.15,1.36.18,1.4,1.47,1.51Zm-175.45,4.17c-.75,1.4-.6,2.94-.69,4.43,0,.12.32.25.69.52.27-1.78.56-3.34,0-4.95Zm-90.81-18.75c-.52,1.82-.38,3.88.25,4.57.56-1.35.48-3.54-.25-4.57Zm-9.66,1.51c.36-.83.1-5.15-.41-7-.39,2.56-.18,6.23.41,7Zm99.55,27.75c.56.16.75-.21.73-.63-.05-1.03.67-2.15-.25-3.21-.79,1.13-.93,2.43-.48,3.84Zm-23.21-8.74c-.53,1.27-.4,2.23-.24,3.19.02.13.28.29.44.31.16.02.48-.11.49-.21.08-.63.19-1.28.1-1.9-.06-.4-.42-.77-.79-1.39Zm51.75,13.34c.88-1.2,1.17-3.75.56-4.67-.48,1.6-.62,3.12-.56,4.67Zm-118.4-40.37c.82-1.25.4-2.57.18-3.88-.71,1.24-.7,2.54-.18,3.88Zm149.47,40.04c.93-1.3.94-2.65.14-3.51-.52,1.1-.41,2.15-.14,3.51Zm-136.6-32.43c-1.3-.26-1.56-.18-1.65.46-.1.69.21.92,1.57,1.02.03-.5.06-1,.09-1.48Zm227.09,14.65c.73-1.25.66-3.02,0-3.91v3.91Zm53.62-17.23c.79-1.28.72-3.02,0-3.87v3.87Zm.16,6.27c.61-1.38.54-2.9-.14-3.83-.2,1.4-.22,2.61.14,3.83Zm-110.01,26.84c.21-1.19.33-2.06-.17-2.99-.57,1.1-.56,1.69.17,2.99Zm-155.57-21.52c.14,1.17.39,1.23,1.66.44-.62-.17-1.11-.3-1.66-.44Zm123.92,17.03c.11,0,.23,0,.34.01v-1.93c-.06,0-.12,0-.18,0-.05.64-.11,1.28-.16,1.92Zm130.8-18.05c.11,0,.23,0,.34,0-.17-1.05-.34-2.11-.51-3.16-.09.01-.18.03-.27.04.15,1.04.29,2.09.44,3.13Zm-290.99-14.64c.1.62.17,1.07.25,1.62q1.11-.81-.25-1.62Zm8.02,1.56c-.29.77-.43,1.29.29,1.77.41-.62.4-1.11-.29-1.77Zm25.96,17.47c.36-1.67.33-2.69,0-3.58v3.58Zm267.85-32.94c.12-.08.25-.16.37-.24.02-.72-.49-.89-1.5-.97.51.55.82.88,1.13,1.21Zm-293.23,26.73c-.15-.12-.25-.26-.36-.27-.09,0-.18.17-.27.26.13.11.25.23.38.34.08-.1.16-.2.26-.33Z"/><line class="cls-2" x1="11" y1="207.53" x2="11"/><line class="cls-2" x1="308.17" y1="207.53" x2="308.17"/></svg>