<?xml version="1.0" encoding="utf-8"?>
<!-- Generator: Adobe Illustrator 27.6.1, SVG Export Plug-In . SVG Version: 6.00 Build 0)  -->
<svg version="1.1" id="Layer_1" xmlns="http://www.w3.org/2000/svg" xmlns:xlink="http://www.w3.org/1999/xlink" x="0px" y="0px"
	 viewBox="0 0 464 794" style="enable-background:new 0 0 464 794;" xml:space="preserve">
<style type="text/css">
	.st0{fill:none;stroke:#FFFFFF;stroke-miterlimit:10;}
</style>
<path class="st0" d="M-320.1,326.9l74.6-9c0,0,3.5,0,5.8-2.6c2.3-2.6,97-77.2,97-77.2s4.6-5.5,10.7-5.5s52.9,2.6,52.9,2.6
	s2.3,2,1.7,3.8c-0.6,1.7,1.2,3.5-2,3.2c-3.2-0.3-49.4-1.7-49.4-1.7s-2.6-0.6-7.3,2.3c-4.6,2.9-94.7,76.7-94.7,76.7
	s-5.8,4.9-19.2,6.7c-13.4,1.7-69.1,9.3-69.1,9.3S-321.5,332.1-320.1,326.9L-320.1,326.9z"/>
<polyline class="st0" points="-105.5,462.5 -111.4,467.1 -113.9,241.2 -99.9,241.5 "/>
<line class="st0" x1="-99.9" y1="241.5" x2="-99.6" y2="265.7"/>
<polyline class="st0" points="-105.5,462.5 -107.1,265.7 -99.6,265.7 "/>
<polygon class="st0" points="-105.5,462.5 -107.1,265.7 -97.1,266.3 -97.2,465.9 "/>
<path class="st0" d="M-259.2,554l1.1-0.5l10.9,5.8l-20.8,6.7l-12.5-6.1l3-1.4l3.4-22.3l0.7-4.4c0,0,0.5-1.5,1.7-1.4
	c2.1,0.2,7.6,3,7.6,3s1.3-0.3,1,2.5l-0.3,2.8l-4.2,22.4c0,0,0.1,3-2.5,1.8c-2.6-1.2-6.9-2.9-6.9-2.9s-1-1-0.4-1.7"/>
<polyline class="st0" points="-269.2,357.9 -270.6,328.9 -288.3,331.1 -276.5,554 "/>
<path class="st0" d="M-268.7,563.4c0,0,1.1,0.6,3.6,0.4c2.5-0.2,2.4-2,2.4-2s0.2-1.5,0.6-3.9c0.6-4,1.6-10.2,2.4-15
	c0.6-3.7,1-6.5,1.1-7c0.3-1.5-1.3-1.7-1.3-1.7l-1-0.1l-2.3-0.3l-6-2.7"/>
<path class="st0" d="M-276.5,554l3-21.1c0,0,0.4-2.2,1.1-2.3c0.7-0.2,3.2,0.4,3.2,0.4l-9.3-174.3l9.3,1.1l8.3,176.1"/>
<polyline class="st0" points="-259.7,542.8 -259.7,542.9 -258.6,559.2 -262,557.9 "/>
<path class="st0" d="M-273.8,365.3c0,0,0,0.6-0.4,0.9c0,0-0.2,0.1-0.3,0.1c0,0,0,0,0,0c-0.2,0-0.7-0.4-0.7-1c0-0.5,0.3-1,0.7-1
	S-273.8,364.8-273.8,365.3L-273.8,365.3z"/>
<path class="st0" d="M-274.4,366c0,1.7-0.1,5.5-0.7,8.8c-0.9,4.7-1.8,6.8-2.6,11.2c-0.3,1.6-0.5,3.3-0.5,8.6c0,8.6,0,12.8,0.6,17.5
	c0.7,4.9,1.7,12.3,5.9,20.4c2.2,4.3,5.7,9.5,8.2,13.2c0.8,1.3,3,2.4,3.1,4.6c0.2,2.5-1.8,4.7-3.5,6.2"/>
<path class="st0" d="M-267.5,532.2c-2.3-5.3-5.4-8.5-7.4-9.1c-3.5-1.2-8.4-0.1-13.5,1.1c-2.4,0.5-4,1-6.1,0.4
	c-0.4-0.1-3.5-1.1-5-4.1c-1.8-3.9,1.9-9.8,5.1-11.8c1.2-0.8,3.2-0.4,8.7-0.5c5.1-0.2,5.6,0.4,7.8-0.5c2.5-1,3.9-2.5,5.4-4
	c2.7-2.8,3.1-3.8,8.3-13.9c1.5-3,1.9-4.9,2.3-7.6c0.4-2.6,0.3-5.2-1.5-6.6"/>
<polyline class="st0" points="-85.8,463.9 -103,472.7 -112.3,469.9 -120.9,467.4 -116.8,464.6 -111.6,460.6 -111.4,467.1 
	-105.5,462.5 -97.2,465.9 -96.8,460.2 -85.8,463.9 "/>
<line class="st0" x1="235" y1="700" x2="232" y2="163.4"/>
<line class="st0" x1="218.5" y1="161.3" x2="221.3" y2="703.9"/>
<polyline class="st0" points="202.1,165.9 202.1,158.6 245.7,165.6 246.9,696.6 204.8,708.6 202.1,165.9 "/>
<polyline class="st0" points="204.8,695.4 191.3,688.4 177,690.7 173,168.5 187.9,171 218.5,161.3 "/>
<line class="st0" x1="187.9" y1="171" x2="191.3" y2="688.4"/>
<path class="st0" d="M202.1,164.2"/>
</svg>
