<?xml version="1.0" encoding="UTF-8"?><svg id="Layer_1" xmlns="http://www.w3.org/2000/svg" viewBox="0 0 1370.35 388.39"><defs><style>.cls-1{fill:none;stroke:#fff;stroke-miterlimit:10;stroke-width:2px;}</style></defs><path class="cls-1" d="m1358.24,366.55c-13.6,0-35.97-4.68-43.88-6.44-.03,0-.07-.02-.1-.02-15.18-3.79-372.04-92.98-384.96-97.85-15.09-5.69-16.43-24.59-16.48-25.4,0-.04,0-.07,0-.11-.06-1.86-6.33-185.92-7.78-208.14-1.17-17.85-15.42-17.62-17.05-17.54-.11,0-.25,0-.36,0-.65-.02-65.07-2.07-79.99-2.07-13.04,0-18.23,4.44-18.28,4.49-.77.73-1.78,1.08-2.8,1.05-53.88-1.31-159.64-3-174.28-.08-14.89,2.98-16.21,14.39-16.31,15.68.14,6.41,4.07,180.9,3.79,215.92-.1,12.52-3.78,22.03-10.93,28.26-9.86,8.6-22.83,7.7-25.04,7.47L5.03,286.46h-.03c-2.19,0-3.98-1.77-4-3.97-.02-2.21,1.76-4.01,3.97-4.03l558.99-4.66c.17,0,.37,0,.55.03.1.01,11.29,1.29,19.12-5.58,5.31-4.66,8.05-12.15,8.13-22.25.29-35.38-3.75-214.04-3.79-215.84,0-.08,0-.16,0-.24.24-6.53,5.31-19.81,22.74-23.3,18.4-3.68,157.97-.5,174.63-.11,2.79-1.93,9.68-5.5,22.3-5.5,14.89,0,76.29,1.95,80.14,2.07,2.71-.07,23.62.36,25.23,25.01,1.45,22.16,7.64,203.64,7.79,208.31.06.77,1.33,14.61,11.31,18.37,9.99,3.77,255.53,65.45,384.02,97.56,19.42,4.31,43.11,7.72,47.56,5.72,2.02-.91,4.38,0,5.29,2.01.91,2.01,0,4.38-2.01,5.29-1.93.87-5.01,1.22-8.75,1.22Z"/><ellipse class="cls-1" cx="55.75" cy="296.13" rx="8.11" ry="7.54"/><ellipse class="cls-1" cx="301.4" cy="296.13" rx="8.11" ry="7.54"/><ellipse class="cls-1" cx="545.95" cy="293.67" rx="8.11" ry="7.54"/><ellipse class="cls-1" cx="576.87" cy="141.23" rx="8.11" ry="7.54"/><ellipse class="cls-1" cx="958.11" cy="279.85" rx="3.32" ry="8.63"/><ellipse class="cls-1" cx="1068.71" cy="311.23" rx="4.9" ry="9.8"/><ellipse class="cls-1" cx="1274.79" cy="372.39" rx="9.64" ry="15"/><polygon class="cls-1" points="48.51 286.65 50.74 290.2 55.75 288.59 55.75 286.03 48.51 286.65"/><line class="cls-1" x1="293.28" y1="284.05" x2="298.41" y2="289.12"/><line class="cls-1" x1="305.24" y1="283.95" x2="303.38" y2="288.59"/><polyline class="cls-1" points="540.29 281.99 543.46 286.13 547.94 286.13 550.19 281.91"/><polyline class="cls-1" points="590.18 135.21 584.47 138.6 584.75 143.02 590.18 146.22"/><path class="cls-1" d="m946.43,267.03l4.95,1.31s-1.75,3.8,0,4.59,2.54.79,2.54.79l3.23-3.87"/><line class="cls-1" x1="1050.62" y1="296.28" x2="1050.62" y2="293.8"/><path class="cls-1" d="m1062.12,296.71s-1.8,4.32-1.14,5.04,2.25,1.21,2.84.97,4.9-1.29,4.9-1.29"/><path class="cls-1" d="m1058.74,296.39s-1.92,5.58-1.22,6.52,2.39,1.57,3.02,1.25,5.21-1.67,5.21-1.67"/><path class="cls-1" d="m1259.28,347.05s-1.2,8.79,0,9.27,7.52,2.53,7.52,2.53"/><path class="cls-1" d="m1267.84,348.48s-2.97,5.64-2.68,7.42,3.87,4.48,3.87,4.48"/></svg>