<?xml version="1.0" encoding="UTF-8"?><svg id="Layer_1" xmlns="http://www.w3.org/2000/svg" viewBox="0 0 479.39 550"><defs><style>.cls-1{fill:#fff;}</style></defs><path class="cls-1" d="m159.02,550c-.79-.13-1.57-.35-2.36-.38-8.05-.23-16.07-.9-24.08-1.74-7.35-.77-14.7-1.51-22.04-2.38-11.63-1.38-23.24-2.91-34.72-5.21-7.83-1.57-15.56-3.54-23.01-6.48-6.58-2.6-12.72-5.97-18.21-10.45-6.85-5.58-12.29-12.31-16.43-20.11-3.95-7.44-6.47-15.37-8.02-23.63-1.19-6.35-1.8-12.76-1.85-19.22-.04-5.28.05-10.55.57-15.8.27-2.77.64-5.53.97-8.29.53-4.44,1.04-8.87,1.58-13.31.64-5.23,1.27-10.47,1.94-15.7.65-5.08,1.31-10.17,2.02-15.24,1.23-8.7,2.45-17.4,3.77-26.09,1.29-8.47,2.66-16.93,4.05-25.38,2.29-13.88,4.85-27.7,7.64-41.48,2.98-14.72,6.23-29.37,10-43.91,3.1-11.99,6.44-23.91,10.56-35.59,2.44-6.91,5.08-13.74,8.44-20.27.94-1.82,1.97-3.6,3.02-5.35.61-1.01,1.08-2.06,1.41-3.2,1.85-6.4,3.63-12.83,5.66-19.17,2.13-6.64,4.88-13.03,8.46-19.04.49-.82.98-1.63,1.46-2.45.03-.06.03-.14.08-.39-.12-.26-.27-.66-.5-1.02-13.69-21.32-27.4-42.64-41.08-63.97-9.81-15.29-19.59-30.59-29.39-45.88-1.18-1.85-2.45-3.65-3.58-5.53-1.85-3.08-3.58-6.23-4.51-9.73-.14-.52-.38-.95-.89-1.19,0-.88,0-1.76,0-2.64.27-.22.66-.38.8-.67.9-1.88,2.26-3.4,3.74-4.81,1.53-1.45,3.09-2.9,4.76-4.19,3.69-2.85,7.45-5.6,11.18-8.41.69-.52,1.55-.85,1.93-1.72.44,0,.88,0,1.32,0,.18.12.34.3.54.37,4.56,1.6,7.79,4.83,10.52,8.64,2.35,3.27,4.61,6.61,6.92,9.91,12.23,17.46,24.45,34.92,36.69,52.37,11.36,16.19,22.74,32.36,34.1,48.54.42.6.85,1.2,1.21,1.83.51.91,1.23,1.1,2.22.92,2.66-.49,5.33-.99,8.01-1.34,2.76-.35,5.53-.6,8.3-.75,3.58-.19,7.17-.38,10.75-.33,11.29.17,22.52,1.04,33.58,3.45,6.08,1.32,12.09,2.93,18.15,4.36,21.01,4.98,42,10.01,63.03,14.91,20.25,4.71,40.56,9.1,60.97,13.05,9.99,1.93,20.02,3.61,30.09,5.05,8.2,1.17,16.29,2.87,24.11,5.7,6.94,2.51,13.39,5.9,19.08,10.65,4.76,3.97,8.91,8.47,11.86,13.99,1.45,2.72,2.63,5.56,3.63,8.47.98,2.84,1.85,5.71,2.77,8.57.2.62.42,1.23.6,1.75.79.39,1.24-.1,1.73-.37,3.35-1.82,6.73-3.57,10.29-4.94,3.36-1.29,6.77-2.31,10.38-2.7,2.16-.23,4.23-.03,6.3.5,5.23,1.35,9.73,4.05,13.64,7.68,2.73,2.54,5.35,5.22,7.86,7.98,2.61,2.89,5.42,5.55,8.38,8.06,2.24,1.9,4.35,3.93,6.11,6.29.78,1.06,1.49,2.17,2.14,3.32,1.05,1.88,1.69,3.89,1.63,6.08,0,.37.02.73.04,1.1.4,5.8-1.89,10.56-5.73,14.69-3.35,3.6-7.44,6.13-11.92,8.06-.87.38-1.77.69-2.65,1.06-.39.17-.75.41-1.07.59-.18.96.19,1.7.4,2.46,1.92,6.99,3.92,13.96,5.48,21.05,1.86,8.44,3.43,16.94,4.82,25.47,1.6,9.83,3.18,19.66,4.68,29.51,1.26,8.25,2.48,16.51,3.55,24.79,1.46,11.28,1.96,22.62,1.39,33.99-.51,10.26-2.78,20.15-6.79,29.62-1.69,3.98-3.52,7.89-5.7,11.63-4.15,7.12-9.81,12.73-16.93,16.86-18.88,10.95-38.18,21.1-58,30.27-17.15,7.94-34.54,15.28-52.24,21.9-19.35,7.24-38.96,13.64-58.88,19.11-12.99,3.57-26.07,6.75-39.29,9.37-8.26,1.64-16.56,3-24.94,3.86-6.77.7-13.54,1.41-20.33,1.75-2.78.14-5.55.27-8.33.45-.79.05-1.58.24-2.36.37h-25.48ZM63.23,73.01c-.06-.1-.13-.19-.19-.29.08.09.15.18.23.27.11.56.39,1.01.88,1.32.1.57.36,1.03.88,1.32.09.57.35,1.03.88,1.32.08.58.34,1.04.88,1.32.18.88.54,1.66,1.32,2.17.08.59.35,1.05.87,1.35.09.58.35,1.04.88,1.32.07.59.34,1.04.88,1.32.07.59.34,1.05.88,1.32.06.6.33,1.05.88,1.32.04.61.31,1.06.88,1.32.04.61.3,1.07.88,1.32.33,1.42,1.12,2.55,2.2,3.5.07.59.34,1.06.88,1.34.08.58.33,1.05.88,1.32.06.6.32,1.06.88,1.32.09.27.12.58.27.81,1.1,1.69,2.22,3.37,3.35,5.04.19.29.51.49.77.73.06.6.31,1.06.88,1.32.05.6.3,1.07.88,1.32.03.61.29,1.08.88,1.32.03.62.3,1.08.88,1.33.21.53.36,1.1.66,1.57,1.36,2.13,2.75,4.23,4.15,6.32.23.34.6.6.9.89.04.61.29,1.08.88,1.32.03.62.29,1.08.88,1.32.02.62.28,1.08.88,1.33.07.28.07.6.22.83,1.34,2.08,2.7,4.14,4.07,6.2.06.09.24.09.54.2-.14-.36-.2-.62-.34-.84-1.19-1.83-2.38-3.66-3.6-5.47-.23-.35-.6-.6-.91-.9-.03-.62-.29-1.08-.88-1.33-.03-.61-.29-1.07-.88-1.32-.02-.62-.29-1.08-.88-1.32-.21-.53-.35-1.1-.65-1.57-1.36-2.12-2.75-4.23-4.16-6.32-.23-.34-.6-.6-.9-.89-.04-.61-.3-1.08-.88-1.33-.04-.61-.31-1.07-.88-1.32-.04-.61-.3-1.07-.88-1.32-.03-.62-.29-1.08-.88-1.32-.02-.14,0-.32-.06-.43-1.25-1.95-2.51-3.89-3.78-5.82-.11-.16-.36-.22-.55-.33-.04-.61-.3-1.07-.88-1.32-.03-.62-.29-1.08-.88-1.32-.02-.62-.29-1.09-.88-1.34-.32-1.42-1.12-2.54-2.2-3.5-.07-.59-.34-1.04-.88-1.32-.07-.59-.32-1.05-.88-1.32-.06-.59-.32-1.06-.88-1.32-.05-.6-.31-1.06-.88-1.32-.05-.6-.31-1.06-.88-1.32-.04-.61-.3-1.07-.88-1.32-.04-.61-.3-1.08-.87-1.35-.14-.91-.49-1.68-1.32-2.17-.06-.6-.32-1.06-.88-1.32-.05-.6-.31-1.06-.88-1.32-.04-.61-.3-1.07-.88-1.32-.04-.61-.29-1.08-.88-1.32Zm-2.64.45c0-.06,0-.13-.03-.19-.02-.04-.07-.07-.11-.11l.17.27c.29.44.59.88.88,1.31.3.42.6.85.9,1.27,0,.06,0,.13.03.19.02.04.07.07.11.11-.05-.09-.11-.18-.16-.27-.3-.42-.6-.85-.9-1.27-.12-.56-.38-1.02-.89-1.31Zm1.37-2.71c.06.1.13.19.19.29-.08-.09-.15-.18-.23-.26l-.88-1.32c-.11-.56-.38-1.02-.88-1.32-.1-.57-.37-1.03-.88-1.32-.09-.57-.36-1.03-.88-1.32-.09-.58-.36-1.03-.88-1.32-.08-.58-.36-1.03-.88-1.32-.08-.58-.33-1.04-.89-1.28l-.19-.28c.07.08.15.17.22.25.12.55.37,1.01.89,1.28.09.57.34,1.04.88,1.32.08.58.33,1.05.88,1.32.07.59.33,1.05.88,1.32.06.59.32,1.06.88,1.32.05.6.31,1.07.88,1.32.05.6.29,1.08.88,1.32Zm-29.48-44.77c0-.06,0-.13-.03-.19-.02-.04-.07-.07-.11-.11.06.09.11.18.17.27.3.44.59.88.89,1.31.3.42.6.85.9,1.27,0,.06,0,.13.03.19.02.04.07.07.11.11-.06-.09-.11-.18-.17-.28-.3-.42-.6-.85-.9-1.27-.12-.56-.38-1.02-.89-1.31Zm.44,5.27c-.06-.1-.13-.19-.19-.29.07.09.15.18.22.26.29.44.59.88.88,1.32.11.56.38,1.02.88,1.32.1.57.37,1.02.88,1.32.09.57.37,1.02.88,1.32.09.57.37,1.03.88,1.32.08.58.36,1.03.88,1.32.08.58.33,1.04.89,1.28,0,.07,0,.15.02.21.02.05.08.08.12.12-.06-.1-.11-.2-.17-.31-.13-.54-.38-1-.89-1.28-.1-.57-.35-1.04-.88-1.32-.08-.58-.34-1.04-.88-1.32-.08-.58-.33-1.05-.88-1.32-.07-.59-.33-1.05-.88-1.32-.06-.6-.32-1.06-.88-1.32-.05-.6-.3-1.07-.88-1.32Zm-3.03-4.9c.05.61.32,1.07.87,1.35.06.59.31,1.06.89,1.28.06.1.13.19.19.29-.07-.09-.15-.18-.22-.26-.12-.55-.39-1-.89-1.28-.09-.58-.36-1.04-.87-1.35-.1-.57-.36-1.03-.88-1.32-.08-.58-.35-1.04-.88-1.32-.08-.58-.35-1.04-.88-1.32-.07-.59-.34-1.04-.88-1.32-.06-.6-.33-1.05-.88-1.32-.05-.6-.31-1.06-.88-1.32-.11-.93-.58-1.64-1.32-2.19.52-.4,1.05-.78,1.54-1.2.18-.16.28-.41.52-.78-1.19-.17-1.9.29-2.45.97-.33.41-.11.81.41.98.09.94.56,1.65,1.32,2.19.09.58.35,1.04.88,1.32.08.58.33,1.05.88,1.32.08.58.33,1.05.88,1.32.06.59.32,1.05.88,1.32.06.59.32,1.06.88,1.32.05.6.31,1.06.88,1.32Zm22.84,39.58c.02.62.29,1.08.88,1.33.25.59.43,1.23.78,1.76,1.57,2.44,3.17,4.86,4.79,7.26.27.41.68.72,1.03,1.08.03.62.3,1.08.88,1.33.17.47.26.99.52,1.41.85,1.36,1.74,2.69,2.64,4.01.2.29.52.48.79.72.03.62.3,1.08.88,1.33.03.61.3,1.07.88,1.32.03.61.29,1.07.88,1.32.22.53.36,1.1.66,1.58,1.65,2.56,3.33,5.1,5.02,7.63.23.35.6.6.91.9.04.61.3,1.08.88,1.33.04.61.3,1.07.88,1.3.03.61.29,1.08.88,1.32.02.63.28,1.09.88,1.33.57,1.7,1.92,3.72,3.51,5.26.05.6.3,1.07.88,1.32.03.61.29,1.07.88,1.32.03.61.29,1.08.88,1.32.02.62.29,1.08.88,1.33.21.53.35,1.1.66,1.57,1.36,2.12,2.75,4.22,4.16,6.31.23.34.59.6.9.9.05.6.3,1.07.88,1.32.04.61.3,1.07.88,1.32.03.61.29,1.07.88,1.32.03.62.3,1.08.88,1.34.03.62.29,1.08.88,1.32.03.72.33,1.28,1.22,1.94-.3-1.03-.61-1.57-1.25-1.91-.06-.6-.31-1.06-.88-1.32-.05-.61-.31-1.07-.88-1.34-.04-.61-.31-1.06-.88-1.32-.04-.61-.31-1.07-.88-1.32-.03-.61-.3-1.07-.88-1.32-.21-.53-.36-1.1-.66-1.57-1.36-2.12-2.75-4.22-4.16-6.32-.23-.34-.6-.6-.9-.9-.05-.61-.31-1.07-.88-1.33-.04-.61-.31-1.06-.88-1.32-.04-.61-.3-1.07-.88-1.32-.03-.61-.3-1.07-.88-1.32-.57-1.7-1.92-3.72-3.51-5.26-.04-.61-.31-1.07-.88-1.33-.04-.61-.3-1.07-.88-1.32-.04-.61-.29-1.07-.88-1.3-.02-.62-.29-1.08-.88-1.33-.18-.47-.28-.98-.54-1.39-1.73-2.68-3.49-5.34-5.26-7.99-.19-.29-.52-.48-.79-.72-.03-.61-.29-1.08-.88-1.32-.03-.62-.29-1.08-.88-1.32-.02-.62-.29-1.08-.88-1.33-.14-.41-.21-.86-.43-1.21-.93-1.48-1.89-2.94-2.86-4.39-.15-.23-.44-.36-.66-.54-.02-.62-.29-1.08-.88-1.33-.21-.53-.35-1.11-.66-1.58-1.65-2.56-3.33-5.1-5.02-7.63-.23-.35-.6-.6-.91-.89-.03-.62-.29-1.08-.88-1.33-.03-.61-.29-1.07-.88-1.32-.03-.61-.29-1.08-.88-1.32-.25-.59-.43-1.23-.77-1.76-1.57-2.44-3.17-4.86-4.79-7.27-.27-.41-.68-.72-1.03-1.08-.03-.61-.29-1.08-.88-1.33-.03-.62-.29-1.07-.88-1.32-.03-.62-.29-1.08-.88-1.32-.14-.41-.2-.86-.43-1.21-2.06-3.18-4.15-6.34-6.24-9.5-.19-.29-.53-.48-.79-.71-.02-.62-.29-1.08-.88-1.32-.02-.62-.28-1.08-.88-1.33-.22-.53-.36-1.11-.66-1.59-1.94-3-3.91-5.98-5.89-8.95-.23-.35-.61-.6-.92-.9-.03-.62-.29-1.08-.88-1.32-.02-.62-.29-1.08-.88-1.32-.57-1.69-1.04-2.41-2.25-3.47.51,1.52.99,2.24,2.27,3.45.02.62.28,1.08.88,1.32.02.62.28,1.08.88,1.32.22.53.36,1.11.66,1.58,1.94,3,3.91,5.97,5.89,8.94.23.35.61.6.92.9.03.62.29,1.08.88,1.33.03.62.29,1.08.88,1.32.14.41.2.86.43,1.21,2.06,3.18,4.15,6.34,6.24,9.49.19.29.52.48.79.72.03.62.29,1.08.88,1.32.02.62.28,1.08.88,1.32.02.63.28,1.09.88,1.33.21.53.35,1.11.65,1.58,1.65,2.56,3.33,5.1,5.03,7.63.23.35.6.6.91.9.03.61.29,1.08.88,1.32.03.62.29,1.08.88,1.32Zm1.33-2.65c0,.07,0,.14.03.2.02.04.08.07.12.11-.06-.09-.12-.19-.17-.28-.29-.44-.59-.88-.88-1.32-.29-.44-.59-.88-.88-1.32-.12-.55-.37-1.01-.9-1.28,0-.07,0-.14-.02-.2-.02-.05-.08-.07-.12-.11.06.1.11.19.17.29.3.43.6.85.9,1.28.1.57.36,1.03.88,1.32.1.57.37,1.03.88,1.31Zm-14.11-25.87c0-.07,0-.14-.02-.2-.02-.05-.08-.07-.12-.11.06.1.11.19.17.29.3.44.59.88.89,1.31.29.44.59.88.88,1.32.29.44.59.88.88,1.32.11.56.37,1.01.9,1.28,0,.07,0,.14.02.21.02.05.08.07.12.11-.06-.1-.11-.2-.17-.29-.3-.43-.6-.85-.9-1.28-.1-.57-.36-1.03-.88-1.32-.1-.57-.36-1.03-.88-1.32-.1-.57-.36-1.03-.89-1.31Zm73.41,120.84c.03.37-.04.82.82.81-.39-.36-.62-.57-.86-.78-.07-.59-.33-1.05-.88-1.32-.06-.6-.32-1.06-.88-1.32-.05-.6-.32-1.06-.88-1.32-.05-.6-.31-1.06-.88-1.32-.03-.61-.3-1.07-.88-1.32-.11-.34-.14-.73-.33-1.02-1.15-1.77-2.33-3.53-3.51-5.28-.04-.06-.23,0-.53,0,1.4,2.15,2.6,4.3,4.22,6.18.04.05.13.07.19.1.06.59.31,1.06.88,1.32.05.6.3,1.07.88,1.32.04.61.3,1.07.88,1.32.04.61.3,1.07.88,1.32.03.62.29,1.08.88,1.32Zm6.15-4.4c.03.62.29,1.09.87,1.34.55,1.62.65,1.78,1.85,2.94-.53-1.51-.59-1.6-1.88-2.91-.07-.59-.35-1.05-.87-1.34-.09-.58-.36-1.03-.88-1.32-.1-.57-.35-1.02-.88-1.29-.08-.59-.36-1.05-.87-1.35-.1-.57-.37-1.02-.88-1.32-.1-.57-.38-1.02-.88-1.32-.11-.56-.39-1.01-.88-1.32-.11-.56-.39-1.01-.88-1.32-.29-.44-.59-.88-.88-1.32-.12-.55-.39-1-.9-1.27,0-.07,0-.14-.03-.2-.02-.04-.07-.07-.11-.11.06.09.11.19.17.28.3.42.6.85.9,1.27.1.57.36,1.03.88,1.32.09.57.35,1.04.88,1.32.09.57.35,1.04.88,1.32.08.58.34,1.05.88,1.32.07.59.32,1.05.88,1.32.05.61.33,1.06.87,1.35.06.59.32,1.05.88,1.29.04.61.29,1.08.88,1.32Zm-17.13-12.31c.08.26.16.51.25.77.02.05.11.07.18.1.05-.1.16-.26.13-.29-.18-.2-.39-.36-.6-.54-.04-.61-.31-1.06-.88-1.32-.05-.6-.31-1.06-.88-1.32-.03-.61-.3-1.07-.88-1.32-.55-1.63-.66-1.79-1.85-2.93.54,1.54.62,1.66,1.89,2.9.06.6.31,1.07.88,1.32.04.61.3,1.07.88,1.32.04.61.3,1.07.88,1.32Zm-10.98-6.6c.03.14.04.28.09.41.02.06.1.09.15.14.03-.1.11-.25.07-.29-.08-.1-.23-.15-.34-.22-.05-.6-.31-1.06-.89-1.29-.07-.09-.13-.19-.2-.28.08.09.15.17.23.26.11.56.35,1.03.89,1.29ZM52.74,56.68c0,.07,0,.15.02.21.02.05.08.08.13.12-.06-.1-.12-.2-.17-.3-.29-.44-.59-.88-.88-1.32-.12-.56-.38-1.01-.88-1.32-.11-.56-.38-1.01-.88-1.32-.11-.56-.38-1.02-.88-1.32-.1-.57-.37-1.02-.88-1.32-.1-.57-.35-1.03-.9-1.28,0-.07,0-.14-.02-.21-.02-.05-.08-.08-.12-.11.06.1.11.2.17.3.3.43.6.85.9,1.28.1.57.35,1.03.88,1.32.09.58.35,1.04.88,1.32.09.58.34,1.04.88,1.32.07.59.34,1.05.88,1.32.07.59.32,1.06.88,1.32Zm49.16,75.22c-.08-.09-.17-.17-.25-.26.09.08.18.16.27.24.02.62.29,1.08.88,1.32.07.28.08.6.23.83,1.14,1.77,2.31,3.51,3.49,5.26.03.05.23-.02.48-.05-1.19-2.03-2.42-3.98-3.84-5.8-.08-.1-.25-.14-.37-.21-.02-.62-.28-1.08-.88-1.32ZM46.59,51.84c0,.07,0,.15.02.21.02.05.08.07.12.11-.06-.1-.12-.2-.17-.3-.29-.44-.59-.88-.88-1.32-.11-.56-.39-1.01-.88-1.32-.11-.56-.38-1.01-.88-1.32-.1-.57-.37-1.02-.88-1.32-.09-.57-.35-1.03-.89-1.28,0-.07,0-.15-.02-.21-.02-.05-.08-.08-.13-.11.06.1.11.2.17.3.14.54.38,1,.89,1.28.1.57.35,1.03.88,1.32.09.58.35,1.04.88,1.32.09.58.35,1.04.88,1.32.08.58.34,1.05.88,1.32Zm19.72,17.64c-.05-.35-.06-.73-.56-.78-.05.46.24.63.59.75.02.62.27,1.08.87,1.32.05.95.71,1.59,1.18,2.31,4.29,6.46,8.61,12.91,12.91,19.37,7.14,10.72,14.28,21.45,21.43,32.17.48.72,1,1.42,1.5,2.13,1.15-.2,2.07-.51,2.86-1.41-.79-1.36-1.73-2.57-2.63-3.8-8.96-12.31-17.94-24.61-26.9-36.92-2.93-4.02-5.82-8.08-8.74-12.11-.46-.64-.81-1.41-1.63-1.72-.03-.61-.33-1.05-.89-1.31Zm105.56,478.48c8.57-.02,17.12-.26,25.67-.91,6.42-.49,12.83-1.1,19.23-1.77,8.09-.85,16.09-2.23,24.06-3.82,10.98-2.19,21.88-4.79,32.71-7.66,24.37-6.47,48.29-14.3,71.79-23.41,26.24-10.17,51.84-21.74,76.73-34.89,8.81-4.65,17.51-9.49,26.11-14.51,6.73-3.93,12.01-9.29,15.93-16.02,3.11-5.33,5.55-10.98,7.63-16.78,3.33-9.28,4.53-18.92,4.82-28.7.11-3.88-.04-7.76-.22-11.64-.33-7.25-1.05-14.47-2.02-21.65-1.22-8.93-2.59-17.83-3.99-26.73-1.64-10.42-3.35-20.83-5.12-31.22-1.42-8.38-3.1-16.71-5.29-24.93-1.85-6.94-3.81-13.84-5.78-20.75-1.35-4.72-2.91-9.37-4.71-13.94-3.35-8.51-8.63-15.57-15.62-21.43-6.42-5.38-13.65-9.3-21.47-12.21-6.33-2.35-12.85-4.03-19.47-5.3-5.82-1.12-11.7-1.93-17.56-2.78-11.16-1.62-22.26-3.56-33.31-5.79-16.22-3.27-32.44-6.5-48.59-10.09-25.22-5.6-50.4-11.43-75.57-17.24-12.27-2.83-24.48-5.88-36.73-8.79-10.93-2.59-22.06-3.96-33.25-4.42-11.55-.47-23.13-.64-34.6,1.36-2.23.39-4.48.66-6.7,1.1-6.48,1.28-12.42,3.84-17.87,7.58-7.85,5.39-14.8,11.72-20.53,19.35-1.01,1.34-2.16,2.6-2.76,4.21-.07.2-.24.36-.36.54-.58.84-1.23,1.64-1.74,2.51-2.05,3.48-3.71,7.15-5.29,10.86-3.44,8.1-6.27,16.42-8.83,24.84-4.01,13.18-7.45,26.51-10.56,39.93-3.57,15.42-6.76,30.91-9.59,46.48-1.88,10.38-3.65,20.78-5.38,31.18-1.34,8.09-2.56,16.2-3.79,24.31-.8,5.29-1.54,10.58-2.26,15.88-.84,6.17-1.64,12.34-2.43,18.52-.68,5.3-1.33,10.61-1.98,15.92-.56,4.58-1.05,9.17-1.65,13.74-.76,5.82-1.18,11.66-1.3,17.52-.13,6.08.3,12.15,1.14,18.18,1.17,8.39,3.28,16.52,6.86,24.23,6.2,13.35,15.7,23.54,28.89,30.21,4.99,2.52,10.2,4.43,15.55,6,6.12,1.79,12.34,3.12,18.62,4.24,8.22,1.47,16.48,2.62,24.76,3.66,5.59.7,11.19,1.33,16.79,1.92,5.67.6,11.36,1.15,17.04,1.68,2.33.22,4.67.37,7,.53,3.65.24,7.3.54,10.95.67,4.68.16,9.37.16,14.05.23Zm222.93-340.24c-.1-.61-.1-1.13-.28-1.56-1.02-2.43-1.95-4.9-3.15-7.25-2.74-5.39-6.84-9.67-11.49-13.42-5.06-4.09-10.79-6.99-16.92-9.15-7.49-2.63-15.23-4.19-23.07-5.29-10.73-1.5-21.39-3.42-32.01-5.52-21.04-4.16-41.97-8.8-62.85-13.71-20.02-4.71-40.01-9.53-60-14.35-5.34-1.29-10.71-2.37-16.16-3.11-7.19-.97-14.42-1.38-21.67-1.47-5.2-.06-10.39.25-15.56.82-2.61.29-5.2.81-7.8,1.25-.55.09-1.17.16-1.53.9.24.45.48.97.79,1.45,4.2,6.44,8.44,12.86,12.61,19.32.75,1.17,1.6,1.7,3.03,1.7,7.18-.02,14.33.48,21.47,1.23,5.75.61,11.49,1.33,17.14,2.59,8,1.79,15.95,3.77,23.93,5.64,20.95,4.91,41.89,9.86,62.86,14.67,21.9,5.02,43.84,9.87,65.88,14.23,10.41,2.06,20.82,4.1,31.28,5.92,10.67,1.85,21.38,3.42,32.08,5.11.41.06.83,0,1.41,0Zm-288.62-47.05c-.2-.43-.34-.85-.57-1.2-.84-1.29-1.72-2.55-2.58-3.83-2.01-2.97-3.96-5.98-6.04-8.9-2.19-3.1-3.92-6.54-6.67-9.24-.26-.25-.42-.6-.62-.9-4.16-6.47-8.33-12.93-12.46-19.41-9.3-14.57-18.55-29.17-27.87-43.73-7.82-12.22-15.66-24.41-23.56-36.57-2.87-4.42-5.92-8.72-8.88-13.09-.45-.66-.9-1.35-1.22-2.07-.2-.44-.29-1.02-.18-1.48.24-.99.5-2.03,1.33-2.72,1.91-1.59,3.76-3.28,5.82-4.65,2.44-1.62,4.77-1.06,6.55,1.25.22.29.4.61.61.91.85,1.28,1.64,2.6,2.54,3.84,16.01,22.04,32.03,44.08,48.04,66.12,8.87,12.21,17.74,24.41,26.59,36.63,1.29,1.78,2.57,3.57,3.68,5.46,5.55,9.4,11.03,18.83,16.55,28.25.44.76.88,1.52,1.38,2.24.19.28.53.6.84.63.94.1,1.9.11,2.84.08.47-.01.94-.17,1.45-.27,0-1.03-.6-1.63-1.02-2.28-3.03-4.67-6.05-9.34-9.14-13.98-3-4.51-5.89-9.09-8.55-13.82-1.33-2.36-2.66-4.73-4.21-6.95-10.7-15.3-21.47-30.56-32.2-45.85-8.04-11.45-16.07-22.9-24.09-34.36-7.02-10.02-14.02-20.04-21.03-30.07-1.31-1.87-2.76-3.6-4.44-5.14-1.25-1.14-2.63-2.09-4.19-2.79-1.02-.46-1.89-.42-2.86.27-4.86,3.41-9.63,6.93-14.1,10.83-1.1.96-2.09,2.05-3.16,3.05-2.27,2.1-2.71,4.58-1.59,7.4.43,1.09.8,2.22,1.36,3.24,1.33,2.44,2.67,4.89,4.16,7.23,3.89,6.12,7.89,12.17,11.8,18.27,10.68,16.65,21.33,33.31,32,49.96,7.15,11.16,14.31,22.32,21.47,33.47,1.58,2.47,3.16,4.93,4.75,7.39,1.58,2.45,3.28,4.83,4.98,7.19,3.08,4.28,6.3,8.46,9.47,12.67.3.39.72.69,1.13,1.07,1.36-.53,2.63-1.07,3.94-1.53,1.31-.46,2.66-.81,3.97-1.28,1.28-.46,2.75-.41,3.97-1.35Zm302.62,50.4c-.12-.59-.18-1.1-.33-1.58-1.24-4.22-2.57-8.4-4.19-12.49-2.62-6.62-6.74-12.11-12.04-16.8-5.38-4.77-11.47-8.33-18.15-10.94-7.96-3.11-16.25-4.85-24.66-6.17-6.79-1.07-13.61-2.03-20.38-3.22-16.22-2.86-32.34-6.22-48.41-9.8-14.22-3.16-28.43-6.35-42.61-9.69-18.74-4.41-37.46-8.88-56.14-13.51-10.71-2.65-21.57-4.06-32.55-4.56-8.27-.38-16.54-.22-24.77.83-2.46.31-4.91.8-7.36,1.24-.4.07-.77.31-1.27.52.22.58.33,1.08.58,1.5,1.37,2.32,2.58,4.74,4.08,6.88.39.03.61.09.82.06.58-.08,1.16-.18,1.73-.3,5.89-1.25,11.86-1.85,17.87-1.99,6.07-.14,12.14-.15,18.21.32,5.7.44,11.38,1.03,16.98,2.12,4.59.9,9.14,2.03,13.7,3.11,21.51,5.1,42.99,10.3,64.51,15.32,19.81,4.62,39.69,8.95,59.68,12.77,8.34,1.59,16.7,3.07,25.11,4.23,6.46.89,12.86,2.07,19.14,3.85,6.08,1.73,11.92,4.03,17.34,7.33,9.92,6.06,17.02,14.43,20.85,25.48.14.41.33.83.39,1.25.07.48.02.97.02,1.51,3.72.98,7.46,1.98,11.2,2.96.11.03.26-.09.62-.24Zm43.48,38.77c.03.23.04.53.12.8,1.48,4.6,2.97,9.2,4.46,13.79.06.2.24.36.38.54.22.04.44.13.64.09.43-.08.86-.2,1.26-.35,3.58-1.35,6.93-3.14,9.95-5.5,3.67-2.86,6.42-6.38,7.81-10.88,1.3-4.22.88-8.27-1.36-12.06-.89-1.5-1.98-2.91-3.14-4.21-1.42-1.57-2.93-3.08-4.56-4.44-3.78-3.15-7.14-6.72-10.42-10.36-2.21-2.45-4.55-4.77-7.13-6.83-2.41-1.93-4.99-3.56-7.85-4.77-4.12-1.75-8.3-2.11-12.66-.98-6,1.56-11.57,4.1-16.89,7.24-.21.13-.33.41-.61.75,2.09.89,4.04,1.69,5.96,2.55,1.99.89,3.95,1.85,6.19,2.91.2-1.4,1.26-1.34,2.18-1.53,1.36-.27,2.75-.45,4.09-.81,1.16-.32,2.15-.1,3.15.44,3.16,1.69,6.38,3.28,9.49,5.05,4.01,2.28,7.89,4.79,11.35,7.87,1.42,1.26,2.77,2.62,3.93,4.11,2.83,3.63,2.73,7.4-.07,11.09-1.22,1.6-2.77,2.8-4.39,3.95-.65.46-1.45.73-1.9,1.55Zm-1-2.34c2.05-.82,3.49-2.04,4.81-3.4,3.34-3.44,3.48-6.92.27-10.47-1.41-1.57-2.99-3.02-4.64-4.34-5.63-4.49-11.94-7.89-18.36-11.09-.89-.44-1.76-.57-2.75-.32-1.13.29-2.3.42-3.44.66-.3.06-.56.31-1.04.59,1.93,1.33,3.69,2.48,5.37,3.74,1.69,1.27,3.36,2.59,4.93,4.01,1.58,1.41,3.09,2.91,4.52,4.47,1.43,1.56,2.82,3.18,4.05,4.89,1.23,1.72,2.32,3.55,3.34,5.41,1.02,1.84,1.89,3.77,2.92,5.86Zm-383.41-61.16c.07.02.16.07.19.04.34-.26.71-.5.98-.82,3.61-4.25,7.5-8.22,11.88-11.69.83-.66,1.35-1.48,1.78-2.44,1.47-3.27,3.03-6.5,4.55-9.75.21-.46.39-.93.58-1.4-.85-1.63-2-2.96-3.08-4.34-1.05-1.34-1.81-2.95-3.29-3.94-2.76,3.24-5.58,9.5-7.6,14.68-3.04,7.8-5.88,17.22-5.98,19.66Zm25.84-52.37c.44-1.09-.2-1.66-.61-2.3-4.84-7.34-9.71-14.65-14.54-21.99-7.72-11.75-15.41-23.53-23.11-35.3-3.77-5.76-7.54-11.52-11.32-17.28-8.08-12.31-16.15-24.62-24.23-36.93-.24-.37-.49-.73-.77-1.07-.2-.25-.51-.35-.75-.08-.12.13-.2.45-.13.59.5.89,1.02,1.78,1.59,2.63,15.49,23.56,30.97,47.13,46.48,70.68,7.41,11.25,14.87,22.48,22.31,33.72,1.33,2.02,2.66,4.04,4.01,6.04.31.46.71.86,1.07,1.28Zm18.97,5.42c.33.56.68,1.19,1.07,1.78,3.59,5.42,7.19,10.83,10.79,16.24.2.3.38.65.66.87.19.15.58.22.78.13.16-.08.26-.49.21-.71-.08-.34-.29-.66-.48-.98-3.35-5.74-6.71-11.47-10.07-17.2-.29-.49-.66-.92-.97-1.34-.91.06-1.52.36-1.99,1.22Zm-4.33-11.84c-1.01.28-1.93.48-2.48,1.4.3,1.13,1.06,1.94,1.64,2.86.58.93,1.18,1.84,1.82,2.73.62.88,1.04,1.93,1.99,2.5.83-.09,1.45-.39,1.87-1.06-.45-1.6-3.32-6.63-4.84-8.43Zm-18.98,35.04c-1.01,1.11-2.15,3.16-3.23,5.87-.15.37-.49.77-.11,1.2,1.28-.53,4.67-2.68,5.83-3.69-.54-1.49-1.14-2.31-2.49-3.38Zm12.99-16.22c0,.63-.08.89.01,1.03,2.75,4.12,5.52,8.23,8.3,12.34.04.06.25,0,.38-.02.03-.14.13-.32.08-.4-2.61-4.05-5.23-8.09-7.86-12.12-.15-.22-.4-.37-.91-.83Zm17.02,12.31c.08-.11.17-.2.16-.22-3.39-5.27-6.79-10.53-10.19-15.79-.14-.22-.37-.38-.6-.61-.06.26-.16.43-.11.51,3.41,5.26,6.83,10.52,10.26,15.77.1.16.32.23.49.34Zm-18.43-13.93c.11-.33.23-.5.18-.58-1.64-2.57-3.28-5.14-4.94-7.7-.14-.21-.41-.34-.62-.52-.13.14-.22.2-.22.24.04.27.03.58.16.81,1.27,2.29,4.43,6.79,5.44,7.74ZM54.63,59.82h.12s-.05-.11-.05-.11l-.07.11Z"/><path class="cls-1" d="m175.77,538.95c-3.59,0-7.18.09-10.76-.02-4.24-.14-8.48-.45-12.71-.7-2.34-.14-4.67-.3-7.01-.52-5.54-.52-11.07-1.05-16.6-1.65-5.46-.59-10.91-1.22-16.35-1.91-12.42-1.56-24.81-3.35-36.95-6.53-6.18-1.62-12.18-3.72-17.88-6.62-12.76-6.5-21.95-16.4-27.92-29.35-3.69-7.99-5.74-16.42-6.8-25.14-.77-6.35-.98-12.71-.72-19.08.16-3.8.55-7.6.94-11.38.48-4.59,1.07-9.17,1.62-13.75.6-4.94,1.19-9.89,1.82-14.83.65-5.09,1.32-10.17,2.03-15.25,1.06-7.69,2.1-15.39,3.27-23.06,1.33-8.76,2.71-17.52,4.19-26.25,1.53-9.03,3.16-18.04,4.84-27.04,2.96-15.92,6.34-31.75,10.23-47.47,3.18-12.88,6.69-25.66,10.97-38.22,1.82-5.34,3.89-10.59,6.12-15.77,3.22-7.48,7.57-14.19,13.11-20.15,4.55-4.9,9.51-9.31,15.01-13.14,5.75-4,12.07-6.55,18.91-7.88,4.68-.91,9.38-1.5,14.14-1.86,8.27-.63,16.54-.61,24.8-.21,12.01.59,23.86,2.36,35.56,5.26,15.49,3.84,31.02,7.53,46.57,11.1,20.19,4.65,40.4,9.19,60.63,13.65,16.65,3.67,33.37,7.07,50.15,10.13,8.64,1.57,17.31,2.96,26.01,4.17,9.29,1.3,18.49,3.09,27.39,6.12,8.46,2.88,16.31,6.92,23.11,12.8,6.29,5.44,11.33,11.82,14.52,19.59,1.62,3.94,3.06,7.93,4.23,12.02,2.43,8.52,4.86,17.05,7.06,25.63,2.49,9.73,4.16,19.63,5.76,29.54,1.76,10.92,3.5,21.84,5.15,32.78.99,6.52,1.9,13.05,2.65,19.59.62,5.38,1.03,10.79,1.12,16.22.06,3.59.03,7.18-.07,10.76-.27,10.68-2.58,20.91-6.8,30.71-1.59,3.7-3.31,7.35-5.41,10.8-3.77,6.18-8.71,11.2-14.97,14.86-11.76,6.88-23.7,13.42-35.88,19.52-23.26,11.64-47.06,22.07-71.48,31.04-24.35,8.94-49.11,16.54-74.39,22.43-9.06,2.11-18.16,4.02-27.35,5.4-5.42.82-10.89,1.38-16.35,1.94-4.73.49-9.47.92-14.21,1.2-7.09.42-14.18.75-21.29.51Zm-43.09-351.25c.02.62.29,1.09.87,1.34.22.53.36,1.12.67,1.59,1.07,1.66,2.14,3.32,3.32,4.91,14.52,19.49,29.04,38.98,43.62,58.43,9.79,13.06,19.68,26.05,29.55,39.05,2.3,3.03,4.69,6,7.03,8.99,3.55,4.53,8.18,7.46,13.63,9.17.53.17,1.09.49,1.67.12.44-2.64.01-3.41-2.24-4.09-.56-.17-1.12-.33-1.68-.53-5.66-1.97-10.52-5.08-14.19-9.91-.49-.64-1.01-1.25-1.51-1.89-14.9-19.2-29.49-38.64-44-58.13-11.45-15.38-22.95-30.73-34.44-46.09-.43-.58-.97-1.07-1.46-1.61-.07-.59-.34-1.05-.88-1.34-.08-.58-.34-1.04-.88-1.32-.08-.58-.33-1.05-.88-1.32-.06-.6-.33-1.05-.88-1.32-.06-.6-.32-1.05-.88-1.32-.04-.61-.32-1.06-.88-1.32-.04-.61-.31-1.07-.88-1.32-.64-1.83-2.35-4.41-3.74-5.39.85,1.46,1.62,2.59,2.4,3.71.4.59.92,1.1,1.38,1.65.07.59.32,1.06.88,1.32.07.59.31,1.06.88,1.32.05.6.31,1.06.88,1.32.05.6.31,1.07.88,1.32.04.61.3,1.07.88,1.32.03.62.29,1.07.88,1.32Zm48.73,56.75c-.11-.83-.55-1.42-1.3-1.77-.26-.52-.45-1.07-.78-1.54-1.09-1.56-2.21-3.1-3.34-4.64-12.12-16.44-24.25-32.88-36.38-49.32-3.13-4.24-6.24-8.5-9.38-12.73-.22-.29-.35-.88-1.06-.53.17.34.29.68.49.97,1.8,2.67,3.51,5.41,5.43,8,8.94,12.06,17.94,24.07,26.92,36.1,5.48,7.33,10.95,14.67,16.44,21.99.47.63.83,1.4,1.64,1.72.14.81.56,1.41,1.33,1.75.12.82.55,1.42,1.32,1.75.12.83.55,1.42,1.32,1.76.12.83.56,1.42,1.32,1.76.12.82.56,1.41,1.32,1.76.13.82.57,1.41,1.32,1.76.14.81.57,1.4,1.32,1.74.14.81.57,1.4,1.32,1.76.14.81.58,1.4,1.32,1.76.16.8.58,1.39,1.32,1.76.17.79.59,1.39,1.32,1.76.1.55.33,1,1.07,1.42-.27-.77-.59-1.16-1.11-1.4-.18-.78-.61-1.37-1.32-1.76-.18-.78-.6-1.38-1.32-1.76-.17-.79-.59-1.39-1.32-1.76-.16-.79-.58-1.39-1.32-1.76-.16-.79-.56-1.4-1.32-1.74-.14-.81-.55-1.42-1.32-1.76-.13-.82-.55-1.42-1.32-1.76-.13-.82-.54-1.43-1.32-1.76-.12-.83-.54-1.43-1.31-1.76-.11-.83-.54-1.42-1.31-1.76Zm-35.56-57.63c.18.79.59,1.4,1.32,1.78.53.86,1.01,1.77,1.61,2.58,16.41,21.9,32.81,43.82,49.28,65.68,5.24,6.96,10.61,13.81,15.97,20.67,2.96,3.79,6.88,6.3,11.35,7.98.4.15.85.16,1.28.24.1.03.2.06.3.09-.11-.02-.22-.04-.33-.06-.44-.37-.83-.81-1.32-1.09-4.71-2.68-8.64-6.24-11.93-10.53-12.8-16.66-25.6-33.31-38.41-49.96-8.7-11.31-17.42-22.61-26.14-33.92-.49-.63-.88-1.37-1.69-1.67-.11-.83-.59-1.4-1.31-1.78-.09-.55-.33-.99-1.01-1.36.18.75.53,1.1,1.04,1.33Zm-11.02-.39c-.04-.35-.05-.72-.54-.78-.05.45.23.63.58.74.25,1.45,1.29,2.44,2.11,3.54,12.28,16.5,24.57,33,36.9,49.47,8.82,11.78,17.66,23.54,26.56,35.26,5.49,7.23,11.06,14.39,16.65,21.55,3.55,4.56,8.37,7.23,13.8,8.9.38.12.82.06,1.28.09.27-1.26-.21-2.3-.31-3.37-.07-.83-.61-1.29-1.4-1.48-.71-.17-1.42-.35-2.12-.56-6.19-1.86-11.47-5.09-15.46-10.28-5.54-7.19-11.15-14.32-16.62-21.57-11.47-15.19-22.87-30.43-34.28-45.66-8.47-11.31-16.91-22.64-25.37-33.95-.52-.69-.9-1.53-1.76-1.91Zm20.65,42.64c-.09-.25-.16-.5-.26-.74-.02-.05-.11-.06-.17-.09-.04.1-.15.26-.12.29.18.19.39.35.59.51.24.53.4,1.1.72,1.57,4.24,6.41,8.47,12.82,12.58,19.31,4.11,6.5,8.47,12.83,12.7,19.25.72,1.1,1.4,2.23,2.02,3.39,3.53,6.6,7.52,12.91,11.95,18.93,8.34,11.35,18.03,21.35,29.41,29.68,3.07,2.25,6.25,4.34,9.63,6.12.41.22.83.68,1.51.13-.08-.7-.12-1.5-.28-2.27-.65-3.16.06-2.72-3.3-3.82-5.85-1.93-10.77-5.19-14.54-10.13-3.47-4.54-7.05-8.98-10.5-13.54-12.23-16.18-24.44-32.37-36.63-48.58-4.58-6.08-9.09-12.22-13.65-18.32-.47-.63-.83-1.4-1.65-1.7Zm-52.04-49.64c-.46.11-.69.12-.88.22-.72.37-1.44.73-2.12,1.15-10.08,6.19-18.31,14.29-25.02,24-.97,1.41-1.62,2.92-2.04,4.58-2.5,9.8-4.83,19.63-6.89,29.53-2.67,12.84-5.16,25.71-7.28,38.65-1.55,9.47-3.05,18.94-4.46,28.43-1.23,8.26-2.32,16.54-3.43,24.81-.72,5.37-1.38,10.75-2.02,16.13-.53,4.43-1.05,8.87-1.5,13.32-.27,2.69-.44,5.4-.57,8.11-.1,2.12-.18,4.25-.09,6.37.13,2.92.36,5.85.67,8.76.75,7.18,2.42,14.15,5.32,20.78,4.58,10.47,11.72,18.67,21.77,24.22,4.77,2.63,9.89,4.42,15.11,5.89,8.97,2.53,18.15,3.99,27.37,5.22,11.02,1.47,22.07,2.77,33.15,3.72,6.5.56,13,.77,19.51,1.06,6.66.3,13.32-.23,19.97-.4.22,0,.44-.03.66-.05,4.67-.39,9.34-.72,14-1.18,4.15-.41,8.3-.87,12.42-1.48,7.68-1.15,15.27-2.77,22.82-4.53,18.98-4.43,37.61-10.07,55.94-16.68,19.71-7.11,39.02-15.17,57.77-24.56,9.1-4.56,18.15-9.22,27.01-14.21,4.02-2.26,7.98-4.62,11.99-6.91,5.68-3.26,9.99-7.84,13.12-13.56,1.97-3.6,3.64-7.35,5.06-11.21,2.82-7.64,4.12-15.56,4.3-23.67.1-4.39,0-8.78-.29-13.18-.46-7.1-1.39-14.14-2.38-21.17-.08-.56-.32-1.09-.48-1.63-1.06-.11-1.83.36-2.63.69-7.45,3.06-14.9,6.1-22.33,9.2-24.33,10.13-48.62,20.36-72.57,31.36-8.05,3.69-16.06,7.49-23.81,11.8-10.83,6.03-22.47,7.64-34.63,6.32-5.18-.56-10.23-1.76-15.21-3.29-12.9-3.97-24.25-10.58-33.9-20.03-3.4-3.33-6.66-6.8-9.89-10.3-7.95-8.62-15.3-17.75-22.31-27.15-7.63-10.22-14.78-20.77-21.49-31.61-4.13-6.66-8.17-13.37-11.92-20.26-1.26-2.32-2.49-4.66-3.95-6.85-10.81-16.21-21.68-32.38-32.53-48.56-.4-.6-.85-1.17-1.34-1.83Zm-69.73,193.04c-.09,0-.17-.02-.26-.02-.15.55-.36,1.1-.44,1.66-.77,5.36-1.54,10.73-2.27,16.1-.7,5.15-1.38,10.31-2.04,15.46-.67,5.23-1.3,10.46-1.94,15.7-.55,4.51-1.1,9.01-1.61,13.52-.36,3.2-.79,6.4-.93,9.62-.35,7.84-.35,15.67.76,23.47,1,6.99,2.63,13.81,5.35,20.35,6.04,14.56,16.05,25.38,30.41,32.02,5.13,2.37,10.48,4.13,15.95,5.54,10.23,2.62,20.63,4.27,31.09,5.65,6.46.85,12.92,1.63,19.4,2.32,8.29.88,16.59,1.78,24.9,2.4,6.78.51,13.59.77,20.4.85,6.51.08,13.02-.19,19.54-.37,2.63-.07,5.26-.27,7.89-.48,4.3-.35,8.6-.72,12.9-1.17,4.29-.44,8.6-.82,12.86-1.52,6.5-1.05,12.99-2.22,19.43-3.57,19.94-4.17,39.54-9.6,58.91-15.88,21.19-6.87,41.96-14.81,62.37-23.73,11.07-4.84,22-9.99,32.8-15.39,11.99-5.99,23.73-12.44,35.35-19.12,6.84-3.93,12.25-9.22,16.14-16.07,2.68-4.73,4.85-9.69,6.71-14.79,3.17-8.7,4.4-17.75,4.68-26.94.13-4.17-.02-8.34-.24-12.52-.31-5.78-.87-11.54-1.59-17.28-.76-6.03-1.68-12.04-2.61-18.05-1.69-10.85-3.4-21.71-5.18-32.55-1.34-8.17-2.82-16.31-4.79-24.36-1.29-5.26-2.74-10.49-4.15-15.72-.16-.6-.16-1.36-1.11-1.65-.55.25-1.22.53-1.87.84-4.1,1.95-8.2,3.9-12.3,5.85-.46.22-.92.47-1.41.6-.45.12-.94.1-1.41.14.89,6.7,1.84,13.29,2.63,19.9.49,4.07.88,8.16,1.04,12.25.19,4.75.15,9.52.06,14.28-.08,4.55-.68,9.05-1.64,13.5-1.59,7.43-4.31,14.45-7.79,21.18-3.69,7.14-8.9,12.84-15.94,16.82-3.5,1.98-6.97,4.04-10.49,5.99-6.15,3.4-12.29,6.83-18.51,10.09-5.77,3.02-11.62,5.89-17.48,8.75-9.35,4.56-18.85,8.76-28.45,12.75-17.59,7.32-35.47,13.81-53.68,19.4-12.81,3.93-25.75,7.37-38.83,10.32-13.45,3.03-27.03,5.1-40.79,6.02-2.34.15-4.67.33-7.01.47-6.94.42-13.88.64-20.84.49-7.1-.15-14.19-.34-21.27-1-3.93-.37-7.88-.63-11.8-1.07-6.91-.77-13.81-1.61-20.71-2.46-8.28-1.02-16.53-2.27-24.7-4.02-6.59-1.41-13.1-3.12-19.33-5.77-12.71-5.39-22.19-14.24-28.38-26.6-4.77-9.53-6.91-19.73-7.63-30.27-.23-3.43-.13-6.88-.17-10.32,0-.55,0-1.09,0-1.64Zm114.07-199.33c.34.55.52.94.78,1.26,1.83,2.29,3.67,4.56,5.51,6.84,16.71,20.76,33.42,41.53,50.13,62.29,7.85,9.75,15.73,19.49,23.55,29.26.92,1.16,1.96,1.9,3.42,2.15,2.52.42,5.02,1.02,7.56,1.32,8.04.97,15.76-.15,23.03-3.86.91-.47,1.83-.93,2.76-1.35,8-3.63,15.98-7.29,24.01-10.86,17.38-7.74,34.78-15.46,52.18-23.15,7.16-3.16,14.38-6.21,21.57-9.32,2.28-.99,4.54-2.04,6.83-3.01,3.91-1.65,7.83-3.27,11.75-4.9.31-.13.69-.25.61-.83-.6-.14-1.23-.33-1.87-.44-2.74-.45-5.49-.92-8.24-1.29-11.32-1.51-22.55-3.52-33.77-5.67-23.22-4.44-46.33-9.4-69.37-14.68-22.68-5.2-45.33-10.53-67.99-15.83-5.84-1.37-11.65-2.91-17.51-4.19-11.18-2.45-22.54-3.54-33.96-3.95-.21,0-.42.09-.98.22Zm254.96,51.67c-.13.41-.23.56-.2.68.13.65.26,1.29.44,1.93,2.36,8.48,4.05,17.1,5.49,25.77,1.28,7.73,2.49,15.48,3.67,23.22,1.67,10.93,3.57,21.83,4.38,32.88.29,4.02.53,8.04.64,12.06.07,2.48-.17,4.97-.24,7.46-.12,4.26-.74,8.46-1.64,12.62-1.42,6.56-3.89,12.74-6.9,18.71-3.55,7.06-8.73,12.5-15.61,16.51-13.16,7.67-26.55,14.93-40.22,21.65-19.14,9.41-38.81,17.57-58.92,24.66-21.15,7.46-42.65,13.7-64.64,18.18-7.32,1.49-14.68,2.7-22.13,3.38-3.42.31-6.85.67-10.27.92-4.01.3-8.03.62-12.05.72-10.83.27-21.66.24-32.47-.76-4.08-.38-8.17-.65-12.24-1.09-5.6-.6-11.19-1.33-16.78-1.99-7.05-.83-14.08-1.85-21.06-3.16-7.57-1.42-15.03-3.22-22.18-6.14-6.09-2.49-11.59-5.9-16.38-10.46-7.08-6.73-11.73-14.92-14.62-24.17-1.71-5.47-2.71-11.09-3.22-16.8-.67-7.47-.53-14.93.27-22.38.72-6.7,1.58-13.38,2.42-20.07.92-7.34,1.81-14.68,2.84-22.01,1.19-8.49,2.48-16.96,3.77-25.43,1.9-12.46,4.08-24.86,6.45-37.24,2.21-11.51,4.58-22.99,7.32-34.39.1-.44.37-.89-.07-1.6-.41.94-.74,1.66-1.03,2.4-3.24,8.03-5.85,16.27-8.29,24.56-3.72,12.58-6.92,25.3-9.75,38.1-2.83,12.8-5.77,25.58-7.57,38.58-1.08,7.76-2.23,15.51-3.3,23.28-.73,5.3-1.4,10.6-2.06,15.91-.54,4.36-.87,8.75-.98,13.14-.13,5.14.18,10.25.8,15.35.87,7.24,2.59,14.27,5.48,20.98,3.67,8.5,9.03,15.72,16.35,21.44,4.3,3.37,9.06,5.91,14.13,7.92,5.94,2.36,12.12,3.89,18.36,5.2,9.25,1.94,18.61,3.21,27.98,4.35,8.86,1.08,17.73,2.08,26.63,2.85,6.13.53,12.27.83,18.41,1.07,8.34.33,16.69,0,25.02-.41.22-.01.44-.03.66-.05,4.52-.38,9.04-.72,13.56-1.17,4.29-.43,8.59-.88,12.86-1.5,8.41-1.23,16.71-3,24.98-4.93,20.62-4.82,40.85-10.98,60.77-18.19,19.22-6.96,38.04-14.88,56.45-23.76,7.72-3.72,15.34-7.64,22.85-11.75,7.57-4.15,15.09-8.42,22.58-12.71,5.52-3.16,9.85-7.59,13.04-13.08,4.34-7.47,7.44-15.42,9.19-23.89,1.12-5.4,1.51-10.88,1.63-16.38.07-3.36-.13-6.73-.29-10.1-.14-2.93-.31-5.85-.6-8.77-.78-7.87-1.95-15.7-3.15-23.52-1.2-7.82-2.49-15.62-3.66-23.44-1.27-8.48-2.82-16.9-4.55-25.3-.22-1.07-.54-2.13-.84-3.18-.31-1.11-.96-1.93-2.04-2.44-2.72-1.27-5.41-2.6-8.12-3.87-.38-.18-.82-.22-1.34-.36Zm-164.27,117.9c.29-.67.1-1.4-.02-2.1-.5-2.81-1.07-5.61-1.53-8.43-.17-1.05-.69-1.66-1.6-2.16-2.44-1.34-4.88-2.68-7.21-4.18-8.09-5.23-15.29-11.54-21.95-18.49-8.35-8.71-15.47-18.34-21.54-28.76-1.55-2.66-2.93-5.42-4.58-8.01-5.22-8.21-10.93-16.11-15.96-24.45-2.15-3.57-4.58-6.98-6.9-10.44-9.5-14.17-19-28.34-28.5-42.51-3.63-5.41-7.26-10.82-10.91-16.22-.44-.65-.75-1.45-1.77-1.81-3.23.59-6.55,1.45-9.73,2.78-.24.1-.42.35-.64.53.24.97.83,1.64,1.32,2.36,10.51,15.69,21.04,31.38,31.55,47.08.69,1.03,1.38,2.08,1.97,3.17,4.84,8.87,9.92,17.6,15.29,26.17,9.85,15.71,20.53,30.83,32.34,45.14,4.71,5.7,9.62,11.23,14.67,16.63,4.71,5.04,9.74,9.72,15.36,13.74,5.69,4.07,11.86,7.25,18.4,9.69.6.22,1.19.61,1.97.27Zm-9.85-59.06c.02-.27.1-.55.06-.82-.28-1.81-.61-3.61-.88-5.42-.19-1.28-.74-2.33-1.56-3.32-2.84-3.45-5.63-6.94-8.42-10.42-9.68-12.05-19.34-24.11-29.03-36.14-13.96-17.34-27.94-34.67-41.91-52-.51-.63-1.02-1.25-1.53-1.87-.39-.48-.88-.79-1.5-.78-1.54,0-3.07.03-4.61.07-.18,0-.36.2-.58.32.08.9.72,1.44,1.19,2.06,3.25,4.24,6.53,8.46,9.79,12.7,13.48,17.53,26.96,35.07,40.44,52.6,5.05,6.56,10.1,13.11,15.16,19.66,3.58,4.64,7.12,9.31,10.76,13.9,2.9,3.65,6.43,6.6,10.51,8.86.61.34,1.19.89,2.1.6Zm56.79,46.36c.71-.27,1.2-.41,1.65-.62,1.26-.59,2.5-1.21,3.74-1.83q2.49-1.23,1.84-4.02c-1.99-8.32-3.98-16.64-5.98-24.96-1.5-6.26-2.99-12.52-4.5-18.77-.17-.7-.19-1.46-.95-2.15-1.83.59-3.72,1.26-5.47,2.38,0,.35-.05.65,0,.92,3.08,15.94,6.17,31.87,9.26,47.8.07.35.22.68.4,1.25Zm-19.86,4.9c.29-.85.08-1.56-.04-2.28-1.86-10.89-3.71-21.78-5.57-32.66-.64-3.75-1.3-7.49-1.97-11.24-.1-.56-.09-1.19-.68-1.53-1.75,0-5.27.81-6.81,1.62,0,.52-.06,1.1.01,1.66.13,1.09.33,2.17.5,3.25,1.71,10.54,3.41,21.08,5.12,31.63.43,2.67.86,5.34,1.32,8.01.22,1.25.47,1.51,1.69,1.61,1.67.14,3.36.22,5.04.26.47.01.95-.22,1.4-.33Zm7.81-53.68c-1.66.19-4.25,1.27-5.75,2.41-.26.81,0,1.58.16,2.37,2.14,10.91,4.29,21.82,6.43,32.73.83,4.23,1.67,8.47,2.51,12.7.13.63.14,1.33.94,1.72.27-.05.64-.08.98-.19.97-.32,1.94-.64,2.89-1.03,1.78-.73,1.8-.81,1.46-2.8-.04-.22-.07-.43-.11-.65-2.93-15.08-5.86-30.16-8.79-45.24-.14-.71-.18-1.46-.72-2.02Zm-13.53,5.14c-.07,1.34.22,2.48.42,3.62,1.39,8.15,2.79,16.31,4.19,24.46,1.05,6.13,2.09,12.27,3.15,18.4.12.7.15,1.47.96,2.11,2.04-.07,4.17-.31,6.15-1.04.39-.9.13-1.61-.01-2.32-2.16-10.99-4.32-21.98-6.49-32.97-.79-4.02-1.59-8.04-2.39-12.06-.14-.7-.14-1.47-1-2-1.57.51-3.26.93-4.97,1.81Zm-4.78,47.74c.39-.95.15-1.75.03-2.53-.2-1.37-.46-2.74-.68-4.11-1.95-12.05-3.89-24.11-5.84-36.16-.13-.78-.2-1.59-.67-2.21-1.66-.26-5.39,0-6.79.47-.24.85.01,1.72.15,2.56,1.9,11.47,3.81,22.94,5.72,34.4.28,1.66.57,3.32.84,4.98.13.81.57,1.33,1.36,1.54.85.23,1.69.47,2.54.66,1.06.24,2.1.65,3.33.4Zm39.99-62.17c-.13.82.27,1.55.51,2.3,4.49,13.7,8.99,27.4,13.49,41.1.16.49.29.99.51,1.45.17.37.45.7.75,1.16,1.14-.53,2.23-.95,3.24-1.52,1.05-.59,2.41-.72,3.13-1.99-.24-.68-.46-1.37-.72-2.05-2.82-7.46-5.63-14.93-8.46-22.39-2.25-5.96-4.51-11.91-6.78-17.86-.28-.74-.42-1.57-1.12-2.08-1.62.16-3.07.75-4.57,1.88Zm23.88,41.69c.3-.07.6-.1.85-.21,1.39-.66,2.77-1.32,4.13-2.04.35-.19.62-.55,1.01-.9-5.73-14.33-11.43-28.6-17.14-42.86-.13-.33-.37-.61-.61-.99-1.88.53-3.61,1.21-5.16,2.21-.17.96.29,1.67.57,2.41,2.99,7.94,5.99,15.88,8.99,23.82,2.04,5.41,4.08,10.82,6.15,16.22.3.8.49,1.68,1.21,2.34Zm-2.15-50.94c.4,1.03.75,1.98,1.14,2.92,2.61,6.28,5.22,12.56,7.83,18.85,2.69,6.49,5.38,12.98,8.07,19.46.27.66.42,1.42,1.1,1.82,2.13-.51,5.27-2.14,6.29-3.25-.45-1.67-10.25-22.87-18.5-40-.31-.65-.67-1.27-.98-1.86-1.83.25-3.12.77-4.95,2.06Zm-2.1.64c-1.11.44-2.01.73-2.85,1.14-.83.39-1.86.49-2.44,1.53.29.78.58,1.6.9,2.41,2.63,6.59,5.27,13.19,7.9,19.78,2.58,6.46,5.16,12.91,7.75,19.36.29.73.41,1.58,1.25,2.08,1.33-.3,2.51-1.06,3.74-1.67,1.87-.92,1.92-1.05,1.11-3.03-1.58-3.86-3.19-7.71-4.79-11.56-3.84-9.26-7.69-18.52-11.54-27.78-.28-.67-.6-1.31-1.03-2.25Zm-69.15,68.37c.23-.97,0-1.83-.15-2.68-1.55-9.32-3.1-18.63-4.65-27.95-.59-3.54-1.19-7.08-1.76-10.62-.16-.99-.58-1.55-1.65-1.71-1.52-.22-3.01-.62-4.52-.9-.31-.06-.66.04-1.11.07.14,1.02.24,1.89.38,2.75,1.77,10.61,3.53,21.23,5.32,31.84.32,1.88.72,3.74,1.06,5.61.14.79.51,1.35,1.27,1.64,1.64.62,3.28,1.26,4.92,1.87.25.09.54.05.9.07Zm-124.59-157.06c-.11.12-.23.23-.34.35.37.61.72,1.24,1.12,1.84,4.91,7.46,9.83,14.92,14.75,22.38,1.01,1.53,1.99,3.08,3.08,4.55,8.86,11.93,17.71,23.88,26.63,35.77,12.65,16.87,25.32,33.73,38.04,50.55,5.39,7.12,10.89,14.17,16.41,21.18,3.23,4.11,7.65,6.51,12.52,8.15.37.12.81.02,1.3.02.38-1.52-.23-2.85-.35-4.21-.07-.83-.6-1.27-1.38-1.5-1.12-.33-2.25-.67-3.34-1.08-5.25-1.95-9.78-4.91-13.24-9.41-5.44-7.09-10.98-14.09-16.36-21.22-11.82-15.66-23.58-31.37-35.34-47.08-9.48-12.66-18.93-25.34-28.39-38.02-.57-.76-1.13-1.53-1.65-2.33-3.9-5.94-7.79-11.88-11.68-17.82-.36-.55-.72-1.11-1.12-1.63-.16-.21-.42-.33-.64-.49Zm225.86,75.04c-.72.25-1.34.45-1.93.68-.61.24-1.23.48-1.82.77-.57.28-1.29.37-1.58,1.27.3.54.62,1.19.99,1.81,7.08,11.71,14.17,23.41,21.27,35.11.26.44.51.91.86,1.26.22.23.68.45.94.37,1.51-.49,3.01-1.05,4.23-2.16-.18-.91-.65-1.57-1.05-2.25-6.87-11.66-13.74-23.33-20.62-34.98-.36-.62-.81-1.19-1.28-1.87Zm-58.23,24.98c.36,1.31.67,2.51,1.03,3.69,1.89,6.23,3.78,12.45,5.68,18.68,2.21,7.27,4.42,14.55,6.65,21.82.25.82.34,1.74,1.18,2.46,1.71-.41,3.29-1.23,4.7-2.28.16-1.04-.28-1.83-.54-2.65-3.91-11.95-7.84-23.9-11.76-35.85-.71-2.15-1.38-4.32-2.11-6.46-.15-.45-.47-.84-.77-1.37-1.38.57-2.71.93-4.04,1.96Zm40.15-17.18c.44.89.77,1.61,1.14,2.3,4.43,8.24,8.87,16.48,13.3,24.72,2.01,3.73,4.01,7.47,6.04,11.19.45.82.77,1.75,1.59,2.3,1.05,0,1.85-.56,2.67-1,.87-.46,1.94-.65,2.55-1.6-.34-1.12-.98-2.01-1.53-2.95-3.69-6.39-7.4-12.78-11.11-19.16-3.08-5.31-6.16-10.63-9.25-15.93-.36-.61-.58-1.37-1.46-1.64-1.27.35-2.55.84-3.96,1.78Zm-42.33,18.02c-2.79.84-2.89,1-2.35,3.38.03.14.07.28.1.43,2.4,10.03,4.79,20.07,7.19,30.1,1.11,4.63,2.22,9.25,3.35,13.87.15.62.15,1.33.82,1.7,2.16-.6,4.04-1.55,5.17-2.63-.26-1.6-12.39-42.08-13.75-45.81-.12-.33-.32-.63-.54-1.04Zm76.31,16.76c.05-.99-.54-1.6-.95-2.27-4.89-8.09-9.79-16.16-14.68-24.24-2.2-3.63-4.39-7.28-6.6-10.9-.41-.66-.67-1.49-1.5-1.76-2.39.67-2.63.8-3.62,1.84.67,1.84,14.57,26.07,21.84,38.08.3.49.66.94,1.02,1.44,1.71-.47,3.19-1.18,4.49-2.18Zm-132.74.76c.37-.96.15-1.67.07-2.38-.13-1.17-.71-1.8-1.87-2.1-1.48-.39-2.94-.9-4.36-1.48-4.48-1.83-8.36-4.51-11.4-8.33-2-2.52-4.03-5.03-5.98-7.6-8.9-11.73-17.8-23.45-26.64-35.22-14.56-19.39-29.06-38.81-43.59-58.21-.97-1.29-1.92-2.58-2.9-3.87-.17-.22-.39-.46-.78-.15.06.75.65,1.24,1.06,1.8,8.71,11.87,17.43,23.73,26.16,35.58,8.82,11.97,17.6,23.97,26.49,35.88,8.93,11.97,17.99,23.86,26.98,35.79,3.81,5.06,8.91,8.16,14.9,9.93.55.16,1.13.22,1.86.36Zm207.03-35.26c-.76-7.09-12.92-22.59-20.06-25.45-.02.38-.1.73-.04,1.05.58,2.95,1.16,5.89,1.78,8.83.12.55.38,1.11.69,1.59,3.43,5.19,6.89,10.37,10.35,15.54.27.41.66.74.95,1.06,2.69-.67,5.02-1.64,6.32-2.61Zm-113.16,2.01c.26.62.5,1.29.81,1.94,3.71,7.97,7.44,15.93,11.16,23.89,2.17,4.64,4.34,9.29,6.53,13.93.33.71.54,1.53,1.46,2.08,1.59-.69,3.28-1.28,4.67-2.41,0-.97-.53-1.62-.91-2.31-4.3-8-8.6-16-12.92-23.99-2.36-4.38-4.73-8.76-7.12-13.14-.27-.49-.64-.93-.92-1.34q-1.62.43-2.77,1.35Zm53.79-23.16c.48.8.81,1.45,1.21,2.04,9.28,13.6,22.94,32.79,24.24,34.03,1.21-.33,2.39-.79,3.37-1.75-.42-1.13-1.17-1.96-1.8-2.84-3.67-5.12-7.37-10.21-11.04-15.33-3.83-5.36-7.63-10.75-11.44-16.12-1.22-1.72-1.49-1.78-3.42-.82-.31.16-.58.4-1.12.78Zm-10.67,4.65c.11.9.7,1.49,1.15,2.13,3.64,5.23,7.29,10.45,10.95,15.67,3.99,5.7,7.97,11.41,11.97,17.1.41.59.72,1.3,1.58,1.6,1.08-.36,2.25-.69,3.15-1.79-.49-.74-.91-1.42-1.38-2.06-7.71-10.78-15.43-21.56-23.15-32.34-1.32-1.84-1.62-1.91-3.58-.87-.24.13-.44.35-.69.55Zm5.18-2.28c.49,1.29,1.27,2.17,1.94,3.11,4.76,6.66,9.52,13.32,14.3,19.97,2.86,3.98,5.75,7.93,8.63,11.89.34.46.61,1.02,1.38,1.12.81-.29,1.72-.54,2.33-1.32-.15-.91-.75-1.49-1.2-2.13-4.25-6.04-8.51-12.07-12.75-18.11-3.28-4.67-6.53-9.35-9.82-14.01-.49-.7-.87-1.53-1.75-2-1.02.3-2.01.7-3.05,1.48Zm10.99-4.79c.3.54.48.93.72,1.29.9,1.33,1.81,2.66,2.75,3.97,5.2,7.25,10.41,14.49,15.61,21.73,1.79,2.49,3.56,5,5.36,7.49.28.39.47.95,1.28.86.02-.46.11-.95.05-1.41-.18-1.3-.5-2.59-.61-3.9-.14-1.52-.76-2.76-1.67-3.97-4.26-5.67-8.48-11.37-12.69-17.07-2.13-2.88-4.21-5.8-6.33-8.69-.42-.58-.75-1.27-1.6-1.61-.94.13-1.83.56-2.86,1.32Zm-29.89,13.15c.25.47.46.94.72,1.37.76,1.25,1.54,2.49,2.31,3.73,6.45,10.37,12.9,20.75,19.36,31.11.38.61.66,1.32,1.5,1.71,1.06-.22,2.09-.67,3.05-1.57-.29-.54-.52-1.07-.83-1.54-.95-1.48-1.92-2.94-2.88-4.41-6.49-9.91-12.98-19.83-19.47-29.74-.32-.49-.67-.96-1.03-1.42-.3-.37-.74-.48-1.19-.35-.56.16-1.14.3-1.55,1.12Zm4.63-2.16c.15.36.27.77.49,1.13.57.94,1.17,1.86,1.77,2.77,4.85,7.4,9.71,14.8,14.57,22.2,2.09,3.18,4.16,6.37,6.25,9.55.43.65.74,1.45,1.67,1.78.97-.29,2.02-.55,2.81-1.55-.4-.65-.77-1.27-1.18-1.87-6.43-9.43-12.86-18.85-19.3-28.28-1.28-1.87-2.55-3.75-3.86-5.61-.32-.46-.75-.84-1.08-1.2-.9.17-1.59.36-2.16,1.07Zm32.22,33.66c-.31-1.03-.89-1.7-1.38-2.41-7.51-10.75-15.02-21.49-22.53-32.23-.34-.48-.69-.95-1.05-1.41-.42-.54-.97-.64-1.56-.35-.38.18-.71.44-1.02.64-.03.94.53,1.47.93,2.06,1.6,2.37,3.22,4.72,4.83,7.08,6.03,8.83,12.06,17.66,18.09,26.49.36.53.62,1.19,1.39,1.43.83-.15,1.6-.51,2.31-1.3Zm-41.19-30.05c.53.96.9,1.66,1.3,2.34,3.34,5.67,6.68,11.34,10.03,17.01,3.45,5.86,6.9,11.72,10.37,17.57.43.73.72,1.61,1.59,2.05.95-.28,1.83-.58,2.46-1.39-.1-1.02-.74-1.76-1.23-2.56-3.19-5.16-6.41-10.31-9.61-15.46-3.83-6.15-7.65-12.29-11.49-18.43-.42-.67-.72-1.46-1.66-1.88-.43.18-.94.4-1.76.75Zm39.53-16.84c.35.58.59,1.02.88,1.43,1.53,2.13,3.07,4.27,4.63,6.38,3.26,4.4,6.53,8.79,9.8,13.19.74,1,1.48,2,2.25,2.97.14.17.42.22.82.41,0-.51.04-.8,0-1.08-.43-2.52-.83-5.04-1.34-7.55-.14-.68-.54-1.35-.95-1.93-1.03-1.42-2.13-2.78-3.21-4.16-2.56-3.28-5.12-6.56-7.68-9.84-.27-.34-.55-.68-.84-1.01-.32-.35-.74-.5-1.19-.34-1.03.35-2.07.67-3.14,1.52Zm-92.51,105.66c-.44-2.77-1.19-5.44-1.89-8.12-.07-.26-.28-.48-.4-.69-2.11.53-6.34,2.6-7.81,3.86.4,2.79,1.03,5.64,1.63,8.49.06.26.29.48.43.7,1.43-.38,6.05-2.8,8.04-4.23Zm-37.56-.31c-.04.19-.16.4-.13.6.45,2.89.89,5.79,1.39,8.67.14.84.46,1.1,1.38,1.11,1.97.04,3.95,0,5.92-.04.27,0,.53-.19.83-.31.05-.32.16-.61.11-.88-.46-2.74-.94-5.48-1.44-8.22-.05-.27-.27-.5-.39-.72-1.57-.32-6.17-.45-7.69-.21Zm83.98-32.3c-.86-.12-1.5.45-2.22.77-.8.36-1.59.74-2.36,1.16-.68.37-1.53.54-2.01,1.49.6,1.48,1.18,3.05,1.87,4.56.68,1.5.96,3.21,2.2,4.39,2.31-.53,5.84-2.14,6.92-3.14-.64-2.17-3.34-7.83-4.41-9.22Zm-94.2,40.6c-.58-3.46-1.14-6.63-1.62-9.8-.17-1.1-.75-1.66-1.74-1.99-1.46-.47-2.9-1.02-4.35-1.51-.31-.1-.66-.09-1.1-.14,0,.51-.04.87,0,1.21.18,1.3.39,2.61.6,3.91.3,1.81.61,3.61.91,5.41.14.89.62,1.44,1.5,1.68,1.48.39,2.96.83,4.44,1.21.33.08.69.01,1.35.01Zm.57-10.46c0,.77-.04,1.2,0,1.61.1.8.25,1.59.39,2.38.32,1.94.65,3.89.97,5.83.14.88.56,1.49,1.5,1.63,1.59.23,3.17.47,4.76.67.26.03.55-.11.93-.2.03-.54.13-1.04.08-1.52-.08-.8-.24-1.59-.37-2.38-.3-1.8-.6-3.6-.9-5.4-.1-.63-.41-1.11-1.05-1.26-1.98-.44-3.97-.86-6.32-1.37Zm189.27-59.71c-1-1.52-1.88-2.86-2.76-4.2-.89-1.34-1.75-2.7-2.69-4.02-.92-1.29-1.57-2.81-2.81-3.81-2.37.41-3.36.85-4.33,1.9.07.2.1.43.22.61,2.33,3.72,4.67,7.44,7.03,11.15.18.29.52.47.8.72,1.57-.57,3.05-1.14,4.55-2.35Zm-120.51,41.69c-1.97.53-5.18,2.13-6.53,3.24-.06,1.03.46,1.94.74,2.91.29.98.61,1.95.95,2.92.33.94.42,2,1.15,2.75,1.92-.42,5.47-2.05,6.95-3.17-.23-1.75-2.15-6.88-3.26-8.65Zm-42.14,19.12c-1.85-.04-3.68.56-5.55.75-.4.04-.78.31-1.27.52.35,3.04.89,5.98,1.5,8.9.05.26.28.49.4.68,2.3.17,5.3-.43,6.79-1.34.02-1.83-1.14-7.79-1.88-9.51Zm87.71-28.69c-.38-1.36-1.17-2.35-1.76-3.42-.64-1.15-1.27-2.31-1.98-3.42-.66-1.02-1.02-2.28-2.17-3.06-1.83.69-3.64,1.38-5.19,2.68.12.38.17.68.3.92,1.42,2.64,2.85,5.28,4.31,7.91.16.3.47.52.78.85,1.91-.69,3.75-1.36,5.72-2.46Zm-37.46,5.46c-1.76.55-3.27,1.44-4.82,2.23-1,.51-1.15.89-.77,1.95.82,2.26,1.68,4.51,2.55,6.75.12.31.41.56.6.8,2.47-.65,4.97-1.84,6.09-2.89-.45-2.02-2.57-7.23-3.66-8.84Zm18.88-9.06c1.31,3.12,2.74,6,4.15,8.88.27.55.69.67,1.3.42,1.48-.61,2.95-1.27,4.41-1.93.18-.08.3-.3.54-.56-.6-1.7-1.55-3.26-2.44-4.83-.89-1.55-1.45-3.33-2.83-4.64-1.77.71-3.44,1.4-5.14,2.65Zm87.7-41.69c.03.4-.01.57.06.68,2.36,3.59,4.72,7.18,7.1,10.76.2.3.46.54.7.81.91-.03,1.59-.37,2.22-1.12-.95-4-2.25-7.93-3.57-11.86-.16-.46-.43-.89-.69-1.41-2.08.45-3.92,1.27-5.81,2.14Zm-65.89,31.05c.97,1.93,2.05,3.57,3.07,5.24,1.02,1.66,1.88,3.44,3.19,4.96,1.71-.51,3.27-1.02,4.7-2.08-.68-2.02-1.93-3.65-2.94-5.4-1.01-1.75-1.88-3.6-3.28-5.16-1.66.58-3.17,1.25-4.74,2.43Zm-28.92,25.32c-.35-2.12-2.69-7.78-3.78-9.3-1.68.34-4.24,1.59-5.65,2.79.13.45.23.95.42,1.41.93,2.3,1.88,4.59,2.84,6.88.08.19.25.35.44.61,2.07-.48,3.82-1.48,5.72-2.39Zm32.91-14.32c-.8-1.9-1.93-3.51-2.96-5.17-1.02-1.65-1.81-3.47-3.25-4.87-1.67.66-3.22,1.24-4.48,2.32.59,1.8,4.49,8.49,5.78,9.93,1.7-.45,3.37-1.03,4.91-2.21Zm-92.41,31.19c-.02,2.2,1.16,7.99,1.92,9.68.39-.05.84-.02,1.23-.16,1.1-.37,2.2-.77,3.27-1.23,1.26-.55,1.41-.82,1.15-2.2-.42-2.29-.88-4.58-1.35-6.86-.08-.4-.34-.76-.55-1.21-1.99.53-3.79,1.26-5.67,1.98Zm26.15-1.9c-.09-1.27-1.42-6.16-2.2-7.99-.1-.24-.35-.43-.56-.69-1.94.65-3.66,1.55-5.43,2.61.39,2.71,1.17,5.22,1.76,7.77.09.4.34.77.51,1.14,1.7-.38,4.46-1.73,5.92-2.85Zm-56.45-47.04c.04-.52.12-.81.07-1.08-.31-1.94-.64-3.88-.99-5.82-.05-.27-.25-.51-.39-.76-1.17-.41-2.35-.25-3.5-.23-1.13.02-2.29-.49-3.4,0-.12,2.12.66,6.53,1.48,8.31,2.15.2,4.37.32,6.72-.4Zm93.23-46.91c-2.03.41-4.22,1.4-5.5,2.51.61,1.36,1.44,2.64,2.26,3.92.85,1.33,1.4,2.88,2.66,3.88,2.18-.6,3.95-1.39,5.21-2.33-.47-1.54-3.17-6.23-4.63-7.99Zm-83.81,45.1c.12-2.26-.49-5.76-1.25-7.44-1.39.01-5.23.78-6.76,1.35-.04.06-.11.12-.12.18-.08,2.28.51,4.46.94,6.66.11.55.55.8,1.19.7,2.01-.31,4-.72,6-1.44Zm148.47,5.06c-.1-.38-.11-.62-.22-.78-2.36-3.34-4.74-6.67-7.12-9.99-.21-.29-.52-.49-.78-.74-1.33.14-2.4.69-3.44,1.53.15.38.22.75.42,1.02,2.56,3.45,4.9,7.06,7.57,10.53,1.31-.34,2.46-.7,3.58-1.57Zm-175.18-12.84c-.16.46-.26.6-.24.73.33,2.17.68,4.33,1.02,6.49.12.75.59,1.17,1.27,1.34,1.48.38,2.97.75,4.47,1.05.37.07.8-.14,1.17-.22.07-1.37-.69-6.03-1.34-8.25-2.05-.29-4.13-.92-6.35-1.14Zm35.05-3.86c.47,2.74.82,5.26,1.6,7.7.03.11.23.16.34.24,2.16-.55,4.49-1.6,5.81-2.67-.33-2.38-.81-4.81-1.42-7.21-.06-.24-.32-.44-.53-.7-2.04.61-3.84,1.52-5.81,2.64Zm41.11,59.46c1.85-.7,3.58-1.37,5.23-2.52-.61-2.61-1.56-5.04-2.38-7.52-.13-.39-.43-.72-.69-1.14-1.83.52-3.43,1.3-4.84,2.35.14,1.86,1.63,6.83,2.68,8.82Zm124.49-53.64c-.53-1.74-2.47-4.99-7.07-11.92-.22-.33-.33-.85-.96-.82-.02.2-.09.41-.06.61.68,4.54,1.36,9.09,2.07,13.62.06.39.33.74.6,1.32,1.86-1.05,3.85-1.55,5.42-2.8Zm-129.73-12.27c1.82-.59,3.52-1.17,4.95-2.23-.17-1.48-1.51-5.26-2.71-7.66-.12-.24-.38-.4-.61-.63-1.72.68-3.48,1.13-4.82,2.35.49,2.23,2.19,6.65,3.18,8.17Zm4.07-11.39c.73,2.75,2.46,6.86,3.44,8.15,1.73-.42,3.36-1.12,4.84-2.11-.17-1.72-2.17-6.67-3.31-8.25-1.72.3-3.34,1.01-4.97,2.21Zm-29.97,22.38c2.06-.6,3.84-1.33,5.58-2.37-.04-.55-.02-1.06-.13-1.54-.49-2.06-1.01-4.1-1.54-6.15-.05-.19-.27-.33-.52-.61-1.49.48-2.9,1.2-4.33,1.91-.52.25-.73.72-.66,1.27.13.94.26,1.88.47,2.8.33,1.48.44,3.02,1.12,4.7Zm103.08,9.8c.34,1.4,1.29,2.45,1.97,3.64.73,1.27,1.52,2.5,2.32,3.73.76,1.15,1.34,2.42,2.27,3.38,1.94-.35,2.36-.53,3.67-1.6-.09-.24-.14-.53-.29-.77-2.03-3.13-4.08-6.25-6.13-9.36-.15-.23-.42-.39-.73-.67-1.08.39-2.17.75-3.08,1.65Zm5.29-2.62c.87,1.38,1.63,2.61,2.41,3.83.79,1.23,1.57,2.46,2.41,3.66.83,1.17,1.4,2.55,2.6,3.49,1.18-.31,2.28-.63,3.23-1.45-.11-.32-.15-.62-.31-.84-2.17-3.2-4.36-6.39-6.56-9.57-.19-.28-.52-.47-.78-.7-1.06.33-1.98.72-3.01,1.58Zm20.43-43.66c-.03-.34-.03-.7-.1-1.04-.48-2.21-1.08-4.4-1.44-6.63-.41-2.58-2.04-4.25-3.83-5.94-1.5.37-2.93.75-4.11,1.84.19.36.29.64.46.86,2.77,3.57,5.55,7.14,8.33,10.7.08.11.23.17.36.23.05.03.14,0,.33-.03Zm-91.53,10.83c.03,1.12.63,1.99.99,2.93.34.89.68,1.78,1.08,2.64.42.91.6,1.97,1.52,2.65,1.6-.33,3.02-.99,4.34-1.84-.27-1.33-2.14-5.73-3.2-7.5-.17-.29-.48-.5-.74-.76-1.48.42-2.84.89-3.98,1.88Zm86.88,25.28c2.49,3.61,4.99,7.02,7.44,10.46.29.41.6.82.81,1.1,1.26-.15,2.14-.37,2.81-1.25-.18-.36-.31-.7-.51-.99-2.43-3.47-4.87-6.93-7.32-10.38-.12-.17-.35-.25-.56-.39-.94.18-1.78.55-2.68,1.46Zm28.8-16.02c-.12-.4-.13-.63-.25-.8-2.41-3.64-4.84-7.28-7.27-10.91-.07-.11-.34-.09-.52-.14-.05.22-.12.37-.1.5.46,2.8.96,5.6,1.37,8.41.22,1.51.99,2.72,1.81,3.93.37.54.87.8,1.5.57,1.15-.43,2.37-.71,3.46-1.56Zm-164.97,12.89c-1.97.67-3.61,1.37-5.08,2.31.14,3.09.68,5.82,1.47,7.42,1.38-.03,2.63-.66,3.91-1.12.45-.16.84-.51,1.31-.81-.44-2.59-.86-5.09-1.62-7.8Zm136.37,18.03c-.28-.51-.44-.92-.69-1.27-2.11-2.98-4.24-5.96-6.36-8.93-.08-.12-.17-.24-.27-.35-.59-.68-.89-.78-1.72-.42-.58.26-1.27.4-1.54,1.26.67,1.3,1.62,2.51,2.48,3.77.82,1.21,1.61,2.44,2.48,3.62.89,1.22,1.5,2.69,2.83,3.56,1.02-.13,1.88-.45,2.8-1.25Zm-26.49-2.14c1.95,3.31,3.83,6.51,5.72,9.7.18.3.46.53.73.83,1.18-.29,2.28-.54,3.11-1.44-.09-.29-.11-.52-.22-.7-1.88-3.04-3.77-6.07-5.68-9.09-.22-.34-.6-.58-.89-.85-1.01.31-1.89.63-2.78,1.56Zm-81.5-28.8c.14,1.34,1.5,6,2.23,7.59.11.24.36.42.56.66,1.62-.39,3.09-.94,4.39-1.94-.25-1.53-.87-2.86-1.41-4.2-.53-1.31-.74-2.8-1.8-3.92-1.5.45-2.84.95-3.96,1.81Zm39.9-7.77c-.02-.19,0-.43-.09-.6-1.21-2.16-2.44-4.32-3.68-6.47-.18-.3-.44-.56-.69-.87-1.42.3-2.67.76-3.73,1.75.43,1.57,1.27,2.86,2.03,4.17.75,1.29,1.18,2.82,2.34,3.8,2.19-.57,2.5-.72,3.82-1.79Zm6.26-2.5c-.8-2.1-3.68-6.77-4.85-7.93-2.08.43-2.65.71-3.56,1.73,1.01,2.45,3.6,6.73,4.77,7.81,1.25-.27,2.45-.75,3.64-1.61Zm-48.49,11.41c-1.18.03-2.05.6-2.95,1.06-.79.4-.99.77-.75,1.6.63,2.17,1.33,4.32,2.02,6.48.06.19.27.33.45.55,1.47-.12,2.75-.69,3.86-1.6-.25-1.81-1.7-6.26-2.64-8.09Zm92.08-40.3c.07.29.06.53.17.69,1.48,2.07,2.98,4.12,4.48,6.18.25.35.51.7.73.99,1.51-.34,2.73-.7,3.7-1.64-.08-.29-.08-.53-.2-.69-1.57-2.09-3.16-4.17-4.75-6.24-.21-.28-.51-.5-.86-.84-1.15.4-2.32.7-3.26,1.55Zm-13.05,5.45c-1.21.3-2.31.61-3.27,1.59.34.59.61,1.17.99,1.68,1.51,2.03,2.82,4.22,4.53,6.1,1.26-.3,2.37-.57,3.15-1.49-.61-1.57-3.8-6.24-5.4-7.88Zm-137.34,70.5c0-.58.04-1.02,0-1.45-.08-.74-.54-1.17-1.25-1.35-.21-.05-.42-.12-.63-.17-5.5-1.36-10.39-3.85-14.59-7.68-.18-.16-.39-.49-.68-.1,3.67,5.57,12.1,10.91,17.16,10.76Zm145.14-63.59c1.18-.11,2.28-.5,3.26-1.45-.78-1.53-1.82-2.76-2.76-4.05-.93-1.28-1.65-2.75-2.99-3.74-1.07.36-2.16.54-2.8,1.51.71,1.58,3.62,5.83,5.28,7.73Zm-7.75,3.41c-.73-1.62-1.82-2.82-2.75-4.11-.92-1.29-1.67-2.73-2.98-3.75-1.04.23-2.01.44-2.78,1.36.32.55.57,1.06.89,1.53,1.03,1.51,2.12,2.98,3.11,4.51,1.35,2.09,1.49,2.13,3.86,1.01.19-.09.33-.27.64-.54Zm36.04,36.75c.66,1.54,4.67,7.47,6.18,9.2.07.08.26.04.4.06.05-.13.16-.28.14-.4-.33-2.38-.59-4.77-1.06-7.13-.27-1.37-1.1-2.5-2.4-3.28-.63.25-1.24.48-1.83.75-.45.21-.88.49-1.43.8Zm-28.28-50.26c1.19,2.31,4.33,6.61,5.67,7.77,1-.21,2.05-.42,2.81-1.37-.74-1.54-1.82-2.74-2.79-4.01-.96-1.26-1.68-2.73-3.1-3.72-.88.34-1.82.52-2.6,1.33Zm11.56-3.89c.23.49.32.84.53,1.11,1.19,1.57,2.41,3.12,3.63,4.67.22.28.47.57.76.78.22.15.57.29.8.23,1.17-.35,2.35-.69,3.42-1.54-.42-.97-1.24-1.51-1.78-2.27-.93-1.32-2.2-2.09-3.78-2.37-.86-.16-1.7-.41-2.56-.59-.26-.06-.55,0-1.03,0Zm-64.95,36.97c1.09-.21,1.97-.46,2.57-1.25-.74-2.14-3.19-6.6-4.32-7.86-.14-.01-.29-.04-.43-.03-.14.01-.29.06-.42.11-1.21.5-1.38.83-.86,1.98.93,2.07,1.91,4.11,2.87,6.17.12.26.31.48.58.88Zm40.29-17.28c-.31-1.11-1.11-1.89-1.66-2.81-.57-.93-1.2-1.82-1.85-2.7-.64-.86-1.09-1.89-2.08-2.42-.78.15-1.5.26-1.8,1.06.89,1.85,4.05,6.54,5.28,7.8.79,0,1.5-.26,2.11-.93Zm-16.25-3.19c1.07,2.21,2.42,4.12,3.64,6.1.3.5.63.99.98,1.45.3.39.73.47,1.18.33.55-.18,1.14-.32,1.36-.96-.55-1.4-3.89-6.64-5.02-7.88-1.04.16-1.04.15-2.14.96Zm11.72,5.02c-.78-1.85-4.05-6.65-5.35-7.85-1.09.23-1.08.24-1.86.89.73,1.95,3.8,6.68,5.17,7.95,1.22-.21,1.21-.23,2.03-.99Zm-75.33,32.19c.33-.02.55,0,.75-.06.35-.1.69-.23,1.02-.39.69-.33.88-.65.66-1.4-.64-2.17-1.32-4.33-2.02-6.48-.08-.25-.35-.44-.51-.63-1.96.48-2.14.68-1.78,2.29.39,1.78.83,3.56,1.29,5.32.12.47.39.9.58,1.35Zm59.94-35.45c.1.3.15.67.32.97,1.12,1.95,2.26,3.89,3.41,5.83.15.25.32.49.5.71.3.38.72.53,1.16.33.36-.16.68-.44,1-.66-.1-.34-.12-.57-.23-.75-1.33-2.16-2.65-4.33-4.03-6.46-.62-.97-.91-.93-2.12.03Zm54.75-15.82c.44,1.13.83,1.6,1.53,1.7.17.02.45-.12.52-.27.07-.13,0-.48-.11-.55-.48-.27-1-.47-1.94-.88Zm-185.07,62.77c-.09-.08-.17-.16-.26-.24-.04.04-.11.12-.1.13.08.09.17.17.25.25.04-.04.07-.09.11-.13Zm-2.01-2.44c-.03.05-.09.11-.08.15.01.06.08.1.12.15.04-.07.08-.14.13-.21-.06-.03-.11-.06-.17-.09Zm-8.56-11.28c-.1-.04-.19-.08-.29-.13,0,.05-.03.14,0,.16.09.06.19.09.29.13,0-.05,0-.11.01-.16Zm-1.29-1.65c-.07-.09-.15-.18-.23-.26,0,0-.08.06-.12.09.07.09.15.18.23.26,0,0,.08-.06.12-.09Zm-1.48-2.01c-.06,0-.12,0-.18.01.04.11.07.22.13.31.01.02.11,0,.17,0-.04-.11-.08-.21-.12-.32Zm-1.55-1.65c.09.08.18.17.27.25.04-.05.11-.13.1-.14-.08-.09-.17-.18-.26-.26-.04.05-.07.1-.11.14Zm-1.33-1.76c.09.09.19.17.28.26.04-.05.11-.13.1-.14-.08-.1-.18-.18-.27-.27-.04.05-.08.1-.11.15Z"/><path class="cls-1" d="m437.84,274.03c-1.5,1.2-2.98,1.78-4.55,2.35-.28-.25-.62-.43-.8-.72-2.36-3.71-4.69-7.42-7.03-11.15-.11-.18-.15-.41-.22-.61.97-1.05,1.96-1.49,4.33-1.9,1.25,1,1.89,2.51,2.81,3.81.93,1.31,1.8,2.67,2.69,4.02.88,1.34,1.76,2.68,2.76,4.2Z"/><path class="cls-1" d="m432.02,260.85c1.89-.87,3.73-1.69,5.81-2.14.26.52.53.95.69,1.41,1.32,3.93,2.62,7.86,3.57,11.86-.63.76-1.31,1.1-2.22,1.12-.23-.27-.5-.52-.7-.81-2.37-3.58-4.74-7.17-7.1-10.76-.07-.1-.03-.28-.06-.68Z"/><path class="cls-1" d="m430.76,277.51c-1.57,1.26-3.56,1.75-5.42,2.8-.27-.58-.54-.93-.6-1.32-.71-4.54-1.39-9.08-2.07-13.62-.03-.2.04-.41.06-.61.63-.03.74.49.96.82,4.61,6.94,6.54,10.19,7.07,11.92Z"/><path class="cls-1" d="m404.28,273.17c.55-.31.98-.59,1.43-.8.59-.27,1.2-.49,1.83-.75,1.3.78,2.13,1.92,2.4,3.28.47,2.35.73,4.75,1.06,7.13.02.12-.09.27-.14.4-.14-.02-.33.02-.4-.06-1.51-1.73-5.52-7.66-6.18-9.2Z"/></svg>