<?xml version="1.0" encoding="UTF-8"?><svg id="Layer_1" xmlns="http://www.w3.org/2000/svg" viewBox="0 0 153.14 598.81"><defs><style>.cls-1{fill:none;stroke:#fff;stroke-miterlimit:10;stroke-width:2px;}</style></defs><path class="cls-1" d="M93.22,47.32l-3.69,239.74s-11.99-31.35-36.42-32.27-44.72,21.21-48.87,53.48c0,0,4.15,9.22,15.21,10.14,0,0,16.14-47.95,27.66-47.03s16.14-4.15,24.9,47.03c0,0,11.99,5.07,17.98,0l3.23,275.7s11.99,8.3,22.13,0l2.77-435.68,27.2,2.77s12.91-8.3,3.23-21.21l-30.89-5.53V4.3s-13.83-8.61-24.44,1.99c0,0-11.76-5.76-19.82,2.31,0,0,1.04,11.5,3.18,21.49s-5.33,22.37-14.52,25.56-23.96-3.2-28.76-12.78S16.52,14.91,16.52,14.91C.14,17.3,1.01,23.35,1.01,23.35c0,0,9.13,41.24,42,49.26s50.2-25.29,50.2-25.29Z"/><line class="cls-1" x1="93.22" y1="6.29" x2="89.99" y2="318.42"/></svg>