<?xml version="1.0" encoding="utf-8"?>
<!-- Generator: Adobe Illustrator 27.3.1, SVG Export Plug-In . SVG Version: 6.00 Build 0)  -->
<svg version="1.1" id="Layer_1" xmlns="http://www.w3.org/2000/svg" xmlns:xlink="http://www.w3.org/1999/xlink" x="0px" y="0px"
	 viewBox="0 0 77.2 673.9" style="enable-background:new 0 0 77.2 673.9;" xml:space="preserve">
<style type="text/css">
	.st0{fill:none;stroke:#FFFFFF;stroke-miterlimit:10;}
</style>
<path class="st0" d="M59.6,138.8L59.6,138.8c0,0,0-0.1,0-0.1l0,0C59.6,138.8,59.6,138.8,59.6,138.8L59.6,138.8z"/>
<path class="st0" d="M36.2,10.2l-0.2,78l8.7,574.3c0.1,0,0.2,0,0.2,0.1c3.8,2.8,7,5.1,10.3,7.5c0.3,0.2,0.6,0.7,0.7,1.1
	c0.4,1.8,1.2,2.7,2.5,2.7c0.7,0,1.5-0.3,2.5-1c2.7-1.7,5.3-3.6,7.7-5.7c7.2-6.3,9-14.9,4.8-23c-1.4-2.7-3.4-5-5.4-7.2l-0.7-0.8
	c-1.1-1.3-2.4-2.3-3.8-3.5c-0.4-0.3-0.8-0.7-1.2-1l1.1-0.7c0.9-0.6,1.8-1.1,2.6-1.7c1.9-1.2,4-2.5,5.8-4c5.9-4.7,7.1-13,2.8-19.2
	c-0.9-1.3-2.2-2.4-3.4-3.5l-0.6-0.5c-0.4-0.3-0.6-0.7-0.6-0.9c0-0.2,0.1-0.5,0.7-1c0.9-0.8,1.8-1.7,2.6-2.5l0.1-0.1
	c2.2-2.3,3.3-5.2,3.1-8.1c-0.2-2.9-1.6-5.6-4-7.6c-1.3-1.1-2.2-1.8-2.2-2.2c0-0.4,0.8-1.3,1.9-2.5c4.4-4.7,4.2-10.2-0.4-14.6
	c-1-1-2.2-1.9-3.3-2.8c-0.3-0.2-0.6-0.5-1-0.8l0.7-0.6c1-0.8,2-1.6,2.9-2.4c2-1.7,3.2-4.2,3.3-6.7c0.1-2.5-0.9-4.8-2.7-6.5
	c-1.4-1.3-3-2.3-4.6-3.3c-0.6-0.4-1.3-0.8-1.9-1.3c-0.4-0.3-0.8-0.5-1.2-0.8c0.3-0.2,0.6-0.4,0.9-0.5c1.3-0.8,2.5-1.5,3.6-2.2
	c2.6-1.7,4.4-4,4.9-6.4c0.4-1.9,0-3.7-1.1-5.2c-1-1.4-2.5-2.5-4-3.5c-0.5-0.4-1.1-0.8-1.6-1.1c-0.6-0.4-1.2-0.8-1.9-1.2
	c0.5-0.2,0.9-0.4,1.2-0.6c0.7-0.4,1.4-0.8,2.1-1.2c1.8-1,3.6-2,5.2-3.3c1.5-1.3,2.4-3.3,2.4-5.3c0-2.1-0.9-4-2.5-5.3
	c-2.3-1.9-4.7-3.8-7.5-4.8c-4.7-1.8-9.7-3.3-14.4-4.7c-1.7-0.5-3.4-1-5.1-1.6c-0.2,0-0.3-0.1-0.5-0.1l0.3-0.1c1.5-0.3,3-0.6,4.5-0.9
	c3.6-0.7,7.4-1.4,11-2.5c3.5-1,7.1-2.5,10.2-4.4c2.6-1.5,4.1-3.7,4.2-6c0.1-2.4-1.3-4.7-3.9-6.5c-2-1.4-3.9-2.6-6.1-3.3
	c-4.4-1.3-9-2.5-13.3-3.7c-2.9-0.8-5.8-1.6-8.7-2.4c-0.8-0.2-1.6-0.8-1.6-1c0-0.2,0-0.4,0-0.4c0.1-0.2,0.7-0.2,1-0.3
	c0.2,0,0.4-0.1,0.6-0.1c2-0.5,3.9-0.9,5.9-1.3c5.3-1.2,10.7-2.4,16-3.8c2.4-0.7,5-2.1,7.6-4.2c1.5-1.2,2.3-2.8,2.2-4.5
	c-0.1-1.7-1-3.3-2.7-4.4c-2.2-1.5-4.8-3.2-7.5-4c-5.9-1.7-12-3.2-17.8-4.6l-4.1-1c-1.2-0.3-1.8-1.2-1.9-2.8v-0.4
	c-0.1-1.5,0.4-1.8,2.1-2.2c7.7-1.6,14.5-3,21.4-4.8c2.7-0.7,5.3-1.9,7.8-3.5c2-1.3,3-3,2.9-4.7c-0.1-1.7-1.3-3.3-3.4-4.3
	c-3.4-1.7-6.7-3-9.8-3.8c-6.1-1.5-12.3-2.7-18.4-3.9l-0.9-0.2c-1.8-0.4-2.3-0.9-2.1-2.4c0.1-1.2,0.1-2.5,0-3.7c0-0.6,0-1.1,0-1.7
	c0-1.2,0-2,0.2-2.3c0.2-0.2,1-0.4,2.1-0.7l2.8-0.6c7.2-1.6,14.8-3.2,22.1-4.9c1.8-0.4,3.6-1.3,5.2-2.4c1.1-0.9,1.7-1.9,1.6-3
	c-0.1-1.1-0.8-2-2-2.6c-2.5-1.2-4.9-2.1-7.2-2.5c-7-1.2-14.2-2.2-21.1-3.2l-2.8-0.4c-1-0.1-1.3-0.4-1.3-1.4c0-4.2,0-8,0-11.6
	c0-0.8,0.3-1.2,1.2-1.4c3-0.6,5.4-1.2,7.9-1.8c6.1-1.5,12.7-3.1,19.1-4.8c1.1-0.3,2.3-0.8,3.3-1.6c1-0.7,1.5-1.6,1.4-2.6
	c-0.1-1-0.8-1.8-1.9-2.3c-0.7-0.3-1.7-0.7-2.7-0.8c-9.1-0.7-18.2-1.4-26.7-2c-0.8-0.1-1.7-0.1-1.8-0.3c-0.2-0.2-0.2-1.1-0.2-1.9
	c0-1.3,0-2.5,0-3.8c0-2.9,0-5.9-0.1-8.8v-0.2c-0.1-1.9,0.8-3.1,2.7-3.5c1.9-0.5,3.7-0.9,5.6-1.3c5-1.2,10.2-2.4,15.3-3.7
	c1.7-0.4,3.5-1.2,5.2-2.2c0.9-0.5,1.4-1.4,1.3-2.3c0-0.8-0.5-1.5-1.3-1.9l-0.6-0.3c-1.5-0.7-3-1.5-4.6-1.8c-5.2-1-10.4-2-15.5-2.9
	c-1.9-0.3-3.8-0.7-5.6-1c-2-0.4-3-1.6-3-3.6v-1c-0.1-8.2-0.2-16.7-0.4-25c0-1.6,0.4-2.2,1.9-2.6c2.2-0.5,4.3-1,6.5-1.4
	c3-0.7,6.1-1.4,9.1-2c1.5-0.3,3-0.6,4.4-0.8c1.5-0.3,3.2-0.5,4.7-0.9c0.8-0.2,2.1-1.3,1.9-2.2c-0.1-0.9-1-1.6-1.7-2.1
	c-0.4-0.3-0.9-0.3-1.2-0.3c-0.2,0-0.4,0-0.7,0c-5.1,0.5-10.2,0.9-15.3,1.4c-2.7,0.2-5.4,0.5-8.2,0.8l-2.8,0.3c0-1.7,0-3.3,0-4.9
	c0-4.9,0-9.6,0.1-14.2c0-1.2,0.5-2.6,2.7-3.2c5.2-1.3,10.5-2.7,15.6-4c1.9-0.5,3.9-1,5.8-1.5c0.2-0.1,0.4-0.1,0.7-0.1
	c0.6-0.1,1.3-0.3,1.9-0.6c0.7-0.4,1.6-1.4,1.6-2.4c0-0.9-1.1-1.9-2-2.2c-1.3-0.4-2.7-0.5-4-0.6c-6.8-0.3-13.7-0.6-20-0.9
	c-1.3-0.1-1.5-0.3-1.5-1.1c0-1.9-0.1-3.7-0.1-5.6c-0.1-4-0.2-8.1-0.2-12.1c0-0.6,0.5-1.6,0.8-1.7l2.2-0.7c4.6-1.4,9.4-2.8,14.1-3.7
	c3-0.5,5.9-1.5,8.8-3c0.3-0.1,0.4-0.4,0.6-0.7c0.2-0.6,0.2-1.7-0.1-2.3c-0.7-1.3-3.2-2-4.7-2.1c-0.2-0.1-0.4-0.1-0.6-0.1h0
	c-3.4,0.1-7,0.4-10.5,1c-0.3-0.1-0.6-0.2-1-0.2s-0.7,0.1-1,0.1c-0.3,0-0.5,0.1-0.8,0.1c-1.3,0-2.5,0.3-3.7,0.6
	c-1.2,0.3-2.4,0.5-3.5,0.5c-0.7,0-1.3-0.1-2-0.3c0,0,0-0.1,0-0.1c-0.1-6.1-0.2-13.1,0.8-20c0.1-0.9,0.4-1,1.6-1c1-0.1,2-0.1,3-0.1
	c3.1-0.1,6.4-0.3,9.6-0.7c3.5-0.4,7.6-1.1,11-3.7c1.3-1,2.1-2.3,2-3.7c0-1.3-0.8-2.5-2-3.4c-0.2-0.2-0.5-0.4-0.7-0.5
	c-0.4-0.3-0.8-0.6-1.2-0.9c-0.2-0.2-0.5-0.4-0.8-0.5c-2.9-0.9-6-1.3-10.1-1.3c-1.3,0-2.7,0-4.2,0.1c-0.3-0.1-0.5-0.1-0.8-0.1
	c-1.8,0-3.6,0.2-5.4,0.5l-0.5,0.1c-0.2,0-0.4,0-0.5,0c-0.3,0-0.5-0.1-0.6-0.2c-0.1-0.1-0.2-0.5-0.2-0.9c0-4.4,0-9.1,0-14.8
	c0-0.5,0.1-0.8,0.2-0.9c0.2-0.1,0.5-0.2,0.8-0.2c0.1,0,0.2,0,0.2,0c0.6,0,1.3,0.1,1.9,0.1c1.9,0.1,3.8,0.2,5.7,0.2
	c1,0,1.9,0,2.8-0.1c4.9-0.4,10-1,14-4.9c1.8-1.8,2.1-3.5,0.9-5.6c-0.8-1.5-2-2.4-3.8-3.1c-0.2-0.1-0.3-0.2-0.5-0.3
	c-3.8-1.3-7.7-1.9-11.7-1.9c-0.7,0-1.5,0-2.2,0.1c0,0-0.1,0-0.1,0c-0.4-0.1-0.8-0.1-1.2-0.1c-0.7,0-1.4,0.1-2,0.1
	c-0.5,0.1-0.9,0.1-1.4,0.1h-0.2c-0.8,0.1-1.7,0.1-2.5,0.2c-0.1,0-0.2,0-0.3,0c-0.3,0-0.6-0.1-0.7-0.2c-0.2-0.2-0.3-0.6-0.3-1.1
	c0-4.4,0-10.2,0-16.1c0-0.6,0.1-1,0.3-1.2c0.2-0.2,0.6-0.3,1.3-0.3c3.8,0,7.5-0.1,11.2-0.4c4.5-0.4,8.5-1.9,11.9-4.3
	c2.7-1.9,4.1-4.5,4-7.2c-0.1-2.7-1.7-5.1-4.5-6.9c0,0-0.1-0.1-0.1-0.1c-1.3-1.6-3.4-2.1-5.2-2.5L56,91.3c-2.1-0.5-4.2-0.9-6.4-1.3
	c-0.1,0-0.2,0-0.4,0c-0.1,0-0.2,0-0.3,0c-1-0.6-2.2-0.6-3.2-0.6h-0.3c-1.4,0-2.8,0-4.3,0l-3.8,0.2 M30.6,240.2
	c-6.3,2.5-14.1,6-20.4,11.1c-1.9,1.5-3.6,3.6-4.8,5.7c-2,3.5-0.8,7.2,3,9.4c4.2,2.4,8.9,3.1,12.9,3.4c2.5,0.2,5,0.3,7.4,0.4
	c0.1,0,0.3,0,0.5,0c-0.9,0.4-1.8,0.8-2.8,1.2c-0.9,0.4-1.7,0.7-2.6,1.1c-5.7,2.6-11.5,5.6-15.4,11.1c-2.4,3.3-2.6,6.8-0.8,10.3
	c1.6,3,4.1,5.2,7.6,6.6l0.2,0.1c0,0,0.1,0.1,0.2,0.1c0.5,0.3,1,0.5,1.6,0.8l0.1,0.1c0.2,0.1,0.5,0.2,0.8,0.3
	c0.8,0.3,1.5,0.5,2.1,0.6c1.7,0.7,3.6,1.3,5.5,2c2.6,1.2,5.1,2.3,7.4,3.4c0,0.2,0.1,0.5,0.1,0.8c-0.1,1.7,0,3.4,0,5.1
	c0,0.8,0,1.7,0,2.5c0,1.6-0.7,2.6-2,3l-0.4,0.1c-4.8,1.6-10.7,3.7-16.2,6c-1.9,0.8-3.9,2.2-6.1,4.4c-1.2,1.2-1.8,2.6-1.7,4
	c0.1,1.5,1,3,2.4,4c1.5,1.1,2.9,1.9,4.3,2.3c3.4,1.1,6.5,2,9.5,2.6c2.5,0.5,5,0.8,7.5,1.1l1.8,0.2c1.3,0.2,1.7,0.6,1.7,1.7
	c0,1.5-0.1,3,0,4.5c0.1,1.5-0.3,2.1-1.9,2.5c-5,1.4-9.5,2.6-14,4.3c-2.4,0.9-5,2.4-7.6,4.5c-1.1,0.8-1.6,1.8-1.6,2.9
	c0,1.1,0.6,2.2,1.7,3.1c1.3,1.1,3.4,2.4,5.8,3c5.2,1.3,10.4,2.2,16.5,3.4c1.3,0.2,1.6,0.6,1.6,1.8c0,2.9,0,5.9,0,9.2
	c0,0.9-0.3,1.3-1.2,1.5l-1.4,0.3c-3.2,0.6-6.5,1.2-9.8,2.1c-2.9,0.8-6.6,1.8-10.1,3.4c-1.4,0.6-2.3,1.8-2.4,3.1
	c0,1.4,0.9,2.7,2.4,3.5c1.9,1,3.9,1.7,5.9,2.1c5.2,1.1,10.3,2,15.2,2.9c1.4,0.2,1.8,0.6,1.8,1.9c0,4.2,0,8.6,0.1,14.5
	c0,1.3-0.3,1.6-1.5,1.8c-5.5,0.7-10.9,1.5-16.1,2.4c-1.9,0.3-3.8,0.8-5.6,1.6c-0.9,0.4-1.5,1.2-1.6,2.1c0,0.8,0.4,1.5,1,1.8l0.8,0.4
	c1.7,0.8,3.4,1.7,5.2,2c4.5,0.8,9.1,1.5,13.6,2.1l3.1,0.4c1.1,0.2,1.3,0.6,1.3,1.4c0,5.8,0,11.6,0.1,17.5c0,0.9-0.3,1.2-1.1,1.3
	c-1.8,0.2-3.5,0.4-5.3,0.6c-1.8,0.2-3.6,0.4-5.4,0.6c-1.2,0.1-2.5,0.2-3.7,0.3c-2.2,0.2-4.5,0.4-6.8,0.7c-1,0.1-2.5,1.2-2.7,2.3
	c-0.1,0.8,0.1,1.3,0.3,1.6c0.6,0.8,1.7,1,2.4,1.1c2.4,0.3,4.9,0.6,7.3,0.9c4.4,0.5,9,1.1,13.4,1.5c1.5,0.1,1.8,0.5,1.8,2
	c0,5.5-0.4,12.4-0.3,19c-4.2,0.7-7.9,0.4-12,0.8c-1.6,0.1-3.2,0.2-4.8,0.3c-2.6,0.1-5.3,0.2-7.9,0.7c-1,0.1-1.8,0.7-2,1.6
	c-0.3,1.2,0.4,2.4,1.6,2.7c0.4,0.1,0.9,0.2,1.4,0.3c0.6,0.4,1.4,0.4,2,0.4c0.2,0,0.4,0,0.6,0l3.1,0.2c5.8,0.5,11.5,0.9,17.3,1.3
	c1.2,0.1,1.5,0.5,1.5,1.6c0,5.9,0,10.9,0.1,15.5c0,0.6-0.1,0.9-0.3,1.1c-0.2,0.2-0.5,0.3-1,0.3l-1.1,0c-1.1,0-2.2-0.1-3.2-0.1
	c-1,0-1.9,0-2.7,0.1l-9.4,0.9l-4.1,0.5l-0.6,0.1c-0.1,0-0.1,0-0.2,0l-1.4,0.2c-2,0.3-4.5,1.1-5.5,3.6c-0.1,0.1-0.1,0.3-0.1,0.4
	c-0.1,0.2-0.1,0.3,0,0.5l0.1,0.1c0,0.2,0.1,0.4,0.2,0.5c0.2,0.5,0.7,1.5,1.6,2c1.2,0.6,2.7,1,4,1c5.7,0.1,11.7,0.1,18.1,0.1
	c1.5,0,2.9,0,4.4,0c0.5,0,1,0,1.2,0.2c0.2,0.2,0.2,0.6,0.2,0.9c0,2.1,0,4.4,0.1,7.2c0,0.8-0.1,1.3-0.3,1.5c-0.3,0.3-0.8,0.4-1.7,0.4
	c-7.1,0.1-12.9,0.4-18.2,0.9c-2.7,0.2-5.3,1.4-6.9,2.3c-1.5,0.8-2.4,2.2-2.3,3.7c0.1,1.5,1.2,2.7,2.8,3.4c2.9,1.1,5.4,1.7,7.7,1.7
	c1.4,0,2.8,0.1,4.2,0.1c2.3,0,4.6,0,6.9-0.1c2.3,0,4.6-0.1,6.9-0.1c0.3,0,0.8,0.3,1,0.5c0.2,1.7,0.2,3.3,0,4.8
	c-0.2,1.1-0.8,1.7-2.2,1.8c-4.7,0.5-9.4,1-14.1,1.5l-5.8,0.6c-3.1,0.3-6.4,3.9-6.5,6.9c0,0.8,0.3,2.3,1.3,2.9l0.3,0.2
	c1.9,1.1,3.9,2.3,6,2.9c3.7,0.9,7.7,1.3,12.2,1.3c2.1,0,4.4-0.1,6.9-0.3l0.2,0c0.3,0,0.5,0,0.8,0c0.6,0,1,0,1,1.2c0,1,0,2-0.2,2.2
	c-0.2,0.2-1.2,0.2-1.5,0.2h-0.6c-0.5,0-1.1,0-1.7,0c-0.5,0-1.1,0-1.7,0c-1.2,0-2.1,0-3,0.1c-6.3,0.4-11.4,1.2-16.1,4
	c-2.6,1.5-3.9,3.4-4,5.7c-0.1,2.2,1.3,4,4,5c2.7,1.1,5.5,2.2,8.5,2.5c3.7,0.4,7.4,0.4,11,0.5c1.3,0,2.7,0,4,0.1
	c1.3,0,1.6,0.1,1.6,1.1c0,1.2-0.6,1.8-1.8,1.9c-1.2,0-2.3,0.1-3.4,0.1c-3.4,0.1-6.8,0.2-10.2,0.8c-4.6,0.7-10.3,1.6-12.6,7.6
	c-0.5,1.2-0.4,3.3,0.4,4.2c1.8,2,3.6,3.4,5.3,4.1c2.6,1,5.6,1.8,8.8,2.1c3.6,0.4,7.3,0.4,10.9,0.4h1.1c0.7,0,1.1,0.1,1.3,0.3
	c0.2,0.2,0.3,0.6,0.3,1.2c0,1.5,0,3,0,4.5c0,1,0,2,0,3c0,1.6-0.1,1.6-0.5,1.6c-0.3,0-0.7,0-1.3-0.2c-3.5-0.7-7-1-10.3-1
	c-2.3,0-4.6,0.2-6.9,0.5c-2,0.3-3.9,0.9-5.6,1.7c-2.1,1-3.4,2.5-3.5,4.2c-0.2,1.7,0.7,3.5,2.6,5c2.8,2.3,6.3,3.5,10.9,3.9
	c4.1,0.4,8.2,0.5,12.2,0.7l1.4,0.1c1.2,0,1.3,0.2,1.3,1.1c0,4.2,0,8.5,0,12.7c0,6.9,0,14,0,21v0.3c0,0.2,0,0.3,0,0.4
	c0,0.2,0,0.4,0.1,0.6c0.1,0.2,0.3,0.3,0.5,0.3l1.5,0c1.3,0,2.6,0.1,3.9,0.1c0.4,0,1.2,0,1.6,0 M37.1,69.5c0.5-0.1,0.9-0.1,1.3-0.1
	c0.1,0,0.2,0,0.4,0c2.6,0.3,4.9,0.4,7,0.4c3.6,0,6.8-0.4,9.8-1.2c2.8-0.8,5.5-2.2,8.2-3.7c2-1.2,2.8-3.4,2.1-6
	c-0.6-2-2.1-3.1-3.3-3.8c0,0-0.1,0-0.1-0.1c-5.2-3.4-12.9-4.1-18.4-4.1c-3.5,0-6.5,0.3-8.1,0.5c0-0.1,0-0.1,0-0.2c0-1.9,0-3.9,0-5.8
	c0-2,0-4,0-6c0-0.8,0.4-1.7,0.8-2.1c3.8-3.3,7.3-6.2,10.8-8.9c2.3-1.8,4.8-3.5,7.1-5.2c0.8-0.5,1.5-1,2.2-1.6c1.1-0.8,2-1.5,1.9-2.4
	c0.1-0.5,0.1-0.9,0-1.4c-0.3-1.3-1.4-3-4.8-3.7c-1.6-0.4-3.3-0.4-4.8-0.5c-0.2-0.1-0.3-0.1-0.5-0.1c-3.7-0.4-7.5-0.6-11.3-0.8
	c-0.8,0-1.2-0.2-1.4-0.4l0.4-11.9L35,0.1c-0.2,0-0.5,0-0.7,0c-1.2,0-2.3,0.1-2.9,0.8c-0.4,0.4-0.5,0.9-0.5,1.5l-0.5,9.6
	c0,0,0,0.1,0,0.1c0.1,1.1-0.1,1.6-1.6,1.9c-7.3,1.7-16.5,4.6-23.2,12.4C1.9,30.6,0.1,35,0,39.7c-0.1,6.8,2.9,12.5,9.5,18
	c1.1,0.9,2.1,1.7,3.3,2.5c0.3,0.2,0.7,0.5,1,0.7c-0.2,0.2-0.3,0.3-0.5,0.5c-0.6,0.5-1.2,1.1-1.9,1.6c-1.3,1.1-2.7,2.3-3.9,3.6
	c-5.3,6-7.4,12.2-6.4,19c0.8,5.1,3,9.6,6.7,13.5c0.6,0.6,1.3,1.4,1.3,1.7c0,0.3-0.6,0.8-1.3,1.5l-0.2,0.2c-4.1,4.1-6.2,8.8-6.5,13.9
	c-0.4,9.3,5.1,15.1,10.1,19.2c0.9,0.8,1.9,1.5,2.9,2.2c0.2,0.2,0.4,0.3,0.7,0.5l0,0c-0.6,0.4-1,0.6-1.5,0.9
	c-4.1,2.3-8.2,5.1-10.9,9.7c-3.4,5.8-2.7,11.9,2,16.4c1.3,1.3,2.8,2.4,4.2,3.4c0.6,0.5,1.2,0.9,1.9,1.4c0.4,0.3,0.8,0.6,1.3,1
	c-0.4,0.3-0.8,0.5-1.1,0.8c-0.7,0.6-1.4,1.1-2.1,1.6c-1.7,1.3-3.5,2.6-5,4.2c-4,4.2-4.2,9.8-0.5,14.2c1.1,1.3,2.5,2.6,4,3.7
	c5.4,3.9,11.5,5.7,16.2,6.8c0.1,0,0.2,0.1,0.3,0.1c-1.1,0.5-2.2,0.9-3.3,1.4c-0.4,0.1-0.7,0.3-1.1,0.4c-5.9,2.3-11.1,4.5-15.2,8.9
	c-1.9,2.1-2.9,4.5-2.6,6.8c0.2,2.3,1.5,4.3,3.7,5.8c2,1.4,4.6,3,7.4,3.8c4.1,1.1,8.3,1.9,12.4,2.8c1.9,0.4,3.7,0.8,5.6,1.2l0.3,0.1
	c0.4,0.1,1,0.2,1.1,0.4 M39.3,235.1c1.9,0,3.8,0.2,5.7,0.3c-1.8,0.6-3.7,1.1-5.5,1.6c-0.2,0-0.5-0.2-0.6-0.4c0-0.1,0-0.2,0-0.3
	c0-0.3-0.1-0.9,0-1.1C38.9,235.1,39,235.1,39.3,235.1 M39.5,169.2c3.3-0.4,6.2-0.5,8.9-0.5c3.3,0,6.3,0.2,9.2,0.8
	c0.3,0.1,0.6,0.1,0.9,0.3c0,0.1-0.1,0.1-0.2,0.1c-0.2,0.2-0.5,0.3-0.7,0.5c-0.4,0.3-0.8,0.5-1.2,0.9c-0.4,0.1-0.8,0.2-1.1,0.2
	c-4.9,0.5-10,0.9-14.9,1.2l-0.8,0.1c-0.1,0-0.2,0-0.3,0c-1,0-1.3-0.3-1.4-1.3C38,169.8,38.3,169.3,39.5,169.2L39.5,169.2z M39,137.5
	c2.6-0.3,6.1-0.7,9.6-0.7c3.2,0,6.1,0.3,8.9,1c0,0,0.1,0,0.1,0l1.3,1c0,0,0,0,0,0v0c0,0,0,0,0,0.1c0,0,0,0.1,0,0.1s-0.1,0.1-0.1,0.2
	c0,0-0.2,0.2-0.2,0.2c0,0-0.1,0.1-0.1,0.1c0,0-0.1,0.1-0.1,0.1c0,0-0.1,0-0.2,0c-4.3,1.3-8.8,2.1-13.2,2.4l-1.3-0.1
	c-1.5-0.1-3-0.2-4.6-0.4c-0.9-0.1-1-0.4-1-1.7c0-0.1,0-0.3,0-0.5C37.9,138,38.1,137.7,39,137.5L39,137.5z M37.4,58.6
	c0.4-0.5,1.6-0.6,3.5-0.8c2.8-0.3,4.9-0.4,6.9-0.4c3.7,0,7,0.4,9.9,1.3c0,0,0.1,0,0.2,0.1c0.5,0.4,1,0.8,1.3,1.2
	c0.1,0.1,0.1,0.1,0.2,0.2l0.1,0.1c0.1,0.1,0.1,0.2,0.2,0.3c0,0,0,0,0,0c0,0.1,0.1,0.2,0.1,0.4c0,0,0,0.1,0,0.1
	c-0.6,0.6-1.2,1.1-1.8,1.2c-2.9,0.7-6,1.3-8.9,1.8l-0.5,0.1h-0.2c-0.2,0-0.5,0-0.8,0h-0.4c-0.5,0-1,0-1.6,0.1
	c-0.7-0.1-1.4-0.1-2.1-0.2c-1.7-0.1-3.4-0.3-5.1-0.4c-0.9,0-1.2-0.3-1.3-1.5v-0.1C37.1,60.2,37.1,59,37.4,58.6z M30.8,105.3
	c0,0.5-0.1,0.7-0.2,0.7c0,0-0.1,0.1-0.3,0.1c-0.1,0-0.3,0-0.4-0.1c-2.8-0.9-5.5-1.9-8.2-2.9l-2.7-1c-0.3-0.1-0.6-0.2-1-0.4
	c0,0,0,0,0,0c0.6-0.4,1.1-0.7,1.5-0.9c3.5-1.3,7-2.6,10.4-3.9c0.3-0.1,0.5-0.1,0.6-0.1c0.1,0,0.2,0,0.2,0.1c0,0,0.2,0.2,0.1,0.8
	C30.8,100.1,30.8,102.7,30.8,105.3L30.8,105.3z M5.6,44c-0.3-0.7-0.4-1.5-0.5-2.3c0-0.4-0.1-0.8-0.1-1.2c0.2-6.2,4.1-10.1,7.5-12.9
	c4.2-3.4,9.4-5.9,16.5-7.6c0.4-0.1,0.9-0.2,1.2-0.2c0,0,0.1,0,0.1,0c0.1,0.1,0.1,0.6,0.1,1.4c0,6.3,0,12.6,0,18.9l0,9.4
	c0,3-1.4,4.9-4.2,5.8l-0.1,0c-2,0.7-3.9,1.4-5.5,2.1c-0.9,0.4-1.6,0.5-2.3,0.5c-0.9,0-1.8-0.3-2.7-0.9C11.3,54.2,8.1,50.1,5.6,44
	L5.6,44z M30.2,61.8c-0.1,0-0.2,0-0.4,0c-0.2,0-0.4,0-0.6,0c-0.6-0.1-1.2-0.4-1.8-0.7c0.6-0.3,1.2-0.5,1.8-0.6c0.1,0,0.2,0,0.4,0
	c0.2,0,0.4,0,0.5,0.1C30.3,60.9,30.3,61.4,30.2,61.8z M7.8,90.3c-3.6-7.8-1.3-16.2,5.7-22c0.2-0.2,0.4-0.4,0.7-0.5
	c0.4-0.3,0.7-0.6,1.1-0.9c1.9-1.6,3.4-2.3,4.9-2.3c1,0,2.1,0.3,3.2,1c1.5,0.9,3.2,1.3,4.8,1.7c0.5,0.1,0.9,0.2,1.3,0.3
	c1,0.3,1.3,0.7,1.3,1.7c0,2.4,0,4.8,0,7.1c0,0.9,0,1.9,0,2.8c0,0.1,0,0.1,0,0.2V82c0,2.4,0,4.9,0,7.3c0,1.2-0.2,1.6-1,1.7
	c-5.6,1.2-10.8,3.7-15.6,6.2c-0.6,0.3-1.1,0.6-1.5,0.6c-0.3,0-0.6-0.3-1.2-1.4c-0.5-0.8-1-1.6-1.5-2.3C9.2,92.8,8.4,91.6,7.8,90.3
	L7.8,90.3z M31,130.8l0.4,2c-0.2,0.1-1.9,0.7-2.2,0.8c-1.1,0.3-2.2,0.6-3.3,0.9c-1.6,0.5-3.3,1-4.9,1.4c-0.3,0.1-0.6,0.1-0.9,0.1
	c-0.4,0-0.8-0.1-1.1-0.2c-7.5-3.9-11.9-10-12.8-17.5c-0.6-5,1.8-9.5,7.2-13.6c0,0,0.2-0.1,0.4-0.1c0.4,0,0.6,0.1,0.7,0.2
	c4,2.8,8.8,4.8,15,6.5c1,0.3,1.3,0.6,1.3,1.3c0,4.3,0,8.7,0,13v4.6l-0.1,2.6l7.1-1.4 M30.8,140.2l-1.4-0.7c0.4-0.1,0.8-0.1,1.2-0.2
	c0,0.2,0.1,0.5,0.1,0.7L30.8,140.2L30.8,140.2z M11.4,165.4L11.4,165.4c-0.2-0.1-0.3-0.2-0.5-0.3c-0.4-0.3-0.8-0.7-1.1-1
	c-0.9-0.8-1.8-1.5-2.5-2.4c-3-3.4-2.7-7.8,0.7-11.5c3.8-4.1,8.7-6.4,12.6-8c0.1-0.1,0.3-0.1,0.5-0.1c0.3,0,0.7,0.1,1.1,0.2
	c1.1,0.4,2.3,0.8,3.4,1.2c1.3,0.5,2.7,1,4.1,1.4c1.2,0.4,1.5,0.9,1.5,2.1c0,2,0,4,0,5.9c0,0.8,0,1.6,0,2.4c0,0.1,0,0.1,0,0.2
	c0,0.7,0,1.4,0,2.2c0,1.9,0,3.8,0,5.8c0,1.1-0.3,1.6-1.4,1.9c-2.9,0.8-5.9,1.7-8.7,2.5c-1,0.3-2,0.6-2.9,0.9
	c-0.2,0.1-0.5,0.1-0.8,0.2c-1.9-0.8-3.8-1.9-5.5-3.1C11.8,165.6,11.6,165.5,11.4,165.4L11.4,165.4z M31,171.2
	c-0.1,0.1-0.3,0.4-0.4,0.5c-0.7,0-1.4-0.2-2.1-0.4c0.8-0.2,1.5-0.4,2.2-0.4C30.7,171,30.8,171.1,31,171.2L31,171.2z M18.4,196.3
	c-1.6-0.5-3.6-1.2-5.2-2.1c-1.8-0.9-3.1-2.2-4.4-3.5c-0.2-0.2-0.3-0.3-0.5-0.4c-0.7-0.7-1.4-1.4-2-2.1c-1.7-1.9-0.6-4.6,0.8-6.3
	c3-3.5,7.1-5.5,11.4-7.4c0.1,0,0.2-0.1,0.4-0.1c0.3,0,0.7,0.1,1.2,0.2c1.3,0.3,2.5,0.6,3.8,0.9c2,0.5,4.1,0.9,6.1,1.4
	c1.3,0.3,1.7,0.7,1.7,2c0,2.3,0,4.6,0,6.8c0,0.9,0,1.9,0,2.8c0,0.1,0,0.2,0,0.2v2.5c0,2.1,0,4.3,0,6.4c0,0.4,0,0.6,0,0.9
	c-0.2,0.1-0.5,0.1-0.7,0.1c-0.2,0-0.4,0-0.6,0h-0.1c0,0,0,0-0.1,0c-1.4-0.1-2.8-0.2-4.2-0.4c-0.7-0.1-1.3-0.3-1.8-0.3
	C22.3,197.4,20.4,196.9,18.4,196.3L18.4,196.3z M32,222.5v5.6c-1.4-0.1-2.7-0.1-4-0.2c-1.4,0-2.9-0.1-4.4-0.2
	c-3.4-0.3-6.7-1.2-9.8-2.2c-0.1-0.1-0.3-0.2-0.4-0.2c-1.6-0.6-3.3-1.5-5.2-2.8c-1.2-0.8-1.8-1.7-1.9-2.7c0-0.9,0.4-1.8,1.4-2.6
	c2.9-2.4,5.9-4.3,8.9-5.5c3.1-1.3,6.4-2.4,9.6-3.3c1.4-0.4,2.8-0.9,4.2-1.3c0.3-0.1,0.6-0.2,0.8-0.2c0.2,0,0.3,0.1,0.4,0.1
	c0.1,0.1,0.2,0.3,0.2,1.2c0,3.3,0,6.6,0,9.9l0.5,21.4 M26.4,264.7c-3.3-0.2-6.7-0.3-10.1-0.7c-1.7-0.2-3.5-0.9-5.1-1.7
	c-0.9-0.5-1.5-1.1-1.7-1.7c-0.2-0.8,0.4-1.6,0.8-2.1c2.4-2.6,4.4-4.4,6.5-5.6c3.2-1.9,6.7-3.5,10.1-5.1c1.5-0.7,2.9-1.4,4.4-2.1
	c0.5-0.2,0.7-0.3,0.8-0.3l0.1,0c0,0,0.2,0.2,0.2,1.1c0,2,0,4,0,6v2.5c0,0.1,0,0.2,0.1,0.3c0,0.7,0,1.4,0,2.1c0,1.9,0,3.9,0,5.9
	c0,0.6-0.1,1-0.3,1.2c-0.2,0.1-0.4,0.2-0.8,0.2c-0.1,0-0.1,0-0.2,0C29.6,264.9,28,264.8,26.4,264.7L26.4,264.7z M33.3,300.5
	c-4.1-0.5-8.2-1.5-12.1-3.2c-0.2-0.1-0.4-0.1-0.7-0.1c-2-1-4-1.9-5.9-2.9c-0.6-0.5-1.2-1.1-1.8-1.6c-1.8-1.8-2-3.6-0.4-5.7
	c1.9-2.5,3.6-4.2,5.4-5.2c3.1-1.8,6.5-3.3,9.8-4.8c1.4-0.6,2.8-1.3,4.2-1.9c0.5-0.2,0.7-0.3,0.8-0.3c0,0,0.1,0,0.1,0
	c0,0,0.2,0.2,0.2,1.1c0,4.6,0,9.3,0,13.9v5.1L33.3,300.5L33.3,300.5z M33.5,339.2c-2.8-0.5-5.8-1-8.8-1.4c-3-0.6-5.6-1.2-8.2-1.7
	c-2.2-0.9-3.7-2-3.9-3c0.6-0.7,1.1-1.3,1.7-1.6c6.1-3.5,12.7-5.5,18.3-7c0.2,0,0.3-0.1,0.5-0.1c0.2,0,0.4,0,0.4,0.8v6.7
	c0,0.1,0,0.2,0.1,0.3v1.6c0,1.5,0,3,0,4.6C33.7,338.5,33.7,338.9,33.5,339.2L33.5,339.2z M34,369.1c0,0-0.1,0-0.2,0s-0.2,0-0.3,0
	l-4-0.8c-4.5-0.9-9.2-1.9-13.8-2.9c-0.3-0.1-0.6-0.4-0.9-0.7c0,0,0,0-0.1,0c0,0,0,0,0,0c0.2-0.3,0.5-0.6,0.7-0.7
	c5.2-1.8,10.8-3.6,18.1-5.9c0.1,0,0.2,0,0.3,0c0.2,0,0.2,0.5,0.2,0.7c0,1.1,0,2.3,0,3.4v1.5c0,0.1,0,0.2,0,0.2v1.2
	c0,1.1,0,2.3,0,3.4C34.1,368.9,34.1,369.1,34,369.1L34,369.1z M34.6,393.3c0,0.7,0,1.4,0,2.1c0,0.9,0,1.8-0.1,2.7
	c0,0.2-0.4,0.6-0.6,0.8c-5.1-0.9-10.3-2-15.3-3l-1.4-0.3c0.5-0.2,0.9-0.4,1.3-0.5c2-0.5,4.1-0.9,6.1-1.3c2.8-0.6,5.7-1.2,8.5-1.9
	c0.3-0.1,0.6-0.1,0.8-0.1c0.2,0,0.4,0,0.5,0.1C34.5,392.1,34.6,392.4,34.6,393.3L34.6,393.3z M34.8,429.4c-0.1,0.1-0.2,0.1-0.4,0.1
	c-0.1,0-0.1,0-0.2,0c-2.5-0.3-5.1-0.7-7.6-1c2.5-0.3,5-0.7,7.5-0.9c0.2,0.2,0.6,0.8,0.7,1.2C35,429,34.9,429.2,34.8,429.4
	L34.8,429.4z M36.5,18.9c3.8,0.1,7.7,0.4,11.4,0.6l2.1,0.1c0,0,0,0,0,0L35.9,30.2c0-0.1,0-0.2,0-0.3c-0.1-0.5-0.2-1-0.2-1.4
	c0-1.3,0-2.7,0-4c0-1.4,0-2.7,0-4.1c0-0.6,0.1-1,0.3-1.2C36.1,18.9,36.2,18.9,36.5,18.9 M23.8,538.3c1.4-0.1,2.8-0.2,4.2-0.3
	c0.6,0,1.2,0,1.8,0c1.5,0,2.8,0.1,4,0.3C30.3,538.3,26.9,538.3,23.8,538.3L23.8,538.3z M36.4,561.1c-0.1,0.2-0.4,0.2-0.7,0.2
	c-2.7,0.2-5.6,0.3-8.5,0.3c-5,0-9-0.5-12.8-1.6c0,0-0.1,0-0.1,0c0.1,0,0.1-0.1,0.2-0.1c0.9-0.3,1.7-0.7,2.5-0.8
	c4.2-0.9,8.8-1.4,14.3-1.4c1.3,0,2.6,0,3.8,0.1c0.2,0,0.9,0,1.1,0.3c0.1,0.1,0.1,0.4,0.1,0.7c0,0.3,0,0.7,0,1
	C36.5,560.3,36.6,560.9,36.4,561.1L36.4,561.1z M36.4,582.5c-0.1,0.2-0.5,0.2-1.5,0.2c-0.5,0-1,0-1.4,0h-0.2
	c-4.1-0.3-7.8-0.8-11.5-1.2l-1-0.1c-1.4-0.2-2.9-0.4-4.2-0.7c-0.7-0.2-1.4-0.4-1.9-0.8c-0.2-0.2-0.3-0.2-0.3-0.3
	c0.1-0.1,0.2-0.2,0.4-0.2c5.1-2,10.4-2.4,15.4-2.7c0.8,0,1.6,0,2.3,0c0.5,0,1,0,1.6,0h0.7c0.6,0,1.5,0,1.6,0.2
	c0.2,0.2,0.2,1.3,0.2,2.3C36.6,580.8,36.6,582.1,36.4,582.5L36.4,582.5z M36.9,604.1c-0.4,0-0.8,0-1.2,0c-0.8,0-1.7,0-2.5-0.1
	l-1.1,0c-1.1,0-2.3,0-3.5-0.1c-1.2,0-2.4,0-3.5-0.1c-1.9-0.1-4.4-0.2-6.7-0.9c-2.9-0.8-3.4-1.6-3.4-1.8c0-0.1-0.1-0.2,0.1-0.5
	c0.4-0.3,0.9-0.7,1.3-0.9c5.8-2.2,11.8-2.5,17-2.5c0.9,0,1.8,0,2.6,0c0.2,0.1,0.8,0.7,0.8,1c0.1,1.1,0.1,2.2,0.1,3.4
	c0,0.7,0,1.3,0,2C36.9,603.9,36.9,604,36.9,604.1z M37,629.5c-0.1,1-0.4,1.1-1.8,1.2c-0.7,0-1.3,0-2,0c-6,0-10.9-0.6-15.5-1.9
	c-0.4-0.1-0.7-0.3-1.2-0.6c-0.1-0.1-0.1-0.1-0.2-0.2l-0.1-0.1l-0.1-0.1c0,0,0-0.1,0-0.2c0,0,0-0.1,0-0.1c0,0,0,0,0,0
	c0.6-0.3,1.1-0.5,1.6-0.6c1.4-0.2,2.9-0.3,4.6-0.4c0.8,0,1.6-0.1,2.5-0.2l2.7,0.3c2.4,0.3,5.1,0.6,7.8,0.8
	C36.7,627.5,37.1,628,37,629.5L37,629.5z M37.5,95.4v5.4l0.2,12.9 M36.2,95.8c0.3-0.3,1.4-0.4,3-0.4h0.6c3,0,6,0.2,8.9,0.3l2.1,0.1
	c0.3,0,0.6,0.1,1,0.2c0,0,7.4,2.1,9.1,4.7c0.9,1.4-0.3,2.4-1,2.9c-1.7,1.1-3.6,2.2-5.5,2.7c0,0,0,0-0.1,0c-0.2,0-0.3,0-0.5,0.1
	c-3.4,0.8-6.9,1.3-10.5,1.4c-0.1,0-0.2-0.1-0.3-0.1c-0.4,0-0.8,0-1.3,0c-0.4,0-0.8,0-1.3,0c-0.7,0-1.3,0-1.8-0.1c-0.2,0-1,0-1.3-0.2
	 M40,311.4v-1.8c0-0.4,0.1-0.7,0.2-0.8c0,0,0.1-0.1,0.3-0.1c0.1,0,0.2,0,0.2,0c5.1,0.9,10.3,1.8,15.4,2.7l3,0.5l-0.4,0.1
	c-1.9,0.5-3.8,1-5.6,1.5c-4.6,1.1-8.2,2-11.6,2.8c-0.5,0.1-0.8,0.2-1.1,0.2c-0.3,0-0.4,0-0.5-1.5C40,313.9,40,312.7,40,311.4z
	 M40.6,349.2l0-0.1c-0.2-1.7-0.4-3.1,0-3.5c0.2-0.3,1.1-0.3,1.8-0.3c0.5,0,1,0,1.6,0c5.6,0.3,11.2,0.6,16.6,0.9
	c-1.9,0.5-3.8,1-5.7,1.3c-0.2,0-0.3,0.1-0.5,0.2c0,0-0.1,0-0.1,0c-4,0.8-8.2,1.7-12.3,2.7c-0.2,0.1-0.5,0.1-0.6,0.1
	c-0.3,0-0.5,0-0.6-1C40.7,349.5,40.6,349.3,40.6,349.2L40.6,349.2z M41.1,380.1c-0.1-1-0.1-1.9-0.1-2.9c0-0.5,0-1.6,0.2-1.8
	c0,0,0.1-0.1,0.5-0.1c0.3,0,0.7,0,1.3,0.1c4.8,0.6,10.1,1.3,16.5,2.2c2.3,0.3,4.7,0.8,6.9,1.3l0.2,0c0.1,0.1,0.3,0.2,0.4,0.2
	c0,0,0,0.1,0.1,0.2c-0.1,0-0.1,0.1-0.1,0.1c-0.8,0.2-1.4,0.5-2,0.6c-4.1,0.9-8.2,1.7-12.4,2.6c-3.2,0.7-6.4,1.3-9.6,2
	c-0.3,0.1-0.6,0.1-0.8,0.1c-0.4,0-0.5-0.1-0.5-0.1c-0.1-0.1-0.2-0.4-0.2-1.1C41.2,382.4,41.2,381.2,41.1,380.1L41.1,380.1z
	 M41.5,417.3c0-0.2,0-0.4-0.1-0.6c0-0.1,0-0.2-0.1-0.3c0-0.9,0-1.8,0-2.6c0-2.4,0-4.9,0-7.4c0-0.7,0.1-0.9,0.2-0.9
	c0.1-0.1,0.2-0.1,0.4-0.1c0.2,0,0.3,0,0.5,0.1c1.3,0.3,2.6,0.5,4,0.8c7.3,1.4,14.8,2.9,21.8,5.6c0.1,0,0.2,0.1,0.3,0.1
	c0.1,0.1,0.2,0.3,0.3,0.4c0,0,0,0,0,0l0,0c0,0,0,0.1,0.1,0.2c0,0,0,0,0,0.1c0,0.1,0,0.2-0.1,0.2c0,0.1-0.1,0.2-0.1,0.3l-0.1,0.1
	l-0.1,0.2c-0.3,0.3-0.6,0.6-1,1c-0.1,0.1-0.1,0.1-0.2,0.2c-4,1.3-7.1,2.2-10,2.9c-2.4,0.6-5,1-7.4,1.5c-2.1,0.4-4.2,0.8-6.3,1.3
	c-0.4,0.1-0.7,0.1-1,0.1c-0.5,0-0.7-0.2-0.7-0.2c-0.2-0.2-0.3-0.7-0.3-1.4C41.6,418.3,41.5,417.8,41.5,417.3L41.5,417.3z
	 M42.1,446.8v-2.1c0-0.1,0-0.1,0-0.2v-2c0-1.8,0-3.6,0-5.5c0-0.6,0.1-0.8,0.2-0.9c0,0,0.1-0.1,0.3-0.1s0.3,0,0.5,0.1
	c2.2,0.5,4.3,1.1,6.5,1.6c4.9,1.2,9.9,2.4,14.9,3.7c1.5,0.4,3,1.2,4.6,2.1c0.8,0.5,1.3,1.1,1.3,1.7c0,0.5-0.5,1-1.3,1.4
	c-4,1.8-7.5,3.1-10.7,3.9c-4,1.1-8.3,1.8-12.3,2.6l-1.7,0.3c-0.6,0.1-1,0.2-1.4,0.2c-0.6,0-0.8,0-0.8-2.2
	C42.1,449.9,42.1,448.4,42.1,446.8L42.1,446.8z M42.5,469.7l-0.1-0.9c-0.1-1.4-0.2-2.8,0-3c0,0,0,0,0.2,0c0.4,0,1,0.1,1.8,0.3
	c0.5,0.1,1.1,0.2,1.8,0.4c7,1.4,14.4,3,21.2,6.6c1.3,0.7,2.8,2,3,3.1c0.2,1.2-1.2,2-2.9,2.8c-6.2,2.9-13.3,4.8-21.6,5.9
	c-1.1,0.1-1.8,0.2-2.4,0.2c-1,0-1.1,0-1.1-3.3C42.4,478.9,42.4,469.7,42.5,469.7z M42.5,507.5c0-0.9,0-1.8,0-2.6c0-2.5,0-5,0-7.5
	c0-2,0.3-2,0.8-2c0.3,0,0.8,0.1,1.5,0.2c7.7,1.7,15.2,3.5,21.9,7.4c0.6,0.4,1.2,0.8,1.8,1.3c1.3,1.1,1.9,2.1,1.8,2.8
	c-0.1,0.7-0.8,1.5-2.2,2.3c-5.5,3.1-9.9,4.5-14.3,4.5c-1.5,0-3.1-0.2-4.6-0.5c-1.3-0.3-2.8-0.5-4.3-0.6c-1,0-1.4-0.5-1.9-0.6
	C42.4,512.1,42.6,507.5,42.5,507.5L42.5,507.5z M42.9,531.1c0.1-0.9,0.1-1.8,0-2.7c0-0.4,0-0.8,0-1.2c0-0.1,0-0.1,0-0.2v-2
	c0-1.6,0-2.6,0.3-3c0.3-0.3,1.3-0.4,2.8-0.6c0.4,0,0.8-0.1,1.2-0.1c1.3-0.1,2.7-0.3,4-0.6c1.2-0.3,2.4-0.5,3.6-0.5
	c4,0,7.7,1.8,11.8,4.4c0.7,0.5,1.6,1.2,1.6,2.1c0.1,0.8-0.5,1.8-1.5,2.7c-3.2,2.7-7,4-11.4,5.4c-0.2,0.1-0.4,0.1-0.7,0.1
	c-0.4,0-0.8-0.1-1.2-0.1c-1.2-0.2-2.4-0.4-3.6-0.7c-1.7-0.3-3.4-0.6-5.2-0.9C43.2,532.8,42.8,532.4,42.9,531.1L42.9,531.1z
	 M43.2,548.4c0-0.4,0-0.7,0-1.1v-0.5c0-0.5,0-1,0-1.4c0-1,0-1.8,0.1-2c0.1-0.2,0.8-0.3,1.6-0.4c0.5-0.1,1-0.2,1.6-0.3
	c1.4-0.3,2.8-0.6,4.2-0.9c1-0.2,2.1-0.5,3.2-0.7l0.4-0.1c0.4-0.1,0.8-0.2,1.1-0.2c0.1,0,0.2,0,0.2,0c5.6,1,9.6,2.9,12.7,6.1
	c0.5,0.5,0.8,1.3,0.8,2c0,0.7-0.3,1.2-0.8,1.6c-1.9,1.6-4.2,3.1-6.8,4.8c-0.2,0.1-0.5,0.2-0.8,0.2c-0.4,0-0.7-0.1-1-0.2
	c-3.3-1.5-6.8-1.8-10.3-2.1c-0.3,0-0.6,0-0.9,0c-0.4,0-0.9,0-1.3-0.1C44.1,552.6,43.3,551.7,43.2,548.4L43.2,548.4z M43.8,559.7
	c0-0.1-0.1-0.4,0-0.6c0.1-0.1,0.1-0.3,0.1-0.4v-0.5c0-0.1,0,0,0.2,0h0.1c0.1,0,0.1,0,0.2,0c0,0,0,0,0.1,0c0,0,0,0,0.1,0
	c0.6,0,1.2-0.1,1.8-0.2c0.9-0.1,1.8-0.2,2.6-0.2c1.1,0,1.9,0.2,2.7,0.5c0,0,0,0.1,0,0.1c0,0.1-0.1,0.2-0.1,0.2
	c-0.8,0.2-1.5,0.4-2.3,0.6c-1.8,0.5-3.5,1-5.2,1.2c0,0-0.1-0.1-0.1-0.2V560C43.9,559.9,43.9,559.8,43.8,559.7L43.8,559.7z
	 M43.7,569.5c0-1.9,0.7-3,2-3.3c3.4-0.8,6.8-1.7,10.1-2.5l4.2-1.1l0.6-0.1c2.6,0.1,8,3.7,9,6c0.6,1.5,0.3,2.9-1,4.3
	c-0.7,0.8-1.6,1.4-2.4,2c-1.1,0.7-2,1.1-3.1,1.1c-0.6,0-1.2-0.1-1.9-0.3c-4.4-1.3-8.9-2.2-13.3-3.1l-2.1-0.4c-1.5-0.3-2-0.7-2-2.1
	L43.7,569.5L43.7,569.5z M43.8,580.7c0-0.5,0.1-0.9,0-1.3c0-1,0-2,0.2-2.1c0,0,0.1,0,0.4,0c0.4,0,1,0.1,1.7,0.2
	c2.5,0.4,4.8,0.9,7.7,1.6c0.2,0,0.4,0.2,0.6,0.4c-0.2,0.2-0.3,0.3-0.4,0.3c-0.6,0.2-1.2,0.3-1.9,0.5c-2.5,0.6-5,1.2-7.5,1.5
	c-0.1,0-0.2,0-0.3,0c-0.2,0-0.3,0-0.3,0C43.7,581.5,43.8,581,43.8,580.7L43.8,580.7z M44,590.9c0,0,0-0.1,0-0.2
	c0.1-1.7,0.8-2.6,2.1-2.9l0.5-0.1c3.8-0.9,7.6-1.9,11.3-2.9c1.8-0.5,3.6-1,5.3-1.4l0.1,0c0.3-0.1,0.7-0.2,1-0.2c0.1,0,0.1,0,0.2,0
	c1.9,0.3,6.1,4.4,6.4,6.2c0.2,2-1,3.6-2.4,5.1c-1.5,1.5-3.1,2.9-5.4,2.9c-0.8,0-1.6-0.2-2.5-0.5c-4.2-1.5-8.6-2.5-12.9-3.5
	c-0.8-0.2-1.6-0.4-2.4-0.5c-0.7-0.2-1.1-0.4-1.3-0.7C43.8,591.8,43.8,591.4,44,590.9L44,590.9z M43.9,601.1c0-0.2,0-0.4,0-0.6
	c0-0.1,0-0.3,0.1-0.4c0-0.1,0.1-0.2,0.1-0.3c0-0.3,0-1.4,0.1-1.6c0,0,0,0,0.2,0c0.4,0,1,0.1,1.7,0.3c0,0,0.1,0,0.1,0h0.2
	c0.5,0,1.1,0,1.6,0.1c0.4,0,0.8,0.1,1.1,0.1c0.9,0.1,1.7,0.1,2.6,0.3c1,0.2,1.8,0.6,2.2,1.1c0.1,0.2,0.2,0.3,0.2,0.5
	c0,0.3-0.1,0.6-0.8,0.9c0,0-0.1,0-0.2,0.1c-0.2,0.1-0.4,0.2-0.7,0.2l-0.3,0l-0.4,0.1c-0.3,0.1-0.7,0.1-1,0.2
	c-0.6,0.1-1.2,0.3-1.9,0.5l-0.8,0.2c-0.9,0.3-1.9,0.5-2.8,0.8c-0.1,0-0.2,0-0.3,0c-0.5,0-0.8-0.3-1-0.8
	C43.9,602.3,43.9,601.7,43.9,601.1L43.9,601.1z M44.1,621.7c0.1-1.2,0-2.3,0-3.4c0-0.5,0-1,0-1.5v-1.7c0-1.2,0-2.4,0-3.6
	c0-0.9,0.2-1.2,1.1-1.3c5.8-1,11.9-2.3,17.9-5c0.3-0.1,0.7-0.2,1.1-0.2c0.7,0,1.3,0.2,1.7,0.4c3.2,2.2,5.9,4.4,5.9,8.3
	c-0.1,2.8-1.5,5.2-4.3,7.4c-3.3,2.5-6.9,4.4-10.9,5.5c-0.9,0.3-1.7,0.4-2.5,0.4c-1,0-2-0.2-2.9-0.7c-2-1-3.8-1.7-5.4-2.2
	C44.5,623.9,44,623.2,44.1,621.7L44.1,621.7z M69.5,654.5c-1.2,4.5-3.8,7.7-8,10.2c-0.5,0.3-1,0.4-1.5,0.4c-1.2,0-2.3-0.8-3.5-1.6
	c-0.2-0.1-0.4-0.3-0.6-0.4c-3.8-2.6-7.4-5.4-10.1-7.6c-0.7-0.5-1.2-1.7-1.3-2.5c-0.1-3.1-0.1-6.2-0.1-9.2c0-2,0-4.1,0-6.2
	c0-1.2,0.3-1.5,1.4-1.7c1.4-0.2,2.8-0.5,4.2-0.8c1.3-0.3,2.6-0.5,3.9-0.8c0.1,0,0.2,0,0.3,0c0.3,0,0.7,0.1,1,0.2
	c6,3.1,10,6.7,12.6,11.1c0.8,1.4,1.2,2.9,1.7,4.3c0,0.2-0.1,0.3-0.1,0.5C69.6,651.7,69.6,653,69.5,654.5L69.5,654.5z"/>
<path class="st0" d="M15.5,627.5L15.5,627.5c0,0,0,0.1,0,0.2C15.5,627.7,15.5,627.6,15.5,627.5L15.5,627.5z"/>
<path class="st0" d="M28.8,14c0,0,5.9-1.8,8.8-1.3"/>
<path class="st0" d="M29.5,19.9c0,0,5.4-1.3,7-1"/>
<path class="st0" d="M29.6,53.8c0,0,4.8-2.4,6.3-2.5"/>
<line class="st0" x1="37.8" y1="58.3" x2="29.6" y2="60.5"/>
<line class="st0" x1="30.2" y1="61.8" x2="30.7" y2="68.7"/>
<path class="st0" d="M30.5,96.8c0,0,6.5-1.4,7.4-1.3"/>
<path class="st0" d="M29.8,91.1c0,0,7-1.5,8-1.5"/>
<path class="st0" d="M13.3,61.5c0,0,3.1-3.1,4.9-3.7"/>
<line class="st0" x1="18.7" y1="64.7" x2="28" y2="61"/>
<path class="st0" d="M8.3,101.9c0,0,4.1-3.8,5.3-4.4"/>
<path class="st0" d="M11.9,105.9c0,0,6.8-4.9,7.6-5.1"/>
<line class="st0" x1="30.8" y1="105.3" x2="30.9" y2="114.2"/>
<path class="st0" d="M14.8,138.6c0,0,3.9-2.2,5.3-2.5"/>
<path class="st0" d="M28.6,139.6c0,0-8,2.2-8.6,2.8"/>
<line class="st0" x1="30.4" y1="139.4" x2="38.2" y2="137.8"/>
<line class="st0" x1="31.1" y1="164.6" x2="38.2" y2="163.6"/>
<line class="st0" x1="31" y1="171.2" x2="38.2" y2="169.6"/>
<line class="st0" x1="22.7" y1="203.1" x2="38" y2="199.2"/>
<line class="st0" x1="31.5" y1="206.9" x2="58.7" y2="201.7"/>
<line class="st0" x1="30.6" y1="240.2" x2="39.6" y2="237"/>
<line class="st0" x1="32.2" y1="245.5" x2="39.3" y2="243"/>
<line class="st0" x1="29.2" y1="270.2" x2="52.7" y2="263.3"/>
<line class="st0" x1="32.6" y1="274.8" x2="40.6" y2="272.1"/>
<line class="st0" x1="32.7" y1="318.7" x2="40.5" y2="316.6"/>
<line class="st0" x1="32.7" y1="324.4" x2="41.4" y2="322"/>
<line class="st0" x1="33" y1="352.6" x2="41.3" y2="350.5"/>
<line class="st0" x1="33.5" y1="358.1" x2="41.7" y2="356"/>
<line class="st0" x1="33.8" y1="386.3" x2="42" y2="384.8"/>
<line class="st0" x1="34.1" y1="391.9" x2="41.8" y2="390.5"/>
<line class="st0" x1="33.4" y1="422" x2="42.6" y2="420.4"/>
<line class="st0" x1="34.2" y1="427.5" x2="42.3" y2="426.3"/>
<line class="st0" x1="34.6" y1="454.7" x2="42.9" y2="453.6"/>
<line class="st0" x1="23.6" y1="486" x2="43.5" y2="485"/>
<line class="st0" x1="29.4" y1="491.1" x2="46.8" y2="490.4"/>
<line class="st0" x1="35.4" y1="522.2" x2="43.6" y2="521.7"/>
<path class="st0" d="M33.8,538.3c0,0,18-0.8,21.6-3.7"/>
<path class="st0" d="M21.3,516c0,0,27.3,0.9,32.6-2.1"/>
<path class="st0" d="M36,561.2c-0.2,0.3,15.7-0.7,25.5-6"/>
<path class="st0" d="M34.9,582.7c0,0,10.9,0.7,29-7"/>
<path class="st0" d="M35.3,588.7c0,0,16,0.5,35-8.9"/>
<path class="st0" d="M36.9,604.1c0,0,10,1.5,27.7-7"/>
<path class="st0" d="M54.2,627.1c0,0-12.5,3.6-19,3.5"/>
<path class="st0" d="M52.1,634.6c0,0,8.1-0.7,12.6-4.3"/>
<line class="st0" x1="37.2" y1="62.4" x2="37.4" y2="89.6"/>
<path class="st0" d="M17.4,168.8c0,0-1.7,0.6-5.7,2.7"/>
<path class="st0" d="M28.4,171.3c0,0-5.3,0.3-9.9,3.2"/>
<line class="st0" x1="38.8" y1="228.9" x2="38.9" y2="236.3"/>
<line class="st0" x1="32.3" y1="264.8" x2="32.3" y2="269.2"/>
<line class="st0" x1="38" y1="264.7" x2="38" y2="267.6"/>
<line class="st0" x1="33.2" y1="300.5" x2="33.3" y2="308.7"/>
<line class="st0" x1="39.7" y1="301.7" x2="40" y2="309.6"/>
<line class="st0" x1="33.7" y1="338.3" x2="34" y2="345.9"/>
<line class="st0" x1="40.5" y1="338.5" x2="40.4" y2="346.4"/>
<line class="st0" x1="34.1" y1="368" x2="34.5" y2="375.9"/>
<line class="st0" x1="40.9" y1="368.9" x2="41" y2="376"/>
<line class="st0" x1="34.5" y1="398.1" x2="34.8" y2="405.1"/>
<line class="st0" x1="41.3" y1="398.3" x2="41.3" y2="406.4"/>
<line class="st0" x1="34.9" y1="429.1" x2="35.2" y2="436"/>
<line class="st0" x1="41.8" y1="430.2" x2="42" y2="437"/>
<path class="st0" d="M42.7,459.2c0,0-0.5,0.2-11.8,2l4.5-0.4"/>
<line class="st0" x1="35.4" y1="460.5" x2="35.7" y2="466"/>
<line class="st0" x1="42.2" y1="459.8" x2="42.3" y2="465.9"/>
<line class="st0" x1="42.7" y1="511.2" x2="42.7" y2="515.8"/>
<line class="st0" x1="36.1" y1="531.6" x2="36.2" y2="538.2"/>
<line class="st0" x1="42.9" y1="531.5" x2="43" y2="537.4"/>
<line class="st0" x1="30.8" y1="139.6" x2="31.3" y2="147"/>
<line class="st0" x1="38" y1="139.8" x2="38" y2="147.8"/>
<line class="st0" x1="42.5" y1="490.6" x2="42.6" y2="496.9"/>
<line class="st0" x1="36" y1="494.6" x2="35.8" y2="490.8"/>
<path class="st0" d="M35.3,544.2c0,0,22-2.4,30.8-8"/>
<path class="st0" d="M34.8,567.3c0,0,21-1.2,33.4-8.7"/>
<line class="st0" x1="36.4" y1="549.5" x2="36.4" y2="558.8"/>
<line class="st0" x1="43.4" y1="550.1" x2="43.8" y2="559.1"/>
<line class="st0" x1="36.5" y1="570.4" x2="36.5" y2="577.2"/>
<line class="st0" x1="43.7" y1="570.6" x2="43.9" y2="577.2"/>
<line class="st0" x1="36.8" y1="591" x2="36.8" y2="598.4"/>
<line class="st0" x1="43.9" y1="591.7" x2="44.1" y2="599.9"/>
<path class="st0" d="M35.5,611c0,0,21.7,0.2,35.3-10.6"/>
<path class="st0" d="M34.5,636.6c0,0,10.9-0.2,16.9-1.7"/>
<line class="st0" x1="36.8" y1="621.1" x2="37" y2="630"/>
<line class="st0" x1="44.1" y1="622.9" x2="44.5" y2="629.5"/>
<polyline class="st0" points="44.6,652.7 44.6,662.7 44.5,673.1 "/>
</svg>
