<?xml version="1.0" encoding="UTF-8"?><svg id="Layer_1" xmlns="http://www.w3.org/2000/svg" viewBox="0 0 261.98 360.22"><defs><style>.cls-1{fill:none;stroke:#fff;stroke-miterlimit:10;}</style></defs><polygon class="cls-1" points="132.55 299.01 62.05 312.98 59.51 4.95 108.42 .5 261.48 7.49 258.94 312.98 227.82 359.34 196.7 316.15 132.55 299.01"/><polyline class="cls-1" points="261.48 7.49 229.94 14.54 229.94 145.49"/><line class="cls-1" x1="227.82" y1="359.34" x2="229.94" y2="163.78"/><line class="cls-1" x1="132.55" y1="299.01" x2="132.55" y2="99.19"/><line class="cls-1" x1="59.51" y1="4.95" x2="105.55" y2="37.44"/><path class="cls-1" d="M115.73,44.34l16.82,11.83v18.07l-40.22,108.93s1.64,5,7.39,3.58l41.51-110.25,5.73-15.01"/><line class="cls-1" x1="196.7" y1="316.15" x2="200.51" y2="120.76"/><polyline class="cls-1" points="200.51 99.19 200.51 61.47 229.94 14.54"/><path class="cls-1" d="M126.11,30.88l5.33-9.21c1.41-.48,20.92-6.81,35.3,5.25,6.18,5.19,8.86,11.63,10.02,15.27l-4.06,9.3,3.08,7.8,24.71,2.19"/><path class="cls-1" d="M172.72,51.48c-18.7-28.5-46.6-20.61-46.6-20.61L.72,64.61s-1.56,6.67,3.58,8.59l128.25-32.92c4.32-7.29-3.05-10.03-3.05-10.03"/><line class="cls-1" x1="138.13" y1="58.28" x2="132.55" y2="71.52"/><path class="cls-1" d="M234.74,156.92l-66.08-109.73s-8.45-3.06-6.92,5.49l64.17,109.97s7.33,2.32,8.83-5.73Z"/><path class="cls-1" d="M125.21,42.08s9.02,27.58,39.41,16.14"/><path class="cls-1" d="M128.24,48.14s1.37-9.19,17.73-4.77c14.54,3.93,14.52,16.19,14.52,16.19"/></svg>